<?xml version="1.0" encoding="UTF-8"?> <svg xmlns="http://www.w3.org/2000/svg" width="23" height="24" viewBox="0 0 23 24" fill="none"> <path d="M21.4167 7.5625H1.58333M4 23H19C20.6569 23 22 21.6569 22 20V7C22 5.34315 20.6569 4 19 4H4C2.34315 4 1 5.34315 1 7V20C1 21.6569 2.34315 23 4 23Z" stroke="#CAD6F3" stroke-width="1.8" stroke-linecap="round"></path> <path d="M6 4V1" stroke="#CAD6F3" stroke-width="1.8" stroke-linecap="round" stroke-linejoin="round"></path> <path d="M17 4V1" stroke="#CAD6F3" stroke-width="1.8" stroke-linecap="round" stroke-linejoin="round"></path> <path d="M6.85714 18H5M6.85714 14.5H5M6.85714 11H5M12.4286 18H10.5714M12.4286 14.5H10.5714M12.4286 11H10.5714M18 18H16.1429M18 14.5H16.1429M18 11H16.1429" stroke="#CAD6F3" stroke-width="1.8" stroke-linecap="round"></path> </svg> 