<?xml version="1.0" encoding="UTF-8"?> <svg xmlns="http://www.w3.org/2000/svg" width="696" height="183" viewBox="0 0 696 183" fill="none"> <g filter="url(#filter0_d)"> <rect x="32" y="32" width="632" height="119" rx="15" fill="white"></rect> </g> <path fill-rule="evenodd" clip-rule="evenodd" d="M92.3384 76.0038C88.3876 75.9152 84.4084 77.3784 81.3934 80.3934C75.5355 86.2512 75.5355 95.7487 81.3934 101.607C87.2513 107.464 96.7487 107.464 102.607 101.607C105.622 98.5916 107.085 94.6124 106.996 90.6615C106.969 89.4658 106.8 88.2727 106.489 87.1097C105.64 87.9232 104.762 88.6414 103.874 89.2638C101.847 90.6859 99.7739 91.608 97.8952 92.0255C95.0362 92.6608 93.0734 92.0734 92 91C90.9266 89.9266 90.3392 87.9638 90.9745 85.1049C91.392 83.2261 92.3142 81.1527 93.7363 79.1255C94.3587 78.2383 95.0768 77.36 95.8903 76.5107C94.7273 76.1996 93.5342 76.0306 92.3384 76.0038ZM100.485 99.4853C102.362 97.6085 103.487 95.2647 103.861 92.8279C98.5416 95.8965 92.957 96.1996 89.8787 93.1213C86.8004 90.043 87.1035 84.4584 90.1721 79.1392C87.7354 79.5128 85.3915 80.6379 83.5147 82.5147C78.8284 87.201 78.8284 94.799 83.5147 99.4853C88.201 104.172 95.799 104.172 100.485 99.4853Z" fill="#232323"></path> <path d="M149.806 70.993H151.36V83.53H155.224V85H149.806V70.993ZM164.325 83.95C163.457 84.818 162.358 85.252 161.028 85.252C159.698 85.252 158.592 84.818 157.71 83.95C156.842 83.082 156.408 81.99 156.408 80.674C156.408 79.344 156.842 78.245 157.71 77.377C158.592 76.509 159.698 76.075 161.028 76.075C162.358 76.075 163.457 76.509 164.325 77.377C165.207 78.245 165.648 79.344 165.648 80.674C165.648 81.99 165.207 83.082 164.325 83.95ZM163.191 78.28C162.603 77.706 161.882 77.419 161.028 77.419C160.174 77.419 159.446 77.713 158.844 78.301C158.256 78.875 157.962 79.666 157.962 80.674C157.962 81.682 158.263 82.473 158.865 83.047C159.467 83.621 160.188 83.908 161.028 83.908C161.868 83.908 162.589 83.621 163.191 83.047C163.793 82.473 164.094 81.682 164.094 80.674C164.094 79.652 163.793 78.854 163.191 78.28ZM167.967 85V76.285H169.479V77.23C169.969 76.46 170.627 76.075 171.453 76.075C171.873 76.075 172.321 76.194 172.797 76.432L172.083 77.797C171.803 77.601 171.509 77.503 171.201 77.503C170.669 77.503 170.263 77.685 169.983 78.049C169.647 78.497 169.479 79.281 169.479 80.401V85H167.967ZM180.136 82.081L181.396 82.774C181.102 83.334 180.745 83.803 180.325 84.181C179.527 84.895 178.561 85.252 177.427 85.252C176.251 85.252 175.236 84.874 174.382 84.118C173.542 83.348 173.122 82.207 173.122 80.695C173.122 79.365 173.5 78.266 174.256 77.398C175.026 76.516 176.055 76.075 177.343 76.075C178.799 76.075 179.898 76.607 180.64 77.671C181.228 78.511 181.501 79.603 181.459 80.947H174.676C174.69 81.829 174.963 82.543 175.495 83.089C176.027 83.635 176.678 83.908 177.448 83.908C178.134 83.908 178.729 83.698 179.233 83.278C179.625 82.942 179.926 82.543 180.136 82.081ZM174.781 79.687H179.905C179.779 79.001 179.478 78.455 179.002 78.049C178.54 77.629 177.987 77.419 177.343 77.419C176.713 77.419 176.153 77.636 175.663 78.07C175.187 78.49 174.893 79.029 174.781 79.687ZM183.779 85V76.285H185.291V77.209C185.809 76.453 186.53 76.075 187.454 76.075C188.504 76.075 189.295 76.544 189.827 77.482C190.429 76.544 191.304 76.075 192.452 76.075C194.342 76.075 195.287 77.209 195.287 79.477V85H193.775V79.708C193.775 79.288 193.747 78.938 193.691 78.658C193.649 78.364 193.502 78.084 193.25 77.818C193.012 77.552 192.669 77.419 192.221 77.419C190.933 77.419 190.289 78.329 190.289 80.149V85H188.777V79.834C188.777 78.224 188.252 77.419 187.202 77.419C185.928 77.419 185.291 78.364 185.291 80.254V85H183.779ZM203.056 76.285H204.568V85H203.056V76.285ZM203.056 73.744C202.846 73.534 202.741 73.282 202.741 72.988C202.741 72.694 202.846 72.442 203.056 72.232C203.266 72.022 203.518 71.917 203.812 71.917C204.106 71.917 204.358 72.022 204.568 72.232C204.778 72.442 204.883 72.694 204.883 72.988C204.883 73.282 204.778 73.534 204.568 73.744C204.358 73.954 204.106 74.059 203.812 74.059C203.518 74.059 203.266 73.954 203.056 73.744ZM208.936 83.782V89.83H207.424V76.285H208.936V77.503C209.706 76.551 210.7 76.075 211.918 76.075C213.22 76.075 214.249 76.537 215.005 77.461C215.775 78.371 216.16 79.449 216.16 80.695C216.16 81.955 215.782 83.033 215.026 83.929C214.27 84.811 213.255 85.252 211.981 85.252C210.707 85.252 209.692 84.762 208.936 83.782ZM211.771 83.908C212.625 83.908 213.311 83.6 213.829 82.984C214.347 82.354 214.606 81.591 214.606 80.695C214.606 79.687 214.319 78.889 213.745 78.301C213.171 77.713 212.506 77.419 211.75 77.419C210.994 77.419 210.322 77.713 209.734 78.301C209.146 78.889 208.852 79.68 208.852 80.674C208.852 81.584 209.118 82.354 209.65 82.984C210.196 83.6 210.903 83.908 211.771 83.908ZM223.308 77.65L222.069 78.301C221.831 77.713 221.425 77.419 220.851 77.419C220.557 77.419 220.305 77.503 220.095 77.671C219.899 77.839 219.801 78.084 219.801 78.406C219.801 78.7 219.892 78.924 220.074 79.078C220.27 79.218 220.648 79.407 221.208 79.645C222.314 80.107 223.042 80.555 223.392 80.989C223.7 81.367 223.854 81.836 223.854 82.396C223.854 83.278 223.567 83.978 222.993 84.496C222.433 85 221.719 85.252 220.851 85.252C220.683 85.252 220.501 85.231 220.305 85.189C220.109 85.161 219.836 85.091 219.486 84.979C219.15 84.853 218.828 84.622 218.52 84.286C218.212 83.95 217.974 83.53 217.806 83.026L219.108 82.48C219.458 83.432 220.046 83.908 220.872 83.908C221.334 83.908 221.684 83.768 221.922 83.488C222.174 83.208 222.3 82.886 222.3 82.522C222.3 82.326 222.265 82.158 222.195 82.018C222.139 81.864 222.034 81.731 221.88 81.619C221.74 81.507 221.6 81.416 221.46 81.346C221.334 81.276 221.145 81.185 220.893 81.073C219.773 80.583 219.066 80.156 218.772 79.792C218.506 79.456 218.373 79.029 218.373 78.511C218.373 77.755 218.604 77.16 219.066 76.726C219.542 76.292 220.158 76.075 220.914 76.075C222.02 76.075 222.818 76.6 223.308 77.65ZM227.373 76.285V81.367C227.373 82.249 227.513 82.872 227.793 83.236C228.143 83.684 228.654 83.908 229.326 83.908C229.998 83.908 230.509 83.684 230.859 83.236C231.139 82.872 231.279 82.249 231.279 81.367V76.285H232.791V81.535C232.791 82.711 232.525 83.586 231.993 84.16C231.307 84.888 230.418 85.252 229.326 85.252C228.234 85.252 227.345 84.888 226.659 84.16C226.127 83.586 225.861 82.711 225.861 81.535V76.285H227.373ZM235.643 85V76.285H237.155V77.209C237.673 76.453 238.394 76.075 239.318 76.075C240.368 76.075 241.159 76.544 241.691 77.482C242.293 76.544 243.168 76.075 244.316 76.075C246.206 76.075 247.151 77.209 247.151 79.477V85H245.639V79.708C245.639 79.288 245.611 78.938 245.555 78.658C245.513 78.364 245.366 78.084 245.114 77.818C244.876 77.552 244.533 77.419 244.085 77.419C242.797 77.419 242.153 78.329 242.153 80.149V85H240.641V79.834C240.641 78.224 240.116 77.419 239.066 77.419C237.792 77.419 237.155 78.364 237.155 80.254V85H235.643ZM261.598 77.524V69.691H263.11V85H261.598V83.782C260.842 84.762 259.848 85.252 258.616 85.252C257.44 85.252 256.439 84.846 255.613 84.034C254.787 83.222 254.374 82.088 254.374 80.632C254.374 79.204 254.78 78.091 255.592 77.293C256.418 76.481 257.426 76.075 258.616 76.075C259.876 76.075 260.87 76.558 261.598 77.524ZM258.784 77.419C257.986 77.419 257.307 77.706 256.747 78.28C256.201 78.84 255.928 79.624 255.928 80.632C255.928 81.598 256.18 82.389 256.684 83.005C257.202 83.607 257.902 83.908 258.784 83.908C259.666 83.908 260.366 83.593 260.884 82.963C261.416 82.333 261.682 81.563 261.682 80.653C261.682 79.617 261.388 78.819 260.8 78.259C260.212 77.699 259.54 77.419 258.784 77.419ZM273.345 83.95C272.477 84.818 271.378 85.252 270.048 85.252C268.718 85.252 267.612 84.818 266.73 83.95C265.862 83.082 265.428 81.99 265.428 80.674C265.428 79.344 265.862 78.245 266.73 77.377C267.612 76.509 268.718 76.075 270.048 76.075C271.378 76.075 272.477 76.509 273.345 77.377C274.227 78.245 274.668 79.344 274.668 80.674C274.668 81.99 274.227 83.082 273.345 83.95ZM272.211 78.28C271.623 77.706 270.902 77.419 270.048 77.419C269.194 77.419 268.466 77.713 267.864 78.301C267.276 78.875 266.982 79.666 266.982 80.674C266.982 81.682 267.283 82.473 267.885 83.047C268.487 83.621 269.208 83.908 270.048 83.908C270.888 83.908 271.609 83.621 272.211 83.047C272.813 82.473 273.114 81.682 273.114 80.674C273.114 79.652 272.813 78.854 272.211 78.28ZM276.987 69.691H278.499V85H276.987V69.691ZM288.726 83.95C287.858 84.818 286.759 85.252 285.429 85.252C284.099 85.252 282.993 84.818 282.111 83.95C281.243 83.082 280.809 81.99 280.809 80.674C280.809 79.344 281.243 78.245 282.111 77.377C282.993 76.509 284.099 76.075 285.429 76.075C286.759 76.075 287.858 76.509 288.726 77.377C289.608 78.245 290.049 79.344 290.049 80.674C290.049 81.99 289.608 83.082 288.726 83.95ZM287.592 78.28C287.004 77.706 286.283 77.419 285.429 77.419C284.575 77.419 283.847 77.713 283.245 78.301C282.657 78.875 282.363 79.666 282.363 80.674C282.363 81.682 282.664 82.473 283.266 83.047C283.868 83.621 284.589 83.908 285.429 83.908C286.269 83.908 286.99 83.621 287.592 83.047C288.194 82.473 288.495 81.682 288.495 80.674C288.495 79.652 288.194 78.854 287.592 78.28ZM292.367 85V76.285H293.879V77.23C294.369 76.46 295.027 76.075 295.853 76.075C296.273 76.075 296.721 76.194 297.197 76.432L296.483 77.797C296.203 77.601 295.909 77.503 295.601 77.503C295.069 77.503 294.663 77.685 294.383 78.049C294.047 78.497 293.879 79.281 293.879 80.401V85H292.367ZM308.313 77.65L307.074 78.301C306.836 77.713 306.43 77.419 305.856 77.419C305.562 77.419 305.31 77.503 305.1 77.671C304.904 77.839 304.806 78.084 304.806 78.406C304.806 78.7 304.897 78.924 305.079 79.078C305.275 79.218 305.653 79.407 306.213 79.645C307.319 80.107 308.047 80.555 308.397 80.989C308.705 81.367 308.859 81.836 308.859 82.396C308.859 83.278 308.572 83.978 307.998 84.496C307.438 85 306.724 85.252 305.856 85.252C305.688 85.252 305.506 85.231 305.31 85.189C305.114 85.161 304.841 85.091 304.491 84.979C304.155 84.853 303.833 84.622 303.525 84.286C303.217 83.95 302.979 83.53 302.811 83.026L304.113 82.48C304.463 83.432 305.051 83.908 305.877 83.908C306.339 83.908 306.689 83.768 306.927 83.488C307.179 83.208 307.305 82.886 307.305 82.522C307.305 82.326 307.27 82.158 307.2 82.018C307.144 81.864 307.039 81.731 306.885 81.619C306.745 81.507 306.605 81.416 306.465 81.346C306.339 81.276 306.15 81.185 305.898 81.073C304.778 80.583 304.071 80.156 303.777 79.792C303.511 79.456 303.378 79.029 303.378 78.511C303.378 77.755 303.609 77.16 304.071 76.726C304.547 76.292 305.163 76.075 305.919 76.075C307.025 76.075 307.823 76.6 308.313 77.65ZM310.866 76.285H312.378V85H310.866V76.285ZM310.866 73.744C310.656 73.534 310.551 73.282 310.551 72.988C310.551 72.694 310.656 72.442 310.866 72.232C311.076 72.022 311.328 71.917 311.622 71.917C311.916 71.917 312.168 72.022 312.378 72.232C312.588 72.442 312.693 72.694 312.693 72.988C312.693 73.282 312.588 73.534 312.378 73.744C312.168 73.954 311.916 74.059 311.622 74.059C311.328 74.059 311.076 73.954 310.866 73.744ZM318.3 77.671H316.788V85H315.276V77.671H314.352V76.285H315.276V73.135H316.788V76.285H318.3V77.671ZM331.304 77.524V76.285H332.816V85H331.304V83.782C330.548 84.762 329.554 85.252 328.322 85.252C327.146 85.252 326.145 84.846 325.319 84.034C324.493 83.222 324.08 82.088 324.08 80.632C324.08 79.204 324.486 78.091 325.298 77.293C326.124 76.481 327.132 76.075 328.322 76.075C329.582 76.075 330.576 76.558 331.304 77.524ZM328.49 77.419C327.692 77.419 327.013 77.706 326.453 78.28C325.907 78.84 325.634 79.624 325.634 80.632C325.634 81.598 325.886 82.389 326.39 83.005C326.908 83.607 327.608 83.908 328.49 83.908C329.372 83.908 330.072 83.593 330.59 82.963C331.122 82.333 331.388 81.563 331.388 80.653C331.388 79.617 331.094 78.819 330.506 78.259C329.918 77.699 329.246 77.419 328.49 77.419ZM335.68 85V76.285H337.192V77.209C337.71 76.453 338.431 76.075 339.355 76.075C340.405 76.075 341.196 76.544 341.728 77.482C342.33 76.544 343.205 76.075 344.353 76.075C346.243 76.075 347.188 77.209 347.188 79.477V85H345.676V79.708C345.676 79.288 345.648 78.938 345.592 78.658C345.55 78.364 345.403 78.084 345.151 77.818C344.913 77.552 344.57 77.419 344.122 77.419C342.834 77.419 342.19 78.329 342.19 80.149V85H340.678V79.834C340.678 78.224 340.153 77.419 339.103 77.419C337.829 77.419 337.192 78.364 337.192 80.254V85H335.68ZM356.524 82.081L357.784 82.774C357.49 83.334 357.133 83.803 356.713 84.181C355.915 84.895 354.949 85.252 353.815 85.252C352.639 85.252 351.624 84.874 350.77 84.118C349.93 83.348 349.51 82.207 349.51 80.695C349.51 79.365 349.888 78.266 350.644 77.398C351.414 76.516 352.443 76.075 353.731 76.075C355.187 76.075 356.286 76.607 357.028 77.671C357.616 78.511 357.889 79.603 357.847 80.947H351.064C351.078 81.829 351.351 82.543 351.883 83.089C352.415 83.635 353.066 83.908 353.836 83.908C354.522 83.908 355.117 83.698 355.621 83.278C356.013 82.942 356.314 82.543 356.524 82.081ZM351.169 79.687H356.293C356.167 79.001 355.866 78.455 355.39 78.049C354.928 77.629 354.375 77.419 353.731 77.419C353.101 77.419 352.541 77.636 352.051 78.07C351.575 78.49 351.281 79.029 351.169 79.687ZM363.232 77.671H361.72V85H360.208V77.671H359.284V76.285H360.208V73.135H361.72V76.285H363.232V77.671ZM363.733 87.793L365.455 82.942L366.841 83.446L364.72 88.192L363.733 87.793ZM382.147 76.915V78.721C381.461 77.853 380.551 77.419 379.417 77.419C378.563 77.419 377.835 77.713 377.233 78.301C376.631 78.875 376.33 79.666 376.33 80.674C376.33 81.682 376.631 82.473 377.233 83.047C377.835 83.621 378.556 83.908 379.396 83.908C380.516 83.908 381.454 83.453 382.21 82.543V84.349C381.384 84.951 380.46 85.252 379.438 85.252C378.08 85.252 376.96 84.825 376.078 83.971C375.21 83.103 374.776 82.011 374.776 80.695C374.776 79.365 375.217 78.266 376.099 77.398C376.981 76.516 378.094 76.075 379.438 76.075C380.446 76.075 381.349 76.355 382.147 76.915ZM391.901 83.95C391.033 84.818 389.934 85.252 388.604 85.252C387.274 85.252 386.168 84.818 385.286 83.95C384.418 83.082 383.984 81.99 383.984 80.674C383.984 79.344 384.418 78.245 385.286 77.377C386.168 76.509 387.274 76.075 388.604 76.075C389.934 76.075 391.033 76.509 391.901 77.377C392.783 78.245 393.224 79.344 393.224 80.674C393.224 81.99 392.783 83.082 391.901 83.95ZM390.767 78.28C390.179 77.706 389.458 77.419 388.604 77.419C387.75 77.419 387.022 77.713 386.42 78.301C385.832 78.875 385.538 79.666 385.538 80.674C385.538 81.682 385.839 82.473 386.441 83.047C387.043 83.621 387.764 83.908 388.604 83.908C389.444 83.908 390.165 83.621 390.767 83.047C391.369 82.473 391.67 81.682 391.67 80.674C391.67 79.652 391.369 78.854 390.767 78.28ZM395.542 85V76.285H397.054V77.293C397.67 76.481 398.503 76.075 399.553 76.075C400.673 76.075 401.506 76.474 402.052 77.272C402.388 77.762 402.556 78.539 402.556 79.603V85H401.044V79.645C401.044 78.931 400.911 78.399 400.645 78.049C400.323 77.629 399.847 77.419 399.217 77.419C398.573 77.419 398.062 77.643 397.684 78.091C397.264 78.581 397.054 79.365 397.054 80.443V85H395.542ZM410.237 77.65L408.998 78.301C408.76 77.713 408.354 77.419 407.78 77.419C407.486 77.419 407.234 77.503 407.024 77.671C406.828 77.839 406.73 78.084 406.73 78.406C406.73 78.7 406.821 78.924 407.003 79.078C407.199 79.218 407.577 79.407 408.137 79.645C409.243 80.107 409.971 80.555 410.321 80.989C410.629 81.367 410.783 81.836 410.783 82.396C410.783 83.278 410.496 83.978 409.922 84.496C409.362 85 408.648 85.252 407.78 85.252C407.612 85.252 407.43 85.231 407.234 85.189C407.038 85.161 406.765 85.091 406.415 84.979C406.079 84.853 405.757 84.622 405.449 84.286C405.141 83.95 404.903 83.53 404.735 83.026L406.037 82.48C406.387 83.432 406.975 83.908 407.801 83.908C408.263 83.908 408.613 83.768 408.851 83.488C409.103 83.208 409.229 82.886 409.229 82.522C409.229 82.326 409.194 82.158 409.124 82.018C409.068 81.864 408.963 81.731 408.809 81.619C408.669 81.507 408.529 81.416 408.389 81.346C408.263 81.276 408.074 81.185 407.822 81.073C406.702 80.583 405.995 80.156 405.701 79.792C405.435 79.456 405.302 79.029 405.302 78.511C405.302 77.755 405.533 77.16 405.995 76.726C406.471 76.292 407.087 76.075 407.843 76.075C408.949 76.075 409.747 76.6 410.237 77.65ZM419.257 82.081L420.517 82.774C420.223 83.334 419.866 83.803 419.446 84.181C418.648 84.895 417.682 85.252 416.548 85.252C415.372 85.252 414.357 84.874 413.503 84.118C412.663 83.348 412.243 82.207 412.243 80.695C412.243 79.365 412.621 78.266 413.377 77.398C414.147 76.516 415.176 76.075 416.464 76.075C417.92 76.075 419.019 76.607 419.761 77.671C420.349 78.511 420.622 79.603 420.58 80.947H413.797C413.811 81.829 414.084 82.543 414.616 83.089C415.148 83.635 415.799 83.908 416.569 83.908C417.255 83.908 417.85 83.698 418.354 83.278C418.746 82.942 419.047 82.543 419.257 82.081ZM413.902 79.687H419.026C418.9 79.001 418.599 78.455 418.123 78.049C417.661 77.629 417.108 77.419 416.464 77.419C415.834 77.419 415.274 77.636 414.784 78.07C414.308 78.49 414.014 79.029 413.902 79.687ZM429.725 76.915V78.721C429.039 77.853 428.129 77.419 426.995 77.419C426.141 77.419 425.413 77.713 424.811 78.301C424.209 78.875 423.908 79.666 423.908 80.674C423.908 81.682 424.209 82.473 424.811 83.047C425.413 83.621 426.134 83.908 426.974 83.908C428.094 83.908 429.032 83.453 429.788 82.543V84.349C428.962 84.951 428.038 85.252 427.016 85.252C425.658 85.252 424.538 84.825 423.656 83.971C422.788 83.103 422.354 82.011 422.354 80.695C422.354 79.365 422.795 78.266 423.677 77.398C424.559 76.516 425.672 76.075 427.016 76.075C428.024 76.075 428.927 76.355 429.725 76.915ZM435.174 77.671H433.662V85H432.15V77.671H431.226V76.285H432.15V73.135H433.662V76.285H435.174V77.671ZM443.067 82.081L444.327 82.774C444.033 83.334 443.676 83.803 443.256 84.181C442.458 84.895 441.492 85.252 440.358 85.252C439.182 85.252 438.167 84.874 437.313 84.118C436.473 83.348 436.053 82.207 436.053 80.695C436.053 79.365 436.431 78.266 437.187 77.398C437.957 76.516 438.986 76.075 440.274 76.075C441.73 76.075 442.829 76.607 443.571 77.671C444.159 78.511 444.432 79.603 444.39 80.947H437.607C437.621 81.829 437.894 82.543 438.426 83.089C438.958 83.635 439.609 83.908 440.379 83.908C441.065 83.908 441.66 83.698 442.164 83.278C442.556 82.942 442.857 82.543 443.067 82.081ZM437.712 79.687H442.836C442.71 79.001 442.409 78.455 441.933 78.049C441.471 77.629 440.918 77.419 440.274 77.419C439.644 77.419 439.084 77.636 438.594 78.07C438.118 78.49 437.824 79.029 437.712 79.687ZM449.775 77.671H448.263V85H446.751V77.671H445.827V76.285H446.751V73.135H448.263V76.285H449.775V77.671ZM452.712 76.285V81.367C452.712 82.249 452.852 82.872 453.132 83.236C453.482 83.684 453.993 83.908 454.665 83.908C455.337 83.908 455.848 83.684 456.198 83.236C456.478 82.872 456.618 82.249 456.618 81.367V76.285H458.13V81.535C458.13 82.711 457.864 83.586 457.332 84.16C456.646 84.888 455.757 85.252 454.665 85.252C453.573 85.252 452.684 84.888 451.998 84.16C451.466 83.586 451.2 82.711 451.2 81.535V76.285H452.712ZM460.983 85V76.285H462.495V77.23C462.985 76.46 463.643 76.075 464.469 76.075C464.889 76.075 465.337 76.194 465.813 76.432L465.099 77.797C464.819 77.601 464.525 77.503 464.217 77.503C463.685 77.503 463.279 77.685 462.999 78.049C462.663 78.497 462.495 79.281 462.495 80.401V85H460.983ZM478.776 77.524V76.285H480.288V85H478.776V83.782C478.02 84.762 477.026 85.252 475.794 85.252C474.618 85.252 473.617 84.846 472.791 84.034C471.965 83.222 471.552 82.088 471.552 80.632C471.552 79.204 471.958 78.091 472.77 77.293C473.596 76.481 474.604 76.075 475.794 76.075C477.054 76.075 478.048 76.558 478.776 77.524ZM475.962 77.419C475.164 77.419 474.485 77.706 473.925 78.28C473.379 78.84 473.106 79.624 473.106 80.632C473.106 81.598 473.358 82.389 473.862 83.005C474.38 83.607 475.08 83.908 475.962 83.908C476.844 83.908 477.544 83.593 478.062 82.963C478.594 82.333 478.86 81.563 478.86 80.653C478.86 79.617 478.566 78.819 477.978 78.259C477.39 77.699 476.718 77.419 475.962 77.419ZM489.83 77.524V69.691H491.342V85H489.83V83.782C489.074 84.762 488.08 85.252 486.848 85.252C485.672 85.252 484.671 84.846 483.845 84.034C483.019 83.222 482.606 82.088 482.606 80.632C482.606 79.204 483.012 78.091 483.824 77.293C484.65 76.481 485.658 76.075 486.848 76.075C488.108 76.075 489.102 76.558 489.83 77.524ZM487.016 77.419C486.218 77.419 485.539 77.706 484.979 78.28C484.433 78.84 484.16 79.624 484.16 80.632C484.16 81.598 484.412 82.389 484.916 83.005C485.434 83.607 486.134 83.908 487.016 83.908C487.898 83.908 488.598 83.593 489.116 82.963C489.648 82.333 489.914 81.563 489.914 80.653C489.914 79.617 489.62 78.819 489.032 78.259C488.444 77.699 487.772 77.419 487.016 77.419ZM494 76.285H495.512V85H494V76.285ZM494 73.744C493.79 73.534 493.685 73.282 493.685 72.988C493.685 72.694 493.79 72.442 494 72.232C494.21 72.022 494.462 71.917 494.756 71.917C495.05 71.917 495.302 72.022 495.512 72.232C495.722 72.442 495.827 72.694 495.827 72.988C495.827 73.282 495.722 73.534 495.512 73.744C495.302 73.954 495.05 74.059 494.756 74.059C494.462 74.059 494.21 73.954 494 73.744ZM499.88 83.782V89.83H498.368V76.285H499.88V77.503C500.65 76.551 501.644 76.075 502.862 76.075C504.164 76.075 505.193 76.537 505.949 77.461C506.719 78.371 507.104 79.449 507.104 80.695C507.104 81.955 506.726 83.033 505.97 83.929C505.214 84.811 504.199 85.252 502.925 85.252C501.651 85.252 500.636 84.762 499.88 83.782ZM502.715 83.908C503.569 83.908 504.255 83.6 504.773 82.984C505.291 82.354 505.55 81.591 505.55 80.695C505.55 79.687 505.263 78.889 504.689 78.301C504.115 77.713 503.45 77.419 502.694 77.419C501.938 77.419 501.266 77.713 500.678 78.301C500.09 78.889 499.796 79.68 499.796 80.674C499.796 81.584 500.062 82.354 500.594 82.984C501.14 83.6 501.847 83.908 502.715 83.908ZM509.422 76.285H510.934V85H509.422V76.285ZM509.422 73.744C509.212 73.534 509.107 73.282 509.107 72.988C509.107 72.694 509.212 72.442 509.422 72.232C509.632 72.022 509.884 71.917 510.178 71.917C510.472 71.917 510.724 72.022 510.934 72.232C511.144 72.442 511.249 72.694 511.249 72.988C511.249 73.282 511.144 73.534 510.934 73.744C510.724 73.954 510.472 74.059 510.178 74.059C509.884 74.059 509.632 73.954 509.422 73.744ZM518.62 77.65L517.381 78.301C517.143 77.713 516.737 77.419 516.163 77.419C515.869 77.419 515.617 77.503 515.407 77.671C515.211 77.839 515.113 78.084 515.113 78.406C515.113 78.7 515.204 78.924 515.386 79.078C515.582 79.218 515.96 79.407 516.52 79.645C517.626 80.107 518.354 80.555 518.704 80.989C519.012 81.367 519.166 81.836 519.166 82.396C519.166 83.278 518.879 83.978 518.305 84.496C517.745 85 517.031 85.252 516.163 85.252C515.995 85.252 515.813 85.231 515.617 85.189C515.421 85.161 515.148 85.091 514.798 84.979C514.462 84.853 514.14 84.622 513.832 84.286C513.524 83.95 513.286 83.53 513.118 83.026L514.42 82.48C514.77 83.432 515.358 83.908 516.184 83.908C516.646 83.908 516.996 83.768 517.234 83.488C517.486 83.208 517.612 82.886 517.612 82.522C517.612 82.326 517.577 82.158 517.507 82.018C517.451 81.864 517.346 81.731 517.192 81.619C517.052 81.507 516.912 81.416 516.772 81.346C516.646 81.276 516.457 81.185 516.205 81.073C515.085 80.583 514.378 80.156 514.084 79.792C513.818 79.456 513.685 79.029 513.685 78.511C513.685 77.755 513.916 77.16 514.378 76.726C514.854 76.292 515.47 76.075 516.226 76.075C517.332 76.075 518.13 76.6 518.62 77.65ZM527.998 76.915V78.721C527.312 77.853 526.402 77.419 525.268 77.419C524.414 77.419 523.686 77.713 523.084 78.301C522.482 78.875 522.181 79.666 522.181 80.674C522.181 81.682 522.482 82.473 523.084 83.047C523.686 83.621 524.407 83.908 525.247 83.908C526.367 83.908 527.305 83.453 528.061 82.543V84.349C527.235 84.951 526.311 85.252 525.289 85.252C523.931 85.252 522.811 84.825 521.929 83.971C521.061 83.103 520.627 82.011 520.627 80.695C520.627 79.365 521.068 78.266 521.95 77.398C522.832 76.516 523.945 76.075 525.289 76.075C526.297 76.075 527.2 76.355 527.998 76.915ZM530.381 76.285H531.893V85H530.381V76.285ZM530.381 73.744C530.171 73.534 530.066 73.282 530.066 72.988C530.066 72.694 530.171 72.442 530.381 72.232C530.591 72.022 530.843 71.917 531.137 71.917C531.431 71.917 531.683 72.022 531.893 72.232C532.103 72.442 532.208 72.694 532.208 72.988C532.208 73.282 532.103 73.534 531.893 73.744C531.683 73.954 531.431 74.059 531.137 74.059C530.843 74.059 530.591 73.954 530.381 73.744ZM534.749 85V76.285H536.261V77.293C536.877 76.481 537.71 76.075 538.76 76.075C539.88 76.075 540.713 76.474 541.259 77.272C541.595 77.762 541.763 78.539 541.763 79.603V85H540.251V79.645C540.251 78.931 540.118 78.399 539.852 78.049C539.53 77.629 539.054 77.419 538.424 77.419C537.78 77.419 537.269 77.643 536.891 78.091C536.471 78.581 536.261 79.365 536.261 80.443V85H534.749ZM551.292 77.524V76.285H552.804V84.79C552.804 86.316 552.524 87.457 551.964 88.213C551.166 89.291 550.004 89.83 548.478 89.83C547.19 89.83 546.154 89.438 545.37 88.654C544.614 87.898 544.236 86.96 544.236 85.84H545.727C545.727 86.54 545.951 87.142 546.399 87.646C546.903 88.206 547.603 88.486 548.499 88.486C549.549 88.486 550.319 88.08 550.809 87.268C551.131 86.75 551.292 86.008 551.292 85.042V83.782C550.536 84.762 549.542 85.252 548.31 85.252C547.106 85.252 546.112 84.86 545.328 84.076C544.488 83.236 544.068 82.088 544.068 80.632C544.068 79.218 544.488 78.091 545.328 77.251C546.14 76.467 547.134 76.075 548.31 76.075C549.556 76.075 550.55 76.558 551.292 77.524ZM548.478 77.419C547.708 77.419 547.05 77.692 546.504 78.238C545.916 78.84 545.622 79.638 545.622 80.632C545.622 81.738 545.951 82.592 546.609 83.194C547.127 83.67 547.75 83.908 548.478 83.908C549.262 83.908 549.899 83.663 550.389 83.173C551.047 82.543 551.376 81.703 551.376 80.653C551.376 79.603 551.068 78.784 550.452 78.196C549.934 77.678 549.276 77.419 548.478 77.419ZM567.037 82.081L568.297 82.774C568.003 83.334 567.646 83.803 567.226 84.181C566.428 84.895 565.462 85.252 564.328 85.252C563.152 85.252 562.137 84.874 561.283 84.118C560.443 83.348 560.023 82.207 560.023 80.695C560.023 79.365 560.401 78.266 561.157 77.398C561.927 76.516 562.956 76.075 564.244 76.075C565.7 76.075 566.799 76.607 567.541 77.671C568.129 78.511 568.402 79.603 568.36 80.947H561.577C561.591 81.829 561.864 82.543 562.396 83.089C562.928 83.635 563.579 83.908 564.349 83.908C565.035 83.908 565.63 83.698 566.134 83.278C566.526 82.942 566.827 82.543 567.037 82.081ZM561.682 79.687H566.806C566.68 79.001 566.379 78.455 565.903 78.049C565.441 77.629 564.888 77.419 564.244 77.419C563.614 77.419 563.054 77.636 562.564 78.07C562.088 78.49 561.794 79.029 561.682 79.687ZM570.679 69.691H572.191V85H570.679V69.691ZM575.047 76.285H576.559V85H575.047V76.285ZM575.047 73.744C574.837 73.534 574.732 73.282 574.732 72.988C574.732 72.694 574.837 72.442 575.047 72.232C575.257 72.022 575.509 71.917 575.803 71.917C576.097 71.917 576.349 72.022 576.559 72.232C576.769 72.442 576.874 72.694 576.874 72.988C576.874 73.282 576.769 73.534 576.559 73.744C576.349 73.954 576.097 74.059 575.803 74.059C575.509 74.059 575.257 73.954 575.047 73.744ZM582.481 77.671H580.969V85H579.457V77.671H578.533V76.285H579.457V73.135H580.969V76.285H582.481V77.671ZM590.32 76.285V81.367C590.32 82.249 590.46 82.872 590.74 83.236C591.09 83.684 591.601 83.908 592.273 83.908C592.945 83.908 593.456 83.684 593.806 83.236C594.086 82.872 594.226 82.249 594.226 81.367V76.285H595.738V81.535C595.738 82.711 595.472 83.586 594.94 84.16C594.254 84.888 593.365 85.252 592.273 85.252C591.181 85.252 590.292 84.888 589.606 84.16C589.074 83.586 588.808 82.711 588.808 81.535V76.285H590.32ZM601.656 77.671H600.144V85H598.632V77.671H597.708V76.285H598.632V73.135H600.144V76.285H601.656V77.671ZM156.106 104.524V103.285H157.618V112H156.106V110.782C155.35 111.762 154.356 112.252 153.124 112.252C151.948 112.252 150.947 111.846 150.121 111.034C149.295 110.222 148.882 109.088 148.882 107.632C148.882 106.204 149.288 105.091 150.1 104.293C150.926 103.481 151.934 103.075 153.124 103.075C154.384 103.075 155.378 103.558 156.106 104.524ZM153.292 104.419C152.494 104.419 151.815 104.706 151.255 105.28C150.709 105.84 150.436 106.624 150.436 107.632C150.436 108.598 150.688 109.389 151.192 110.005C151.71 110.607 152.41 110.908 153.292 110.908C154.174 110.908 154.874 110.593 155.392 109.963C155.924 109.333 156.19 108.563 156.19 107.653C156.19 106.617 155.896 105.819 155.308 105.259C154.72 104.699 154.048 104.419 153.292 104.419ZM160.482 96.691H161.994V112H160.482V96.691ZM164.85 103.285H166.362V112H164.85V103.285ZM164.85 100.744C164.64 100.534 164.535 100.282 164.535 99.988C164.535 99.694 164.64 99.442 164.85 99.232C165.06 99.022 165.312 98.917 165.606 98.917C165.9 98.917 166.152 99.022 166.362 99.232C166.572 99.442 166.677 99.694 166.677 99.988C166.677 100.282 166.572 100.534 166.362 100.744C166.152 100.954 165.9 101.059 165.606 101.059C165.312 101.059 165.06 100.954 164.85 100.744ZM175.896 104.524V103.285H177.408V116.83H175.896V110.782C175.14 111.762 174.146 112.252 172.914 112.252C171.738 112.252 170.737 111.846 169.911 111.034C169.085 110.222 168.672 109.088 168.672 107.632C168.672 106.204 169.078 105.091 169.89 104.293C170.716 103.481 171.724 103.075 172.914 103.075C174.174 103.075 175.168 103.558 175.896 104.524ZM173.082 104.419C172.284 104.419 171.605 104.706 171.045 105.28C170.499 105.84 170.226 106.624 170.226 107.632C170.226 108.598 170.478 109.389 170.982 110.005C171.5 110.607 172.2 110.908 173.082 110.908C173.964 110.908 174.664 110.593 175.182 109.963C175.714 109.333 175.98 108.563 175.98 107.653C175.98 106.617 175.686 105.819 175.098 105.259C174.51 104.699 173.838 104.419 173.082 104.419ZM181.784 103.285V108.367C181.784 109.249 181.924 109.872 182.204 110.236C182.554 110.684 183.065 110.908 183.737 110.908C184.409 110.908 184.92 110.684 185.27 110.236C185.55 109.872 185.69 109.249 185.69 108.367V103.285H187.202V108.535C187.202 109.711 186.936 110.586 186.404 111.16C185.718 111.888 184.829 112.252 183.737 112.252C182.645 112.252 181.756 111.888 181.07 111.16C180.538 110.586 180.272 109.711 180.272 108.535V103.285H181.784ZM196.732 104.524V103.285H198.244V112H196.732V110.782C195.976 111.762 194.982 112.252 193.75 112.252C192.574 112.252 191.573 111.846 190.747 111.034C189.921 110.222 189.508 109.088 189.508 107.632C189.508 106.204 189.914 105.091 190.726 104.293C191.552 103.481 192.56 103.075 193.75 103.075C195.01 103.075 196.004 103.558 196.732 104.524ZM193.918 104.419C193.12 104.419 192.441 104.706 191.881 105.28C191.335 105.84 191.062 106.624 191.062 107.632C191.062 108.598 191.314 109.389 191.818 110.005C192.336 110.607 193.036 110.908 193.918 110.908C194.8 110.908 195.5 110.593 196.018 109.963C196.55 109.333 196.816 108.563 196.816 107.653C196.816 106.617 196.522 105.819 195.934 105.259C195.346 104.699 194.674 104.419 193.918 104.419ZM201.108 112V103.285H202.62V104.209C203.138 103.453 203.859 103.075 204.783 103.075C205.833 103.075 206.624 103.544 207.156 104.482C207.758 103.544 208.633 103.075 209.781 103.075C211.671 103.075 212.616 104.209 212.616 106.477V112H211.104V106.708C211.104 106.288 211.076 105.938 211.02 105.658C210.978 105.364 210.831 105.084 210.579 104.818C210.341 104.552 209.998 104.419 209.55 104.419C208.262 104.419 207.618 105.329 207.618 107.149V112H206.106V106.834C206.106 105.224 205.581 104.419 204.531 104.419C203.257 104.419 202.62 105.364 202.62 107.254V112H201.108ZM214.56 114.793L216.282 109.942L217.668 110.446L215.547 115.192L214.56 114.793ZM227.66 110.782V116.83H226.148V103.285H227.66V104.503C228.43 103.551 229.424 103.075 230.642 103.075C231.944 103.075 232.973 103.537 233.729 104.461C234.499 105.371 234.884 106.449 234.884 107.695C234.884 108.955 234.506 110.033 233.75 110.929C232.994 111.811 231.979 112.252 230.705 112.252C229.431 112.252 228.416 111.762 227.66 110.782ZM230.495 110.908C231.349 110.908 232.035 110.6 232.553 109.984C233.071 109.354 233.33 108.591 233.33 107.695C233.33 106.687 233.043 105.889 232.469 105.301C231.895 104.713 231.23 104.419 230.474 104.419C229.718 104.419 229.046 104.713 228.458 105.301C227.87 105.889 227.576 106.68 227.576 107.674C227.576 108.584 227.842 109.354 228.374 109.984C228.92 110.6 229.627 110.908 230.495 110.908ZM238.713 103.285V108.367C238.713 109.249 238.853 109.872 239.133 110.236C239.483 110.684 239.994 110.908 240.666 110.908C241.338 110.908 241.849 110.684 242.199 110.236C242.479 109.872 242.619 109.249 242.619 108.367V103.285H244.131V108.535C244.131 109.711 243.865 110.586 243.333 111.16C242.647 111.888 241.758 112.252 240.666 112.252C239.574 112.252 238.685 111.888 237.999 111.16C237.467 110.586 237.201 109.711 237.201 108.535V103.285H238.713ZM246.984 112V103.285H248.496V104.23C248.986 103.46 249.644 103.075 250.47 103.075C250.89 103.075 251.338 103.194 251.814 103.432L251.1 104.797C250.82 104.601 250.526 104.503 250.218 104.503C249.686 104.503 249.28 104.685 249 105.049C248.664 105.497 248.496 106.281 248.496 107.401V112H246.984ZM254.71 103.285V108.367C254.71 109.249 254.85 109.872 255.13 110.236C255.48 110.684 255.991 110.908 256.663 110.908C257.335 110.908 257.846 110.684 258.196 110.236C258.476 109.872 258.616 109.249 258.616 108.367V103.285H260.128V108.535C260.128 109.711 259.862 110.586 259.33 111.16C258.644 111.888 257.755 112.252 256.663 112.252C255.571 112.252 254.682 111.888 253.996 111.16C253.464 110.586 253.198 109.711 253.198 108.535V103.285H254.71ZM267.81 104.65L266.571 105.301C266.333 104.713 265.927 104.419 265.353 104.419C265.059 104.419 264.807 104.503 264.597 104.671C264.401 104.839 264.303 105.084 264.303 105.406C264.303 105.7 264.394 105.924 264.576 106.078C264.772 106.218 265.15 106.407 265.71 106.645C266.816 107.107 267.544 107.555 267.894 107.989C268.202 108.367 268.356 108.836 268.356 109.396C268.356 110.278 268.069 110.978 267.495 111.496C266.935 112 266.221 112.252 265.353 112.252C265.185 112.252 265.003 112.231 264.807 112.189C264.611 112.161 264.338 112.091 263.988 111.979C263.652 111.853 263.33 111.622 263.022 111.286C262.714 110.95 262.476 110.53 262.308 110.026L263.61 109.48C263.96 110.432 264.548 110.908 265.374 110.908C265.836 110.908 266.186 110.768 266.424 110.488C266.676 110.208 266.802 109.886 266.802 109.522C266.802 109.326 266.767 109.158 266.697 109.018C266.641 108.864 266.536 108.731 266.382 108.619C266.242 108.507 266.102 108.416 265.962 108.346C265.836 108.276 265.647 108.185 265.395 108.073C264.275 107.583 263.568 107.156 263.274 106.792C263.008 106.456 262.875 106.029 262.875 105.511C262.875 104.755 263.106 104.16 263.568 103.726C264.044 103.292 264.66 103.075 265.416 103.075C266.522 103.075 267.32 103.6 267.81 104.65ZM280.094 104.65L278.855 105.301C278.617 104.713 278.211 104.419 277.637 104.419C277.343 104.419 277.091 104.503 276.881 104.671C276.685 104.839 276.587 105.084 276.587 105.406C276.587 105.7 276.678 105.924 276.86 106.078C277.056 106.218 277.434 106.407 277.994 106.645C279.1 107.107 279.828 107.555 280.178 107.989C280.486 108.367 280.64 108.836 280.64 109.396C280.64 110.278 280.353 110.978 279.779 111.496C279.219 112 278.505 112.252 277.637 112.252C277.469 112.252 277.287 112.231 277.091 112.189C276.895 112.161 276.622 112.091 276.272 111.979C275.936 111.853 275.614 111.622 275.306 111.286C274.998 110.95 274.76 110.53 274.592 110.026L275.894 109.48C276.244 110.432 276.832 110.908 277.658 110.908C278.12 110.908 278.47 110.768 278.708 110.488C278.96 110.208 279.086 109.886 279.086 109.522C279.086 109.326 279.051 109.158 278.981 109.018C278.925 108.864 278.82 108.731 278.666 108.619C278.526 108.507 278.386 108.416 278.246 108.346C278.12 108.276 277.931 108.185 277.679 108.073C276.559 107.583 275.852 107.156 275.558 106.792C275.292 106.456 275.159 106.029 275.159 105.511C275.159 104.755 275.39 104.16 275.852 103.726C276.328 103.292 276.944 103.075 277.7 103.075C278.806 103.075 279.604 103.6 280.094 104.65ZM282.647 103.285H284.159V112H282.647V103.285ZM282.647 100.744C282.437 100.534 282.332 100.282 282.332 99.988C282.332 99.694 282.437 99.442 282.647 99.232C282.857 99.022 283.109 98.917 283.403 98.917C283.697 98.917 283.949 99.022 284.159 99.232C284.369 99.442 284.474 99.694 284.474 99.988C284.474 100.282 284.369 100.534 284.159 100.744C283.949 100.954 283.697 101.059 283.403 101.059C283.109 101.059 282.857 100.954 282.647 100.744ZM290.081 104.671H288.569V112H287.057V104.671H286.133V103.285H287.057V100.135H288.569V103.285H290.081V104.671ZM303.085 104.524V103.285H304.597V112H303.085V110.782C302.329 111.762 301.335 112.252 300.103 112.252C298.927 112.252 297.926 111.846 297.1 111.034C296.274 110.222 295.861 109.088 295.861 107.632C295.861 106.204 296.267 105.091 297.079 104.293C297.905 103.481 298.913 103.075 300.103 103.075C301.363 103.075 302.357 103.558 303.085 104.524ZM300.271 104.419C299.473 104.419 298.794 104.706 298.234 105.28C297.688 105.84 297.415 106.624 297.415 107.632C297.415 108.598 297.667 109.389 298.171 110.005C298.689 110.607 299.389 110.908 300.271 110.908C301.153 110.908 301.853 110.593 302.371 109.963C302.903 109.333 303.169 108.563 303.169 107.653C303.169 106.617 302.875 105.819 302.287 105.259C301.699 104.699 301.027 104.419 300.271 104.419ZM307.461 112V103.285H308.973V104.209C309.491 103.453 310.212 103.075 311.136 103.075C312.186 103.075 312.977 103.544 313.509 104.482C314.111 103.544 314.986 103.075 316.134 103.075C318.024 103.075 318.969 104.209 318.969 106.477V112H317.457V106.708C317.457 106.288 317.429 105.938 317.373 105.658C317.331 105.364 317.184 105.084 316.932 104.818C316.694 104.552 316.351 104.419 315.903 104.419C314.615 104.419 313.971 105.329 313.971 107.149V112H312.459V106.834C312.459 105.224 311.934 104.419 310.884 104.419C309.61 104.419 308.973 105.364 308.973 107.254V112H307.461ZM328.305 109.081L329.565 109.774C329.271 110.334 328.914 110.803 328.494 111.181C327.696 111.895 326.73 112.252 325.596 112.252C324.42 112.252 323.405 111.874 322.551 111.118C321.711 110.348 321.291 109.207 321.291 107.695C321.291 106.365 321.669 105.266 322.425 104.398C323.195 103.516 324.224 103.075 325.512 103.075C326.968 103.075 328.067 103.607 328.809 104.671C329.397 105.511 329.67 106.603 329.628 107.947H322.845C322.859 108.829 323.132 109.543 323.664 110.089C324.196 110.635 324.847 110.908 325.617 110.908C326.303 110.908 326.898 110.698 327.402 110.278C327.794 109.942 328.095 109.543 328.305 109.081ZM322.95 106.687H328.074C327.948 106.001 327.647 105.455 327.171 105.049C326.709 104.629 326.156 104.419 325.512 104.419C324.882 104.419 324.322 104.636 323.832 105.07C323.356 105.49 323.062 106.029 322.95 106.687ZM335.014 104.671H333.502V112H331.99V104.671H331.066V103.285H331.99V100.135H333.502V103.285H335.014V104.671ZM341.34 96.691H342.852V112H341.34V96.691ZM347.22 103.285V108.367C347.22 109.249 347.36 109.872 347.64 110.236C347.99 110.684 348.501 110.908 349.173 110.908C349.845 110.908 350.356 110.684 350.706 110.236C350.986 109.872 351.126 109.249 351.126 108.367V103.285H352.638V108.535C352.638 109.711 352.372 110.586 351.84 111.16C351.154 111.888 350.265 112.252 349.173 112.252C348.081 112.252 347.192 111.888 346.506 111.16C345.974 110.586 345.708 109.711 345.708 108.535V103.285H347.22ZM362.316 103.915V105.721C361.63 104.853 360.72 104.419 359.586 104.419C358.732 104.419 358.004 104.713 357.402 105.301C356.8 105.875 356.499 106.666 356.499 107.674C356.499 108.682 356.8 109.473 357.402 110.047C358.004 110.621 358.725 110.908 359.565 110.908C360.685 110.908 361.623 110.453 362.379 109.543V111.349C361.553 111.951 360.629 112.252 359.606 112.252C358.249 112.252 357.129 111.825 356.247 110.971C355.379 110.103 354.945 109.011 354.945 107.695C354.945 106.365 355.386 105.266 356.268 104.398C357.15 103.516 358.263 103.075 359.606 103.075C360.615 103.075 361.518 103.355 362.316 103.915ZM367.765 104.671H366.253V112H364.741V104.671H363.817V103.285H364.741V100.135H366.253V103.285H367.765V104.671ZM370.702 103.285V108.367C370.702 109.249 370.842 109.872 371.122 110.236C371.472 110.684 371.983 110.908 372.655 110.908C373.327 110.908 373.838 110.684 374.188 110.236C374.468 109.872 374.608 109.249 374.608 108.367V103.285H376.12V108.535C376.12 109.711 375.854 110.586 375.322 111.16C374.636 111.888 373.747 112.252 372.655 112.252C371.563 112.252 370.674 111.888 369.988 111.16C369.456 110.586 369.19 109.711 369.19 108.535V103.285H370.702ZM383.802 104.65L382.563 105.301C382.325 104.713 381.919 104.419 381.345 104.419C381.051 104.419 380.799 104.503 380.589 104.671C380.393 104.839 380.295 105.084 380.295 105.406C380.295 105.7 380.386 105.924 380.568 106.078C380.764 106.218 381.142 106.407 381.702 106.645C382.808 107.107 383.536 107.555 383.886 107.989C384.194 108.367 384.348 108.836 384.348 109.396C384.348 110.278 384.061 110.978 383.487 111.496C382.927 112 382.213 112.252 381.345 112.252C381.177 112.252 380.995 112.231 380.799 112.189C380.603 112.161 380.33 112.091 379.98 111.979C379.644 111.853 379.322 111.622 379.014 111.286C378.706 110.95 378.468 110.53 378.3 110.026L379.602 109.48C379.952 110.432 380.54 110.908 381.366 110.908C381.828 110.908 382.178 110.768 382.416 110.488C382.668 110.208 382.794 109.886 382.794 109.522C382.794 109.326 382.759 109.158 382.689 109.018C382.633 108.864 382.528 108.731 382.374 108.619C382.234 108.507 382.094 108.416 381.954 108.346C381.828 108.276 381.639 108.185 381.387 108.073C380.267 107.583 379.56 107.156 379.266 106.792C379 106.456 378.867 106.029 378.867 105.511C378.867 104.755 379.098 104.16 379.56 103.726C380.036 103.292 380.652 103.075 381.408 103.075C382.514 103.075 383.312 103.6 383.802 104.65ZM389.996 103.285H391.676L394.28 109.165L396.884 103.285H398.564L394.28 112.567L389.996 103.285ZM406.625 109.081L407.885 109.774C407.591 110.334 407.234 110.803 406.814 111.181C406.016 111.895 405.05 112.252 403.916 112.252C402.74 112.252 401.725 111.874 400.871 111.118C400.031 110.348 399.611 109.207 399.611 107.695C399.611 106.365 399.989 105.266 400.745 104.398C401.515 103.516 402.544 103.075 403.832 103.075C405.288 103.075 406.387 103.607 407.129 104.671C407.717 105.511 407.99 106.603 407.948 107.947H401.165C401.179 108.829 401.452 109.543 401.984 110.089C402.516 110.635 403.167 110.908 403.937 110.908C404.623 110.908 405.218 110.698 405.722 110.278C406.114 109.942 406.415 109.543 406.625 109.081ZM401.27 106.687H406.394C406.268 106.001 405.967 105.455 405.491 105.049C405.029 104.629 404.476 104.419 403.832 104.419C403.202 104.419 402.642 104.636 402.152 105.07C401.676 105.49 401.382 106.029 401.27 106.687ZM410.267 112V103.285H411.779V104.293C412.395 103.481 413.228 103.075 414.278 103.075C415.398 103.075 416.231 103.474 416.777 104.272C417.113 104.762 417.281 105.539 417.281 106.603V112H415.769V106.645C415.769 105.931 415.636 105.399 415.37 105.049C415.048 104.629 414.572 104.419 413.942 104.419C413.298 104.419 412.787 104.643 412.409 105.091C411.989 105.581 411.779 106.365 411.779 107.443V112H410.267ZM426.599 109.081L427.859 109.774C427.565 110.334 427.208 110.803 426.788 111.181C425.99 111.895 425.024 112.252 423.89 112.252C422.714 112.252 421.699 111.874 420.845 111.118C420.005 110.348 419.585 109.207 419.585 107.695C419.585 106.365 419.963 105.266 420.719 104.398C421.489 103.516 422.518 103.075 423.806 103.075C425.262 103.075 426.361 103.607 427.103 104.671C427.691 105.511 427.964 106.603 427.922 107.947H421.139C421.153 108.829 421.426 109.543 421.958 110.089C422.49 110.635 423.141 110.908 423.911 110.908C424.597 110.908 425.192 110.698 425.696 110.278C426.088 109.942 426.389 109.543 426.599 109.081ZM421.244 106.687H426.368C426.242 106.001 425.941 105.455 425.465 105.049C425.003 104.629 424.45 104.419 423.806 104.419C423.176 104.419 422.616 104.636 422.126 105.07C421.65 105.49 421.356 106.029 421.244 106.687ZM430.241 112V103.285H431.753V104.293C432.369 103.481 433.202 103.075 434.252 103.075C435.372 103.075 436.205 103.474 436.751 104.272C437.087 104.762 437.255 105.539 437.255 106.603V112H435.743V106.645C435.743 105.931 435.61 105.399 435.344 105.049C435.022 104.629 434.546 104.419 433.916 104.419C433.272 104.419 432.761 104.643 432.383 105.091C431.963 105.581 431.753 106.365 431.753 107.443V112H430.241ZM446.784 104.524V103.285H448.296V112H446.784V110.782C446.028 111.762 445.034 112.252 443.802 112.252C442.626 112.252 441.625 111.846 440.799 111.034C439.973 110.222 439.56 109.088 439.56 107.632C439.56 106.204 439.966 105.091 440.778 104.293C441.604 103.481 442.612 103.075 443.802 103.075C445.062 103.075 446.056 103.558 446.784 104.524ZM443.97 104.419C443.172 104.419 442.493 104.706 441.933 105.28C441.387 105.84 441.114 106.624 441.114 107.632C441.114 108.598 441.366 109.389 441.87 110.005C442.388 110.607 443.088 110.908 443.97 110.908C444.852 110.908 445.552 110.593 446.07 109.963C446.602 109.333 446.868 108.563 446.868 107.653C446.868 106.617 446.574 105.819 445.986 105.259C445.398 104.699 444.726 104.419 443.97 104.419ZM454.225 104.671H452.713V112H451.201V104.671H450.277V103.285H451.201V100.135H452.713V103.285H454.225V104.671ZM455.651 103.285H457.163V112H455.651V103.285ZM455.651 100.744C455.441 100.534 455.336 100.282 455.336 99.988C455.336 99.694 455.441 99.442 455.651 99.232C455.861 99.022 456.113 98.917 456.407 98.917C456.701 98.917 456.953 99.022 457.163 99.232C457.373 99.442 457.478 99.694 457.478 99.988C457.478 100.282 457.373 100.534 457.163 100.744C456.953 100.954 456.701 101.059 456.407 101.059C456.113 101.059 455.861 100.954 455.651 100.744ZM464.849 104.65L463.61 105.301C463.372 104.713 462.966 104.419 462.392 104.419C462.098 104.419 461.846 104.503 461.636 104.671C461.44 104.839 461.342 105.084 461.342 105.406C461.342 105.7 461.433 105.924 461.615 106.078C461.811 106.218 462.189 106.407 462.749 106.645C463.855 107.107 464.583 107.555 464.933 107.989C465.241 108.367 465.395 108.836 465.395 109.396C465.395 110.278 465.108 110.978 464.534 111.496C463.974 112 463.26 112.252 462.392 112.252C462.224 112.252 462.042 112.231 461.846 112.189C461.65 112.161 461.377 112.091 461.027 111.979C460.691 111.853 460.369 111.622 460.061 111.286C459.753 110.95 459.515 110.53 459.347 110.026L460.649 109.48C460.999 110.432 461.587 110.908 462.413 110.908C462.875 110.908 463.225 110.768 463.463 110.488C463.715 110.208 463.841 109.886 463.841 109.522C463.841 109.326 463.806 109.158 463.736 109.018C463.68 108.864 463.575 108.731 463.421 108.619C463.281 108.507 463.141 108.416 463.001 108.346C462.875 108.276 462.686 108.185 462.434 108.073C461.314 107.583 460.607 107.156 460.313 106.792C460.047 106.456 459.914 106.029 459.914 105.511C459.914 104.755 460.145 104.16 460.607 103.726C461.083 103.292 461.699 103.075 462.455 103.075C463.561 103.075 464.359 103.6 464.849 104.65Z" fill="#232323"></path> <defs> <filter id="filter0_d" x="0" y="0" width="696" height="183" filterUnits="userSpaceOnUse" color-interpolation-filters="sRGB"> <feFlood flood-opacity="0" result="BackgroundImageFix"></feFlood> <feColorMatrix in="SourceAlpha" type="matrix" values="0 0 0 0 0 0 0 0 0 0 0 0 0 0 0 0 0 0 127 0"></feColorMatrix> <feOffset></feOffset> <feGaussianBlur stdDeviation="16"></feGaussianBlur> <feColorMatrix type="matrix" values="0 0 0 0 0.790833 0 0 0 0 0.813583 0 0 0 0 0.866667 0 0 0 0.25 0"></feColorMatrix> <feBlend mode="normal" in2="BackgroundImageFix" result="effect1_dropShadow"></feBlend> <feBlend mode="normal" in="SourceGraphic" in2="effect1_dropShadow" result="shape"></feBlend> </filter> </defs> </svg> 