<?xml version="1.0" encoding="UTF-8"?> <svg xmlns="http://www.w3.org/2000/svg" width="385" height="424" viewBox="0 0 385 424" fill="none"> <rect width="385" height="424" fill="white"></rect> <path d="M10.192 9.656H14.16L19.664 21.048L24.656 9.656H28.048L18.416 31H15.024L17.776 24.952L10.192 9.656ZM28.3278 17.528H33.6078C34.9518 17.528 35.9758 17.7947 36.6798 18.328C37.5118 18.9893 37.9278 19.8533 37.9278 20.92C37.9278 22.136 37.3944 23.0107 36.3278 23.544C37.0104 23.672 37.6184 23.9707 38.1518 24.44C38.8558 25.08 39.2078 25.944 39.2078 27.032C39.2078 28.3333 38.7171 29.3573 37.7358 30.104C36.9251 30.7013 35.8904 31 34.6318 31H28.3278V17.528ZM31.4638 22.776H33.0638C33.6184 22.776 34.0344 22.68 34.3118 22.488C34.7171 22.232 34.9198 21.8693 34.9198 21.4C34.9198 20.952 34.7384 20.6 34.3758 20.344C34.1198 20.1733 33.6611 20.088 32.9998 20.088H31.4638V22.776ZM31.4638 28.44H33.7998C34.5038 28.44 35.0478 28.312 35.4318 28.056C35.8584 27.7787 36.0718 27.384 36.0718 26.872C36.0718 26.3173 35.8691 25.9227 35.4638 25.688C35.1011 25.4533 34.5784 25.336 33.8958 25.336H31.4638V28.44ZM51.924 26.456L54.548 27.928C53.9507 28.9947 53.1933 29.816 52.276 30.392C51.2307 31.0747 49.908 31.416 48.308 31.416C46.4307 31.416 44.916 30.84 43.764 29.688C42.4413 28.3653 41.78 26.648 41.78 24.536C41.78 22.3173 42.4947 20.472 43.924 19C45.14 17.784 46.644 17.176 48.436 17.176C50.1853 17.176 51.6253 17.7627 52.756 18.936C54.0147 20.2373 54.644 22.136 54.644 24.632V25.016H44.98C45.0653 26.1467 45.4493 27.0533 46.132 27.736C46.708 28.312 47.508 28.6 48.532 28.6C49.364 28.6 50.0787 28.376 50.676 27.928C51.1667 27.544 51.5827 27.0533 51.924 26.456ZM45.204 22.456H51.444C51.316 21.7093 50.996 21.1013 50.484 20.632C49.9293 20.12 49.2253 19.864 48.372 19.864C47.476 19.864 46.74 20.152 46.164 20.728C45.6947 21.1547 45.3747 21.7307 45.204 22.456ZM59.0735 17.528H69.1855V28.12H71.2335V34.84H68.3535V31H58.9455V34.84H56.0655V28.12C57.1535 28.056 57.9748 27.4693 58.5295 26.36C58.8922 25.5707 59.0735 24.3867 59.0735 22.808V17.528ZM66.0495 28.12V20.408H62.0815V23.992C62.0815 25.9333 61.5588 27.3093 60.5135 28.12H66.0495ZM74.828 19.192C76.2147 17.848 77.932 17.176 79.98 17.176C82.028 17.176 83.7347 17.848 85.1 19.192C86.4867 20.5147 87.18 22.2107 87.18 24.28C87.18 26.328 86.4867 28.0347 85.1 29.4C83.7347 30.744 82.028 31.416 79.98 31.416C77.932 31.416 76.2147 30.744 74.828 29.4C73.4627 28.0347 72.78 26.328 72.78 24.28C72.78 22.2107 73.4627 20.5147 74.828 19.192ZM77.068 27.448C77.7933 28.216 78.764 28.6 79.98 28.6C81.196 28.6 82.1667 28.216 82.892 27.448C83.6173 26.6587 83.98 25.6133 83.98 24.312C83.98 22.8827 83.5853 21.8053 82.796 21.08C82.028 20.3547 81.0893 19.992 79.98 19.992C78.8707 19.992 77.9213 20.3547 77.132 21.08C76.364 21.8053 75.98 22.8827 75.98 24.312C75.98 25.6133 76.3427 26.6587 77.068 27.448ZM88.9168 31L92.1808 16.312L97.7488 26.584L103.317 16.312L106.581 31H103.381L102.037 24.248L97.7488 32.024L93.4608 24.248L92.1168 31H88.9168ZM120.775 17.528V31H117.639V20.408H113.671V25.752C113.671 27.416 113.244 28.7067 112.391 29.624C111.303 30.84 109.831 31.2987 107.975 31V28.12C108.892 28.3333 109.628 28.1307 110.183 27.512C110.503 27.128 110.663 26.5413 110.663 25.752V17.528H120.775ZM134.174 26.456L136.798 27.928C136.201 28.9947 135.443 29.816 134.526 30.392C133.481 31.0747 132.158 31.416 130.558 31.416C128.681 31.416 127.166 30.84 126.014 29.688C124.691 28.3653 124.03 26.648 124.03 24.536C124.03 22.3173 124.745 20.472 126.174 19C127.39 17.784 128.894 17.176 130.686 17.176C132.435 17.176 133.875 17.7627 135.006 18.936C136.265 20.2373 136.894 22.136 136.894 24.632V25.016H127.23C127.315 26.1467 127.699 27.0533 128.382 27.736C128.958 28.312 129.758 28.6 130.782 28.6C131.614 28.6 132.329 28.376 132.926 27.928C133.417 27.544 133.833 27.0533 134.174 26.456ZM127.454 22.456H133.694C133.566 21.7093 133.246 21.1013 132.734 20.632C132.179 20.12 131.475 19.864 130.622 19.864C129.726 19.864 128.99 20.152 128.414 20.728C127.945 21.1547 127.625 21.7307 127.454 22.456ZM140.172 31V17.528H143.308V22.52H148.876V17.528H152.012V31H148.876V25.4H143.308V31H140.172ZM155.984 17.528H159.12V25.176L168.336 16.312V31H165.2V23.16L155.984 32.024V17.528ZM170.569 31L174.793 25.656C173.961 25.528 173.246 25.1867 172.649 24.632C171.902 23.9067 171.529 22.9787 171.529 21.848C171.529 20.568 171.945 19.5333 172.777 18.744C173.63 17.9333 174.931 17.528 176.681 17.528H181.705V31H178.569V26.04H177.929L174.249 31H170.569ZM178.569 23.48V20.216H176.745C175.998 20.216 175.454 20.312 175.113 20.504C174.601 20.824 174.345 21.272 174.345 21.848C174.345 22.424 174.558 22.8613 174.985 23.16C175.305 23.3733 175.881 23.48 176.713 23.48H178.569Z" fill="black"></path> <g filter="url(#filter0_i)"> <circle cx="41" cy="112" r="31" fill="#F4F7FE"></circle> </g> <g filter="url(#filter1_i)"> <circle cx="41" cy="382" r="31" fill="#F4F7FE"></circle> </g> <g filter="url(#filter2_i)"> <circle cx="41" cy="226" r="31" fill="#F4F7FE"></circle> </g> <path d="M32.0488 104.625C30.9121 104.625 30 105.639 30 106.857V118.135C30 119.353 30.9121 120.375 32.0488 120.375H48.9512C50.0879 120.375 51 119.353 51 118.135V106.857C51 105.639 50.0879 104.625 48.9512 104.625H32.0488H32.0488ZM32.0488 105.711H48.9512C49.1028 105.711 49.2459 105.758 49.3754 105.822L41.1323 114.121C40.7539 114.502 40.2628 114.502 39.8838 114.121L31.6246 105.822C31.7541 105.758 31.8972 105.711 32.0488 105.711H32.0488ZM31.0404 106.73L36.8746 112.593L31.1364 118.669C31.0646 118.511 31.0244 118.33 31.0244 118.135V106.857C31.0244 106.813 31.0364 106.772 31.0403 106.73H31.0404ZM49.9596 106.73C49.9637 106.772 49.9755 106.813 49.9755 106.857V118.135C49.9755 118.327 49.9334 118.504 49.8634 118.661L44.1413 112.585L49.9595 106.73H49.9596ZM43.3971 113.34L48.9992 119.289C48.9831 119.289 48.9675 119.289 48.9512 119.289H32.0488C32.0352 119.289 32.0221 119.289 32.0088 119.289L37.6189 113.349L39.1795 114.91C39.9228 115.657 41.0934 115.658 41.8365 114.91L43.3971 113.34Z" fill="#7F6CFC"></path> <path d="M91.822 90.993V96.537H97.828V90.993H99.97V105H97.828V98.553H91.822V105H89.68V90.993H91.822ZM103.842 97.251C104.752 96.369 105.879 95.928 107.223 95.928C108.567 95.928 109.687 96.369 110.583 97.251C111.493 98.119 111.948 99.232 111.948 100.59C111.948 101.934 111.493 103.054 110.583 103.95C109.687 104.832 108.567 105.273 107.223 105.273C105.879 105.273 104.752 104.832 103.842 103.95C102.946 103.054 102.498 101.934 102.498 100.59C102.498 99.232 102.946 98.119 103.842 97.251ZM105.312 102.669C105.788 103.173 106.425 103.425 107.223 103.425C108.021 103.425 108.658 103.173 109.134 102.669C109.61 102.151 109.848 101.465 109.848 100.611C109.848 99.673 109.589 98.966 109.071 98.49C108.567 98.014 107.951 97.776 107.223 97.776C106.495 97.776 105.872 98.014 105.354 98.49C104.85 98.966 104.598 99.673 104.598 100.611C104.598 101.465 104.836 102.151 105.312 102.669ZM114.096 96.159H117.561C118.443 96.159 119.115 96.334 119.577 96.684C120.123 97.118 120.396 97.685 120.396 98.385C120.396 99.183 120.046 99.757 119.346 100.107C119.794 100.191 120.193 100.387 120.543 100.695C121.005 101.115 121.236 101.682 121.236 102.396C121.236 103.25 120.914 103.922 120.27 104.412C119.738 104.804 119.059 105 118.233 105H114.096V96.159ZM116.154 99.603H117.204C117.568 99.603 117.841 99.54 118.023 99.414C118.289 99.246 118.422 99.008 118.422 98.7C118.422 98.406 118.303 98.175 118.065 98.007C117.897 97.895 117.596 97.839 117.162 97.839H116.154V99.603ZM116.154 103.32H117.687C118.149 103.32 118.506 103.236 118.758 103.068C119.038 102.886 119.178 102.627 119.178 102.291C119.178 101.927 119.045 101.668 118.779 101.514C118.541 101.36 118.198 101.283 117.75 101.283H116.154V103.32ZM124.268 97.251C125.178 96.369 126.305 95.928 127.649 95.928C128.993 95.928 130.113 96.369 131.009 97.251C131.919 98.119 132.374 99.232 132.374 100.59C132.374 101.934 131.919 103.054 131.009 103.95C130.113 104.832 128.993 105.273 127.649 105.273C126.305 105.273 125.178 104.832 124.268 103.95C123.372 103.054 122.924 101.934 122.924 100.59C122.924 99.232 123.372 98.119 124.268 97.251ZM125.738 102.669C126.214 103.173 126.851 103.425 127.649 103.425C128.447 103.425 129.084 103.173 129.56 102.669C130.036 102.151 130.274 101.465 130.274 100.611C130.274 99.673 130.015 98.966 129.497 98.49C128.993 98.014 128.377 97.776 127.649 97.776C126.921 97.776 126.298 98.014 125.78 98.49C125.276 98.966 125.024 99.673 125.024 100.611C125.024 101.465 125.262 102.151 125.738 102.669ZM140.717 102.018L142.439 102.984C142.047 103.684 141.55 104.223 140.948 104.601C140.262 105.049 139.394 105.273 138.344 105.273C137.112 105.273 136.118 104.895 135.362 104.139C134.494 103.271 134.06 102.144 134.06 100.758C134.06 99.302 134.529 98.091 135.467 97.125C136.265 96.327 137.252 95.928 138.428 95.928C139.576 95.928 140.521 96.313 141.263 97.083C142.089 97.937 142.502 99.183 142.502 100.821V101.073H136.16C136.216 101.815 136.468 102.41 136.916 102.858C137.294 103.236 137.819 103.425 138.491 103.425C139.037 103.425 139.506 103.278 139.898 102.984C140.22 102.732 140.493 102.41 140.717 102.018ZM136.307 99.393H140.402C140.318 98.903 140.108 98.504 139.772 98.196C139.408 97.86 138.946 97.692 138.386 97.692C137.798 97.692 137.315 97.881 136.937 98.259C136.629 98.539 136.419 98.917 136.307 99.393ZM156.4 96.558V98.868C155.658 98.14 154.825 97.776 153.901 97.776C153.117 97.776 152.466 98.035 151.948 98.553C151.444 99.057 151.192 99.736 151.192 100.59C151.192 101.472 151.458 102.179 151.99 102.711C152.494 103.187 153.117 103.425 153.859 103.425C154.881 103.425 155.728 103.047 156.4 102.291V104.58C155.658 105.042 154.762 105.273 153.712 105.273C152.298 105.273 151.178 104.839 150.352 103.971C149.512 103.103 149.092 101.997 149.092 100.653C149.092 99.267 149.54 98.126 150.436 97.23C151.304 96.362 152.487 95.928 153.985 95.928C154.839 95.928 155.644 96.138 156.4 96.558ZM159.254 97.251C160.164 96.369 161.291 95.928 162.635 95.928C163.979 95.928 165.099 96.369 165.995 97.251C166.905 98.119 167.36 99.232 167.36 100.59C167.36 101.934 166.905 103.054 165.995 103.95C165.099 104.832 163.979 105.273 162.635 105.273C161.291 105.273 160.164 104.832 159.254 103.95C158.358 103.054 157.91 101.934 157.91 100.59C157.91 99.232 158.358 98.119 159.254 97.251ZM160.724 102.669C161.2 103.173 161.837 103.425 162.635 103.425C163.433 103.425 164.07 103.173 164.546 102.669C165.022 102.151 165.26 101.465 165.26 100.611C165.26 99.673 165.001 98.966 164.483 98.49C163.979 98.014 163.363 97.776 162.635 97.776C161.907 97.776 161.284 98.014 160.766 98.49C160.262 98.966 160.01 99.673 160.01 100.611C160.01 101.465 160.248 102.151 160.724 102.669ZM170.39 97.251C171.3 96.369 172.427 95.928 173.771 95.928C175.115 95.928 176.235 96.369 177.131 97.251C178.041 98.119 178.496 99.232 178.496 100.59C178.496 101.934 178.041 103.054 177.131 103.95C176.235 104.832 175.115 105.273 173.771 105.273C172.427 105.273 171.3 104.832 170.39 103.95C169.494 103.054 169.046 101.934 169.046 100.59C169.046 99.232 169.494 98.119 170.39 97.251ZM171.86 102.669C172.336 103.173 172.973 103.425 173.771 103.425C174.569 103.425 175.206 103.173 175.682 102.669C176.158 102.151 176.396 101.465 176.396 100.611C176.396 99.673 176.137 98.966 175.619 98.49C175.115 98.014 174.499 97.776 173.771 97.776C173.043 97.776 172.42 98.014 171.902 98.49C171.398 98.966 171.146 99.673 171.146 100.611C171.146 101.465 171.384 102.151 171.86 102.669ZM187.322 90.09H189.422C189.268 90.818 188.946 91.448 188.456 91.98C187.966 92.512 187.364 92.876 186.65 93.072L185.264 93.45C184.9 93.548 184.62 93.632 184.424 93.702C184.228 93.772 183.983 93.905 183.689 94.101C183.409 94.283 183.171 94.507 182.975 94.773C182.513 95.389 182.268 96.187 182.24 97.167H182.261C182.877 96.341 183.878 95.928 185.264 95.928C186.51 95.928 187.539 96.348 188.351 97.188C189.205 98.07 189.632 99.19 189.632 100.548C189.632 101.92 189.177 103.054 188.267 103.95C187.371 104.832 186.251 105.273 184.907 105.273C183.563 105.273 182.485 104.881 181.673 104.097C181.225 103.677 180.882 103.159 180.644 102.543C180.406 101.927 180.266 101.423 180.224 101.031C180.196 100.625 180.182 100.135 180.182 99.561C180.182 96.817 180.63 94.794 181.526 93.492C182.198 92.498 183.08 91.868 184.172 91.602L185.642 91.245C186.608 91.007 187.168 90.622 187.322 90.09ZM182.996 102.669C183.472 103.173 184.109 103.425 184.907 103.425C185.705 103.425 186.342 103.173 186.818 102.669C187.294 102.151 187.532 101.465 187.532 100.611C187.532 99.673 187.273 98.966 186.755 98.49C186.251 98.014 185.635 97.776 184.907 97.776C184.179 97.776 183.556 98.014 183.038 98.49C182.534 98.966 182.282 99.673 182.282 100.611C182.282 101.465 182.52 102.151 182.996 102.669ZM191.78 105V96.159H193.838V103.11H196.778V96.159H198.836V103.11H201.776V96.159H203.834V103.11H205.304V107.52H203.414V105H191.78ZM212.966 102.018L214.688 102.984C214.296 103.684 213.799 104.223 213.197 104.601C212.511 105.049 211.643 105.273 210.593 105.273C209.361 105.273 208.367 104.895 207.611 104.139C206.743 103.271 206.309 102.144 206.309 100.758C206.309 99.302 206.778 98.091 207.716 97.125C208.514 96.327 209.501 95.928 210.677 95.928C211.825 95.928 212.77 96.313 213.512 97.083C214.338 97.937 214.751 99.183 214.751 100.821V101.073H208.409C208.465 101.815 208.717 102.41 209.165 102.858C209.543 103.236 210.068 103.425 210.74 103.425C211.286 103.425 211.755 103.278 212.147 102.984C212.469 102.732 212.742 102.41 212.966 102.018ZM208.556 99.393H212.651C212.567 98.903 212.357 98.504 212.021 98.196C211.657 97.86 211.195 97.692 210.635 97.692C210.047 97.692 209.564 97.881 209.186 98.259C208.878 98.539 208.668 98.917 208.556 99.393ZM216.902 105V96.159H218.96V99.435H222.614V96.159H224.672V105H222.614V101.325H218.96V105H216.902ZM227.279 96.159H229.337V101.178L235.385 95.361V105H233.327V99.855L227.279 105.672V96.159ZM244.179 102.018L245.901 102.984C245.509 103.684 245.012 104.223 244.41 104.601C243.724 105.049 242.856 105.273 241.806 105.273C240.574 105.273 239.58 104.895 238.824 104.139C237.956 103.271 237.522 102.144 237.522 100.758C237.522 99.302 237.991 98.091 238.929 97.125C239.727 96.327 240.714 95.928 241.89 95.928C243.038 95.928 243.983 96.313 244.725 97.083C245.551 97.937 245.964 99.183 245.964 100.821V101.073H239.622C239.678 101.815 239.93 102.41 240.378 102.858C240.756 103.236 241.281 103.425 241.953 103.425C242.499 103.425 242.968 103.278 243.36 102.984C243.682 102.732 243.955 102.41 244.179 102.018ZM239.769 99.393H243.864C243.78 98.903 243.57 98.504 243.234 98.196C242.87 97.86 242.408 97.692 241.848 97.692C241.26 97.692 240.777 97.881 240.399 98.259C240.091 98.539 239.881 98.917 239.769 99.393Z" fill="black"></path> <path d="M91.822 360.993V366.579L97.24 360.993H100.054L93.733 367.335L100.096 375H97.24L92.242 368.784L91.822 369.204V375H89.68V360.993H91.822ZM107.213 367.188V366.159H109.271V375H107.213V374.076C106.527 374.874 105.645 375.273 104.567 375.273C103.265 375.273 102.222 374.811 101.438 373.887C100.668 372.963 100.283 371.857 100.283 370.569C100.283 369.169 100.696 368.049 101.522 367.209C102.362 366.355 103.384 365.928 104.588 365.928C105.694 365.928 106.569 366.348 107.213 367.188ZM104.84 367.776C104.112 367.776 103.517 368.049 103.055 368.595C102.607 369.141 102.383 369.813 102.383 370.611C102.383 371.395 102.607 372.06 103.055 372.606C103.517 373.152 104.112 373.425 104.84 373.425C105.54 373.425 106.128 373.18 106.604 372.69C107.094 372.2 107.339 371.514 107.339 370.632C107.339 369.722 107.094 369.022 106.604 368.532C106.128 368.028 105.54 367.776 104.84 367.776ZM119.147 366.159V375H117.089V368.049H114.485V371.556C114.485 372.648 114.205 373.495 113.645 374.097C112.931 374.895 111.965 375.196 110.747 375V373.11C111.349 373.25 111.832 373.117 112.196 372.711C112.406 372.459 112.511 372.074 112.511 371.556V366.159H119.147ZM127.94 372.018L129.662 372.984C129.27 373.684 128.773 374.223 128.171 374.601C127.485 375.049 126.617 375.273 125.567 375.273C124.335 375.273 123.341 374.895 122.585 374.139C121.717 373.271 121.283 372.144 121.283 370.758C121.283 369.302 121.752 368.091 122.69 367.125C123.488 366.327 124.475 365.928 125.651 365.928C126.799 365.928 127.744 366.313 128.486 367.083C129.312 367.937 129.725 369.183 129.725 370.821V371.073H123.383C123.439 371.815 123.691 372.41 124.139 372.858C124.517 373.236 125.042 373.425 125.714 373.425C126.26 373.425 126.729 373.278 127.121 372.984C127.443 372.732 127.716 372.41 127.94 372.018ZM123.53 369.393H127.625C127.541 368.903 127.331 368.504 126.995 368.196C126.631 367.86 126.169 367.692 125.609 367.692C125.021 367.692 124.538 367.881 124.16 368.259C123.852 368.539 123.642 368.917 123.53 369.393ZM131.876 375V366.159H133.934V369.435H137.588V366.159H139.646V375H137.588V371.325H133.934V375H131.876ZM143.009 366.159H149.645V373.11H150.989V377.52H149.099V375H142.925V377.52H141.035V373.11C141.749 373.068 142.288 372.683 142.652 371.955C142.89 371.437 143.009 370.66 143.009 369.624V366.159ZM147.587 373.11V368.049H144.983V370.401C144.983 371.675 144.64 372.578 143.954 373.11H147.587ZM158.934 367.188V366.159H160.992V375H158.934V374.076C158.248 374.874 157.366 375.273 156.288 375.273C154.986 375.273 153.943 374.811 153.159 373.887C152.389 372.963 152.004 371.857 152.004 370.569C152.004 369.169 152.417 368.049 153.243 367.209C154.083 366.355 155.105 365.928 156.309 365.928C157.415 365.928 158.29 366.348 158.934 367.188ZM156.561 367.776C155.833 367.776 155.238 368.049 154.776 368.595C154.328 369.141 154.104 369.813 154.104 370.611C154.104 371.395 154.328 372.06 154.776 372.606C155.238 373.152 155.833 373.425 156.561 373.425C157.261 373.425 157.849 373.18 158.325 372.69C158.815 372.2 159.06 371.514 159.06 370.632C159.06 369.722 158.815 369.022 158.325 368.532C157.849 368.028 157.261 367.776 156.561 367.776ZM165.66 373.971V379.809H163.602V366.159H165.66V367.125C166.332 366.327 167.207 365.928 168.285 365.928C169.489 365.928 170.504 366.355 171.33 367.209C172.17 368.049 172.59 369.155 172.59 370.527C172.59 371.941 172.156 373.089 171.288 373.971C170.42 374.839 169.426 375.273 168.306 375.273C167.256 375.273 166.374 374.839 165.66 373.971ZM168.033 367.776C167.333 367.776 166.738 368.028 166.248 368.532C165.772 369.022 165.534 369.722 165.534 370.632C165.534 371.514 165.772 372.2 166.248 372.69C166.738 373.18 167.333 373.425 168.033 373.425C168.761 373.425 169.349 373.152 169.797 372.606C170.259 372.06 170.49 371.395 170.49 370.611C170.49 369.813 170.259 369.141 169.797 368.595C169.349 368.049 168.761 367.776 168.033 367.776ZM174.738 375V366.159H176.796V369.288H177.972C178.35 369.288 178.658 369.302 178.896 369.33C179.134 369.344 179.421 369.421 179.757 369.561C180.093 369.701 180.387 369.911 180.639 370.191C181.101 370.709 181.332 371.353 181.332 372.123C181.332 373.005 181.066 373.712 180.534 374.244C180.296 374.482 180.009 374.664 179.673 374.79C179.351 374.902 179.078 374.965 178.854 374.979C178.644 374.993 178.343 375 177.951 375H174.738ZM176.796 373.236H177.741C178.245 373.236 178.602 373.173 178.812 373.047C179.12 372.823 179.274 372.522 179.274 372.144C179.274 371.752 179.127 371.458 178.833 371.262C178.609 371.122 178.252 371.052 177.762 371.052H176.796V373.236Z" fill="black"></path> <path d="M90.877 208.164L89.47 206.799C89.988 206.113 90.59 205.609 91.276 205.287C91.976 204.937 92.823 204.762 93.817 204.762C95.217 204.762 96.302 205.133 97.072 205.875C97.744 206.533 98.08 207.352 98.08 208.332C98.08 209.004 97.926 209.585 97.618 210.075C97.324 210.579 96.904 210.985 96.358 211.293C97.128 211.489 97.758 211.902 98.248 212.532C98.724 213.134 98.962 213.925 98.962 214.905C98.962 216.165 98.493 217.208 97.555 218.034C96.603 218.846 95.343 219.252 93.775 219.252C92.445 219.252 91.297 218.888 90.331 218.16C89.575 217.572 88.98 216.816 88.546 215.892L90.436 214.926C90.716 215.64 91.15 216.207 91.738 216.627C92.354 217.061 93.124 217.278 94.048 217.278C94.972 217.278 95.686 217.026 96.19 216.522C96.638 216.074 96.862 215.5 96.862 214.8C96.862 214.072 96.589 213.526 96.043 213.162C95.525 212.798 94.678 212.616 93.502 212.616H92.242V210.6H93.376C94.272 210.6 94.944 210.411 95.392 210.033C95.812 209.683 96.022 209.207 96.022 208.605C96.022 207.975 95.798 207.492 95.35 207.156C94.986 206.876 94.447 206.736 93.733 206.736C93.061 206.736 92.494 206.869 92.032 207.135C91.584 207.387 91.199 207.73 90.877 208.164ZM102.035 210.159H108.671V217.11H110.015V221.52H108.125V219H101.951V221.52H100.061V217.11C100.775 217.068 101.314 216.683 101.678 215.955C101.916 215.437 102.035 214.66 102.035 213.624V210.159ZM106.613 217.11V212.049H104.009V214.401C104.009 215.675 103.666 216.578 102.98 217.11H106.613ZM112.373 211.251C113.283 210.369 114.41 209.928 115.754 209.928C117.098 209.928 118.218 210.369 119.114 211.251C120.024 212.119 120.479 213.232 120.479 214.59C120.479 215.934 120.024 217.054 119.114 217.95C118.218 218.832 117.098 219.273 115.754 219.273C114.41 219.273 113.283 218.832 112.373 217.95C111.477 217.054 111.029 215.934 111.029 214.59C111.029 213.232 111.477 212.119 112.373 211.251ZM113.843 216.669C114.319 217.173 114.956 217.425 115.754 217.425C116.552 217.425 117.189 217.173 117.665 216.669C118.141 216.151 118.379 215.465 118.379 214.611C118.379 213.673 118.12 212.966 117.602 212.49C117.098 212.014 116.482 211.776 115.754 211.776C115.026 211.776 114.403 212.014 113.885 212.49C113.381 212.966 113.129 213.673 113.129 214.611C113.129 215.465 113.367 216.151 113.843 216.669ZM124.685 217.971V223.809H122.627V210.159H124.685V211.125C125.357 210.327 126.232 209.928 127.31 209.928C128.514 209.928 129.529 210.355 130.355 211.209C131.195 212.049 131.615 213.155 131.615 214.527C131.615 215.941 131.181 217.089 130.313 217.971C129.445 218.839 128.451 219.273 127.331 219.273C126.281 219.273 125.399 218.839 124.685 217.971ZM127.058 211.776C126.358 211.776 125.763 212.028 125.273 212.532C124.797 213.022 124.559 213.722 124.559 214.632C124.559 215.514 124.797 216.2 125.273 216.69C125.763 217.18 126.358 217.425 127.058 217.425C127.786 217.425 128.374 217.152 128.822 216.606C129.284 216.06 129.515 215.395 129.515 214.611C129.515 213.813 129.284 213.141 128.822 212.595C128.374 212.049 127.786 211.776 127.058 211.776ZM134.645 211.251C135.555 210.369 136.682 209.928 138.026 209.928C139.37 209.928 140.49 210.369 141.386 211.251C142.296 212.119 142.751 213.232 142.751 214.59C142.751 215.934 142.296 217.054 141.386 217.95C140.49 218.832 139.37 219.273 138.026 219.273C136.682 219.273 135.555 218.832 134.645 217.95C133.749 217.054 133.301 215.934 133.301 214.59C133.301 213.232 133.749 212.119 134.645 211.251ZM136.115 216.669C136.591 217.173 137.228 217.425 138.026 217.425C138.824 217.425 139.461 217.173 139.937 216.669C140.413 216.151 140.651 215.465 140.651 214.611C140.651 213.673 140.392 212.966 139.874 212.49C139.37 212.014 138.754 211.776 138.026 211.776C137.298 211.776 136.675 212.014 136.157 212.49C135.653 212.966 135.401 213.673 135.401 214.611C135.401 215.465 135.639 216.151 136.115 216.669ZM144.899 210.159H148.364C149.246 210.159 149.918 210.334 150.38 210.684C150.926 211.118 151.199 211.685 151.199 212.385C151.199 213.183 150.849 213.757 150.149 214.107C150.597 214.191 150.996 214.387 151.346 214.695C151.808 215.115 152.039 215.682 152.039 216.396C152.039 217.25 151.717 217.922 151.073 218.412C150.541 218.804 149.862 219 149.036 219H144.899V210.159ZM146.957 213.603H148.007C148.371 213.603 148.644 213.54 148.826 213.414C149.092 213.246 149.225 213.008 149.225 212.7C149.225 212.406 149.106 212.175 148.868 212.007C148.7 211.895 148.399 211.839 147.965 211.839H146.957V213.603ZM146.957 217.32H148.49C148.952 217.32 149.309 217.236 149.561 217.068C149.841 216.886 149.981 216.627 149.981 216.291C149.981 215.927 149.848 215.668 149.582 215.514C149.344 215.36 149.001 215.283 148.553 215.283H146.957V217.32ZM154.189 219V210.159H156.247V213.288H157.423C157.801 213.288 158.109 213.302 158.347 213.33C158.585 213.344 158.872 213.421 159.208 213.561C159.544 213.701 159.838 213.911 160.09 214.191C160.552 214.709 160.783 215.353 160.783 216.123C160.783 217.005 160.517 217.712 159.985 218.244C159.747 218.482 159.46 218.664 159.124 218.79C158.802 218.902 158.529 218.965 158.305 218.979C158.095 218.993 157.794 219 157.402 219H154.189ZM156.247 217.236H157.192C157.696 217.236 158.053 217.173 158.263 217.047C158.571 216.823 158.725 216.522 158.725 216.144C158.725 215.752 158.578 215.458 158.284 215.262C158.06 215.122 157.703 215.052 157.213 215.052H156.247V217.236ZM168.792 216.018L170.514 216.984C170.122 217.684 169.625 218.223 169.023 218.601C168.337 219.049 167.469 219.273 166.419 219.273C165.187 219.273 164.193 218.895 163.437 218.139C162.569 217.271 162.135 216.144 162.135 214.758C162.135 213.302 162.604 212.091 163.542 211.125C164.34 210.327 165.327 209.928 166.503 209.928C167.651 209.928 168.596 210.313 169.338 211.083C170.164 211.937 170.577 213.183 170.577 214.821V215.073H164.235C164.291 215.815 164.543 216.41 164.991 216.858C165.369 217.236 165.894 217.425 166.566 217.425C167.112 217.425 167.581 217.278 167.973 216.984C168.295 216.732 168.568 216.41 168.792 216.018ZM164.382 213.393H168.477C168.393 212.903 168.183 212.504 167.847 212.196C167.483 211.86 167.021 211.692 166.461 211.692C165.873 211.692 165.39 211.881 165.012 212.259C164.704 212.539 164.494 212.917 164.382 213.393Z" fill="black"></path> <path d="M349.19 104.416C348.362 105.616 347.336 106.216 346.112 106.216C344.888 106.216 343.862 105.616 343.034 104.416C342.23 103.252 341.828 101.782 341.828 100.006C341.828 98.23 342.23 96.76 343.034 95.596C343.862 94.396 344.888 93.796 346.112 93.796C347.336 93.796 348.362 94.396 349.19 95.596C349.994 96.76 350.396 98.23 350.396 100.006C350.396 101.782 349.994 103.252 349.19 104.416ZM348.182 96.352C347.63 95.464 346.94 95.02 346.112 95.02C345.284 95.02 344.594 95.464 344.042 96.352C343.454 97.288 343.16 98.506 343.16 100.006C343.16 101.506 343.454 102.724 344.042 103.66C344.594 104.548 345.284 104.992 346.112 104.992C346.94 104.992 347.63 104.548 348.182 103.66C348.77 102.724 349.064 101.506 349.064 100.006C349.064 98.506 348.77 97.288 348.182 96.352ZM352.652 99.88C352.472 99.7 352.382 99.49 352.382 99.25C352.382 99.01 352.472 98.8 352.652 98.62C352.832 98.44 353.042 98.35 353.282 98.35C353.522 98.35 353.732 98.44 353.912 98.62C354.092 98.8 354.182 99.01 354.182 99.25C354.182 99.49 354.092 99.7 353.912 99.88C353.732 100.06 353.522 100.15 353.282 100.15C353.042 100.15 352.832 100.06 352.652 99.88ZM352.652 105.946C352.472 105.766 352.382 105.556 352.382 105.316C352.382 105.076 352.472 104.866 352.652 104.686C352.832 104.506 353.042 104.416 353.282 104.416C353.522 104.416 353.732 104.506 353.912 104.686C354.092 104.866 354.182 105.076 354.182 105.316C354.182 105.556 354.092 105.766 353.912 105.946C353.732 106.126 353.522 106.216 353.282 106.216C353.042 106.216 352.832 106.126 352.652 105.946ZM363.948 93.994V95.218H360.096L359.322 97.81C359.526 97.762 359.778 97.738 360.078 97.738C361.266 97.738 362.22 98.134 362.94 98.926C363.672 99.718 364.038 100.708 364.038 101.896C364.038 103.192 363.612 104.236 362.76 105.028C361.92 105.82 360.888 106.216 359.664 106.216C358.632 106.216 357.738 105.904 356.982 105.28C356.55 104.908 356.202 104.5 355.938 104.056L357 103.3C357.18 103.66 357.45 103.984 357.81 104.272C358.398 104.752 359.046 104.992 359.754 104.992C360.594 104.992 361.296 104.692 361.86 104.092C362.424 103.492 362.706 102.766 362.706 101.914C362.706 101.05 362.424 100.342 361.86 99.79C361.308 99.238 360.606 98.962 359.754 98.962C358.998 98.962 358.224 99.238 357.432 99.79L359.178 93.994H363.948ZM371.605 93.706L372.613 94.462L369.859 98.296C370.195 98.188 370.549 98.134 370.921 98.134C372.061 98.134 372.991 98.512 373.711 99.268C374.443 100.024 374.809 100.966 374.809 102.094C374.809 103.294 374.419 104.284 373.639 105.064C372.871 105.832 371.887 106.216 370.687 106.216C369.799 106.216 369.025 106.006 368.365 105.586C367.717 105.154 367.249 104.638 366.961 104.038C366.673 103.426 366.529 102.79 366.529 102.13C366.529 101.218 366.859 100.3 367.519 99.376L371.605 93.706ZM370.669 104.992C371.485 104.992 372.157 104.722 372.685 104.182C373.213 103.63 373.477 102.946 373.477 102.13C373.477 101.326 373.207 100.666 372.667 100.15C372.139 99.622 371.467 99.358 370.651 99.358C369.835 99.358 369.163 99.622 368.635 100.15C368.119 100.678 367.861 101.338 367.861 102.13C367.861 102.946 368.119 103.63 368.635 104.182C369.163 104.722 369.841 104.992 370.669 104.992Z" fill="#CAD6F3"></path> <path d="M349.19 374.416C348.362 375.616 347.336 376.216 346.112 376.216C344.888 376.216 343.862 375.616 343.034 374.416C342.23 373.252 341.828 371.782 341.828 370.006C341.828 368.23 342.23 366.76 343.034 365.596C343.862 364.396 344.888 363.796 346.112 363.796C347.336 363.796 348.362 364.396 349.19 365.596C349.994 366.76 350.396 368.23 350.396 370.006C350.396 371.782 349.994 373.252 349.19 374.416ZM348.182 366.352C347.63 365.464 346.94 365.02 346.112 365.02C345.284 365.02 344.594 365.464 344.042 366.352C343.454 367.288 343.16 368.506 343.16 370.006C343.16 371.506 343.454 372.724 344.042 373.66C344.594 374.548 345.284 374.992 346.112 374.992C346.94 374.992 347.63 374.548 348.182 373.66C348.77 372.724 349.064 371.506 349.064 370.006C349.064 368.506 348.77 367.288 348.182 366.352ZM352.652 369.88C352.472 369.7 352.382 369.49 352.382 369.25C352.382 369.01 352.472 368.8 352.652 368.62C352.832 368.44 353.042 368.35 353.282 368.35C353.522 368.35 353.732 368.44 353.912 368.62C354.092 368.8 354.182 369.01 354.182 369.25C354.182 369.49 354.092 369.7 353.912 369.88C353.732 370.06 353.522 370.15 353.282 370.15C353.042 370.15 352.832 370.06 352.652 369.88ZM352.652 375.946C352.472 375.766 352.382 375.556 352.382 375.316C352.382 375.076 352.472 374.866 352.652 374.686C352.832 374.506 353.042 374.416 353.282 374.416C353.522 374.416 353.732 374.506 353.912 374.686C354.092 374.866 354.182 375.076 354.182 375.316C354.182 375.556 354.092 375.766 353.912 375.946C353.732 376.126 353.522 376.216 353.282 376.216C353.042 376.216 352.832 376.126 352.652 375.946ZM363.948 363.994V365.218H360.096L359.322 367.81C359.526 367.762 359.778 367.738 360.078 367.738C361.266 367.738 362.22 368.134 362.94 368.926C363.672 369.718 364.038 370.708 364.038 371.896C364.038 373.192 363.612 374.236 362.76 375.028C361.92 375.82 360.888 376.216 359.664 376.216C358.632 376.216 357.738 375.904 356.982 375.28C356.55 374.908 356.202 374.5 355.938 374.056L357 373.3C357.18 373.66 357.45 373.984 357.81 374.272C358.398 374.752 359.046 374.992 359.754 374.992C360.594 374.992 361.296 374.692 361.86 374.092C362.424 373.492 362.706 372.766 362.706 371.914C362.706 371.05 362.424 370.342 361.86 369.79C361.308 369.238 360.606 368.962 359.754 368.962C358.998 368.962 358.224 369.238 357.432 369.79L359.178 363.994H363.948ZM371.605 363.706L372.613 364.462L369.859 368.296C370.195 368.188 370.549 368.134 370.921 368.134C372.061 368.134 372.991 368.512 373.711 369.268C374.443 370.024 374.809 370.966 374.809 372.094C374.809 373.294 374.419 374.284 373.639 375.064C372.871 375.832 371.887 376.216 370.687 376.216C369.799 376.216 369.025 376.006 368.365 375.586C367.717 375.154 367.249 374.638 366.961 374.038C366.673 373.426 366.529 372.79 366.529 372.13C366.529 371.218 366.859 370.3 367.519 369.376L371.605 363.706ZM370.669 374.992C371.485 374.992 372.157 374.722 372.685 374.182C373.213 373.63 373.477 372.946 373.477 372.13C373.477 371.326 373.207 370.666 372.667 370.15C372.139 369.622 371.467 369.358 370.651 369.358C369.835 369.358 369.163 369.622 368.635 370.15C368.119 370.678 367.861 371.338 367.861 372.13C367.861 372.946 368.119 373.63 368.635 374.182C369.163 374.722 369.841 374.992 370.669 374.992Z" fill="#CAD6F3"></path> <path d="M349.19 218.416C348.362 219.616 347.336 220.216 346.112 220.216C344.888 220.216 343.862 219.616 343.034 218.416C342.23 217.252 341.828 215.782 341.828 214.006C341.828 212.23 342.23 210.76 343.034 209.596C343.862 208.396 344.888 207.796 346.112 207.796C347.336 207.796 348.362 208.396 349.19 209.596C349.994 210.76 350.396 212.23 350.396 214.006C350.396 215.782 349.994 217.252 349.19 218.416ZM348.182 210.352C347.63 209.464 346.94 209.02 346.112 209.02C345.284 209.02 344.594 209.464 344.042 210.352C343.454 211.288 343.16 212.506 343.16 214.006C343.16 215.506 343.454 216.724 344.042 217.66C344.594 218.548 345.284 218.992 346.112 218.992C346.94 218.992 347.63 218.548 348.182 217.66C348.77 216.724 349.064 215.506 349.064 214.006C349.064 212.506 348.77 211.288 348.182 210.352ZM352.652 213.88C352.472 213.7 352.382 213.49 352.382 213.25C352.382 213.01 352.472 212.8 352.652 212.62C352.832 212.44 353.042 212.35 353.282 212.35C353.522 212.35 353.732 212.44 353.912 212.62C354.092 212.8 354.182 213.01 354.182 213.25C354.182 213.49 354.092 213.7 353.912 213.88C353.732 214.06 353.522 214.15 353.282 214.15C353.042 214.15 352.832 214.06 352.652 213.88ZM352.652 219.946C352.472 219.766 352.382 219.556 352.382 219.316C352.382 219.076 352.472 218.866 352.652 218.686C352.832 218.506 353.042 218.416 353.282 218.416C353.522 218.416 353.732 218.506 353.912 218.686C354.092 218.866 354.182 219.076 354.182 219.316C354.182 219.556 354.092 219.766 353.912 219.946C353.732 220.126 353.522 220.216 353.282 220.216C353.042 220.216 352.832 220.126 352.652 219.946ZM363.948 207.994V209.218H360.096L359.322 211.81C359.526 211.762 359.778 211.738 360.078 211.738C361.266 211.738 362.22 212.134 362.94 212.926C363.672 213.718 364.038 214.708 364.038 215.896C364.038 217.192 363.612 218.236 362.76 219.028C361.92 219.82 360.888 220.216 359.664 220.216C358.632 220.216 357.738 219.904 356.982 219.28C356.55 218.908 356.202 218.5 355.938 218.056L357 217.3C357.18 217.66 357.45 217.984 357.81 218.272C358.398 218.752 359.046 218.992 359.754 218.992C360.594 218.992 361.296 218.692 361.86 218.092C362.424 217.492 362.706 216.766 362.706 215.914C362.706 215.05 362.424 214.342 361.86 213.79C361.308 213.238 360.606 212.962 359.754 212.962C358.998 212.962 358.224 213.238 357.432 213.79L359.178 207.994H363.948ZM371.605 207.706L372.613 208.462L369.859 212.296C370.195 212.188 370.549 212.134 370.921 212.134C372.061 212.134 372.991 212.512 373.711 213.268C374.443 214.024 374.809 214.966 374.809 216.094C374.809 217.294 374.419 218.284 373.639 219.064C372.871 219.832 371.887 220.216 370.687 220.216C369.799 220.216 369.025 220.006 368.365 219.586C367.717 219.154 367.249 218.638 366.961 218.038C366.673 217.426 366.529 216.79 366.529 216.13C366.529 215.218 366.859 214.3 367.519 213.376L371.605 207.706ZM370.669 218.992C371.485 218.992 372.157 218.722 372.685 218.182C373.213 217.63 373.477 216.946 373.477 216.13C373.477 215.326 373.207 214.666 372.667 214.15C372.139 213.622 371.467 213.358 370.651 213.358C369.835 213.358 369.163 213.622 368.635 214.15C368.119 214.678 367.861 215.338 367.861 216.13C367.861 216.946 368.119 217.63 368.635 218.182C369.163 218.722 369.841 218.992 370.669 218.992Z" fill="#CAD6F3"></path> <path d="M98.728 117.984V119.64C98.248 119.16 97.726 118.788 97.162 118.524C96.478 118.212 95.788 118.056 95.092 118.056C93.712 118.056 92.56 118.542 91.636 119.514C90.724 120.474 90.268 121.656 90.268 123.06C90.268 124.572 90.766 125.766 91.762 126.642C92.77 127.518 93.886 127.956 95.11 127.956C95.878 127.956 96.622 127.77 97.342 127.398C97.846 127.146 98.308 126.81 98.728 126.39V128.046C97.636 128.826 96.43 129.216 95.11 129.216C93.334 129.216 91.852 128.622 90.664 127.434C89.488 126.246 88.9 124.782 88.9 123.042C88.9 121.254 89.494 119.766 90.682 118.578C91.882 117.39 93.382 116.796 95.182 116.796C96.502 116.796 97.684 117.192 98.728 117.984ZM106.513 121.53V129H105.217V122.718H102.553V126.084C102.553 127.056 102.361 127.776 101.977 128.244C101.545 128.772 100.945 129.036 100.177 129.036C100.081 129.036 99.9487 129.024 99.7807 129V127.812C99.9007 127.836 99.9967 127.848 100.069 127.848C100.489 127.848 100.801 127.686 101.005 127.362C101.173 127.098 101.257 126.672 101.257 126.084V121.53H106.513ZM108.946 133.14L111.322 128.298L107.884 121.53H109.36L112.006 126.876L114.436 121.53H115.876L110.386 133.14H108.946ZM117.244 129V121.53H118.54V127.812H121.42V121.53H122.716V127.812H125.596V121.53H126.892V129H117.244ZM135.061 122.592V121.53H136.357V129H135.061V127.956C134.413 128.796 133.561 129.216 132.505 129.216C131.497 129.216 130.639 128.868 129.931 128.172C129.223 127.476 128.869 126.504 128.869 125.256C128.869 124.032 129.217 123.078 129.913 122.394C130.621 121.698 131.485 121.35 132.505 121.35C133.585 121.35 134.437 121.764 135.061 122.592ZM132.649 122.502C131.965 122.502 131.383 122.748 130.903 123.24C130.435 123.72 130.201 124.392 130.201 125.256C130.201 126.084 130.417 126.762 130.849 127.29C131.293 127.806 131.893 128.064 132.649 128.064C133.405 128.064 134.005 127.794 134.449 127.254C134.905 126.714 135.133 126.054 135.133 125.274C135.133 124.386 134.881 123.702 134.377 123.222C133.873 122.742 133.297 122.502 132.649 122.502ZM138.812 121.53H140.108V126.462L145.22 120.954V129H143.924V124.014L138.812 129.522V121.53ZM139.46 118.308L140.54 117.894C140.756 118.614 141.266 118.974 142.07 118.974C142.874 118.974 143.384 118.614 143.6 117.894L144.68 118.308C144.488 118.848 144.158 119.274 143.69 119.586C143.234 119.898 142.694 120.054 142.07 120.054C141.446 120.054 140.9 119.898 140.432 119.586C139.976 119.274 139.652 118.848 139.46 118.308ZM146.879 131.394L148.355 127.236L149.543 127.668L147.725 131.736L146.879 131.394ZM156.812 121.53H158.108V126.462L163.22 120.954V129H161.924V124.014L156.812 129.522V121.53ZM166.211 121.53H171.467V127.812H172.583V130.98H171.395V129H165.707V130.98H164.519V127.812C165.143 127.8 165.605 127.476 165.905 126.84C166.109 126.42 166.211 125.76 166.211 124.86V121.53ZM170.171 127.812V122.718H167.507V125.526C167.507 126.522 167.207 127.284 166.607 127.812H170.171ZM173.951 121.53H175.247V126.462L180.359 120.954V129H179.063V124.014L173.951 129.522V121.53ZM187.011 121.53H193.023V129H191.727V122.718H188.307V129H187.011V121.53ZM201.784 128.1C201.04 128.844 200.098 129.216 198.958 129.216C197.818 129.216 196.87 128.844 196.114 128.1C195.37 127.356 194.998 126.42 194.998 125.292C194.998 124.152 195.37 123.21 196.114 122.466C196.87 121.722 197.818 121.35 198.958 121.35C200.098 121.35 201.04 121.722 201.784 122.466C202.54 123.21 202.918 124.152 202.918 125.292C202.918 126.42 202.54 127.356 201.784 128.1ZM200.812 123.24C200.308 122.748 199.69 122.502 198.958 122.502C198.226 122.502 197.602 122.754 197.086 123.258C196.582 123.75 196.33 124.428 196.33 125.292C196.33 126.156 196.588 126.834 197.104 127.326C197.62 127.818 198.238 128.064 198.958 128.064C199.678 128.064 200.296 127.818 200.812 127.326C201.328 126.834 201.586 126.156 201.586 125.292C201.586 124.416 201.328 123.732 200.812 123.24ZM210.756 122.07V123.618C210.168 122.874 209.388 122.502 208.416 122.502C207.684 122.502 207.06 122.754 206.544 123.258C206.028 123.75 205.77 124.428 205.77 125.292C205.77 126.156 206.028 126.834 206.544 127.326C207.06 127.818 207.678 128.064 208.398 128.064C209.358 128.064 210.162 127.674 210.81 126.894V128.442C210.102 128.958 209.31 129.216 208.434 129.216C207.27 129.216 206.31 128.85 205.554 128.118C204.81 127.374 204.438 126.438 204.438 125.31C204.438 124.17 204.816 123.228 205.572 122.484C206.328 121.728 207.282 121.35 208.434 121.35C209.298 121.35 210.072 121.59 210.756 122.07ZM212.798 121.53H218.81V129H217.514V122.718H214.094V129H212.798V121.53ZM221.253 121.53H222.549V126.462L227.661 120.954V129H226.365V124.014L221.253 129.522V121.53ZM229.321 131.394L230.797 127.236L231.985 127.668L230.167 131.736L229.321 131.394ZM244.977 122.592V121.53H246.273V129H244.977V127.956C244.329 128.796 243.477 129.216 242.421 129.216C241.413 129.216 240.555 128.868 239.847 128.172C239.139 127.476 238.785 126.504 238.785 125.256C238.785 124.032 239.133 123.078 239.829 122.394C240.537 121.698 241.401 121.35 242.421 121.35C243.501 121.35 244.353 121.764 244.977 122.592ZM242.565 122.502C241.881 122.502 241.299 122.748 240.819 123.24C240.351 123.72 240.117 124.392 240.117 125.256C240.117 126.084 240.333 126.762 240.765 127.29C241.209 127.806 241.809 128.064 242.565 128.064C243.321 128.064 243.921 127.794 244.365 127.254C244.821 126.714 245.049 126.054 245.049 125.274C245.049 124.386 244.797 123.702 244.293 123.222C243.789 122.742 243.213 122.502 242.565 122.502ZM257.825 122.718H255.485V129H254.189V122.718H251.849V121.53H257.825V122.718ZM265.329 128.1C264.585 128.844 263.643 129.216 262.503 129.216C261.363 129.216 260.415 128.844 259.659 128.1C258.915 127.356 258.543 126.42 258.543 125.292C258.543 124.152 258.915 123.21 259.659 122.466C260.415 121.722 261.363 121.35 262.503 121.35C263.643 121.35 264.585 121.722 265.329 122.466C266.085 123.21 266.463 124.152 266.463 125.292C266.463 126.42 266.085 127.356 265.329 128.1ZM264.357 123.24C263.853 122.748 263.235 122.502 262.503 122.502C261.771 122.502 261.147 122.754 260.631 123.258C260.127 123.75 259.875 124.428 259.875 125.292C259.875 126.156 260.133 126.834 260.649 127.326C261.165 127.818 261.783 128.064 262.503 128.064C263.223 128.064 263.841 127.818 264.357 127.326C264.873 126.834 265.131 126.156 265.131 125.292C265.131 124.416 264.873 123.732 264.357 123.24ZM277.548 122.718H275.208V129H273.912V122.718H271.572V121.53H277.548V122.718ZM278.91 129V121.53H280.206V124.392H281.538C282.57 124.392 283.326 124.638 283.806 125.13C284.19 125.514 284.382 126.036 284.382 126.696C284.382 127.392 284.16 127.95 283.716 128.37C283.272 128.79 282.54 129 281.52 129H278.91ZM280.206 127.848H281.412C281.952 127.848 282.336 127.782 282.564 127.65C282.888 127.434 283.05 127.116 283.05 126.696C283.05 126.264 282.894 125.952 282.582 125.76C282.366 125.616 281.982 125.544 281.43 125.544H280.206V127.848ZM285.282 129V121.53H286.578V129H285.282ZM293.416 128.91C293.236 128.73 293.146 128.52 293.146 128.28C293.146 128.04 293.236 127.83 293.416 127.65C293.596 127.47 293.806 127.38 294.046 127.38C294.286 127.38 294.496 127.47 294.676 127.65C294.856 127.83 294.946 128.04 294.946 128.28C294.946 128.52 294.856 128.73 294.676 128.91C294.496 129.09 294.286 129.18 294.046 129.18C293.806 129.18 293.596 129.09 293.416 128.91ZM297.512 128.91C297.332 128.73 297.242 128.52 297.242 128.28C297.242 128.04 297.332 127.83 297.512 127.65C297.692 127.47 297.902 127.38 298.142 127.38C298.382 127.38 298.592 127.47 298.772 127.65C298.952 127.83 299.042 128.04 299.042 128.28C299.042 128.52 298.952 128.73 298.772 128.91C298.592 129.09 298.382 129.18 298.142 129.18C297.902 129.18 297.692 129.09 297.512 128.91ZM301.608 128.91C301.428 128.73 301.338 128.52 301.338 128.28C301.338 128.04 301.428 127.83 301.608 127.65C301.788 127.47 301.998 127.38 302.238 127.38C302.478 127.38 302.688 127.47 302.868 127.65C303.048 127.83 303.138 128.04 303.138 128.28C303.138 128.52 303.048 128.73 302.868 128.91C302.688 129.09 302.478 129.18 302.238 129.18C301.998 129.18 301.788 129.09 301.608 128.91Z" fill="black"></path> <path d="M90.826 389.352L89.8 388.542C90.58 387.378 91.726 386.796 93.238 386.796C94.318 386.796 95.164 387.078 95.776 387.642C96.4 388.206 96.712 388.944 96.712 389.856C96.712 390.444 96.556 390.96 96.244 391.404C95.944 391.836 95.548 392.166 95.056 392.394C95.836 392.574 96.43 392.946 96.838 393.51C97.258 394.074 97.468 394.734 97.468 395.49C97.468 396.738 96.97 397.716 95.974 398.424C95.206 398.952 94.294 399.216 93.238 399.216C92.146 399.216 91.24 398.94 90.52 398.388C89.8 397.836 89.26 397.152 88.9 396.336L90.196 395.76C90.436 396.432 90.832 396.966 91.384 397.362C91.936 397.758 92.572 397.956 93.292 397.956C94.024 397.956 94.636 397.788 95.128 397.452C95.776 396.996 96.1 396.354 96.1 395.526C96.1 393.954 95.032 393.168 92.896 393.168H91.816V391.908H92.896C93.688 391.908 94.294 391.716 94.714 391.332C95.134 390.948 95.344 390.462 95.344 389.874C95.344 389.358 95.182 388.938 94.858 388.614C94.498 388.242 93.958 388.056 93.238 388.056C92.23 388.056 91.426 388.488 90.826 389.352ZM105.319 392.592V391.53H106.615V399H105.319V397.956C104.671 398.796 103.819 399.216 102.763 399.216C101.755 399.216 100.897 398.868 100.189 398.172C99.4811 397.476 99.1271 396.504 99.1271 395.256C99.1271 394.032 99.4751 393.078 100.171 392.394C100.879 391.698 101.743 391.35 102.763 391.35C103.843 391.35 104.695 391.764 105.319 392.592ZM102.907 392.502C102.223 392.502 101.641 392.748 101.161 393.24C100.693 393.72 100.459 394.392 100.459 395.256C100.459 396.084 100.675 396.762 101.107 397.29C101.551 397.806 102.151 398.064 102.907 398.064C103.663 398.064 104.263 397.794 104.707 397.254C105.163 396.714 105.391 396.054 105.391 395.274C105.391 394.386 105.139 393.702 104.635 393.222C104.131 392.742 103.555 392.502 102.907 392.502ZM109.07 391.53H111.896C112.58 391.53 113.102 391.674 113.462 391.962C113.894 392.31 114.11 392.778 114.11 393.366C114.11 394.014 113.84 394.512 113.3 394.86C113.672 394.956 113.984 395.124 114.236 395.364C114.632 395.748 114.83 396.228 114.83 396.804C114.83 397.524 114.572 398.088 114.056 398.496C113.612 398.832 113.024 399 112.292 399H109.07V391.53ZM110.366 394.572H111.734C112.082 394.572 112.358 394.5 112.562 394.356C112.802 394.176 112.922 393.918 112.922 393.582C112.922 393.282 112.802 393.042 112.562 392.862C112.382 392.742 112.034 392.682 111.518 392.682H110.366V394.572ZM110.366 397.848H111.968C112.52 397.848 112.91 397.764 113.138 397.596C113.426 397.38 113.57 397.104 113.57 396.768C113.57 396.408 113.444 396.126 113.192 395.922C112.964 395.742 112.574 395.652 112.022 395.652H110.366V397.848ZM121.7 392.718H119.36V399H118.064V392.718H115.724V391.53H121.7V392.718ZM124.358 397.956V403.14H123.062V391.53H124.358V392.574C125.018 391.758 125.87 391.35 126.914 391.35C128.03 391.35 128.912 391.746 129.56 392.538C130.22 393.318 130.55 394.242 130.55 395.31C130.55 396.39 130.226 397.314 129.578 398.082C128.93 398.838 128.06 399.216 126.968 399.216C125.876 399.216 125.006 398.796 124.358 397.956ZM126.788 398.064C127.52 398.064 128.108 397.8 128.552 397.272C128.996 396.732 129.218 396.078 129.218 395.31C129.218 394.446 128.972 393.762 128.48 393.258C127.988 392.754 127.418 392.502 126.77 392.502C126.122 392.502 125.546 392.754 125.042 393.258C124.538 393.762 124.286 394.44 124.286 395.292C124.286 396.072 124.514 396.732 124.97 397.272C125.438 397.8 126.044 398.064 126.788 398.064ZM138.261 392.592V391.53H139.557V399H138.261V397.956C137.613 398.796 136.761 399.216 135.705 399.216C134.697 399.216 133.839 398.868 133.131 398.172C132.423 397.476 132.069 396.504 132.069 395.256C132.069 394.032 132.417 393.078 133.113 392.394C133.821 391.698 134.685 391.35 135.705 391.35C136.785 391.35 137.637 391.764 138.261 392.592ZM135.849 392.502C135.165 392.502 134.583 392.748 134.103 393.24C133.635 393.72 133.401 394.392 133.401 395.256C133.401 396.084 133.617 396.762 134.049 397.29C134.493 397.806 135.093 398.064 135.849 398.064C136.605 398.064 137.205 397.794 137.649 397.254C138.105 396.714 138.333 396.054 138.333 395.274C138.333 394.386 138.081 393.702 137.577 393.222C137.073 392.742 136.497 392.502 135.849 392.502ZM146.212 391.53H149.038C149.722 391.53 150.244 391.674 150.604 391.962C151.036 392.31 151.252 392.778 151.252 393.366C151.252 394.014 150.982 394.512 150.442 394.86C150.814 394.956 151.126 395.124 151.378 395.364C151.774 395.748 151.972 396.228 151.972 396.804C151.972 397.524 151.714 398.088 151.198 398.496C150.754 398.832 150.166 399 149.434 399H146.212V391.53ZM147.508 394.572H148.876C149.224 394.572 149.5 394.5 149.704 394.356C149.944 394.176 150.064 393.918 150.064 393.582C150.064 393.282 149.944 393.042 149.704 392.862C149.524 392.742 149.176 392.682 148.66 392.682H147.508V394.572ZM147.508 397.848H149.11C149.662 397.848 150.052 397.764 150.28 397.596C150.568 397.38 150.712 397.104 150.712 396.768C150.712 396.408 150.586 396.126 150.334 395.922C150.106 395.742 149.716 395.652 149.164 395.652H147.508V397.848ZM161.712 399V388.254H159.696L160.398 386.994H163.044V399H161.712ZM172.752 386.328V395.508H174.228V396.732H172.752V399H171.42V396.732H165.264L172.752 386.328ZM167.622 395.508H171.42V390.198L167.622 395.508ZM176.557 392.88C176.377 392.7 176.287 392.49 176.287 392.25C176.287 392.01 176.377 391.8 176.557 391.62C176.737 391.44 176.947 391.35 177.187 391.35C177.427 391.35 177.637 391.44 177.817 391.62C177.997 391.8 178.087 392.01 178.087 392.25C178.087 392.49 177.997 392.7 177.817 392.88C177.637 393.06 177.427 393.15 177.187 393.15C176.947 393.15 176.737 393.06 176.557 392.88ZM176.557 398.946C176.377 398.766 176.287 398.556 176.287 398.316C176.287 398.076 176.377 397.866 176.557 397.686C176.737 397.506 176.947 397.416 177.187 397.416C177.427 397.416 177.637 397.506 177.817 397.686C177.997 397.866 178.087 398.076 178.087 398.316C178.087 398.556 177.997 398.766 177.817 398.946C177.637 399.126 177.427 399.216 177.187 399.216C176.947 399.216 176.737 399.126 176.557 398.946ZM187.42 397.416C186.592 398.616 185.566 399.216 184.342 399.216C183.118 399.216 182.092 398.616 181.264 397.416C180.46 396.252 180.058 394.782 180.058 393.006C180.058 391.23 180.46 389.76 181.264 388.596C182.092 387.396 183.118 386.796 184.342 386.796C185.566 386.796 186.592 387.396 187.42 388.596C188.224 389.76 188.626 391.23 188.626 393.006C188.626 394.782 188.224 396.252 187.42 397.416ZM186.412 389.352C185.86 388.464 185.17 388.02 184.342 388.02C183.514 388.02 182.824 388.464 182.272 389.352C181.684 390.288 181.39 391.506 181.39 393.006C181.39 394.506 181.684 395.724 182.272 396.66C182.824 397.548 183.514 397.992 184.342 397.992C185.17 397.992 185.86 397.548 186.412 396.66C187 395.724 187.294 394.506 187.294 393.006C187.294 391.506 187 390.288 186.412 389.352ZM197.651 397.416C196.823 398.616 195.797 399.216 194.573 399.216C193.349 399.216 192.323 398.616 191.495 397.416C190.691 396.252 190.289 394.782 190.289 393.006C190.289 391.23 190.691 389.76 191.495 388.596C192.323 387.396 193.349 386.796 194.573 386.796C195.797 386.796 196.823 387.396 197.651 388.596C198.455 389.76 198.857 391.23 198.857 393.006C198.857 394.782 198.455 396.252 197.651 397.416ZM196.643 389.352C196.091 388.464 195.401 388.02 194.573 388.02C193.745 388.02 193.055 388.464 192.503 389.352C191.915 390.288 191.621 391.506 191.621 393.006C191.621 394.506 191.915 395.724 192.503 396.66C193.055 397.548 193.745 397.992 194.573 397.992C195.401 397.992 196.091 397.548 196.643 396.66C197.231 395.724 197.525 394.506 197.525 393.006C197.525 391.506 197.231 390.288 196.643 389.352ZM205.117 391.53H206.413V394.59L209.437 391.53H211.021L207.781 394.86L211.417 399H209.725L206.809 395.724L206.413 396.102V399H205.117V391.53ZM218.677 398.1C217.933 398.844 216.991 399.216 215.851 399.216C214.711 399.216 213.763 398.844 213.007 398.1C212.263 397.356 211.891 396.42 211.891 395.292C211.891 394.152 212.263 393.21 213.007 392.466C213.763 391.722 214.711 391.35 215.851 391.35C216.991 391.35 217.933 391.722 218.677 392.466C219.433 393.21 219.811 394.152 219.811 395.292C219.811 396.42 219.433 397.356 218.677 398.1ZM217.705 393.24C217.201 392.748 216.583 392.502 215.851 392.502C215.119 392.502 214.495 392.754 213.979 393.258C213.475 393.75 213.223 394.428 213.223 395.292C213.223 396.156 213.481 396.834 213.997 397.326C214.513 397.818 215.131 398.064 215.851 398.064C216.571 398.064 217.189 397.818 217.705 397.326C218.221 396.834 218.479 396.156 218.479 395.292C218.479 394.416 218.221 393.732 217.705 393.24ZM221.798 399V391.53H223.094V394.59H226.622V391.53H227.918V399H226.622V395.778H223.094V399H221.798ZM236.209 392.07V393.618C235.621 392.874 234.841 392.502 233.869 392.502C233.137 392.502 232.513 392.754 231.997 393.258C231.481 393.75 231.223 394.428 231.223 395.292C231.223 396.156 231.481 396.834 231.997 397.326C232.513 397.818 233.131 398.064 233.851 398.064C234.811 398.064 235.615 397.674 236.263 396.894V398.442C235.555 398.958 234.763 399.216 233.887 399.216C232.723 399.216 231.763 398.85 231.007 398.118C230.263 397.374 229.891 396.438 229.891 395.31C229.891 394.17 230.269 393.228 231.025 392.484C231.781 391.728 232.735 391.35 233.887 391.35C234.751 391.35 235.525 391.59 236.209 392.07ZM238.233 403.14L240.609 398.298L237.171 391.53H238.647L241.293 396.876L243.723 391.53H245.163L239.673 403.14H238.233ZM252.007 391.53V399H250.711V392.718H248.047V396.084C248.047 397.056 247.855 397.776 247.471 398.244C247.039 398.772 246.439 399.036 245.671 399.036C245.575 399.036 245.443 399.024 245.275 399V397.812C245.395 397.836 245.491 397.848 245.563 397.848C245.983 397.848 246.295 397.686 246.499 397.362C246.667 397.098 246.751 396.672 246.751 396.084V391.53H252.007ZM254.458 399V391.53H255.754V394.392H257.086C258.118 394.392 258.874 394.638 259.354 395.13C259.738 395.514 259.93 396.036 259.93 396.696C259.93 397.392 259.708 397.95 259.264 398.37C258.82 398.79 258.088 399 257.068 399H254.458ZM255.754 397.848H256.96C257.5 397.848 257.884 397.782 258.112 397.65C258.436 397.434 258.598 397.116 258.598 396.696C258.598 396.264 258.442 395.952 258.13 395.76C257.914 395.616 257.53 395.544 256.978 395.544H255.754V397.848ZM266.175 392.718H263.835V399H262.539V392.718H260.199V391.53H266.175V392.718ZM273.032 392.592V391.53H274.328V399H273.032V397.956C272.384 398.796 271.532 399.216 270.476 399.216C269.468 399.216 268.61 398.868 267.902 398.172C267.194 397.476 266.84 396.504 266.84 395.256C266.84 394.032 267.188 393.078 267.884 392.394C268.592 391.698 269.456 391.35 270.476 391.35C271.556 391.35 272.408 391.764 273.032 392.592ZM270.62 392.502C269.936 392.502 269.354 392.748 268.874 393.24C268.406 393.72 268.172 394.392 268.172 395.256C268.172 396.084 268.388 396.762 268.82 397.29C269.264 397.806 269.864 398.064 270.62 398.064C271.376 398.064 271.976 397.794 272.42 397.254C272.876 396.714 273.104 396.054 273.104 395.274C273.104 394.386 272.852 393.702 272.348 393.222C271.844 392.742 271.268 392.502 270.62 392.502ZM276.783 399V391.53H278.079V397.812H281.427V391.53H282.723V397.812H283.947V400.98H282.759V399H276.783ZM285.308 391.53H286.604V396.462L291.716 390.954V399H290.42V394.014L285.308 399.522V391.53ZM293.303 399L295.625 395.922C295.553 395.922 295.451 395.91 295.319 395.886C295.199 395.862 295.019 395.802 294.779 395.706C294.539 395.61 294.341 395.484 294.185 395.328C293.789 394.956 293.591 394.458 293.591 393.834C293.591 393.126 293.813 392.568 294.257 392.16C294.701 391.74 295.433 391.53 296.453 391.53H299.063V399H297.767V395.994H296.975L294.851 399H293.303ZM297.767 394.914V392.682H296.561C295.997 392.682 295.607 392.748 295.391 392.88C295.079 393.084 294.923 393.39 294.923 393.798C294.923 394.206 295.079 394.506 295.391 394.698C295.619 394.842 296.003 394.914 296.543 394.914H297.767Z" fill="black"></path> <path d="M89.548 230.994H98.368V243H97.036V232.254H90.88V243H89.548V230.994ZM107.46 242.1C106.716 242.844 105.774 243.216 104.634 243.216C103.494 243.216 102.546 242.844 101.79 242.1C101.046 241.356 100.674 240.42 100.674 239.292C100.674 238.152 101.046 237.21 101.79 236.466C102.546 235.722 103.494 235.35 104.634 235.35C105.774 235.35 106.716 235.722 107.46 236.466C108.216 237.21 108.594 238.152 108.594 239.292C108.594 240.42 108.216 241.356 107.46 242.1ZM106.488 237.24C105.984 236.748 105.366 236.502 104.634 236.502C103.902 236.502 103.278 236.754 102.762 237.258C102.258 237.75 102.006 238.428 102.006 239.292C102.006 240.156 102.264 240.834 102.78 241.326C103.296 241.818 103.914 242.064 104.634 242.064C105.354 242.064 105.972 241.818 106.488 241.326C107.004 240.834 107.262 240.156 107.262 239.292C107.262 238.416 107.004 237.732 106.488 237.24ZM110.581 235.53H111.877V238.59L114.901 235.53H116.485L113.245 238.86L116.881 243H115.189L112.273 239.724L111.877 240.102V243H110.581V235.53ZM123.899 236.592V235.53H125.195V243H123.899V241.956C123.251 242.796 122.399 243.216 121.343 243.216C120.335 243.216 119.477 242.868 118.769 242.172C118.061 241.476 117.707 240.504 117.707 239.256C117.707 238.032 118.055 237.078 118.751 236.394C119.459 235.698 120.323 235.35 121.343 235.35C122.423 235.35 123.275 235.764 123.899 236.592ZM121.487 236.502C120.803 236.502 120.221 236.748 119.741 237.24C119.273 237.72 119.039 238.392 119.039 239.256C119.039 240.084 119.255 240.762 119.687 241.29C120.131 241.806 120.731 242.064 121.487 242.064C122.243 242.064 122.843 241.794 123.287 241.254C123.743 240.714 123.971 240.054 123.971 239.274C123.971 238.386 123.719 237.702 123.215 237.222C122.711 236.742 122.135 236.502 121.487 236.502ZM128.622 237.438L127.722 236.7C128.01 236.28 128.328 235.968 128.676 235.764C129.144 235.488 129.69 235.35 130.314 235.35C131.07 235.35 131.658 235.524 132.078 235.872C132.51 236.244 132.726 236.718 132.726 237.294C132.726 237.99 132.444 238.512 131.88 238.86C132.24 238.944 132.528 239.106 132.744 239.346C133.092 239.718 133.266 240.174 133.266 240.714C133.266 241.518 132.942 242.16 132.294 242.64C131.766 243.024 131.058 243.216 130.17 243.216C129.378 243.216 128.712 243.006 128.172 242.586C127.764 242.286 127.434 241.86 127.182 241.308L128.298 240.84C128.43 241.176 128.652 241.458 128.964 241.686C129.3 241.938 129.708 242.064 130.188 242.064C130.752 242.064 131.172 241.968 131.448 241.776C131.796 241.548 131.97 241.2 131.97 240.732C131.97 240.348 131.82 240.06 131.52 239.868C131.268 239.7 130.86 239.616 130.296 239.616H129.54V238.428H130.17C130.626 238.428 130.95 238.362 131.142 238.23C131.406 238.062 131.538 237.834 131.538 237.546C131.538 237.21 131.43 236.952 131.214 236.772C131.01 236.592 130.692 236.502 130.26 236.502C129.888 236.502 129.546 236.598 129.234 236.79C128.97 236.958 128.766 237.174 128.622 237.438ZM140.968 236.592V235.53H142.264V243H140.968V241.956C140.32 242.796 139.468 243.216 138.412 243.216C137.404 243.216 136.546 242.868 135.838 242.172C135.13 241.476 134.776 240.504 134.776 239.256C134.776 238.032 135.124 237.078 135.82 236.394C136.528 235.698 137.392 235.35 138.412 235.35C139.492 235.35 140.344 235.764 140.968 236.592ZM138.556 236.502C137.872 236.502 137.29 236.748 136.81 237.24C136.342 237.72 136.108 238.392 136.108 239.256C136.108 240.084 136.324 240.762 136.756 241.29C137.2 241.806 137.8 242.064 138.556 242.064C139.312 242.064 139.912 241.794 140.356 241.254C140.812 240.714 141.04 240.054 141.04 239.274C141.04 238.386 140.788 237.702 140.284 237.222C139.78 236.742 139.204 236.502 138.556 236.502ZM149.614 236.718H147.274V243H145.978V236.718H143.638V235.53H149.614V236.718ZM156.344 240.498L157.424 241.092C157.172 241.572 156.866 241.974 156.506 242.298C155.822 242.91 154.994 243.216 154.022 243.216C153.014 243.216 152.144 242.892 151.412 242.244C150.692 241.584 150.332 240.606 150.332 239.31C150.332 238.17 150.656 237.228 151.304 236.484C151.964 235.728 152.846 235.35 153.95 235.35C155.198 235.35 156.14 235.806 156.776 236.718C157.28 237.438 157.514 238.374 157.478 239.526H151.664C151.676 240.282 151.91 240.894 152.366 241.362C152.822 241.83 153.38 242.064 154.04 242.064C154.628 242.064 155.138 241.884 155.57 241.524C155.906 241.236 156.164 240.894 156.344 240.498ZM151.754 238.446H156.146C156.038 237.858 155.78 237.39 155.372 237.042C154.976 236.682 154.502 236.502 153.95 236.502C153.41 236.502 152.93 236.688 152.51 237.06C152.102 237.42 151.85 237.882 151.754 238.446ZM165.118 235.53V243H163.822V236.718H161.158V240.084C161.158 241.056 160.966 241.776 160.582 242.244C160.15 242.772 159.55 243.036 158.782 243.036C158.686 243.036 158.554 243.024 158.386 243V241.812C158.506 241.836 158.602 241.848 158.674 241.848C159.094 241.848 159.406 241.686 159.61 241.362C159.778 241.098 159.862 240.672 159.862 240.084V235.53H165.118ZM167.57 235.53H168.866V240.462L173.978 234.954V243H172.682V238.014L167.57 243.522V235.53ZM186.48 236.07V237.618C185.892 236.874 185.112 236.502 184.14 236.502C183.408 236.502 182.784 236.754 182.268 237.258C181.752 237.75 181.494 238.428 181.494 239.292C181.494 240.156 181.752 240.834 182.268 241.326C182.784 241.818 183.402 242.064 184.122 242.064C185.082 242.064 185.886 241.674 186.534 240.894V242.442C185.826 242.958 185.034 243.216 184.158 243.216C182.994 243.216 182.034 242.85 181.278 242.118C180.534 241.374 180.162 240.438 180.162 239.31C180.162 238.17 180.54 237.228 181.296 236.484C182.052 235.728 183.006 235.35 184.158 235.35C185.022 235.35 185.796 235.59 186.48 236.07ZM194.247 236.592V235.53H195.543V243H194.247V241.956C193.599 242.796 192.747 243.216 191.691 243.216C190.683 243.216 189.825 242.868 189.117 242.172C188.409 241.476 188.055 240.504 188.055 239.256C188.055 238.032 188.403 237.078 189.099 236.394C189.807 235.698 190.671 235.35 191.691 235.35C192.771 235.35 193.623 235.764 194.247 236.592ZM191.835 236.502C191.151 236.502 190.569 236.748 190.089 237.24C189.621 237.72 189.387 238.392 189.387 239.256C189.387 240.084 189.603 240.762 190.035 241.29C190.479 241.806 191.079 242.064 191.835 242.064C192.591 242.064 193.191 241.794 193.635 241.254C194.091 240.714 194.319 240.054 194.319 239.274C194.319 238.386 194.067 237.702 193.563 237.222C193.059 236.742 192.483 236.502 191.835 236.502ZM196.917 243L200.103 239.004L197.385 235.53H198.969L200.895 238.068L202.857 235.53H204.441L201.705 239.022L204.801 243H203.217L200.859 239.958L198.501 243H196.917ZM211.895 236.592V235.53H213.191V243H211.895V241.956C211.247 242.796 210.395 243.216 209.339 243.216C208.331 243.216 207.473 242.868 206.765 242.172C206.057 241.476 205.703 240.504 205.703 239.256C205.703 238.032 206.051 237.078 206.747 236.394C207.455 235.698 208.319 235.35 209.339 235.35C210.419 235.35 211.271 235.764 211.895 236.592ZM209.483 236.502C208.799 236.502 208.217 236.748 207.737 237.24C207.269 237.72 207.035 238.392 207.035 239.256C207.035 240.084 207.251 240.762 207.683 241.29C208.127 241.806 208.727 242.064 209.483 242.064C210.239 242.064 210.839 241.794 211.283 241.254C211.739 240.714 211.967 240.054 211.967 239.274C211.967 238.386 211.715 237.702 211.211 237.222C210.707 236.742 210.131 236.502 209.483 236.502ZM216.942 241.956V247.14H215.646V235.53H216.942V236.574C217.602 235.758 218.454 235.35 219.498 235.35C220.614 235.35 221.496 235.746 222.144 236.538C222.804 237.318 223.134 238.242 223.134 239.31C223.134 240.39 222.81 241.314 222.162 242.082C221.514 242.838 220.644 243.216 219.552 243.216C218.46 243.216 217.59 242.796 216.942 241.956ZM219.372 242.064C220.104 242.064 220.692 241.8 221.136 241.272C221.58 240.732 221.802 240.078 221.802 239.31C221.802 238.446 221.556 237.762 221.064 237.258C220.572 236.754 220.002 236.502 219.354 236.502C218.706 236.502 218.13 236.754 217.626 237.258C217.122 237.762 216.87 238.44 216.87 239.292C216.87 240.072 217.098 240.732 217.554 241.272C218.022 241.8 218.628 242.064 219.372 242.064ZM230.844 236.592V235.53H232.14V243H230.844V241.956C230.196 242.796 229.344 243.216 228.288 243.216C227.28 243.216 226.422 242.868 225.714 242.172C225.006 241.476 224.652 240.504 224.652 239.256C224.652 238.032 225 237.078 225.696 236.394C226.404 235.698 227.268 235.35 228.288 235.35C229.368 235.35 230.22 235.764 230.844 236.592ZM228.432 236.502C227.748 236.502 227.166 236.748 226.686 237.24C226.218 237.72 225.984 238.392 225.984 239.256C225.984 240.084 226.2 240.762 226.632 241.29C227.076 241.806 227.676 242.064 228.432 242.064C229.188 242.064 229.788 241.794 230.232 241.254C230.688 240.714 230.916 240.054 230.916 239.274C230.916 238.386 230.664 237.702 230.16 237.222C229.656 236.742 229.08 236.502 228.432 236.502ZM238.796 235.53H244.808V243H243.512V236.718H240.092V243H238.796V235.53ZM253.569 242.1C252.825 242.844 251.883 243.216 250.743 243.216C249.603 243.216 248.655 242.844 247.899 242.1C247.155 241.356 246.783 240.42 246.783 239.292C246.783 238.152 247.155 237.21 247.899 236.466C248.655 235.722 249.603 235.35 250.743 235.35C251.883 235.35 252.825 235.722 253.569 236.466C254.325 237.21 254.703 238.152 254.703 239.292C254.703 240.42 254.325 241.356 253.569 242.1ZM252.597 237.24C252.093 236.748 251.475 236.502 250.743 236.502C250.011 236.502 249.387 236.754 248.871 237.258C248.367 237.75 248.115 238.428 248.115 239.292C248.115 240.156 248.373 240.834 248.889 241.326C249.405 241.818 250.023 242.064 250.743 242.064C251.463 242.064 252.081 241.818 252.597 241.326C253.113 240.834 253.371 240.156 253.371 239.292C253.371 238.416 253.113 237.732 252.597 237.24ZM256.691 235.53H259.517C260.201 235.53 260.723 235.674 261.083 235.962C261.515 236.31 261.731 236.778 261.731 237.366C261.731 238.014 261.461 238.512 260.921 238.86C261.293 238.956 261.605 239.124 261.857 239.364C262.253 239.748 262.451 240.228 262.451 240.804C262.451 241.524 262.193 242.088 261.677 242.496C261.233 242.832 260.645 243 259.913 243H256.691V235.53ZM257.987 238.572H259.355C259.703 238.572 259.979 238.5 260.183 238.356C260.423 238.176 260.543 237.918 260.543 237.582C260.543 237.282 260.423 237.042 260.183 236.862C260.003 236.742 259.655 236.682 259.139 236.682H257.987V238.572ZM257.987 241.848H259.589C260.141 241.848 260.531 241.764 260.759 241.596C261.047 241.38 261.191 241.104 261.191 240.768C261.191 240.408 261.065 240.126 260.813 239.922C260.585 239.742 260.195 239.652 259.643 239.652H257.987V241.848ZM264.425 243V235.53H265.721V238.392H267.053C268.085 238.392 268.841 238.638 269.321 239.13C269.705 239.514 269.897 240.036 269.897 240.696C269.897 241.392 269.675 241.95 269.231 242.37C268.787 242.79 268.055 243 267.035 243H264.425ZM265.721 241.848H266.927C267.467 241.848 267.851 241.782 268.079 241.65C268.403 241.434 268.565 241.116 268.565 240.696C268.565 240.264 268.409 239.952 268.097 239.76C267.881 239.616 267.497 239.544 266.945 239.544H265.721V241.848ZM270.797 243V235.53H272.093V243H270.797ZM274.533 243V235.53H275.829V241.812H278.709V235.53H280.005V241.812H282.885V235.53H284.181V243H274.533ZM292.17 240.498L293.25 241.092C292.998 241.572 292.692 241.974 292.332 242.298C291.648 242.91 290.82 243.216 289.848 243.216C288.84 243.216 287.97 242.892 287.238 242.244C286.518 241.584 286.158 240.606 286.158 239.31C286.158 238.17 286.482 237.228 287.13 236.484C287.79 235.728 288.672 235.35 289.776 235.35C291.024 235.35 291.966 235.806 292.602 236.718C293.106 237.438 293.34 238.374 293.304 239.526H287.49C287.502 240.282 287.736 240.894 288.192 241.362C288.648 241.83 289.206 242.064 289.866 242.064C290.454 242.064 290.964 241.884 291.396 241.524C291.732 241.236 291.99 240.894 292.17 240.498ZM287.58 238.446H291.972C291.864 237.858 291.606 237.39 291.198 237.042C290.802 236.682 290.328 236.502 289.776 236.502C289.236 236.502 288.756 236.688 288.336 237.06C287.928 237.42 287.676 237.882 287.58 238.446ZM295.292 243V235.53H296.588V238.59H300.116V235.53H301.412V243H300.116V239.778H296.588V243H295.292ZM303.853 243V235.53H305.149V238.392H306.481C307.513 238.392 308.269 238.638 308.749 239.13C309.133 239.514 309.325 240.036 309.325 240.696C309.325 241.392 309.103 241.95 308.659 242.37C308.215 242.79 307.483 243 306.463 243H303.853ZM305.149 241.848H306.355C306.895 241.848 307.279 241.782 307.507 241.65C307.831 241.434 307.993 241.116 307.993 240.696C307.993 240.264 307.837 239.952 307.525 239.76C307.309 239.616 306.925 239.544 306.373 239.544H305.149V241.848ZM310.225 243V235.53H311.521V243H310.225ZM313.168 245.394L314.644 241.236L315.832 241.668L314.014 245.736L313.168 245.394ZM95.074 259.07V260.618C94.486 259.874 93.706 259.502 92.734 259.502C92.002 259.502 91.378 259.754 90.862 260.258C90.346 260.75 90.088 261.428 90.088 262.292C90.088 263.156 90.346 263.834 90.862 264.326C91.378 264.818 91.996 265.064 92.716 265.064C93.676 265.064 94.48 264.674 95.128 263.894V265.442C94.42 265.958 93.628 266.216 92.752 266.216C91.588 266.216 90.628 265.85 89.872 265.118C89.128 264.374 88.756 263.438 88.756 262.31C88.756 261.17 89.134 260.228 89.89 259.484C90.646 258.728 91.6 258.35 92.752 258.35C93.616 258.35 94.39 258.59 95.074 259.07ZM97.6566 258.53H102.913V264.812H104.029V267.98H102.841V266H97.1526V267.98H95.9646V264.812C96.5886 264.8 97.0506 264.476 97.3506 263.84C97.5546 263.42 97.6566 262.76 97.6566 261.86V258.53ZM101.617 264.812V259.718H98.9526V262.526C98.9526 263.522 98.6526 264.284 98.0526 264.812H101.617ZM110.94 263.498L112.02 264.092C111.768 264.572 111.462 264.974 111.102 265.298C110.418 265.91 109.59 266.216 108.618 266.216C107.61 266.216 106.74 265.892 106.008 265.244C105.288 264.584 104.928 263.606 104.928 262.31C104.928 261.17 105.252 260.228 105.9 259.484C106.56 258.728 107.442 258.35 108.546 258.35C109.794 258.35 110.736 258.806 111.372 259.718C111.876 260.438 112.11 261.374 112.074 262.526H106.26C106.272 263.282 106.506 263.894 106.962 264.362C107.418 264.83 107.976 265.064 108.636 265.064C109.224 265.064 109.734 264.884 110.166 264.524C110.502 264.236 110.76 263.894 110.94 263.498ZM106.35 261.446H110.742C110.634 260.858 110.376 260.39 109.968 260.042C109.572 259.682 109.098 259.502 108.546 259.502C108.006 259.502 107.526 259.688 107.106 260.06C106.698 260.42 106.446 260.882 106.35 261.446ZM119.714 258.53V266H118.418V259.718H115.754V263.084C115.754 264.056 115.562 264.776 115.178 265.244C114.746 265.772 114.146 266.036 113.378 266.036C113.282 266.036 113.15 266.024 112.982 266V264.812C113.102 264.836 113.198 264.848 113.27 264.848C113.69 264.848 114.002 264.686 114.206 264.362C114.374 264.098 114.458 263.672 114.458 263.084V258.53H119.714ZM127.889 259.592V258.53H129.185V266H127.889V264.956C127.241 265.796 126.389 266.216 125.333 266.216C124.325 266.216 123.467 265.868 122.759 265.172C122.051 264.476 121.697 263.504 121.697 262.256C121.697 261.032 122.045 260.078 122.741 259.394C123.449 258.698 124.313 258.35 125.333 258.35C126.413 258.35 127.265 258.764 127.889 259.592ZM125.477 259.502C124.793 259.502 124.211 259.748 123.731 260.24C123.263 260.72 123.029 261.392 123.029 262.256C123.029 263.084 123.245 263.762 123.677 264.29C124.121 264.806 124.721 265.064 125.477 265.064C126.233 265.064 126.833 264.794 127.277 264.254C127.733 263.714 127.961 263.054 127.961 262.274C127.961 261.386 127.709 260.702 127.205 260.222C126.701 259.742 126.125 259.502 125.477 259.502ZM131.64 258.53H132.936V263.462L138.048 257.954V266H136.752V261.014L131.64 266.522V258.53ZM132.288 255.308L133.368 254.894C133.584 255.614 134.094 255.974 134.898 255.974C135.702 255.974 136.212 255.614 136.428 254.894L137.508 255.308C137.316 255.848 136.986 256.274 136.518 256.586C136.062 256.898 135.522 257.054 134.898 257.054C134.274 257.054 133.728 256.898 133.26 256.586C132.804 256.274 132.48 255.848 132.288 255.308ZM145.395 259.718H143.055V266H141.759V259.718H139.419V258.53H145.395V259.718ZM152.125 263.498L153.205 264.092C152.953 264.572 152.647 264.974 152.287 265.298C151.603 265.91 150.775 266.216 149.803 266.216C148.795 266.216 147.925 265.892 147.193 265.244C146.473 264.584 146.113 263.606 146.113 262.31C146.113 261.17 146.437 260.228 147.085 259.484C147.745 258.728 148.627 258.35 149.731 258.35C150.979 258.35 151.921 258.806 152.557 259.718C153.061 260.438 153.295 261.374 153.259 262.526H147.445C147.457 263.282 147.691 263.894 148.147 264.362C148.603 264.83 149.161 265.064 149.821 265.064C150.409 265.064 150.919 264.884 151.351 264.524C151.687 264.236 151.945 263.894 152.125 263.498ZM147.535 261.446H151.927C151.819 260.858 151.561 260.39 151.153 260.042C150.757 259.682 150.283 259.502 149.731 259.502C149.191 259.502 148.711 259.688 148.291 260.06C147.883 260.42 147.631 260.882 147.535 261.446ZM159.431 270.14L161.807 265.298L158.369 258.53H159.845L162.491 263.876L164.921 258.53H166.361L160.871 270.14H159.431ZM167.728 258.53H169.024V261.59L172.048 258.53H173.632L170.392 261.86L174.028 266H172.336L169.42 262.724L169.024 263.102V266H167.728V258.53ZM181.288 265.1C180.544 265.844 179.602 266.216 178.462 266.216C177.322 266.216 176.374 265.844 175.618 265.1C174.874 264.356 174.502 263.42 174.502 262.292C174.502 261.152 174.874 260.21 175.618 259.466C176.374 258.722 177.322 258.35 178.462 258.35C179.602 258.35 180.544 258.722 181.288 259.466C182.044 260.21 182.422 261.152 182.422 262.292C182.422 263.42 182.044 264.356 181.288 265.1ZM180.316 260.24C179.812 259.748 179.194 259.502 178.462 259.502C177.73 259.502 177.106 259.754 176.59 260.258C176.086 260.75 175.834 261.428 175.834 262.292C175.834 263.156 176.092 263.834 176.608 264.326C177.124 264.818 177.742 265.064 178.462 265.064C179.182 265.064 179.8 264.818 180.316 264.326C180.832 263.834 181.09 263.156 181.09 262.292C181.09 261.416 180.832 260.732 180.316 260.24ZM190.062 258.53V266H188.766V259.718H186.102V263.084C186.102 264.056 185.91 264.776 185.526 265.244C185.094 265.772 184.494 266.036 183.726 266.036C183.63 266.036 183.498 266.024 183.33 266V264.812C183.45 264.836 183.546 264.848 183.618 264.848C184.038 264.848 184.35 264.686 184.554 264.362C184.722 264.098 184.806 263.672 184.806 263.084V258.53H190.062ZM196.714 258.53H198.01V263.462L203.122 257.954V266H201.826V261.014L196.714 266.522V258.53ZM211.226 258.53V266H209.93V259.718H207.266V263.084C207.266 264.056 207.074 264.776 206.69 265.244C206.258 265.772 205.658 266.036 204.89 266.036C204.794 266.036 204.662 266.024 204.494 266V264.812C204.614 264.836 204.71 264.848 204.782 264.848C205.202 264.848 205.514 264.686 205.718 264.362C205.886 264.098 205.97 263.672 205.97 263.084V258.53H211.226ZM213.677 258.53H214.973V263.462L220.085 257.954V266H218.789V261.014L213.677 266.522V258.53ZM232.588 259.07V260.618C232 259.874 231.22 259.502 230.248 259.502C229.516 259.502 228.892 259.754 228.376 260.258C227.86 260.75 227.602 261.428 227.602 262.292C227.602 263.156 227.86 263.834 228.376 264.326C228.892 264.818 229.51 265.064 230.23 265.064C231.19 265.064 231.994 264.674 232.642 263.894V265.442C231.934 265.958 231.142 266.216 230.266 266.216C229.102 266.216 228.142 265.85 227.386 265.118C226.642 264.374 226.27 263.438 226.27 262.31C226.27 261.17 226.648 260.228 227.404 259.484C228.16 258.728 229.114 258.35 230.266 258.35C231.13 258.35 231.904 258.59 232.588 259.07ZM235.926 264.956V270.14H234.63V258.53H235.926V259.574C236.586 258.758 237.438 258.35 238.482 258.35C239.598 258.35 240.48 258.746 241.128 259.538C241.788 260.318 242.118 261.242 242.118 262.31C242.118 263.39 241.794 264.314 241.146 265.082C240.498 265.838 239.628 266.216 238.536 266.216C237.444 266.216 236.574 265.796 235.926 264.956ZM238.356 265.064C239.088 265.064 239.676 264.8 240.12 264.272C240.564 263.732 240.786 263.078 240.786 262.31C240.786 261.446 240.54 260.762 240.048 260.258C239.556 259.754 238.986 259.502 238.338 259.502C237.69 259.502 237.114 259.754 236.61 260.258C236.106 260.762 235.854 261.44 235.854 262.292C235.854 263.072 236.082 263.732 236.538 264.272C237.006 264.8 237.612 265.064 238.356 265.064ZM250.423 265.1C249.679 265.844 248.737 266.216 247.597 266.216C246.457 266.216 245.509 265.844 244.753 265.1C244.009 264.356 243.637 263.42 243.637 262.292C243.637 261.152 244.009 260.21 244.753 259.466C245.509 258.722 246.457 258.35 247.597 258.35C248.737 258.35 249.679 258.722 250.423 259.466C251.179 260.21 251.557 261.152 251.557 262.292C251.557 263.42 251.179 264.356 250.423 265.1ZM249.451 260.24C248.947 259.748 248.329 259.502 247.597 259.502C246.865 259.502 246.241 259.754 245.725 260.258C245.221 260.75 244.969 261.428 244.969 262.292C244.969 263.156 245.227 263.834 245.743 264.326C246.259 264.818 246.877 265.064 247.597 265.064C248.317 265.064 248.935 264.818 249.451 264.326C249.967 263.834 250.225 263.156 250.225 262.292C250.225 261.416 249.967 260.732 249.451 260.24ZM257.54 266V263.066C256.832 263.174 256.244 263.228 255.776 263.228C254.96 263.228 254.354 263.048 253.958 262.688C253.538 262.316 253.328 261.704 253.328 260.852V258.53H254.624V260.672C254.624 261.08 254.678 261.374 254.786 261.554C254.954 261.878 255.332 262.04 255.92 262.04C256.448 262.04 256.988 261.986 257.54 261.878V258.53H258.836V266H257.54ZM261.279 266V258.53H262.575V261.59H266.103V258.53H267.399V266H266.103V262.778H262.575V266H261.279ZM276.157 265.1C275.413 265.844 274.471 266.216 273.331 266.216C272.191 266.216 271.243 265.844 270.487 265.1C269.743 264.356 269.371 263.42 269.371 262.292C269.371 261.152 269.743 260.21 270.487 259.466C271.243 258.722 272.191 258.35 273.331 258.35C274.471 258.35 275.413 258.722 276.157 259.466C276.913 260.21 277.291 261.152 277.291 262.292C277.291 263.42 276.913 264.356 276.157 265.1ZM275.185 260.24C274.681 259.748 274.063 259.502 273.331 259.502C272.599 259.502 271.975 259.754 271.459 260.258C270.955 260.75 270.703 261.428 270.703 262.292C270.703 263.156 270.961 263.834 271.477 264.326C271.993 264.818 272.611 265.064 273.331 265.064C274.051 265.064 274.669 264.818 275.185 264.326C275.701 263.834 275.959 263.156 275.959 262.292C275.959 261.416 275.701 260.732 275.185 260.24ZM95.542 288.1C94.798 288.844 93.856 289.216 92.716 289.216C91.576 289.216 90.628 288.844 89.872 288.1C89.128 287.356 88.756 286.42 88.756 285.292C88.756 284.152 89.128 283.21 89.872 282.466C90.628 281.722 91.576 281.35 92.716 281.35C93.856 281.35 94.798 281.722 95.542 282.466C96.298 283.21 96.676 284.152 96.676 285.292C96.676 286.42 96.298 287.356 95.542 288.1ZM94.57 283.24C94.066 282.748 93.448 282.502 92.716 282.502C91.984 282.502 91.36 282.754 90.844 283.258C90.34 283.75 90.088 284.428 90.088 285.292C90.088 286.156 90.346 286.834 90.862 287.326C91.378 287.818 91.996 288.064 92.716 288.064C93.436 288.064 94.054 287.818 94.57 287.326C95.086 286.834 95.344 286.156 95.344 285.292C95.344 284.416 95.086 283.732 94.57 283.24ZM104.423 276.4H105.863C105.731 276.844 105.503 277.222 105.179 277.534C104.867 277.834 104.579 278.038 104.315 278.146C104.063 278.254 103.763 278.35 103.415 278.434C103.355 278.446 103.211 278.482 102.983 278.542C102.755 278.59 102.581 278.632 102.461 278.668C102.341 278.704 102.185 278.752 101.993 278.812C101.801 278.872 101.627 278.944 101.471 279.028C101.315 279.112 101.171 279.202 101.039 279.298C100.583 279.646 100.211 280.132 99.9235 280.756C99.6475 281.368 99.4975 282.022 99.4735 282.718H99.5095C100.049 281.806 100.955 281.35 102.227 281.35C103.343 281.35 104.267 281.728 104.999 282.484C105.743 283.24 106.115 284.176 106.115 285.292C106.115 286.42 105.737 287.356 104.981 288.1C104.225 288.844 103.241 289.216 102.029 289.216C100.985 289.216 100.127 288.904 99.4555 288.28C98.6155 287.512 98.1955 286.228 98.1955 284.428C98.1955 281.296 98.9035 279.244 100.319 278.272C100.427 278.2 100.541 278.134 100.661 278.074C100.781 278.002 100.907 277.942 101.039 277.894C101.183 277.834 101.303 277.786 101.399 277.75C101.495 277.702 101.627 277.66 101.795 277.624C101.975 277.576 102.095 277.546 102.155 277.534C102.227 277.51 102.359 277.48 102.551 277.444C102.755 277.396 102.881 277.366 102.929 277.354C103.409 277.246 103.757 277.12 103.973 276.976C104.189 276.82 104.339 276.628 104.423 276.4ZM104.009 283.24C103.505 282.748 102.887 282.502 102.155 282.502C101.423 282.502 100.799 282.754 100.283 283.258C99.7795 283.75 99.5275 284.428 99.5275 285.292C99.5275 286.156 99.7855 286.834 100.301 287.326C100.817 287.818 101.435 288.064 102.155 288.064C102.875 288.064 103.493 287.818 104.009 287.326C104.525 286.834 104.783 286.156 104.783 285.292C104.783 284.416 104.525 283.732 104.009 283.24ZM109.399 287.956V293.14H108.103V281.53H109.399V282.574C110.059 281.758 110.911 281.35 111.955 281.35C113.071 281.35 113.953 281.746 114.601 282.538C115.261 283.318 115.591 284.242 115.591 285.31C115.591 286.39 115.267 287.314 114.619 288.082C113.971 288.838 113.101 289.216 112.009 289.216C110.917 289.216 110.047 288.796 109.399 287.956ZM111.829 288.064C112.561 288.064 113.149 287.8 113.593 287.272C114.037 286.732 114.259 286.078 114.259 285.31C114.259 284.446 114.013 283.762 113.521 283.258C113.029 282.754 112.459 282.502 111.811 282.502C111.163 282.502 110.587 282.754 110.083 283.258C109.579 283.762 109.327 284.44 109.327 285.292C109.327 286.072 109.555 286.732 110.011 287.272C110.479 287.8 111.085 288.064 111.829 288.064ZM123.302 282.592V281.53H124.598V289H123.302V287.956C122.654 288.796 121.802 289.216 120.746 289.216C119.738 289.216 118.88 288.868 118.172 288.172C117.464 287.476 117.11 286.504 117.11 285.256C117.11 284.032 117.458 283.078 118.154 282.394C118.862 281.698 119.726 281.35 120.746 281.35C121.826 281.35 122.678 281.764 123.302 282.592ZM120.89 282.502C120.206 282.502 119.624 282.748 119.144 283.24C118.676 283.72 118.442 284.392 118.442 285.256C118.442 286.084 118.658 286.762 119.09 287.29C119.534 287.806 120.134 288.064 120.89 288.064C121.646 288.064 122.246 287.794 122.69 287.254C123.146 286.714 123.374 286.054 123.374 285.274C123.374 284.386 123.122 283.702 122.618 283.222C122.114 282.742 121.538 282.502 120.89 282.502ZM131.948 282.718H129.608V289H128.312V282.718H125.972V281.53H131.948V282.718ZM133.31 281.53H134.606V286.462L139.718 280.954V289H138.422V284.014L133.31 289.522V281.53ZM147.065 282.718H144.725V289H143.429V282.718H141.089V281.53H147.065V282.718ZM153.795 286.498L154.875 287.092C154.623 287.572 154.317 287.974 153.957 288.298C153.273 288.91 152.445 289.216 151.473 289.216C150.465 289.216 149.595 288.892 148.863 288.244C148.143 287.584 147.783 286.606 147.783 285.31C147.783 284.17 148.107 283.228 148.755 282.484C149.415 281.728 150.297 281.35 151.401 281.35C152.649 281.35 153.591 281.806 154.227 282.718C154.731 283.438 154.965 284.374 154.929 285.526H149.115C149.127 286.282 149.361 286.894 149.817 287.362C150.273 287.83 150.831 288.064 151.491 288.064C152.079 288.064 152.589 287.884 153.021 287.524C153.357 287.236 153.615 286.894 153.795 286.498ZM149.205 284.446H153.597C153.489 283.858 153.231 283.39 152.823 283.042C152.427 282.682 151.953 282.502 151.401 282.502C150.861 282.502 150.381 282.688 149.961 283.06C149.553 283.42 149.301 283.882 149.205 284.446ZM162.767 282.07V283.618C162.179 282.874 161.399 282.502 160.427 282.502C159.695 282.502 159.071 282.754 158.555 283.258C158.039 283.75 157.781 284.428 157.781 285.292C157.781 286.156 158.039 286.834 158.555 287.326C159.071 287.818 159.689 288.064 160.409 288.064C161.369 288.064 162.173 287.674 162.821 286.894V288.442C162.113 288.958 161.321 289.216 160.445 289.216C159.281 289.216 158.321 288.85 157.565 288.118C156.821 287.374 156.449 286.438 156.449 285.31C156.449 284.17 156.827 283.228 157.583 282.484C158.339 281.728 159.293 281.35 160.445 281.35C161.309 281.35 162.083 281.59 162.767 282.07ZM164.81 289V281.53H166.106V284.392H167.438C168.47 284.392 169.226 284.638 169.706 285.13C170.09 285.514 170.282 286.036 170.282 286.696C170.282 287.392 170.06 287.95 169.616 288.37C169.172 288.79 168.44 289 167.42 289H164.81ZM166.106 287.848H167.312C167.852 287.848 168.236 287.782 168.464 287.65C168.788 287.434 168.95 287.116 168.95 286.696C168.95 286.264 168.794 285.952 168.482 285.76C168.266 285.616 167.882 285.544 167.33 285.544H166.106V287.848ZM176.218 281.53H177.514V284.59L180.538 281.53H182.122L178.882 284.86L182.518 289H180.826L177.91 285.724L177.514 286.102V289H176.218V281.53ZM188.013 281.53H190.839C191.523 281.53 192.045 281.674 192.405 281.962C192.837 282.31 193.053 282.778 193.053 283.366C193.053 284.014 192.783 284.512 192.243 284.86C192.615 284.956 192.927 285.124 193.179 285.364C193.575 285.748 193.773 286.228 193.773 286.804C193.773 287.524 193.515 288.088 192.999 288.496C192.555 288.832 191.967 289 191.235 289H188.013V281.53ZM189.309 284.572H190.677C191.025 284.572 191.301 284.5 191.505 284.356C191.745 284.176 191.865 283.918 191.865 283.582C191.865 283.282 191.745 283.042 191.505 282.862C191.325 282.742 190.977 282.682 190.461 282.682H189.309V284.572ZM189.309 287.848H190.911C191.463 287.848 191.853 287.764 192.081 287.596C192.369 287.38 192.513 287.104 192.513 286.768C192.513 286.408 192.387 286.126 192.135 285.922C191.907 285.742 191.517 285.652 190.965 285.652H189.309V287.848ZM197.043 287.956V293.14H195.747V281.53H197.043V282.574C197.703 281.758 198.555 281.35 199.599 281.35C200.715 281.35 201.597 281.746 202.245 282.538C202.905 283.318 203.235 284.242 203.235 285.31C203.235 286.39 202.911 287.314 202.263 288.082C201.615 288.838 200.745 289.216 199.653 289.216C198.561 289.216 197.691 288.796 197.043 287.956ZM199.473 288.064C200.205 288.064 200.793 287.8 201.237 287.272C201.681 286.732 201.903 286.078 201.903 285.31C201.903 284.446 201.657 283.762 201.165 283.258C200.673 282.754 200.103 282.502 199.455 282.502C198.807 282.502 198.231 282.754 197.727 283.258C197.223 283.762 196.971 284.44 196.971 285.292C196.971 286.072 197.199 286.732 197.655 287.272C198.123 287.8 198.729 288.064 199.473 288.064ZM210.946 282.592V281.53H212.242V289H210.946V287.956C210.298 288.796 209.446 289.216 208.39 289.216C207.382 289.216 206.524 288.868 205.816 288.172C205.108 287.476 204.754 286.504 204.754 285.256C204.754 284.032 205.102 283.078 205.798 282.394C206.506 281.698 207.37 281.35 208.39 281.35C209.47 281.35 210.322 281.764 210.946 282.592ZM208.534 282.502C207.85 282.502 207.268 282.748 206.788 283.24C206.32 283.72 206.086 284.392 206.086 285.256C206.086 286.084 206.302 286.762 206.734 287.29C207.178 287.806 207.778 288.064 208.534 288.064C209.29 288.064 209.89 287.794 210.334 287.254C210.79 286.714 211.018 286.054 211.018 285.274C211.018 284.386 210.766 283.702 210.262 283.222C209.758 282.742 209.182 282.502 208.534 282.502ZM218.693 289V286.066C217.985 286.174 217.397 286.228 216.929 286.228C216.113 286.228 215.507 286.048 215.111 285.688C214.691 285.316 214.481 284.704 214.481 283.852V281.53H215.777V283.672C215.777 284.08 215.831 284.374 215.939 284.554C216.107 284.878 216.485 285.04 217.073 285.04C217.601 285.04 218.141 284.986 218.693 284.878V281.53H219.989V289H218.693ZM222.413 293.14L224.789 288.298L221.351 281.53H222.827L225.473 286.876L227.903 281.53H229.343L223.853 293.14H222.413Z" fill="black"></path> <line x1="10" y1="56.5" x2="385" y2="56.5" stroke="#CAD6F3"></line> <line x1="10" y1="174.5" x2="385" y2="174.5" stroke="#CAD6F3"></line> <line x1="10" y1="321.5" x2="385" y2="321.5" stroke="#CAD6F3"></line> <path d="M51.4167 377.562H31.5833M34 393H49C50.6569 393 52 391.657 52 390V377C52 375.343 50.6569 374 49 374H34C32.3431 374 31 375.343 31 377V390C31 391.657 32.3431 393 34 393Z" stroke="#7F6CFC" stroke-width="1.8" stroke-linecap="round"></path> <path d="M36 374V371" stroke="#7F6CFC" stroke-width="1.8" stroke-linecap="round" stroke-linejoin="round"></path> <path d="M47 374V371" stroke="#7F6CFC" stroke-width="1.8" stroke-linecap="round" stroke-linejoin="round"></path> <path d="M36.8571 388H35M36.8571 384.5H35M36.8571 381H35M42.4286 388H40.5714M42.4286 384.5H40.5714M42.4286 381H40.5714M48 388H46.1429M48 384.5H46.1429M48 381H46.1429" stroke="#7F6CFC" stroke-width="1.8" stroke-linecap="round"></path> <path d="M43.096 228.736H37.784V214.656H43.096V228.736ZM42.808 235.616C42.1467 236.277 41.368 236.608 40.472 236.608C39.576 236.608 38.7973 236.277 38.136 235.616C37.4747 234.955 37.144 234.176 37.144 233.28C37.144 232.384 37.4747 231.605 38.136 230.944C38.7973 230.283 39.576 229.952 40.472 229.952C41.368 229.952 42.1573 230.293 42.84 230.976C43.4587 231.595 43.768 232.363 43.768 233.28C43.768 234.197 43.448 234.976 42.808 235.616Z" fill="#F6627A"></path> <defs> <filter id="filter0_i" x="10" y="81" width="62" height="62" filterUnits="userSpaceOnUse" color-interpolation-filters="sRGB"> <feFlood flood-opacity="0" result="BackgroundImageFix"></feFlood> <feBlend mode="normal" in="SourceGraphic" in2="BackgroundImageFix" result="shape"></feBlend> <feColorMatrix in="SourceAlpha" type="matrix" values="0 0 0 0 0 0 0 0 0 0 0 0 0 0 0 0 0 0 127 0" result="hardAlpha"></feColorMatrix> <feOffset></feOffset> <feGaussianBlur stdDeviation="5"></feGaussianBlur> <feComposite in2="hardAlpha" operator="arithmetic" k2="-1" k3="1"></feComposite> <feColorMatrix type="matrix" values="0 0 0 0 0 0 0 0 0 0 0 0 0 0 0 0 0 0 0.06 0"></feColorMatrix> <feBlend mode="normal" in2="shape" result="effect1_innerShadow"></feBlend> </filter> <filter id="filter1_i" x="10" y="351" width="62" height="62" filterUnits="userSpaceOnUse" color-interpolation-filters="sRGB"> <feFlood flood-opacity="0" result="BackgroundImageFix"></feFlood> <feBlend mode="normal" in="SourceGraphic" in2="BackgroundImageFix" result="shape"></feBlend> <feColorMatrix in="SourceAlpha" type="matrix" values="0 0 0 0 0 0 0 0 0 0 0 0 0 0 0 0 0 0 127 0" result="hardAlpha"></feColorMatrix> <feOffset></feOffset> <feGaussianBlur stdDeviation="5"></feGaussianBlur> <feComposite in2="hardAlpha" operator="arithmetic" k2="-1" k3="1"></feComposite> <feColorMatrix type="matrix" values="0 0 0 0 0 0 0 0 0 0 0 0 0 0 0 0 0 0 0.06 0"></feColorMatrix> <feBlend mode="normal" in2="shape" result="effect1_innerShadow"></feBlend> </filter> <filter id="filter2_i" x="10" y="195" width="62" height="62" filterUnits="userSpaceOnUse" color-interpolation-filters="sRGB"> <feFlood flood-opacity="0" result="BackgroundImageFix"></feFlood> <feBlend mode="normal" in="SourceGraphic" in2="BackgroundImageFix" result="shape"></feBlend> <feColorMatrix in="SourceAlpha" type="matrix" values="0 0 0 0 0 0 0 0 0 0 0 0 0 0 0 0 0 0 127 0" result="hardAlpha"></feColorMatrix> <feOffset></feOffset> <feGaussianBlur stdDeviation="5"></feGaussianBlur> <feComposite in2="hardAlpha" operator="arithmetic" k2="-1" k3="1"></feComposite> <feColorMatrix type="matrix" values="0 0 0 0 0 0 0 0 0 0 0 0 0 0 0 0 0 0 0.06 0"></feColorMatrix> <feBlend mode="normal" in2="shape" result="effect1_innerShadow"></feBlend> </filter> </defs> </svg> 