<?xml version="1.0" encoding="UTF-8"?> <svg xmlns="http://www.w3.org/2000/svg" width="1536" height="200" viewBox="0 0 1536 200" fill="none"> <g filter="url(#filter0_d)"> <rect x="32" y="32" width="1472" height="136" rx="30" fill="white"></rect> </g> <rect x="68.5" y="69.5" width="320.5" height="61" rx="19.5" fill="white" stroke="#CAD6F3"></rect> <rect x="426.5" y="69.5" width="320" height="61" rx="19.5" fill="white" stroke="#CAD6F3"></rect> <rect x="784.5" y="69.5" width="320" height="61" rx="19.5" fill="white" stroke="#CAD6F3"></rect> <rect x="1142.5" y="69.5" width="320" height="61" rx="19.5" fill="white" stroke="#CAD6F3"></rect> <path d="M96.408 91.324H110.128V110H108.056V93.284H98.48V110H96.408V91.324ZM124.271 108.6C123.114 109.757 121.648 110.336 119.875 110.336C118.102 110.336 116.627 109.757 115.451 108.6C114.294 107.443 113.715 105.987 113.715 104.232C113.715 102.459 114.294 100.993 115.451 99.836C116.627 98.6787 118.102 98.1 119.875 98.1C121.648 98.1 123.114 98.6787 124.271 99.836C125.447 100.993 126.035 102.459 126.035 104.232C126.035 105.987 125.447 107.443 124.271 108.6ZM122.759 101.04C121.975 100.275 121.014 99.892 119.875 99.892C118.736 99.892 117.766 100.284 116.963 101.068C116.179 101.833 115.787 102.888 115.787 104.232C115.787 105.576 116.188 106.631 116.991 107.396C117.794 108.161 118.755 108.544 119.875 108.544C120.995 108.544 121.956 108.161 122.759 107.396C123.562 106.631 123.963 105.576 123.963 104.232C123.963 102.869 123.562 101.805 122.759 101.04ZM129.127 98.38H131.143V106.052L139.095 97.484V110H137.079V102.244L129.127 110.812V98.38ZM152.008 99.22V101.628C151.093 100.471 149.88 99.892 148.368 99.892C147.229 99.892 146.259 100.284 145.456 101.068C144.653 101.833 144.252 102.888 144.252 104.232C144.252 105.576 144.653 106.631 145.456 107.396C146.259 108.161 147.22 108.544 148.34 108.544C149.833 108.544 151.084 107.937 152.092 106.724V109.132C150.991 109.935 149.759 110.336 148.396 110.336C146.585 110.336 145.092 109.767 143.916 108.628C142.759 107.471 142.18 106.015 142.18 104.26C142.18 102.487 142.768 101.021 143.944 99.864C145.12 98.688 146.604 98.1 148.396 98.1C149.74 98.1 150.944 98.4733 152.008 99.22ZM155.185 98.38H157.201V103.14L161.905 98.38H164.369L159.329 103.56L164.985 110H162.353L157.817 104.904L157.201 105.492V110H155.185V98.38Z" fill="#CAD6F3"></path> <path d="M454.408 91.324H457.768C459.635 91.324 461.063 91.716 462.052 92.5C463.172 93.3587 463.732 94.6467 463.732 96.364C463.732 97.9693 463.116 99.192 461.884 100.032C463.079 100.331 463.965 100.937 464.544 101.852C465.141 102.748 465.44 103.709 465.44 104.736C465.44 105.576 465.253 106.351 464.88 107.06C464.525 107.769 464.077 108.339 463.536 108.768C462.491 109.589 460.997 110 459.056 110H454.408V91.324ZM456.48 93.284V99.528H458.048C458.328 99.528 458.599 99.5187 458.86 99.5C459.121 99.4627 459.429 99.388 459.784 99.276C460.157 99.1453 460.475 98.9773 460.736 98.772C461.016 98.5667 461.249 98.2587 461.436 97.848C461.623 97.4373 461.716 96.9613 461.716 96.42C461.716 95.8413 461.604 95.3467 461.38 94.936C461.156 94.5067 460.904 94.1893 460.624 93.984C460.344 93.7787 460.008 93.62 459.616 93.508C459.224 93.396 458.925 93.3307 458.72 93.312C458.515 93.2933 458.309 93.284 458.104 93.284H456.48ZM456.48 101.376V108.04H458.86C460.372 108.04 461.464 107.779 462.136 107.256C462.957 106.659 463.368 105.8 463.368 104.68C463.368 103.429 462.836 102.515 461.772 101.936C461.1 101.563 460.045 101.376 458.608 101.376H456.48ZM470.768 108.376V116.44H468.752V98.38H470.768V100.004C471.794 98.7347 473.12 98.1 474.744 98.1C476.48 98.1 477.852 98.716 478.86 99.948C479.886 101.161 480.4 102.599 480.4 104.26C480.4 105.94 479.896 107.377 478.888 108.572C477.88 109.748 476.526 110.336 474.828 110.336C473.129 110.336 471.776 109.683 470.768 108.376ZM474.548 108.544C475.686 108.544 476.601 108.133 477.292 107.312C477.982 106.472 478.328 105.455 478.328 104.26C478.328 102.916 477.945 101.852 477.18 101.068C476.414 100.284 475.528 99.892 474.52 99.892C473.512 99.892 472.616 100.284 471.832 101.068C471.048 101.852 470.656 102.907 470.656 104.232C470.656 105.445 471.01 106.472 471.72 107.312C472.448 108.133 473.39 108.544 474.548 108.544ZM492.394 100.032V98.38H494.41V110H492.394V108.376C491.386 109.683 490.061 110.336 488.418 110.336C486.85 110.336 485.515 109.795 484.414 108.712C483.313 107.629 482.762 106.117 482.762 104.176C482.762 102.272 483.303 100.788 484.386 99.724C485.487 98.6413 486.831 98.1 488.418 98.1C490.098 98.1 491.423 98.744 492.394 100.032ZM488.642 99.892C487.578 99.892 486.673 100.275 485.926 101.04C485.198 101.787 484.834 102.832 484.834 104.176C484.834 105.464 485.17 106.519 485.842 107.34C486.533 108.143 487.466 108.544 488.642 108.544C489.818 108.544 490.751 108.124 491.442 107.284C492.151 106.444 492.506 105.417 492.506 104.204C492.506 102.823 492.114 101.759 491.33 101.012C490.546 100.265 489.65 99.892 488.642 99.892ZM504.444 110V105.436C503.343 105.604 502.428 105.688 501.7 105.688C500.431 105.688 499.488 105.408 498.872 104.848C498.219 104.269 497.892 103.317 497.892 101.992V98.38H499.908V101.712C499.908 102.347 499.992 102.804 500.16 103.084C500.422 103.588 501.01 103.84 501.924 103.84C502.746 103.84 503.586 103.756 504.444 103.588V98.38H506.46V110H504.444Z" fill="#CAD6F3"></path> <path d="M812.408 110V91.324H821.676V93.284H814.48V99.08H817C821.293 99.08 823.44 100.835 823.44 104.344C823.44 106.099 822.889 107.48 821.788 108.488C820.705 109.496 819.24 110 817.392 110H812.408ZM814.48 101.04V108.04H816.888C818.475 108.04 819.623 107.695 820.332 107.004C820.985 106.388 821.312 105.501 821.312 104.344C821.312 103 820.808 102.057 819.8 101.516C819.221 101.199 818.176 101.04 816.664 101.04H814.48ZM836.58 108.6C835.422 109.757 833.957 110.336 832.184 110.336C830.41 110.336 828.936 109.757 827.76 108.6C826.602 107.443 826.024 105.987 826.024 104.232C826.024 102.459 826.602 100.993 827.76 99.836C828.936 98.6787 830.41 98.1 832.184 98.1C833.957 98.1 835.422 98.6787 836.58 99.836C837.756 100.993 838.344 102.459 838.344 104.232C838.344 105.987 837.756 107.443 836.58 108.6ZM835.068 101.04C834.284 100.275 833.322 99.892 832.184 99.892C831.045 99.892 830.074 100.284 829.272 101.068C828.488 101.833 828.096 102.888 828.096 104.232C828.096 105.576 828.497 106.631 829.3 107.396C830.102 108.161 831.064 108.544 832.184 108.544C833.304 108.544 834.265 108.161 835.068 107.396C835.87 106.631 836.272 105.576 836.272 104.232C836.272 102.869 835.87 101.805 835.068 101.04ZM850.227 98.38V110H848.211V100.228H844.067V105.464C844.067 106.976 843.769 108.096 843.171 108.824C842.499 109.645 841.566 110.056 840.371 110.056C840.222 110.056 840.017 110.037 839.755 110V108.152C839.942 108.189 840.091 108.208 840.203 108.208C840.857 108.208 841.342 107.956 841.659 107.452C841.921 107.041 842.051 106.379 842.051 105.464V98.38H850.227ZM854.041 110V98.38H856.057V102.832H858.129C859.734 102.832 860.91 103.215 861.657 103.98C862.254 104.577 862.553 105.389 862.553 106.416C862.553 107.499 862.207 108.367 861.517 109.02C860.826 109.673 859.687 110 858.101 110H854.041ZM856.057 108.208H857.933C858.773 108.208 859.37 108.105 859.725 107.9C860.229 107.564 860.481 107.069 860.481 106.416C860.481 105.744 860.238 105.259 859.753 104.96C859.417 104.736 858.819 104.624 857.961 104.624H856.057V108.208ZM865.252 110V98.38H867.268V103.14H872.756V98.38H874.772V110H872.756V104.988H867.268V110H865.252ZM878.568 98.38H880.584V106.052L888.536 97.484V110H886.52V102.244L878.568 110.812V98.38ZM892.349 110V98.38H894.365V108.152H899.573V98.38H901.589V108.152H903.493V113.08H901.645V110H892.349ZM914.515 100.032V98.38H916.531V110H914.515V108.376C913.507 109.683 912.182 110.336 910.539 110.336C908.971 110.336 907.636 109.795 906.535 108.712C905.434 107.629 904.883 106.117 904.883 104.176C904.883 102.272 905.424 100.788 906.507 99.724C907.608 98.6413 908.952 98.1 910.539 98.1C912.219 98.1 913.544 98.744 914.515 100.032ZM910.763 99.892C909.699 99.892 908.794 100.275 908.047 101.04C907.319 101.787 906.955 102.832 906.955 104.176C906.955 105.464 907.291 106.519 907.963 107.34C908.654 108.143 909.587 108.544 910.763 108.544C911.939 108.544 912.872 108.124 913.563 107.284C914.272 106.444 914.627 105.417 914.627 104.204C914.627 102.823 914.235 101.759 913.451 101.012C912.667 100.265 911.771 99.892 910.763 99.892Z" fill="#CAD6F3"></path> <path d="M1172.03 91.324H1183.4V108.04H1185.53V113.92H1183.57V110H1170.35V113.92H1168.39V108.04C1169.03 108.059 1169.61 107.835 1170.13 107.368C1170.65 106.883 1171.06 106.267 1171.36 105.52C1171.81 104.381 1172.03 102.748 1172.03 100.62V91.324ZM1174.1 93.284V100.62C1174.1 102.916 1173.88 104.652 1173.43 105.828C1173.11 106.668 1172.64 107.405 1172 108.04H1181.33V93.284H1174.1ZM1196.72 100.032V98.38H1198.73V110H1196.72V108.376C1195.71 109.683 1194.38 110.336 1192.74 110.336C1191.17 110.336 1189.84 109.795 1188.74 108.712C1187.64 107.629 1187.09 106.117 1187.09 104.176C1187.09 102.272 1187.63 100.788 1188.71 99.724C1189.81 98.6413 1191.16 98.1 1192.74 98.1C1194.42 98.1 1195.75 98.744 1196.72 100.032ZM1192.97 99.892C1191.9 99.892 1191 100.275 1190.25 101.04C1189.52 101.787 1189.16 102.832 1189.16 104.176C1189.16 105.464 1189.49 106.519 1190.17 107.34C1190.86 108.143 1191.79 108.544 1192.97 108.544C1194.14 108.544 1195.08 108.124 1195.77 107.284C1196.48 106.444 1196.83 105.417 1196.83 104.204C1196.83 102.823 1196.44 101.759 1195.65 101.012C1194.87 100.265 1193.97 99.892 1192.97 99.892ZM1210.17 100.228H1206.53V110H1204.51V100.228H1200.87V98.38H1210.17V100.228ZM1220.84 100.032V98.38H1222.85V110H1220.84V108.376C1219.83 109.683 1218.5 110.336 1216.86 110.336C1215.29 110.336 1213.96 109.795 1212.86 108.712C1211.75 107.629 1211.2 106.117 1211.2 104.176C1211.2 102.272 1211.74 100.788 1212.83 99.724C1213.93 98.6413 1215.27 98.1 1216.86 98.1C1218.54 98.1 1219.86 98.744 1220.84 100.032ZM1217.08 99.892C1216.02 99.892 1215.11 100.275 1214.37 101.04C1213.64 101.787 1213.28 102.832 1213.28 104.176C1213.28 105.464 1213.61 106.519 1214.28 107.34C1214.97 108.143 1215.91 108.544 1217.08 108.544C1218.26 108.544 1219.19 108.124 1219.88 107.284C1220.59 106.444 1220.95 105.417 1220.95 104.204C1220.95 102.823 1220.56 101.759 1219.77 101.012C1218.99 100.265 1218.09 99.892 1217.08 99.892Z" fill="#CAD6F3"></path> <path d="M1439.42 96.5625H1419.58M1422 112H1437C1438.66 112 1440 110.657 1440 109V96C1440 94.3431 1438.66 93 1437 93H1422C1420.34 93 1419 94.3431 1419 96V109C1419 110.657 1420.34 112 1422 112Z" stroke="#CAD6F3" stroke-width="1.8" stroke-linecap="round"></path> <path d="M1424 93V90" stroke="#CAD6F3" stroke-width="1.8" stroke-linecap="round" stroke-linejoin="round"></path> <path d="M1435 93V90" stroke="#CAD6F3" stroke-width="1.8" stroke-linecap="round" stroke-linejoin="round"></path> <path d="M1424.86 107H1423M1424.86 103.5H1423M1424.86 100H1423M1430.43 107H1428.57M1430.43 103.5H1428.57M1430.43 100H1428.57M1436 107H1434.14M1436 103.5H1434.14M1436 100H1434.14" stroke="#CAD6F3" stroke-width="1.8" stroke-linecap="round"></path> <circle cx="356.39" cy="100.313" r="7.25" transform="rotate(45.4431 356.39 100.313)" stroke="#CAD6F3" stroke-width="1.5"></circle> <rect x="350.7" y="104.512" width="2" height="8" rx="1" transform="rotate(45.4431 350.7 104.512)" fill="#CAD6F3"></rect> <defs> <filter id="filter0_d" x="0" y="0" width="1536" height="200" filterUnits="userSpaceOnUse" color-interpolation-filters="sRGB"> <feFlood flood-opacity="0" result="BackgroundImageFix"></feFlood> <feColorMatrix in="SourceAlpha" type="matrix" values="0 0 0 0 0 0 0 0 0 0 0 0 0 0 0 0 0 0 127 0"></feColorMatrix> <feOffset></feOffset> <feGaussianBlur stdDeviation="16"></feGaussianBlur> <feColorMatrix type="matrix" values="0 0 0 0 0.790833 0 0 0 0 0.813583 0 0 0 0 0.866667 0 0 0 0.25 0"></feColorMatrix> <feBlend mode="normal" in2="BackgroundImageFix" result="effect1_dropShadow"></feBlend> <feBlend mode="normal" in="SourceGraphic" in2="effect1_dropShadow" result="shape"></feBlend> </filter> </defs> </svg> 