<?xml version="1.0" encoding="UTF-8"?> <svg xmlns="http://www.w3.org/2000/svg" width="334" height="126" viewBox="0 0 334 126" fill="none"> <g filter="url(#filter0_d)"> <rect x="18" y="32" width="284" height="62" rx="20" fill="#7F6CFC"></rect> </g> <path d="M62.763 57.2571C62.4629 56.8616 62.1027 56.484 61.7026 56.1245C61.3424 55.8188 60.8222 55.4592 60.462 55.2435C59.8618 54.8659 59.0414 54.9378 58.5412 55.3873L45.7956 66.822C45.7555 66.8579 45.7155 66.9119 45.6955 66.9658L44.0348 71.2089C43.9547 71.4426 44.0148 71.6943 44.1949 71.8561C44.3349 71.982 44.495 72.0359 44.6751 72.0359C44.7551 72.0359 44.8351 72.0179 44.9152 71.9999L49.6172 70.5077C49.6773 70.4897 49.7373 70.4537 49.7773 70.4178L62.5429 58.9472C63.0632 58.4977 63.1432 57.7785 62.763 57.2571ZM46.4759 67.3434C47.5563 68.0086 48.4767 68.8356 49.2171 69.8065L46.4759 70.6695C46.3758 70.4897 46.2558 70.3099 46.0757 70.1481C45.8956 69.9863 45.6955 69.8784 45.4954 69.7885L46.4759 67.3434Z" fill="white"></path> <path d="M96.396 55.992L94.8 54.732C96.0133 52.9213 97.796 52.016 100.148 52.016C101.828 52.016 103.144 52.4547 104.096 53.332C105.067 54.2093 105.552 55.3573 105.552 56.776C105.552 57.6907 105.309 58.4933 104.824 59.184C104.357 59.856 103.741 60.3693 102.976 60.724C104.189 61.004 105.113 61.5827 105.748 62.46C106.401 63.3373 106.728 64.364 106.728 65.54C106.728 67.4813 105.953 69.0027 104.404 70.104C103.209 70.9253 101.791 71.336 100.148 71.336C98.4493 71.336 97.04 70.9067 95.92 70.048C94.8 69.1893 93.96 68.1253 93.4 66.856L95.416 65.96C95.7893 67.0053 96.4053 67.836 97.264 68.452C98.1227 69.068 99.112 69.376 100.232 69.376C101.371 69.376 102.323 69.1147 103.088 68.592C104.096 67.8827 104.6 66.884 104.6 65.596C104.6 63.1507 102.939 61.928 99.616 61.928H97.936V59.968H99.616C100.848 59.968 101.791 59.6693 102.444 59.072C103.097 58.4747 103.424 57.7187 103.424 56.804C103.424 56.0013 103.172 55.348 102.668 54.844C102.108 54.2653 101.268 53.976 100.148 53.976C98.58 53.976 97.3293 54.648 96.396 55.992ZM118.941 61.032V59.38H120.957V71H118.941V69.376C117.933 70.6827 116.607 71.336 114.965 71.336C113.397 71.336 112.062 70.7947 110.961 69.712C109.859 68.6293 109.309 67.1173 109.309 65.176C109.309 63.272 109.85 61.788 110.933 60.724C112.034 59.6413 113.378 59.1 114.965 59.1C116.645 59.1 117.97 59.744 118.941 61.032ZM115.189 60.892C114.125 60.892 113.219 61.2747 112.473 62.04C111.745 62.7867 111.381 63.832 111.381 65.176C111.381 66.464 111.717 67.5187 112.389 68.34C113.079 69.1427 114.013 69.544 115.189 69.544C116.365 69.544 117.298 69.124 117.989 68.284C118.698 67.444 119.053 66.4173 119.053 65.204C119.053 63.8227 118.661 62.7587 117.877 62.012C117.093 61.2653 116.197 60.892 115.189 60.892ZM124.775 59.38H134.127V71H132.111V61.228H126.791V71H124.775V59.38ZM137.927 59.38H139.943V67.052L147.895 58.484V71H145.879V63.244L137.927 71.812V59.38ZM160.809 60.22V62.628C159.894 61.4707 158.681 60.892 157.169 60.892C156.03 60.892 155.059 61.284 154.257 62.068C153.454 62.8333 153.053 63.888 153.053 65.232C153.053 66.576 153.454 67.6307 154.257 68.396C155.059 69.1613 156.021 69.544 157.141 69.544C158.634 69.544 159.885 68.9373 160.893 67.724V70.132C159.791 70.9347 158.559 71.336 157.197 71.336C155.386 71.336 153.893 70.7667 152.717 69.628C151.559 68.4707 150.981 67.0147 150.981 65.26C150.981 63.4867 151.569 62.0213 152.745 60.864C153.921 59.688 155.405 59.1 157.197 59.1C158.541 59.1 159.745 59.4733 160.809 60.22ZM163.986 71V59.38H166.002V63.832H168.074C169.679 63.832 170.855 64.2147 171.602 64.98C172.199 65.5773 172.498 66.3893 172.498 67.416C172.498 68.4987 172.153 69.3667 171.462 70.02C170.771 70.6733 169.633 71 168.046 71H163.986ZM166.002 69.208H167.878C168.718 69.208 169.315 69.1053 169.67 68.9C170.174 68.564 170.426 68.0693 170.426 67.416C170.426 66.744 170.183 66.2587 169.698 65.96C169.362 65.736 168.765 65.624 167.906 65.624H166.002V69.208ZM181.732 59.38H183.748V64.14L188.452 59.38H190.916L185.876 64.56L191.532 71H188.9L184.364 65.904L183.748 66.492V71H181.732V59.38ZM200.08 59.38H204.476C205.54 59.38 206.352 59.604 206.912 60.052C207.584 60.5933 207.92 61.3213 207.92 62.236C207.92 63.244 207.5 64.0187 206.66 64.56C207.238 64.7093 207.724 64.9707 208.116 65.344C208.732 65.9413 209.04 66.688 209.04 67.584C209.04 68.704 208.638 69.5813 207.836 70.216C207.145 70.7387 206.23 71 205.092 71H200.08V59.38ZM202.096 64.112H204.224C204.765 64.112 205.194 64 205.512 63.776C205.885 63.496 206.072 63.0947 206.072 62.572C206.072 62.1053 205.885 61.732 205.512 61.452C205.232 61.2653 204.69 61.172 203.888 61.172H202.096V64.112ZM202.096 69.208H204.588C205.446 69.208 206.053 69.0773 206.408 68.816C206.856 68.48 207.08 68.0507 207.08 67.528C207.08 66.968 206.884 66.5293 206.492 66.212C206.137 65.932 205.53 65.792 204.672 65.792H202.096V69.208ZM214.127 69.376V77.44H212.111V59.38H214.127V61.004C215.154 59.7347 216.479 59.1 218.103 59.1C219.839 59.1 221.211 59.716 222.219 60.948C223.246 62.1613 223.759 63.5987 223.759 65.26C223.759 66.94 223.255 68.3773 222.247 69.572C221.239 70.748 219.886 71.336 218.187 71.336C216.488 71.336 215.135 70.6827 214.127 69.376ZM217.907 69.544C219.046 69.544 219.96 69.1333 220.651 68.312C221.342 67.472 221.687 66.4547 221.687 65.26C221.687 63.916 221.304 62.852 220.539 62.068C219.774 61.284 218.887 60.892 217.879 60.892C216.871 60.892 215.975 61.284 215.191 62.068C214.407 62.852 214.015 63.9067 214.015 65.232C214.015 66.4453 214.37 67.472 215.079 68.312C215.807 69.1333 216.75 69.544 217.907 69.544ZM235.753 61.032V59.38H237.769V71H235.753V69.376C234.745 70.6827 233.42 71.336 231.777 71.336C230.209 71.336 228.875 70.7947 227.773 69.712C226.672 68.6293 226.121 67.1173 226.121 65.176C226.121 63.272 226.663 61.788 227.745 60.724C228.847 59.6413 230.191 59.1 231.777 59.1C233.457 59.1 234.783 59.744 235.753 61.032ZM232.001 60.892C230.937 60.892 230.032 61.2747 229.285 62.04C228.557 62.7867 228.193 63.832 228.193 65.176C228.193 66.464 228.529 67.5187 229.201 68.34C229.892 69.1427 230.825 69.544 232.001 69.544C233.177 69.544 234.111 69.124 234.801 68.284C235.511 67.444 235.865 66.4173 235.865 65.204C235.865 63.8227 235.473 62.7587 234.689 62.012C233.905 61.2653 233.009 60.892 232.001 60.892ZM247.804 71V66.436C246.702 66.604 245.788 66.688 245.06 66.688C243.79 66.688 242.848 66.408 242.232 65.848C241.578 65.2693 241.252 64.3173 241.252 62.992V59.38H243.268V62.712C243.268 63.3467 243.352 63.804 243.52 64.084C243.781 64.588 244.369 64.84 245.284 64.84C246.105 64.84 246.945 64.756 247.804 64.588V59.38H249.82V71H247.804ZM253.591 77.44L257.287 69.908L251.939 59.38H254.235L258.351 67.696L262.131 59.38H264.371L255.831 77.44H253.591Z" fill="white"></path> <defs> <filter id="filter0_d" x="-14" y="0" width="348" height="126" filterUnits="userSpaceOnUse" color-interpolation-filters="sRGB"> <feFlood flood-opacity="0" result="BackgroundImageFix"></feFlood> <feColorMatrix in="SourceAlpha" type="matrix" values="0 0 0 0 0 0 0 0 0 0 0 0 0 0 0 0 0 0 127 0"></feColorMatrix> <feOffset></feOffset> <feGaussianBlur stdDeviation="16"></feGaussianBlur> <feColorMatrix type="matrix" values="0 0 0 0 0.790833 0 0 0 0 0.813583 0 0 0 0 0.866667 0 0 0 0.25 0"></feColorMatrix> <feBlend mode="normal" in2="BackgroundImageFix" result="effect1_dropShadow"></feBlend> <feBlend mode="normal" in="SourceGraphic" in2="effect1_dropShadow" result="shape"></feBlend> </filter> </defs> </svg> 