<?xml version="1.0" encoding="UTF-8"?> <svg xmlns="http://www.w3.org/2000/svg" width="334" height="126" viewBox="0 0 334 126" fill="none"> <g filter="url(#filter0_d)"> <rect x="18" y="32" width="284" height="62" rx="20" fill="#7F6CFC"></rect> </g> <path d="M53.9998 72.8088C32.3336 60.8335 47.5002 47.8335 53.9998 56.0539C60.5002 47.8335 75.6669 60.8335 53.9998 72.8088Z" stroke="white" stroke-width="1.8"></path> <path d="M97.396 55.992L95.8 54.732C97.0133 52.9213 98.796 52.016 101.148 52.016C102.828 52.016 104.144 52.4547 105.096 53.332C106.067 54.2093 106.552 55.3573 106.552 56.776C106.552 57.6907 106.309 58.4933 105.824 59.184C105.357 59.856 104.741 60.3693 103.976 60.724C105.189 61.004 106.113 61.5827 106.748 62.46C107.401 63.3373 107.728 64.364 107.728 65.54C107.728 67.4813 106.953 69.0027 105.404 70.104C104.209 70.9253 102.791 71.336 101.148 71.336C99.4493 71.336 98.04 70.9067 96.92 70.048C95.8 69.1893 94.96 68.1253 94.4 66.856L96.416 65.96C96.7893 67.0053 97.4053 67.836 98.264 68.452C99.1227 69.068 100.112 69.376 101.232 69.376C102.371 69.376 103.323 69.1147 104.088 68.592C105.096 67.8827 105.6 66.884 105.6 65.596C105.6 63.1507 103.939 61.928 100.616 61.928H98.936V59.968H100.616C101.848 59.968 102.791 59.6693 103.444 59.072C104.097 58.4747 104.424 57.7187 104.424 56.804C104.424 56.0013 104.172 55.348 103.668 54.844C103.108 54.2653 102.268 53.976 101.148 53.976C99.58 53.976 98.3293 54.648 97.396 55.992ZM111.877 59.38H120.053V69.152H121.789V74.08H119.941V71H111.093V74.08H109.245V69.152C110.215 69.1333 110.934 68.6293 111.401 67.64C111.718 66.9867 111.877 65.96 111.877 64.56V59.38ZM118.037 69.152V61.228H113.893V65.596C113.893 67.1453 113.426 68.3307 112.493 69.152H118.037ZM133.744 69.6C132.586 70.7573 131.121 71.336 129.348 71.336C127.574 71.336 126.1 70.7573 124.924 69.6C123.766 68.4427 123.188 66.9867 123.188 65.232C123.188 63.4587 123.766 61.9933 124.924 60.836C126.1 59.6787 127.574 59.1 129.348 59.1C131.121 59.1 132.586 59.6787 133.744 60.836C134.92 61.9933 135.508 63.4587 135.508 65.232C135.508 66.9867 134.92 68.4427 133.744 69.6ZM132.232 62.04C131.448 61.2747 130.486 60.892 129.348 60.892C128.209 60.892 127.238 61.284 126.436 62.068C125.652 62.8333 125.26 63.888 125.26 65.232C125.26 66.576 125.661 67.6307 126.464 68.396C127.266 69.1613 128.228 69.544 129.348 69.544C130.468 69.544 131.429 69.1613 132.232 68.396C133.034 67.6307 133.436 66.576 133.436 65.232C133.436 63.8693 133.034 62.8053 132.232 62.04ZM140.615 69.376V77.44H138.599V59.38H140.615V61.004C141.642 59.7347 142.967 59.1 144.591 59.1C146.327 59.1 147.699 59.716 148.707 60.948C149.734 62.1613 150.247 63.5987 150.247 65.26C150.247 66.94 149.743 68.3773 148.735 69.572C147.727 70.748 146.374 71.336 144.675 71.336C142.977 71.336 141.623 70.6827 140.615 69.376ZM144.395 69.544C145.534 69.544 146.449 69.1333 147.139 68.312C147.83 67.472 148.175 66.4547 148.175 65.26C148.175 63.916 147.793 62.852 147.027 62.068C146.262 61.284 145.375 60.892 144.367 60.892C143.359 60.892 142.463 61.284 141.679 62.068C140.895 62.852 140.503 63.9067 140.503 65.232C140.503 66.4453 140.858 67.472 141.567 68.312C142.295 69.1333 143.238 69.544 144.395 69.544ZM163.166 69.6C162.008 70.7573 160.543 71.336 158.77 71.336C156.996 71.336 155.522 70.7573 154.346 69.6C153.188 68.4427 152.61 66.9867 152.61 65.232C152.61 63.4587 153.188 61.9933 154.346 60.836C155.522 59.6787 156.996 59.1 158.77 59.1C160.543 59.1 162.008 59.6787 163.166 60.836C164.342 61.9933 164.93 63.4587 164.93 65.232C164.93 66.9867 164.342 68.4427 163.166 69.6ZM161.654 62.04C160.87 61.2747 159.908 60.892 158.77 60.892C157.631 60.892 156.66 61.284 155.858 62.068C155.074 62.8333 154.682 63.888 154.682 65.232C154.682 66.576 155.083 67.6307 155.886 68.396C156.688 69.1613 157.65 69.544 158.77 69.544C159.89 69.544 160.851 69.1613 161.654 68.396C162.456 67.6307 162.858 66.576 162.858 65.232C162.858 63.8693 162.456 62.8053 161.654 62.04ZM168.021 59.38H172.417C173.481 59.38 174.293 59.604 174.853 60.052C175.525 60.5933 175.861 61.3213 175.861 62.236C175.861 63.244 175.441 64.0187 174.601 64.56C175.18 64.7093 175.665 64.9707 176.057 65.344C176.673 65.9413 176.981 66.688 176.981 67.584C176.981 68.704 176.58 69.5813 175.777 70.216C175.087 70.7387 174.172 71 173.033 71H168.021V59.38ZM170.037 64.112H172.165C172.707 64.112 173.136 64 173.453 63.776C173.827 63.496 174.013 63.0947 174.013 62.572C174.013 62.1053 173.827 61.732 173.453 61.452C173.173 61.2653 172.632 61.172 171.829 61.172H170.037V64.112ZM170.037 69.208H172.529C173.388 69.208 173.995 69.0773 174.349 68.816C174.797 68.48 175.021 68.0507 175.021 67.528C175.021 66.968 174.825 66.5293 174.433 66.212C174.079 65.932 173.472 65.792 172.613 65.792H170.037V69.208ZM180.052 71V59.38H182.068V63.832H184.14C185.746 63.832 186.922 64.2147 187.668 64.98C188.266 65.5773 188.564 66.3893 188.564 67.416C188.564 68.4987 188.219 69.3667 187.528 70.02C186.838 70.6733 185.699 71 184.112 71H180.052ZM182.068 69.208H183.944C184.784 69.208 185.382 69.1053 185.736 68.9C186.24 68.564 186.492 68.0693 186.492 67.416C186.492 66.744 186.25 66.2587 185.764 65.96C185.428 65.736 184.831 65.624 183.972 65.624H182.068V69.208ZM199.887 67.108L201.567 68.032C201.175 68.7787 200.699 69.404 200.139 69.908C199.075 70.86 197.787 71.336 196.275 71.336C194.707 71.336 193.354 70.832 192.215 69.824C191.095 68.7973 190.535 67.276 190.535 65.26C190.535 63.4867 191.039 62.0213 192.047 60.864C193.074 59.688 194.446 59.1 196.163 59.1C198.105 59.1 199.57 59.8093 200.559 61.228C201.343 62.348 201.707 63.804 201.651 65.596H192.607C192.626 66.772 192.99 67.724 193.699 68.452C194.409 69.18 195.277 69.544 196.303 69.544C197.218 69.544 198.011 69.264 198.683 68.704C199.206 68.256 199.607 67.724 199.887 67.108ZM192.747 63.916H199.579C199.411 63.0013 199.01 62.2733 198.375 61.732C197.759 61.172 197.022 60.892 196.163 60.892C195.323 60.892 194.577 61.1813 193.923 61.76C193.289 62.32 192.897 63.0387 192.747 63.916Z" fill="white"></path> <defs> <filter id="filter0_d" x="-14" y="0" width="348" height="126" filterUnits="userSpaceOnUse" color-interpolation-filters="sRGB"> <feFlood flood-opacity="0" result="BackgroundImageFix"></feFlood> <feColorMatrix in="SourceAlpha" type="matrix" values="0 0 0 0 0 0 0 0 0 0 0 0 0 0 0 0 0 0 127 0"></feColorMatrix> <feOffset></feOffset> <feGaussianBlur stdDeviation="16"></feGaussianBlur> <feColorMatrix type="matrix" values="0 0 0 0 0.790833 0 0 0 0 0.813583 0 0 0 0 0.866667 0 0 0 0.25 0"></feColorMatrix> <feBlend mode="normal" in2="BackgroundImageFix" result="effect1_dropShadow"></feBlend> <feBlend mode="normal" in="SourceGraphic" in2="effect1_dropShadow" result="shape"></feBlend> </filter> </defs> </svg> 