<?xml version="1.0" encoding="UTF-8"?> <svg xmlns="http://www.w3.org/2000/svg" width="1536" height="569" viewBox="0 0 1536 569" fill="none"> <g filter="url(#filter0_d)"> <rect x="32" y="32" width="1472" height="505" rx="30" fill="white"></rect> </g> <path d="M73.096 68.324V75.716H81.104V68.324H83.96V87H81.104V78.404H73.096V87H70.24V68.324H73.096ZM96.5709 76.584V75.212H99.3149V87H96.5709V85.768C95.6563 86.832 94.4803 87.364 93.0429 87.364C91.3069 87.364 89.9163 86.748 88.8709 85.516C87.8443 84.284 87.3309 82.8093 87.3309 81.092C87.3309 79.2253 87.8816 77.732 88.9829 76.612C90.1029 75.4733 91.4656 74.904 93.0709 74.904C94.5456 74.904 95.7123 75.464 96.5709 76.584ZM93.4069 77.368C92.4363 77.368 91.6429 77.732 91.0269 78.46C90.4296 79.188 90.1309 80.084 90.1309 81.148C90.1309 82.1933 90.4296 83.08 91.0269 83.808C91.6429 84.536 92.4363 84.9 93.4069 84.9C94.3403 84.9 95.1243 84.5733 95.7589 83.92C96.4123 83.2667 96.7389 82.352 96.7389 81.176C96.7389 79.9627 96.4123 79.0293 95.7589 78.376C95.1243 77.704 94.3403 77.368 93.4069 77.368ZM104.391 78.264L102.627 76.724C103.075 76.1827 103.672 75.744 104.419 75.408C105.203 75.072 106.127 74.904 107.191 74.904C108.423 74.904 109.421 75.1747 110.187 75.716C111.008 76.3133 111.419 77.116 111.419 78.124C111.419 78.7773 111.251 79.3187 110.915 79.748C110.635 80.1213 110.261 80.4013 109.795 80.588C110.504 80.7373 111.073 81.0267 111.503 81.456C112.007 81.96 112.259 82.6133 112.259 83.416C112.259 84.48 111.923 85.348 111.251 86.02C110.355 86.916 108.973 87.364 107.107 87.364C105.856 87.364 104.829 87.1307 104.027 86.664C103.187 86.1787 102.571 85.4787 102.179 84.564L104.363 83.444C104.624 84.004 104.969 84.4147 105.399 84.676C105.865 84.9747 106.453 85.124 107.163 85.124C108.021 85.124 108.647 84.928 109.039 84.536C109.319 84.2187 109.459 83.8733 109.459 83.5C109.459 83.108 109.337 82.7907 109.095 82.548C108.777 82.212 108.124 82.044 107.135 82.044H105.903V79.804H106.939C107.536 79.804 107.984 79.7013 108.283 79.496C108.619 79.2347 108.787 78.8893 108.787 78.46C108.787 78.012 108.619 77.676 108.283 77.452C108.003 77.2467 107.564 77.144 106.967 77.144C106.407 77.144 105.893 77.256 105.427 77.48C105.035 77.6667 104.689 77.928 104.391 78.264ZM115.127 75.212H119.747C120.923 75.212 121.819 75.4453 122.435 75.912C123.163 76.4907 123.527 77.2467 123.527 78.18C123.527 79.244 123.06 80.0093 122.127 80.476C122.724 80.588 123.256 80.8493 123.723 81.26C124.339 81.82 124.647 82.576 124.647 83.528C124.647 84.6667 124.217 85.5627 123.359 86.216C122.649 86.7387 121.744 87 120.643 87H115.127V75.212ZM117.871 79.804H119.271C119.756 79.804 120.12 79.72 120.363 79.552C120.717 79.328 120.895 79.0107 120.895 78.6C120.895 78.208 120.736 77.9 120.419 77.676C120.195 77.5267 119.793 77.452 119.215 77.452H117.871V79.804ZM117.871 84.76H119.915C120.531 84.76 121.007 84.648 121.343 84.424C121.716 84.1813 121.903 83.836 121.903 83.388C121.903 82.9027 121.725 82.5573 121.371 82.352C121.053 82.1467 120.596 82.044 119.999 82.044H117.871V84.76ZM136.137 76.584V75.212H138.881V87H136.137V85.768C135.223 86.832 134.047 87.364 132.609 87.364C130.873 87.364 129.483 86.748 128.437 85.516C127.411 84.284 126.897 82.8093 126.897 81.092C126.897 79.2253 127.448 77.732 128.549 76.612C129.669 75.4733 131.032 74.904 132.637 74.904C134.112 74.904 135.279 75.464 136.137 76.584ZM132.973 77.368C132.003 77.368 131.209 77.732 130.593 78.46C129.996 79.188 129.697 80.084 129.697 81.148C129.697 82.1933 129.996 83.08 130.593 83.808C131.209 84.536 132.003 84.9 132.973 84.9C133.907 84.9 134.691 84.5733 135.325 83.92C135.979 83.2667 136.305 82.352 136.305 81.176C136.305 79.9627 135.979 79.0293 135.325 78.376C134.691 77.704 133.907 77.368 132.973 77.368ZM142.361 87V75.212H145.105V79.58H149.977V75.212H152.721V87H149.977V82.1H145.105V87H142.361ZM156.197 75.212H158.941V81.904L167.005 74.148V87H164.261V80.14L156.197 87.896V75.212ZM178.73 83.024L181.026 84.312C180.504 85.2453 179.841 85.964 179.038 86.468C178.124 87.0653 176.966 87.364 175.566 87.364C173.924 87.364 172.598 86.86 171.59 85.852C170.433 84.6947 169.854 83.192 169.854 81.344C169.854 79.4027 170.48 77.788 171.73 76.5C172.794 75.436 174.11 74.904 175.678 74.904C177.209 74.904 178.469 75.4173 179.458 76.444C180.56 77.5827 181.11 79.244 181.11 81.428V81.764H172.654C172.729 82.7533 173.065 83.5467 173.662 84.144C174.166 84.648 174.866 84.9 175.762 84.9C176.49 84.9 177.116 84.704 177.638 84.312C178.068 83.976 178.432 83.5467 178.73 83.024ZM172.85 79.524H178.31C178.198 78.8707 177.918 78.3387 177.47 77.928C176.985 77.48 176.369 77.256 175.622 77.256C174.838 77.256 174.194 77.508 173.69 78.012C173.28 78.3853 173 78.8893 172.85 79.524Z" fill="#232323"></path> <path d="M388.032 68.324H399.68V84.312H401.808V91.2H399.12V87H387.08V91.2H384.392V84.312C385.027 84.3307 385.605 84.1067 386.128 83.64C386.651 83.1547 387.061 82.5387 387.36 81.792C387.808 80.6533 388.032 79.02 388.032 76.892V68.324ZM390.888 71.012V76.892C390.888 79.2253 390.673 80.9613 390.244 82.1C389.908 82.9587 389.423 83.696 388.788 84.312H396.824V71.012H390.888ZM412.571 76.584V75.212H415.315V87H412.571V85.768C411.656 86.832 410.48 87.364 409.043 87.364C407.307 87.364 405.916 86.748 404.871 85.516C403.844 84.284 403.331 82.8093 403.331 81.092C403.331 79.2253 403.882 77.732 404.983 76.612C406.103 75.4733 407.466 74.904 409.071 74.904C410.546 74.904 411.712 75.464 412.571 76.584ZM409.407 77.368C408.436 77.368 407.643 77.732 407.027 78.46C406.43 79.188 406.131 80.084 406.131 81.148C406.131 82.1933 406.43 83.08 407.027 83.808C407.643 84.536 408.436 84.9 409.407 84.9C410.34 84.9 411.124 84.5733 411.759 83.92C412.412 83.2667 412.739 82.352 412.739 81.176C412.739 79.9627 412.412 79.0293 411.759 78.376C411.124 77.704 410.34 77.368 409.407 77.368ZM426.915 77.732H423.471V87H420.727V77.732H417.283V75.212H426.915V77.732ZM437.208 76.584V75.212H439.952V87H437.208V85.768C436.293 86.832 435.117 87.364 433.68 87.364C431.944 87.364 430.553 86.748 429.508 85.516C428.481 84.284 427.968 82.8093 427.968 81.092C427.968 79.2253 428.518 77.732 429.62 76.612C430.74 75.4733 432.102 74.904 433.708 74.904C435.182 74.904 436.349 75.464 437.208 76.584ZM434.044 77.368C433.073 77.368 432.28 77.732 431.664 78.46C431.066 79.188 430.768 80.084 430.768 81.148C430.768 82.1933 431.066 83.08 431.664 83.808C432.28 84.536 433.073 84.9 434.044 84.9C434.977 84.9 435.761 84.5733 436.396 83.92C437.049 83.2667 437.376 82.352 437.376 81.176C437.376 79.9627 437.049 79.0293 436.396 78.376C435.761 77.704 434.977 77.368 434.044 77.368Z" fill="#232323"></path> <path d="M645.24 68.324H649.356C651.073 68.324 652.436 68.66 653.444 69.332C654.191 69.836 654.76 70.4987 655.152 71.32C655.563 72.1227 655.768 72.972 655.768 73.868C655.768 75.548 655.161 76.9107 653.948 77.956C652.809 78.9267 651.288 79.412 649.384 79.412H648.096V87H645.24V68.324ZM648.096 70.956V76.78H649.384C650.579 76.78 651.484 76.5187 652.1 75.996C652.716 75.4547 653.024 74.736 653.024 73.84C653.024 73.5227 652.977 73.224 652.884 72.944C652.809 72.664 652.651 72.3653 652.408 72.048C652.184 71.712 651.811 71.4507 651.288 71.264C650.765 71.0587 650.121 70.956 649.356 70.956H648.096ZM666.449 83.024L668.745 84.312C668.222 85.2453 667.56 85.964 666.757 86.468C665.842 87.0653 664.685 87.364 663.285 87.364C661.642 87.364 660.317 86.86 659.309 85.852C658.152 84.6947 657.573 83.192 657.573 81.344C657.573 79.4027 658.198 77.788 659.449 76.5C660.513 75.436 661.829 74.904 663.397 74.904C664.928 74.904 666.188 75.4173 667.177 76.444C668.278 77.5827 668.829 79.244 668.829 81.428V81.764H660.373C660.448 82.7533 660.784 83.5467 661.381 84.144C661.885 84.648 662.585 84.9 663.481 84.9C664.209 84.9 664.834 84.704 665.357 84.312C665.786 83.976 666.15 83.5467 666.449 83.024ZM660.569 79.524H666.029C665.917 78.8707 665.637 78.3387 665.189 77.928C664.704 77.48 664.088 77.256 663.341 77.256C662.557 77.256 661.913 77.508 661.409 78.012C660.998 78.3853 660.718 78.8893 660.569 79.524ZM673.293 78.264L671.529 76.724C671.977 76.1827 672.574 75.744 673.321 75.408C674.105 75.072 675.029 74.904 676.093 74.904C677.325 74.904 678.324 75.1747 679.089 75.716C679.91 76.3133 680.321 77.116 680.321 78.124C680.321 78.7773 680.153 79.3187 679.817 79.748C679.537 80.1213 679.164 80.4013 678.697 80.588C679.406 80.7373 679.976 81.0267 680.405 81.456C680.909 81.96 681.161 82.6133 681.161 83.416C681.161 84.48 680.825 85.348 680.153 86.02C679.257 86.916 677.876 87.364 676.009 87.364C674.758 87.364 673.732 87.1307 672.929 86.664C672.089 86.1787 671.473 85.4787 671.081 84.564L673.265 83.444C673.526 84.004 673.872 84.4147 674.301 84.676C674.768 84.9747 675.356 85.124 676.065 85.124C676.924 85.124 677.549 84.928 677.941 84.536C678.221 84.2187 678.361 83.8733 678.361 83.5C678.361 83.108 678.24 82.7907 677.997 82.548C677.68 82.212 677.026 82.044 676.037 82.044H674.805V79.804H675.841C676.438 79.804 676.886 79.7013 677.185 79.496C677.521 79.2347 677.689 78.8893 677.689 78.46C677.689 78.012 677.521 77.676 677.185 77.452C676.905 77.2467 676.466 77.144 675.869 77.144C675.309 77.144 674.796 77.256 674.329 77.48C673.937 77.6667 673.592 77.928 673.293 78.264ZM682.559 93.412L686.899 85.152L681.859 75.212H685.163L688.523 82.1L691.939 75.212H695.019L685.639 93.412H682.559ZM706.623 75.212V87H703.879V77.732H700.407V82.408C700.407 83.864 700.034 84.9933 699.287 85.796C698.335 86.86 697.047 87.2613 695.423 87V84.48C696.226 84.6667 696.87 84.4893 697.355 83.948C697.635 83.612 697.775 83.0987 697.775 82.408V75.212H706.623ZM710.088 87V75.212H712.832V79.384H714.4C714.904 79.384 715.314 79.4027 715.632 79.44C715.949 79.4587 716.332 79.5613 716.78 79.748C717.228 79.9347 717.62 80.2147 717.956 80.588C718.572 81.2787 718.88 82.1373 718.88 83.164C718.88 84.34 718.525 85.2827 717.816 85.992C717.498 86.3093 717.116 86.552 716.668 86.72C716.238 86.8693 715.874 86.9533 715.576 86.972C715.296 86.9907 714.894 87 714.372 87H710.088ZM712.832 84.648H714.092C714.764 84.648 715.24 84.564 715.52 84.396C715.93 84.0973 716.136 83.696 716.136 83.192C716.136 82.6693 715.94 82.2773 715.548 82.016C715.249 81.8293 714.773 81.736 714.12 81.736H712.832V84.648ZM728.817 77.732H725.373V87H722.629V77.732H719.185V75.212H728.817V77.732ZM739.11 76.584V75.212H741.854V87H739.11V85.768C738.195 86.832 737.019 87.364 735.582 87.364C733.846 87.364 732.455 86.748 731.41 85.516C730.383 84.284 729.87 82.8093 729.87 81.092C729.87 79.2253 730.421 77.732 731.522 76.612C732.642 75.4733 734.005 74.904 735.61 74.904C737.085 74.904 738.251 75.464 739.11 76.584ZM735.946 77.368C734.975 77.368 734.182 77.732 733.566 78.46C732.969 79.188 732.67 80.084 732.67 81.148C732.67 82.1933 732.969 83.08 733.566 83.808C734.182 84.536 734.975 84.9 735.946 84.9C736.879 84.9 737.663 84.5733 738.298 83.92C738.951 83.2667 739.278 82.352 739.278 81.176C739.278 79.9627 738.951 79.0293 738.298 78.376C737.663 77.704 736.879 77.368 735.946 77.368ZM753.454 77.732H750.01V87H747.266V77.732H743.822V75.212H753.454V77.732Z" fill="#232323"></path> <path d="M958.836 72.552L956.96 70.732C957.651 69.8173 958.453 69.1453 959.368 68.716C960.301 68.2493 961.431 68.016 962.756 68.016C964.623 68.016 966.069 68.5107 967.096 69.5C967.992 70.3773 968.44 71.4693 968.44 72.776C968.44 73.672 968.235 74.4467 967.824 75.1C967.432 75.772 966.872 76.3133 966.144 76.724C967.171 76.9853 968.011 77.536 968.664 78.376C969.299 79.1787 969.616 80.2333 969.616 81.54C969.616 83.22 968.991 84.6107 967.74 85.712C966.471 86.7947 964.791 87.336 962.7 87.336C960.927 87.336 959.396 86.8507 958.108 85.88C957.1 85.096 956.307 84.088 955.728 82.856L958.248 81.568C958.621 82.52 959.2 83.276 959.984 83.836C960.805 84.4147 961.832 84.704 963.064 84.704C964.296 84.704 965.248 84.368 965.92 83.696C966.517 83.0987 966.816 82.3333 966.816 81.4C966.816 80.4293 966.452 79.7013 965.724 79.216C965.033 78.7307 963.904 78.488 962.336 78.488H960.656V75.8H962.168C963.363 75.8 964.259 75.548 964.856 75.044C965.416 74.5773 965.696 73.9427 965.696 73.14C965.696 72.3 965.397 71.656 964.8 71.208C964.315 70.8347 963.596 70.648 962.644 70.648C961.748 70.648 960.992 70.8253 960.376 71.18C959.779 71.516 959.265 71.9733 958.836 72.552ZM972.705 87V75.212H975.449V79.58H980.321V75.212H983.065V87H980.321V82.1H975.449V87H972.705ZM995.165 76.584V75.212H997.909V87H995.165V85.768C994.25 86.832 993.074 87.364 991.637 87.364C989.901 87.364 988.51 86.748 987.465 85.516C986.438 84.284 985.925 82.8093 985.925 81.092C985.925 79.2253 986.475 77.732 987.577 76.612C988.697 75.4733 990.059 74.904 991.665 74.904C993.139 74.904 994.306 75.464 995.165 76.584ZM992.001 77.368C991.03 77.368 990.237 77.732 989.621 78.46C989.023 79.188 988.725 80.084 988.725 81.148C988.725 82.1933 989.023 83.08 989.621 83.808C990.237 84.536 991.03 84.9 992.001 84.9C992.934 84.9 993.718 84.5733 994.353 83.92C995.006 83.2667 995.333 82.352 995.333 81.176C995.333 79.9627 995.006 79.0293 994.353 78.376C993.718 77.704 992.934 77.368 992.001 77.368ZM1007.77 87V82.436C1006.93 82.604 1006.13 82.688 1005.36 82.688C1004.02 82.688 1002.98 82.3987 1002.26 81.82C1001.49 81.204 1001.11 80.2613 1001.11 78.992V75.212H1003.85V78.432C1003.85 79.2347 1004.09 79.776 1004.55 80.056C1004.87 80.2427 1005.33 80.336 1005.92 80.336C1006.6 80.336 1007.21 80.2333 1007.77 80.028V75.212H1010.52V87H1007.77ZM1022.25 83.024L1024.55 84.312C1024.03 85.2453 1023.36 85.964 1022.56 86.468C1021.65 87.0653 1020.49 87.364 1019.09 87.364C1017.45 87.364 1016.12 86.86 1015.11 85.852C1013.96 84.6947 1013.38 83.192 1013.38 81.344C1013.38 79.4027 1014 77.788 1015.25 76.5C1016.32 75.436 1017.63 74.904 1019.2 74.904C1020.73 74.904 1021.99 75.4173 1022.98 76.444C1024.08 77.5827 1024.63 79.244 1024.63 81.428V81.764H1016.18C1016.25 82.7533 1016.59 83.5467 1017.19 84.144C1017.69 84.648 1018.39 84.9 1019.29 84.9C1020.01 84.9 1020.64 84.704 1021.16 84.312C1021.59 83.976 1021.96 83.5467 1022.25 83.024ZM1016.37 79.524H1021.83C1021.72 78.8707 1021.44 78.3387 1020.99 77.928C1020.51 77.48 1019.89 77.256 1019.15 77.256C1018.36 77.256 1017.72 77.508 1017.21 78.012C1016.8 78.3853 1016.52 78.8893 1016.37 79.524ZM1027.5 87V75.212H1030.25V79.58H1035.12V75.212H1037.86V87H1035.12V82.1H1030.25V87H1027.5ZM1041.34 75.212H1044.08V81.904L1052.15 74.148V87H1049.4V80.14L1041.34 87.896V75.212ZM1063.87 83.024L1066.17 84.312C1065.64 85.2453 1064.98 85.964 1064.18 86.468C1063.26 87.0653 1062.11 87.364 1060.71 87.364C1059.06 87.364 1057.74 86.86 1056.73 85.852C1055.57 84.6947 1055 83.192 1055 81.344C1055 79.4027 1055.62 77.788 1056.87 76.5C1057.94 75.436 1059.25 74.904 1060.82 74.904C1062.35 74.904 1063.61 75.4173 1064.6 76.444C1065.7 77.5827 1066.25 79.244 1066.25 81.428V81.764H1057.8C1057.87 82.7533 1058.21 83.5467 1058.8 84.144C1059.31 84.648 1060.01 84.9 1060.9 84.9C1061.63 84.9 1062.26 84.704 1062.78 84.312C1063.21 83.976 1063.57 83.5467 1063.87 83.024ZM1057.99 79.524H1063.45C1063.34 78.8707 1063.06 78.3387 1062.61 77.928C1062.13 77.48 1061.51 77.256 1060.76 77.256C1059.98 77.256 1059.34 77.508 1058.83 78.012C1058.42 78.3853 1058.14 78.8893 1057.99 79.524Z" fill="#232323"></path> <path d="M71.336 178H69.512L72.176 161.104L78.32 174.616L84.584 161.08L87.08 178H85.256L83.744 166.864L78.296 178.672L72.92 166.864L71.336 178ZM92.0788 176.608V183.52H90.3508V168.04H92.0788V169.432C92.9588 168.344 94.0948 167.8 95.4868 167.8C96.9748 167.8 98.1508 168.328 99.0148 169.384C99.8948 170.424 100.335 171.656 100.335 173.08C100.335 174.52 99.9028 175.752 99.0388 176.776C98.1748 177.784 97.0148 178.288 95.5588 178.288C94.1028 178.288 92.9428 177.728 92.0788 176.608ZM95.3188 176.752C96.2948 176.752 97.0788 176.4 97.6708 175.696C98.2628 174.976 98.5588 174.104 98.5588 173.08C98.5588 171.928 98.2308 171.016 97.5748 170.344C96.9188 169.672 96.1588 169.336 95.2948 169.336C94.4308 169.336 93.6628 169.672 92.9908 170.344C92.3188 171.016 91.9828 171.92 91.9828 173.056C91.9828 174.096 92.2868 174.976 92.8948 175.696C93.5188 176.4 94.3268 176.752 95.3188 176.752ZM109.277 169.624H106.157V178H104.429V169.624H101.309V168.04H109.277V169.624Z" fill="black"></path> <path d="M71.336 275H69.512L72.176 258.104L78.32 271.616L84.584 258.08L87.08 275H85.256L83.744 263.864L78.296 275.672L72.92 263.864L71.336 275ZM92.0788 273.608V280.52H90.3508V265.04H92.0788V266.432C92.9588 265.344 94.0948 264.8 95.4868 264.8C96.9748 264.8 98.1508 265.328 99.0148 266.384C99.8948 267.424 100.335 268.656 100.335 270.08C100.335 271.52 99.9028 272.752 99.0388 273.776C98.1748 274.784 97.0148 275.288 95.5588 275.288C94.1028 275.288 92.9428 274.728 92.0788 273.608ZM95.3188 273.752C96.2948 273.752 97.0788 273.4 97.6708 272.696C98.2628 271.976 98.5588 271.104 98.5588 270.08C98.5588 268.928 98.2308 268.016 97.5748 267.344C96.9188 266.672 96.1588 266.336 95.2948 266.336C94.4308 266.336 93.6628 266.672 92.9908 267.344C92.3188 268.016 91.9828 268.92 91.9828 270.056C91.9828 271.096 92.2868 271.976 92.8948 272.696C93.5188 273.4 94.3268 273.752 95.3188 273.752ZM109.277 266.624H106.157V275H104.429V266.624H101.309V265.04H109.277V266.624Z" fill="black"></path> <path d="M71.336 372H69.512L72.176 355.104L78.32 368.616L84.584 355.08L87.08 372H85.256L83.744 360.864L78.296 372.672L72.92 360.864L71.336 372ZM92.0788 370.608V377.52H90.3508V362.04H92.0788V363.432C92.9588 362.344 94.0948 361.8 95.4868 361.8C96.9748 361.8 98.1508 362.328 99.0148 363.384C99.8948 364.424 100.335 365.656 100.335 367.08C100.335 368.52 99.9028 369.752 99.0388 370.776C98.1748 371.784 97.0148 372.288 95.5588 372.288C94.1028 372.288 92.9428 371.728 92.0788 370.608ZM95.3188 370.752C96.2948 370.752 97.0788 370.4 97.6708 369.696C98.2628 368.976 98.5588 368.104 98.5588 367.08C98.5588 365.928 98.2308 365.016 97.5748 364.344C96.9188 363.672 96.1588 363.336 95.2948 363.336C94.4308 363.336 93.6628 363.672 92.9908 364.344C92.3188 365.016 91.9828 365.92 91.9828 367.056C91.9828 368.096 92.2868 368.976 92.8948 369.696C93.5188 370.4 94.3268 370.752 95.3188 370.752ZM109.277 363.624H106.157V372H104.429V363.624H101.309V362.04H109.277V363.624Z" fill="black"></path> <path d="M71.336 469H69.512L72.176 452.104L78.32 465.616L84.584 452.08L87.08 469H85.256L83.744 457.864L78.296 469.672L72.92 457.864L71.336 469ZM92.0788 467.608V474.52H90.3508V459.04H92.0788V460.432C92.9588 459.344 94.0948 458.8 95.4868 458.8C96.9748 458.8 98.1508 459.328 99.0148 460.384C99.8948 461.424 100.335 462.656 100.335 464.08C100.335 465.52 99.9028 466.752 99.0388 467.776C98.1748 468.784 97.0148 469.288 95.5588 469.288C94.1028 469.288 92.9428 468.728 92.0788 467.608ZM95.3188 467.752C96.2948 467.752 97.0788 467.4 97.6708 466.696C98.2628 465.976 98.5588 465.104 98.5588 464.08C98.5588 462.928 98.2308 462.016 97.5748 461.344C96.9188 460.672 96.1588 460.336 95.2948 460.336C94.4308 460.336 93.6628 460.672 92.9908 461.344C92.3188 462.016 91.9828 462.92 91.9828 464.056C91.9828 465.096 92.2868 465.976 92.8948 466.696C93.5188 467.4 94.3268 467.752 95.3188 467.752ZM109.277 460.624H106.157V469H104.429V460.624H101.309V459.04H109.277V460.624Z" fill="black"></path> <path d="M390.384 180V165.672H387.696L388.632 163.992H392.16V180H390.384ZM405.105 163.104V175.344H407.073V176.976H405.105V180H403.329V176.976H395.121L405.105 163.104ZM398.265 175.344H403.329V168.264L398.265 175.344ZM410.177 179.88C409.937 179.64 409.817 179.36 409.817 179.04C409.817 178.72 409.937 178.44 410.177 178.2C410.417 177.96 410.697 177.84 411.017 177.84C411.337 177.84 411.617 177.96 411.857 178.2C412.097 178.44 412.217 178.72 412.217 179.04C412.217 179.36 412.097 179.64 411.857 179.88C411.617 180.12 411.337 180.24 411.017 180.24C410.697 180.24 410.417 180.12 410.177 179.88ZM420.126 180V165.672H417.438L418.374 163.992H421.902V180H420.126ZM428.376 180V165.672H425.688L426.624 163.992H430.152V180H428.376ZM436.334 179.88C436.094 179.64 435.974 179.36 435.974 179.04C435.974 178.72 436.094 178.44 436.334 178.2C436.574 177.96 436.854 177.84 437.174 177.84C437.494 177.84 437.774 177.96 438.014 178.2C438.254 178.44 438.374 178.72 438.374 179.04C438.374 179.36 438.254 179.64 438.014 179.88C437.774 180.12 437.494 180.24 437.174 180.24C436.854 180.24 436.574 180.12 436.334 179.88ZM451.442 180H441.098L446.93 173.256C447.922 172.088 448.546 171.312 448.802 170.928C449.394 170.08 449.69 169.264 449.69 168.48C449.69 167.568 449.394 166.824 448.802 166.248C448.21 165.656 447.442 165.36 446.498 165.36C445.346 165.36 444.458 165.832 443.834 166.776C443.498 167.288 443.322 167.92 443.306 168.672H441.53C441.594 167.312 441.994 166.208 442.73 165.36C443.69 164.272 444.954 163.728 446.522 163.728C447.946 163.728 449.122 164.184 450.05 165.096C450.994 165.992 451.466 167.128 451.466 168.504C451.466 169.576 451.042 170.72 450.194 171.936C449.762 172.528 449.034 173.416 448.01 174.6L444.674 178.368H451.442V180ZM463.85 177.888C462.746 179.488 461.378 180.288 459.746 180.288C458.114 180.288 456.746 179.488 455.642 177.888C454.57 176.336 454.034 174.376 454.034 172.008C454.034 169.64 454.57 167.68 455.642 166.128C456.746 164.528 458.114 163.728 459.746 163.728C461.378 163.728 462.746 164.528 463.85 166.128C464.922 167.68 465.458 169.64 465.458 172.008C465.458 174.376 464.922 176.336 463.85 177.888ZM462.506 167.136C461.77 165.952 460.85 165.36 459.746 165.36C458.642 165.36 457.722 165.952 456.986 167.136C456.202 168.384 455.81 170.008 455.81 172.008C455.81 174.008 456.202 175.632 456.986 176.88C457.722 178.064 458.642 178.656 459.746 178.656C460.85 178.656 461.77 178.064 462.506 176.88C463.29 175.632 463.682 174.008 463.682 172.008C463.682 170.008 463.29 168.384 462.506 167.136Z" fill="black"></path> <path d="M390.384 277V262.672H387.696L388.632 260.992H392.16V277H390.384ZM398.199 264.952H396.423C396.471 264.104 396.719 263.32 397.167 262.6C397.967 261.352 399.207 260.728 400.887 260.728C402.311 260.728 403.415 261.152 404.199 262C404.999 262.848 405.399 263.864 405.399 265.048C405.399 266.728 404.711 267.912 403.335 268.6C403.543 268.68 403.743 268.792 403.935 268.936C404.143 269.064 404.391 269.272 404.679 269.56C404.967 269.848 405.199 270.248 405.375 270.76C405.551 271.256 405.639 271.824 405.639 272.464C405.639 273.92 405.167 275.088 404.223 275.968C403.295 276.848 402.127 277.288 400.719 277.288C399.775 277.288 398.895 277.072 398.079 276.64C397.263 276.192 396.655 275.488 396.255 274.528C396.047 274.016 395.927 273.456 395.895 272.848H397.671C397.751 273.504 397.943 274.04 398.247 274.456C398.791 275.256 399.615 275.656 400.719 275.656C401.599 275.656 402.343 275.344 402.951 274.72C403.559 274.08 403.863 273.312 403.863 272.416C403.863 271.104 403.335 270.208 402.279 269.728C401.751 269.472 401.143 269.36 400.455 269.392V267.808C401.143 267.856 401.751 267.744 402.279 267.472C403.175 267.008 403.623 266.216 403.623 265.096C403.623 264.312 403.399 263.664 402.951 263.152C402.503 262.624 401.815 262.36 400.887 262.36C399.991 262.36 399.303 262.664 398.823 263.272C398.455 263.752 398.247 264.312 398.199 264.952ZM409.896 276.88C409.656 276.64 409.536 276.36 409.536 276.04C409.536 275.72 409.656 275.44 409.896 275.2C410.136 274.96 410.416 274.84 410.736 274.84C411.056 274.84 411.336 274.96 411.576 275.2C411.816 275.44 411.936 275.72 411.936 276.04C411.936 276.36 411.816 276.64 411.576 276.88C411.336 277.12 411.056 277.24 410.736 277.24C410.416 277.24 410.136 277.12 409.896 276.88ZM419.845 277V262.672H417.157L418.093 260.992H421.621V277H419.845ZM428.095 277V262.672H425.407L426.343 260.992H429.871V277H428.095ZM436.052 276.88C435.812 276.64 435.692 276.36 435.692 276.04C435.692 275.72 435.812 275.44 436.052 275.2C436.292 274.96 436.572 274.84 436.892 274.84C437.212 274.84 437.492 274.96 437.732 275.2C437.972 275.44 438.092 275.72 438.092 276.04C438.092 276.36 437.972 276.64 437.732 276.88C437.492 277.12 437.212 277.24 436.892 277.24C436.572 277.24 436.292 277.12 436.052 276.88ZM451.161 277H440.817L446.649 270.256C447.641 269.088 448.265 268.312 448.521 267.928C449.113 267.08 449.409 266.264 449.409 265.48C449.409 264.568 449.113 263.824 448.521 263.248C447.929 262.656 447.161 262.36 446.217 262.36C445.065 262.36 444.177 262.832 443.553 263.776C443.217 264.288 443.041 264.92 443.025 265.672H441.249C441.313 264.312 441.713 263.208 442.449 262.36C443.409 261.272 444.673 260.728 446.241 260.728C447.665 260.728 448.841 261.184 449.769 262.096C450.713 262.992 451.185 264.128 451.185 265.504C451.185 266.576 450.761 267.72 449.913 268.936C449.481 269.528 448.753 270.416 447.729 271.6L444.393 275.368H451.161V277ZM463.568 274.888C462.464 276.488 461.096 277.288 459.464 277.288C457.832 277.288 456.464 276.488 455.36 274.888C454.288 273.336 453.752 271.376 453.752 269.008C453.752 266.64 454.288 264.68 455.36 263.128C456.464 261.528 457.832 260.728 459.464 260.728C461.096 260.728 462.464 261.528 463.568 263.128C464.64 264.68 465.176 266.64 465.176 269.008C465.176 271.376 464.64 273.336 463.568 274.888ZM462.224 264.136C461.488 262.952 460.568 262.36 459.464 262.36C458.36 262.36 457.44 262.952 456.704 264.136C455.92 265.384 455.528 267.008 455.528 269.008C455.528 271.008 455.92 272.632 456.704 273.88C457.44 275.064 458.36 275.656 459.464 275.656C460.568 275.656 461.488 275.064 462.224 273.88C463.008 272.632 463.4 271.008 463.4 269.008C463.4 267.008 463.008 265.384 462.224 264.136Z" fill="black"></path> <path d="M390.384 374V359.672H387.696L388.632 357.992H392.16V374H390.384ZM405.575 374H395.231L401.063 367.256C402.055 366.088 402.679 365.312 402.935 364.928C403.527 364.08 403.823 363.264 403.823 362.48C403.823 361.568 403.527 360.824 402.935 360.248C402.343 359.656 401.575 359.36 400.631 359.36C399.479 359.36 398.591 359.832 397.967 360.776C397.631 361.288 397.455 361.92 397.439 362.672H395.663C395.727 361.312 396.127 360.208 396.863 359.36C397.823 358.272 399.087 357.728 400.655 357.728C402.079 357.728 403.255 358.184 404.183 359.096C405.127 359.992 405.599 361.128 405.599 362.504C405.599 363.576 405.175 364.72 404.327 365.936C403.895 366.528 403.167 367.416 402.143 368.6L398.807 372.368H405.575V374ZM409.568 373.88C409.328 373.64 409.208 373.36 409.208 373.04C409.208 372.72 409.328 372.44 409.568 372.2C409.808 371.96 410.088 371.84 410.408 371.84C410.728 371.84 411.008 371.96 411.248 372.2C411.488 372.44 411.608 372.72 411.608 373.04C411.608 373.36 411.488 373.64 411.248 373.88C411.008 374.12 410.728 374.24 410.408 374.24C410.088 374.24 409.808 374.12 409.568 373.88ZM419.517 374V359.672H416.829L417.765 357.992H421.293V374H419.517ZM427.767 374V359.672H425.079L426.015 357.992H429.543V374H427.767ZM435.724 373.88C435.484 373.64 435.364 373.36 435.364 373.04C435.364 372.72 435.484 372.44 435.724 372.2C435.964 371.96 436.244 371.84 436.564 371.84C436.884 371.84 437.164 371.96 437.404 372.2C437.644 372.44 437.764 372.72 437.764 373.04C437.764 373.36 437.644 373.64 437.404 373.88C437.164 374.12 436.884 374.24 436.564 374.24C436.244 374.24 435.964 374.12 435.724 373.88ZM450.833 374H440.489L446.321 367.256C447.313 366.088 447.937 365.312 448.193 364.928C448.785 364.08 449.081 363.264 449.081 362.48C449.081 361.568 448.785 360.824 448.193 360.248C447.601 359.656 446.833 359.36 445.889 359.36C444.737 359.36 443.849 359.832 443.225 360.776C442.889 361.288 442.713 361.92 442.697 362.672H440.921C440.985 361.312 441.385 360.208 442.121 359.36C443.081 358.272 444.345 357.728 445.913 357.728C447.337 357.728 448.513 358.184 449.441 359.096C450.385 359.992 450.857 361.128 450.857 362.504C450.857 363.576 450.433 364.72 449.585 365.936C449.153 366.528 448.425 367.416 447.401 368.6L444.065 372.368H450.833V374ZM463.24 371.888C462.136 373.488 460.768 374.288 459.136 374.288C457.504 374.288 456.136 373.488 455.032 371.888C453.96 370.336 453.424 368.376 453.424 366.008C453.424 363.64 453.96 361.68 455.032 360.128C456.136 358.528 457.504 357.728 459.136 357.728C460.768 357.728 462.136 358.528 463.24 360.128C464.312 361.68 464.848 363.64 464.848 366.008C464.848 368.376 464.312 370.336 463.24 371.888ZM461.896 361.136C461.16 359.952 460.24 359.36 459.136 359.36C458.032 359.36 457.112 359.952 456.376 361.136C455.592 362.384 455.2 364.008 455.2 366.008C455.2 368.008 455.592 369.632 456.376 370.88C457.112 372.064 458.032 372.656 459.136 372.656C460.24 372.656 461.16 372.064 461.896 370.88C462.68 369.632 463.072 368.008 463.072 366.008C463.072 364.008 462.68 362.384 461.896 361.136Z" fill="black"></path> <path d="M390.384 471V456.672H387.696L388.632 454.992H392.16V471H390.384ZM398.634 471V456.672H395.946L396.882 454.992H400.41V471H398.634ZM406.591 470.88C406.351 470.64 406.231 470.36 406.231 470.04C406.231 469.72 406.351 469.44 406.591 469.2C406.831 468.96 407.111 468.84 407.431 468.84C407.751 468.84 408.031 468.96 408.271 469.2C408.511 469.44 408.631 469.72 408.631 470.04C408.631 470.36 408.511 470.64 408.271 470.88C408.031 471.12 407.751 471.24 407.431 471.24C407.111 471.24 406.831 471.12 406.591 470.88ZM416.54 471V456.672H413.852L414.788 454.992H418.316V471H416.54ZM424.79 471V456.672H422.102L423.038 454.992H426.566V471H424.79ZM432.748 470.88C432.508 470.64 432.388 470.36 432.388 470.04C432.388 469.72 432.508 469.44 432.748 469.2C432.988 468.96 433.268 468.84 433.588 468.84C433.908 468.84 434.188 468.96 434.428 469.2C434.668 469.44 434.788 469.72 434.788 470.04C434.788 470.36 434.668 470.64 434.428 470.88C434.188 471.12 433.908 471.24 433.588 471.24C433.268 471.24 432.988 471.12 432.748 470.88ZM447.857 471H437.513L443.345 464.256C444.337 463.088 444.961 462.312 445.217 461.928C445.809 461.08 446.105 460.264 446.105 459.48C446.105 458.568 445.809 457.824 445.217 457.248C444.625 456.656 443.857 456.36 442.913 456.36C441.761 456.36 440.873 456.832 440.249 457.776C439.913 458.288 439.737 458.92 439.721 459.672H437.945C438.009 458.312 438.409 457.208 439.145 456.36C440.105 455.272 441.369 454.728 442.937 454.728C444.361 454.728 445.537 455.184 446.465 456.096C447.409 456.992 447.881 458.128 447.881 459.504C447.881 460.576 447.457 461.72 446.609 462.936C446.177 463.528 445.449 464.416 444.425 465.6L441.089 469.368H447.857V471ZM460.264 468.888C459.16 470.488 457.792 471.288 456.16 471.288C454.528 471.288 453.16 470.488 452.056 468.888C450.984 467.336 450.448 465.376 450.448 463.008C450.448 460.64 450.984 458.68 452.056 457.128C453.16 455.528 454.528 454.728 456.16 454.728C457.792 454.728 459.16 455.528 460.264 457.128C461.336 458.68 461.872 460.64 461.872 463.008C461.872 465.376 461.336 467.336 460.264 468.888ZM458.92 458.136C458.184 456.952 457.264 456.36 456.16 456.36C455.056 456.36 454.136 456.952 453.4 458.136C452.616 459.384 452.224 461.008 452.224 463.008C452.224 465.008 452.616 466.632 453.4 467.88C454.136 469.064 455.056 469.656 456.16 469.656C457.264 469.656 458.184 469.064 458.92 467.88C459.704 466.632 460.096 465.008 460.096 463.008C460.096 461.008 459.704 459.384 458.92 458.136Z" fill="black"></path> <path d="M675.064 163.992H677.944C679.544 163.992 680.768 164.328 681.616 165C682.576 165.736 683.056 166.84 683.056 168.312C683.056 169.688 682.528 170.736 681.472 171.456C682.496 171.712 683.256 172.232 683.752 173.016C684.264 173.784 684.52 174.608 684.52 175.488C684.52 176.208 684.36 176.872 684.04 177.48C683.736 178.088 683.352 178.576 682.888 178.944C681.992 179.648 680.712 180 679.048 180H675.064V163.992ZM676.84 165.672V171.024H678.184C678.424 171.024 678.656 171.016 678.88 171C679.104 170.968 679.368 170.904 679.672 170.808C679.992 170.696 680.264 170.552 680.488 170.376C680.728 170.2 680.928 169.936 681.088 169.584C681.248 169.232 681.328 168.824 681.328 168.36C681.328 167.864 681.232 167.44 681.04 167.088C680.848 166.72 680.632 166.448 680.392 166.272C680.152 166.096 679.864 165.96 679.528 165.864C679.192 165.768 678.936 165.712 678.76 165.696C678.584 165.68 678.408 165.672 678.232 165.672H676.84ZM676.84 172.608V178.32H678.88C680.176 178.32 681.112 178.096 681.688 177.648C682.392 177.136 682.744 176.4 682.744 175.44C682.744 174.368 682.288 173.584 681.376 173.088C680.8 172.768 679.896 172.608 678.664 172.608H676.84ZM692.96 180V170.04H694.688V174.12H699.392V170.04H701.12V180H699.392V175.704H694.688V180H692.96ZM712.798 178.8C711.806 179.792 710.55 180.288 709.03 180.288C707.51 180.288 706.246 179.792 705.238 178.8C704.246 177.808 703.75 176.56 703.75 175.056C703.75 173.536 704.246 172.28 705.238 171.288C706.246 170.296 707.51 169.8 709.03 169.8C710.55 169.8 711.806 170.296 712.798 171.288C713.806 172.28 714.31 173.536 714.31 175.056C714.31 176.56 713.806 177.808 712.798 178.8ZM711.502 172.32C710.83 171.664 710.006 171.336 709.03 171.336C708.054 171.336 707.222 171.672 706.534 172.344C705.862 173 705.526 173.904 705.526 175.056C705.526 176.208 705.87 177.112 706.558 177.768C707.246 178.424 708.07 178.752 709.03 178.752C709.99 178.752 710.814 178.424 711.502 177.768C712.19 177.112 712.534 176.208 712.534 175.056C712.534 173.888 712.19 172.976 711.502 172.32ZM718.688 178.608V185.52H716.96V170.04H718.688V171.432C719.568 170.344 720.704 169.8 722.096 169.8C723.584 169.8 724.76 170.328 725.624 171.384C726.504 172.424 726.944 173.656 726.944 175.08C726.944 176.52 726.512 177.752 725.648 178.776C724.784 179.784 723.624 180.288 722.168 180.288C720.712 180.288 719.552 179.728 718.688 178.608ZM721.928 178.752C722.904 178.752 723.688 178.4 724.28 177.696C724.872 176.976 725.168 176.104 725.168 175.08C725.168 173.928 724.84 173.016 724.184 172.344C723.528 171.672 722.768 171.336 721.904 171.336C721.04 171.336 720.272 171.672 719.6 172.344C718.928 173.016 718.592 173.92 718.592 175.056C718.592 176.096 718.896 176.976 719.504 177.696C720.128 178.4 720.936 178.752 721.928 178.752ZM728.441 180L730.841 169.272L734.969 177.384L739.001 169.272L741.401 180H739.625L738.305 173.832L734.921 180.696L731.489 173.832L730.217 180H728.441ZM750.907 176.664L752.347 177.456C752.011 178.096 751.603 178.632 751.123 179.064C750.211 179.88 749.107 180.288 747.811 180.288C746.467 180.288 745.307 179.856 744.331 178.992C743.371 178.112 742.891 176.808 742.891 175.08C742.891 173.56 743.323 172.304 744.187 171.312C745.067 170.304 746.243 169.8 747.715 169.8C749.379 169.8 750.635 170.408 751.483 171.624C752.155 172.584 752.467 173.832 752.419 175.368H744.667C744.683 176.376 744.995 177.192 745.603 177.816C746.211 178.44 746.955 178.752 747.835 178.752C748.619 178.752 749.299 178.512 749.875 178.032C750.323 177.648 750.667 177.192 750.907 176.664ZM744.787 173.928H750.643C750.499 173.144 750.155 172.52 749.611 172.056C749.083 171.576 748.451 171.336 747.715 171.336C746.995 171.336 746.355 171.584 745.795 172.08C745.251 172.56 744.915 173.176 744.787 173.928Z" fill="black"></path> <path d="M676.84 260.992V267.496H685.048V260.992H686.824V277H685.048V269.176H676.84V277H675.064V260.992H676.84ZM690.523 267.04H692.251V273.616L699.067 266.272V277H697.339V270.352L690.523 277.696V267.04ZM703.631 269.584L702.431 268.6C702.815 268.04 703.239 267.624 703.703 267.352C704.327 266.984 705.055 266.8 705.887 266.8C706.895 266.8 707.679 267.032 708.239 267.496C708.815 267.992 709.103 268.624 709.103 269.392C709.103 270.32 708.727 271.016 707.975 271.48C708.455 271.592 708.839 271.808 709.127 272.128C709.591 272.624 709.823 273.232 709.823 273.952C709.823 275.024 709.391 275.88 708.527 276.52C707.823 277.032 706.879 277.288 705.695 277.288C704.639 277.288 703.751 277.008 703.031 276.448C702.487 276.048 702.047 275.48 701.711 274.744L703.199 274.12C703.375 274.568 703.671 274.944 704.087 275.248C704.535 275.584 705.079 275.752 705.719 275.752C706.471 275.752 707.031 275.624 707.399 275.368C707.863 275.064 708.095 274.6 708.095 273.976C708.095 273.464 707.895 273.08 707.495 272.824C707.159 272.6 706.615 272.488 705.863 272.488H704.855V270.904H705.695C706.303 270.904 706.735 270.816 706.991 270.64C707.343 270.416 707.519 270.112 707.519 269.728C707.519 269.28 707.375 268.936 707.087 268.696C706.815 268.456 706.391 268.336 705.815 268.336C705.319 268.336 704.863 268.464 704.447 268.72C704.095 268.944 703.823 269.232 703.631 269.584ZM712.46 267.04H714.188V271.12L718.22 267.04H720.332L716.012 271.48L720.86 277H718.604L714.716 272.632L714.188 273.136V277H712.46V267.04ZM722.585 267.04H724.313V273.616L731.129 266.272V277H729.401V270.352L722.585 277.696V267.04ZM734.398 267.04H736.126V273.616L742.942 266.272V277H741.214V270.352L734.398 277.696V267.04ZM735.262 262.744L736.702 262.192C736.99 263.152 737.67 263.632 738.742 263.632C739.814 263.632 740.494 263.152 740.782 262.192L742.222 262.744C741.966 263.464 741.526 264.032 740.902 264.448C740.294 264.864 739.574 265.072 738.742 265.072C737.91 265.072 737.182 264.864 736.558 264.448C735.95 264.032 735.518 263.464 735.262 262.744Z" fill="black"></path> <path d="M675.064 357.992H686.824V374H685.048V359.672H676.84V374H675.064V357.992ZM698.947 372.8C697.955 373.792 696.699 374.288 695.179 374.288C693.659 374.288 692.395 373.792 691.387 372.8C690.395 371.808 689.899 370.56 689.899 369.056C689.899 367.536 690.395 366.28 691.387 365.288C692.395 364.296 693.659 363.8 695.179 363.8C696.699 363.8 697.955 364.296 698.947 365.288C699.955 366.28 700.459 367.536 700.459 369.056C700.459 370.56 699.955 371.808 698.947 372.8ZM697.651 366.32C696.979 365.664 696.155 365.336 695.179 365.336C694.203 365.336 693.371 365.672 692.683 366.344C692.011 367 691.675 367.904 691.675 369.056C691.675 370.208 692.019 371.112 692.707 371.768C693.395 372.424 694.219 372.752 695.179 372.752C696.139 372.752 696.963 372.424 697.651 371.768C698.339 371.112 698.683 370.208 698.683 369.056C698.683 367.888 698.339 366.976 697.651 366.32ZM703.109 364.04H706.877C707.789 364.04 708.485 364.232 708.965 364.616C709.541 365.08 709.829 365.704 709.829 366.488C709.829 367.352 709.469 368.016 708.749 368.48C709.245 368.608 709.661 368.832 709.997 369.152C710.525 369.664 710.789 370.304 710.789 371.072C710.789 372.032 710.445 372.784 709.757 373.328C709.165 373.776 708.381 374 707.405 374H703.109V364.04ZM704.837 368.096H706.661C707.125 368.096 707.493 368 707.765 367.808C708.085 367.568 708.245 367.224 708.245 366.776C708.245 366.376 708.085 366.056 707.765 365.816C707.525 365.656 707.061 365.576 706.373 365.576H704.837V368.096ZM704.837 372.464H706.973C707.709 372.464 708.229 372.352 708.533 372.128C708.917 371.84 709.109 371.472 709.109 371.024C709.109 370.544 708.941 370.168 708.605 369.896C708.301 369.656 707.781 369.536 707.045 369.536H704.837V372.464ZM713.421 374V364.04H715.149V367.856H716.925C718.301 367.856 719.309 368.184 719.949 368.84C720.461 369.352 720.717 370.048 720.717 370.928C720.717 371.856 720.421 372.6 719.829 373.16C719.237 373.72 718.261 374 716.901 374H713.421ZM715.149 372.464H716.757C717.477 372.464 717.989 372.376 718.293 372.2C718.725 371.912 718.941 371.488 718.941 370.928C718.941 370.352 718.733 369.936 718.317 369.68C718.029 369.488 717.517 369.392 716.781 369.392H715.149V372.464ZM721.917 374V364.04H723.645V374H721.917ZM726.898 374V364.04H728.626V372.416H732.466V364.04H734.194V372.416H738.034V364.04H739.762V374H726.898ZM750.415 370.664L751.855 371.456C751.519 372.096 751.111 372.632 750.631 373.064C749.719 373.88 748.615 374.288 747.319 374.288C745.975 374.288 744.815 373.856 743.839 372.992C742.879 372.112 742.399 370.808 742.399 369.08C742.399 367.56 742.831 366.304 743.695 365.312C744.575 364.304 745.751 363.8 747.223 363.8C748.887 363.8 750.143 364.408 750.991 365.624C751.663 366.584 751.975 367.832 751.927 369.368H744.175C744.191 370.376 744.503 371.192 745.111 371.816C745.719 372.44 746.463 372.752 747.343 372.752C748.127 372.752 748.807 372.512 749.383 372.032C749.831 371.648 750.175 371.192 750.415 370.664ZM744.295 367.928H750.151C750.007 367.144 749.663 366.52 749.119 366.056C748.591 365.576 747.959 365.336 747.223 365.336C746.503 365.336 745.863 365.584 745.303 366.08C744.759 366.56 744.423 367.176 744.295 367.928ZM754.577 374V364.04H756.305V368.12H761.009V364.04H762.737V374H761.009V369.704H756.305V374H754.577ZM765.991 374V364.04H767.719V368.12H772.423V364.04H774.151V374H772.423V369.704H767.719V374H765.991ZM777.405 374V364.04H779.133V367.856H780.909C782.285 367.856 783.293 368.184 783.933 368.84C784.445 369.352 784.701 370.048 784.701 370.928C784.701 371.856 784.405 372.6 783.813 373.16C783.221 373.72 782.245 374 780.885 374H777.405ZM779.133 372.464H780.741C781.461 372.464 781.973 372.376 782.277 372.2C782.709 371.912 782.925 371.488 782.925 370.928C782.925 370.352 782.717 369.936 782.301 369.68C782.013 369.488 781.501 369.392 780.765 369.392H779.133V372.464ZM785.901 374V364.04H787.629V374H785.901ZM790.882 364.04H792.61V370.616L799.426 363.272V374H797.698V367.352L790.882 374.696V364.04ZM791.746 359.744L793.186 359.192C793.474 360.152 794.154 360.632 795.226 360.632C796.298 360.632 796.978 360.152 797.266 359.192L798.706 359.744C798.45 360.464 798.01 361.032 797.386 361.448C796.778 361.864 796.058 362.072 795.226 362.072C794.394 362.072 793.666 361.864 793.042 361.448C792.434 361.032 792.002 360.464 791.746 359.744Z" fill="black"></path> <path d="M675.064 454.992H677.944C679.544 454.992 680.768 455.328 681.616 456C682.576 456.736 683.056 457.84 683.056 459.312C683.056 460.688 682.528 461.736 681.472 462.456C682.496 462.712 683.256 463.232 683.752 464.016C684.264 464.784 684.52 465.608 684.52 466.488C684.52 467.208 684.36 467.872 684.04 468.48C683.736 469.088 683.352 469.576 682.888 469.944C681.992 470.648 680.712 471 679.048 471H675.064V454.992ZM676.84 456.672V462.024H678.184C678.424 462.024 678.656 462.016 678.88 462C679.104 461.968 679.368 461.904 679.672 461.808C679.992 461.696 680.264 461.552 680.488 461.376C680.728 461.2 680.928 460.936 681.088 460.584C681.248 460.232 681.328 459.824 681.328 459.36C681.328 458.864 681.232 458.44 681.04 458.088C680.848 457.72 680.632 457.448 680.392 457.272C680.152 457.096 679.864 456.96 679.528 456.864C679.192 456.768 678.936 456.712 678.76 456.696C678.584 456.68 678.408 456.672 678.232 456.672H676.84ZM676.84 463.608V469.32H678.88C680.176 469.32 681.112 469.096 681.688 468.648C682.392 468.136 682.744 467.4 682.744 466.44C682.744 465.368 682.288 464.584 681.376 464.088C680.8 463.768 679.896 463.608 678.664 463.608H676.84ZM692.96 471V461.04H694.688V465.12H699.392V461.04H701.12V471H699.392V466.704H694.688V471H692.96ZM712.798 469.8C711.806 470.792 710.55 471.288 709.03 471.288C707.51 471.288 706.246 470.792 705.238 469.8C704.246 468.808 703.75 467.56 703.75 466.056C703.75 464.536 704.246 463.28 705.238 462.288C706.246 461.296 707.51 460.8 709.03 460.8C710.55 460.8 711.806 461.296 712.798 462.288C713.806 463.28 714.31 464.536 714.31 466.056C714.31 467.56 713.806 468.808 712.798 469.8ZM711.502 463.32C710.83 462.664 710.006 462.336 709.03 462.336C708.054 462.336 707.222 462.672 706.534 463.344C705.862 464 705.526 464.904 705.526 466.056C705.526 467.208 705.87 468.112 706.558 468.768C707.246 469.424 708.07 469.752 709.03 469.752C709.99 469.752 710.814 469.424 711.502 468.768C712.19 468.112 712.534 467.208 712.534 466.056C712.534 464.888 712.19 463.976 711.502 463.32ZM718.688 469.608V476.52H716.96V461.04H718.688V462.432C719.568 461.344 720.704 460.8 722.096 460.8C723.584 460.8 724.76 461.328 725.624 462.384C726.504 463.424 726.944 464.656 726.944 466.08C726.944 467.52 726.512 468.752 725.648 469.776C724.784 470.784 723.624 471.288 722.168 471.288C720.712 471.288 719.552 470.728 718.688 469.608ZM721.928 469.752C722.904 469.752 723.688 469.4 724.28 468.696C724.872 467.976 725.168 467.104 725.168 466.08C725.168 464.928 724.84 464.016 724.184 463.344C723.528 462.672 722.768 462.336 721.904 462.336C721.04 462.336 720.272 462.672 719.6 463.344C718.928 464.016 718.592 464.92 718.592 466.056C718.592 467.096 718.896 467.976 719.504 468.696C720.128 469.4 720.936 469.752 721.928 469.752ZM728.441 471L730.841 460.272L734.969 468.384L739.001 460.272L741.401 471H739.625L738.305 464.832L734.921 471.696L731.489 464.832L730.217 471H728.441ZM750.907 467.664L752.347 468.456C752.011 469.096 751.603 469.632 751.123 470.064C750.211 470.88 749.107 471.288 747.811 471.288C746.467 471.288 745.307 470.856 744.331 469.992C743.371 469.112 742.891 467.808 742.891 466.08C742.891 464.56 743.323 463.304 744.187 462.312C745.067 461.304 746.243 460.8 747.715 460.8C749.379 460.8 750.635 461.408 751.483 462.624C752.155 463.584 752.467 464.832 752.419 466.368H744.667C744.683 467.376 744.995 468.192 745.603 468.816C746.211 469.44 746.955 469.752 747.835 469.752C748.619 469.752 749.299 469.512 749.875 469.032C750.323 468.648 750.667 468.192 750.907 467.664ZM744.787 464.928H750.643C750.499 464.144 750.155 463.52 749.611 463.056C749.083 462.576 748.451 462.336 747.715 462.336C746.995 462.336 746.355 462.584 745.795 463.08C745.251 463.56 744.915 464.176 744.787 464.928Z" fill="black"></path> <path d="M961.384 178V163.672H958.696L959.632 161.992H963.16V178H961.384ZM969.199 165.952H967.423C967.471 165.104 967.719 164.32 968.167 163.6C968.967 162.352 970.207 161.728 971.887 161.728C973.311 161.728 974.415 162.152 975.199 163C975.999 163.848 976.399 164.864 976.399 166.048C976.399 167.728 975.711 168.912 974.335 169.6C974.543 169.68 974.743 169.792 974.935 169.936C975.143 170.064 975.391 170.272 975.679 170.56C975.967 170.848 976.199 171.248 976.375 171.76C976.551 172.256 976.639 172.824 976.639 173.464C976.639 174.92 976.167 176.088 975.223 176.968C974.295 177.848 973.127 178.288 971.719 178.288C970.775 178.288 969.895 178.072 969.079 177.64C968.263 177.192 967.655 176.488 967.255 175.528C967.047 175.016 966.927 174.456 966.895 173.848H968.671C968.751 174.504 968.943 175.04 969.247 175.456C969.791 176.256 970.615 176.656 971.719 176.656C972.599 176.656 973.343 176.344 973.951 175.72C974.559 175.08 974.863 174.312 974.863 173.416C974.863 172.104 974.335 171.208 973.279 170.728C972.751 170.472 972.143 170.36 971.455 170.392V168.808C972.143 168.856 972.751 168.744 973.279 168.472C974.175 168.008 974.623 167.216 974.623 166.096C974.623 165.312 974.399 164.664 973.951 164.152C973.503 163.624 972.815 163.36 971.887 163.36C970.991 163.36 970.303 163.664 969.823 164.272C969.455 164.752 969.247 165.312 969.199 165.952ZM988.269 161.104V173.344H990.237V174.976H988.269V178H986.493V174.976H978.285L988.269 161.104ZM981.429 173.344H986.493V166.264L981.429 173.344ZM998.679 178V168.04H1004.58V169.624H1000.41V178H998.679ZM1004.69 182.08L1017.02 159.784L1018.42 160.504L1006.08 182.752L1004.69 182.08ZM1020.52 168.04H1028.54V178H1026.81V169.624H1022.25V178H1020.52V168.04Z" fill="black"></path> <path d="M964.288 266.672C965.904 267.392 966.712 268.696 966.712 270.584C966.712 271.912 966.28 273.032 965.416 273.944C964.568 274.84 963.368 275.288 961.816 275.288C960.264 275.288 959.056 274.84 958.192 273.944C957.344 273.032 956.92 271.912 956.92 270.584C956.92 268.696 957.728 267.392 959.344 266.672C958.048 265.92 957.4 264.752 957.4 263.168C957.4 261.952 957.792 260.912 958.576 260.048C959.36 259.168 960.44 258.728 961.816 258.728C963.192 258.728 964.272 259.168 965.056 260.048C965.84 260.912 966.232 261.952 966.232 263.168C966.232 264.752 965.584 265.92 964.288 266.672ZM959.848 265.16C960.376 265.688 961.032 265.952 961.816 265.952C962.6 265.952 963.248 265.688 963.76 265.16C964.288 264.632 964.552 263.976 964.552 263.192C964.552 262.344 964.28 261.664 963.736 261.152C963.208 260.624 962.568 260.36 961.816 260.36C961.064 260.36 960.416 260.624 959.872 261.152C959.344 261.664 959.08 262.344 959.08 263.192C959.08 263.976 959.336 264.632 959.848 265.16ZM959.56 272.792C960.136 273.368 960.888 273.656 961.816 273.656C962.744 273.656 963.496 273.368 964.072 272.792C964.648 272.2 964.936 271.448 964.936 270.536C964.936 269.64 964.64 268.912 964.048 268.352C963.472 267.776 962.728 267.488 961.816 267.488C960.904 267.488 960.152 267.776 959.56 268.352C958.984 268.912 958.696 269.64 958.696 270.536C958.696 271.448 958.984 272.2 959.56 272.792ZM979.561 272.888C978.457 274.488 977.089 275.288 975.457 275.288C973.825 275.288 972.457 274.488 971.353 272.888C970.281 271.336 969.745 269.376 969.745 267.008C969.745 264.64 970.281 262.68 971.353 261.128C972.457 259.528 973.825 258.728 975.457 258.728C977.089 258.728 978.457 259.528 979.561 261.128C980.633 262.68 981.169 264.64 981.169 267.008C981.169 269.376 980.633 271.336 979.561 272.888ZM978.217 262.136C977.481 260.952 976.561 260.36 975.457 260.36C974.353 260.36 973.433 260.952 972.697 262.136C971.913 263.384 971.521 265.008 971.521 267.008C971.521 269.008 971.913 270.632 972.697 271.88C973.433 273.064 974.353 273.656 975.457 273.656C976.561 273.656 977.481 273.064 978.217 271.88C979.001 270.632 979.393 269.008 979.393 267.008C979.393 265.008 979.001 263.384 978.217 262.136ZM989.515 275V265.04H995.419V266.624H991.243V275H989.515ZM995.523 279.08L1007.86 256.784L1009.25 257.504L996.915 279.752L995.523 279.08ZM1011.36 265.04H1019.37V275H1017.65V266.624H1013.09V275H1011.36V265.04Z" fill="black"></path> <path d="M966.544 372H956.2L962.032 365.256C963.024 364.088 963.648 363.312 963.904 362.928C964.496 362.08 964.792 361.264 964.792 360.48C964.792 359.568 964.496 358.824 963.904 358.248C963.312 357.656 962.544 357.36 961.6 357.36C960.448 357.36 959.56 357.832 958.936 358.776C958.6 359.288 958.424 359.92 958.408 360.672H956.632C956.696 359.312 957.096 358.208 957.832 357.36C958.792 356.272 960.056 355.728 961.624 355.728C963.048 355.728 964.224 356.184 965.152 357.096C966.096 357.992 966.568 359.128 966.568 360.504C966.568 361.576 966.144 362.72 965.296 363.936C964.864 364.528 964.136 365.416 963.112 366.6L959.776 370.368H966.544V372ZM971.415 372V357.672H968.727L969.663 355.992H973.191V372H971.415ZM988.068 369.888C986.964 371.488 985.596 372.288 983.964 372.288C982.332 372.288 980.964 371.488 979.86 369.888C978.788 368.336 978.252 366.376 978.252 364.008C978.252 361.64 978.788 359.68 979.86 358.128C980.964 356.528 982.332 355.728 983.964 355.728C985.596 355.728 986.964 356.528 988.068 358.128C989.14 359.68 989.676 361.64 989.676 364.008C989.676 366.376 989.14 368.336 988.068 369.888ZM986.724 359.136C985.988 357.952 985.068 357.36 983.964 357.36C982.86 357.36 981.94 357.952 981.204 359.136C980.42 360.384 980.028 362.008 980.028 364.008C980.028 366.008 980.42 367.632 981.204 368.88C981.94 370.064 982.86 370.656 983.964 370.656C985.068 370.656 985.988 370.064 986.724 368.88C987.508 367.632 987.9 366.008 987.9 364.008C987.9 362.008 987.508 360.384 986.724 359.136ZM998.023 372V362.04H1003.93V363.624H999.751V372H998.023ZM1004.03 376.08L1016.37 353.784L1017.76 354.504L1005.42 376.752L1004.03 376.08ZM1019.87 362.04H1027.88V372H1026.15V363.624H1021.59V372H1019.87V362.04Z" fill="black"></path> <path d="M961.384 469V454.672H958.696L959.632 452.992H963.16V469H961.384ZM976.575 469H966.231L972.063 462.256C973.055 461.088 973.679 460.312 973.935 459.928C974.527 459.08 974.823 458.264 974.823 457.48C974.823 456.568 974.527 455.824 973.935 455.248C973.343 454.656 972.575 454.36 971.631 454.36C970.479 454.36 969.591 454.832 968.967 455.776C968.631 456.288 968.455 456.92 968.439 457.672H966.663C966.727 456.312 967.127 455.208 967.863 454.36C968.823 453.272 970.087 452.728 971.655 452.728C973.079 452.728 974.255 453.184 975.183 454.096C976.127 454.992 976.599 456.128 976.599 457.504C976.599 458.576 976.175 459.72 975.327 460.936C974.895 461.528 974.167 462.416 973.143 463.6L969.807 467.368H976.575V469ZM987.046 460.672C988.662 461.392 989.47 462.696 989.47 464.584C989.47 465.912 989.038 467.032 988.174 467.944C987.326 468.84 986.126 469.288 984.574 469.288C983.022 469.288 981.814 468.84 980.95 467.944C980.102 467.032 979.678 465.912 979.678 464.584C979.678 462.696 980.486 461.392 982.102 460.672C980.806 459.92 980.158 458.752 980.158 457.168C980.158 455.952 980.55 454.912 981.334 454.048C982.118 453.168 983.198 452.728 984.574 452.728C985.95 452.728 987.03 453.168 987.814 454.048C988.598 454.912 988.99 455.952 988.99 457.168C988.99 458.752 988.342 459.92 987.046 460.672ZM982.606 459.16C983.134 459.688 983.79 459.952 984.574 459.952C985.358 459.952 986.006 459.688 986.518 459.16C987.046 458.632 987.31 457.976 987.31 457.192C987.31 456.344 987.038 455.664 986.494 455.152C985.966 454.624 985.326 454.36 984.574 454.36C983.822 454.36 983.174 454.624 982.63 455.152C982.102 455.664 981.838 456.344 981.838 457.192C981.838 457.976 982.094 458.632 982.606 459.16ZM982.318 466.792C982.894 467.368 983.646 467.656 984.574 467.656C985.502 467.656 986.254 467.368 986.83 466.792C987.406 466.2 987.694 465.448 987.694 464.536C987.694 463.64 987.398 462.912 986.806 462.352C986.23 461.776 985.486 461.488 984.574 461.488C983.662 461.488 982.91 461.776 982.318 462.352C981.742 462.912 981.454 463.64 981.454 464.536C981.454 465.448 981.742 466.2 982.318 466.792ZM998.632 469V459.04H1004.54V460.624H1000.36V469H998.632ZM1004.64 473.08L1016.98 450.784L1018.37 451.504L1006.03 473.752L1004.64 473.08ZM1020.48 459.04H1028.49V469H1026.76V460.624H1022.2V469H1020.48V459.04Z" fill="black"></path> <line x1="68" y1="122.5" x2="1465" y2="122.5" stroke="#CAD6F3"></line> <line x1="68" y1="219.5" x2="1465" y2="219.5" stroke="#CAD6F3"></line> <line x1="68" y1="316.5" x2="1465" y2="316.5" stroke="#CAD6F3"></line> <line x1="68" y1="413.5" x2="1465" y2="413.5" stroke="#CAD6F3"></line> <circle cx="649.5" cy="171.5" r="6.5" fill="#52D750"></circle> <circle cx="649.5" cy="268.5" r="6.5" fill="#F6627A"></circle> <circle cx="649.5" cy="365.5" r="6.5" fill="#F6627A"></circle> <circle cx="649.5" cy="462.5" r="6.5" fill="#52D750"></circle> <circle cx="1441" cy="169" r="10" stroke="#232323" stroke-width="1.8"></circle> <path d="M1441.33 162.029C1441.7 162.029 1442 162.165 1442.23 162.437C1442.46 162.709 1442.57 163.043 1442.55 163.44C1442.54 163.825 1442.41 164.154 1442.16 164.426C1441.91 164.687 1441.6 164.817 1441.22 164.817C1440.84 164.817 1440.53 164.687 1440.29 164.426C1440.06 164.154 1439.95 163.825 1439.97 163.44C1439.99 163.043 1440.14 162.709 1440.41 162.437C1440.68 162.165 1440.99 162.029 1441.33 162.029ZM1440.73 166.313C1441.32 166.313 1441.73 166.494 1441.95 166.857C1442.19 167.208 1442.31 167.684 1442.31 168.285C1442.31 168.557 1442.28 168.925 1442.23 169.39C1442.17 169.855 1442.11 170.342 1442.04 170.852C1441.97 171.362 1441.91 171.827 1441.85 172.246C1441.8 172.665 1441.77 172.971 1441.77 173.164C1441.77 173.345 1441.8 173.464 1441.85 173.521C1441.91 173.578 1441.97 173.606 1442.02 173.606C1442.16 173.606 1442.29 173.51 1442.43 173.317C1442.57 173.124 1442.71 172.773 1442.86 172.263L1443.77 172.535C1443.73 172.773 1443.64 173.045 1443.5 173.351C1443.38 173.657 1443.21 173.952 1442.99 174.235C1442.78 174.507 1442.52 174.734 1442.21 174.915C1441.91 175.096 1441.57 175.187 1441.19 175.187C1440.57 175.187 1440.14 175.017 1439.9 174.677C1439.67 174.337 1439.56 173.867 1439.56 173.266C1439.56 172.937 1439.59 172.546 1439.64 172.093C1439.7 171.64 1439.76 171.175 1439.83 170.699C1439.91 170.223 1439.98 169.781 1440.03 169.373C1440.09 168.954 1440.12 168.608 1440.12 168.336C1440.12 168.143 1440.09 168.024 1440.03 167.979C1439.98 167.922 1439.91 167.894 1439.85 167.894C1439.72 167.894 1439.59 167.99 1439.46 168.183C1439.32 168.376 1439.18 168.727 1439.03 169.237L1438.11 168.965C1438.16 168.727 1438.25 168.455 1438.38 168.149C1438.52 167.843 1438.7 167.554 1438.91 167.282C1439.14 166.999 1439.4 166.766 1439.69 166.585C1440 166.404 1440.34 166.313 1440.73 166.313Z" fill="#232323"></path> <circle cx="1441" cy="266" r="10" stroke="#232323" stroke-width="1.8"></circle> <path d="M1441.33 259.029C1441.7 259.029 1442 259.165 1442.23 259.437C1442.46 259.709 1442.57 260.043 1442.55 260.44C1442.54 260.825 1442.41 261.154 1442.16 261.426C1441.91 261.687 1441.6 261.817 1441.22 261.817C1440.84 261.817 1440.53 261.687 1440.29 261.426C1440.06 261.154 1439.95 260.825 1439.97 260.44C1439.99 260.043 1440.14 259.709 1440.41 259.437C1440.68 259.165 1440.99 259.029 1441.33 259.029ZM1440.73 263.313C1441.32 263.313 1441.73 263.494 1441.95 263.857C1442.19 264.208 1442.31 264.684 1442.31 265.285C1442.31 265.557 1442.28 265.925 1442.23 266.39C1442.17 266.855 1442.11 267.342 1442.04 267.852C1441.97 268.362 1441.91 268.827 1441.85 269.246C1441.8 269.665 1441.77 269.971 1441.77 270.164C1441.77 270.345 1441.8 270.464 1441.85 270.521C1441.91 270.578 1441.97 270.606 1442.02 270.606C1442.16 270.606 1442.29 270.51 1442.43 270.317C1442.57 270.124 1442.71 269.773 1442.86 269.263L1443.77 269.535C1443.73 269.773 1443.64 270.045 1443.5 270.351C1443.38 270.657 1443.21 270.952 1442.99 271.235C1442.78 271.507 1442.52 271.734 1442.21 271.915C1441.91 272.096 1441.57 272.187 1441.19 272.187C1440.57 272.187 1440.14 272.017 1439.9 271.677C1439.67 271.337 1439.56 270.867 1439.56 270.266C1439.56 269.937 1439.59 269.546 1439.64 269.093C1439.7 268.64 1439.76 268.175 1439.83 267.699C1439.91 267.223 1439.98 266.781 1440.03 266.373C1440.09 265.954 1440.12 265.608 1440.12 265.336C1440.12 265.143 1440.09 265.024 1440.03 264.979C1439.98 264.922 1439.91 264.894 1439.85 264.894C1439.72 264.894 1439.59 264.99 1439.46 265.183C1439.32 265.376 1439.18 265.727 1439.03 266.237L1438.11 265.965C1438.16 265.727 1438.25 265.455 1438.38 265.149C1438.52 264.843 1438.7 264.554 1438.91 264.282C1439.14 263.999 1439.4 263.766 1439.69 263.585C1440 263.404 1440.34 263.313 1440.73 263.313Z" fill="#232323"></path> <circle cx="1441" cy="363" r="10" stroke="#232323" stroke-width="1.8"></circle> <path d="M1441.33 356.029C1441.7 356.029 1442 356.165 1442.23 356.437C1442.46 356.709 1442.57 357.043 1442.55 357.44C1442.54 357.825 1442.41 358.154 1442.16 358.426C1441.91 358.687 1441.6 358.817 1441.22 358.817C1440.84 358.817 1440.53 358.687 1440.29 358.426C1440.06 358.154 1439.95 357.825 1439.97 357.44C1439.99 357.043 1440.14 356.709 1440.41 356.437C1440.68 356.165 1440.99 356.029 1441.33 356.029ZM1440.73 360.313C1441.32 360.313 1441.73 360.494 1441.95 360.857C1442.19 361.208 1442.31 361.684 1442.31 362.285C1442.31 362.557 1442.28 362.925 1442.23 363.39C1442.17 363.855 1442.11 364.342 1442.04 364.852C1441.97 365.362 1441.91 365.827 1441.85 366.246C1441.8 366.665 1441.77 366.971 1441.77 367.164C1441.77 367.345 1441.8 367.464 1441.85 367.521C1441.91 367.578 1441.97 367.606 1442.02 367.606C1442.16 367.606 1442.29 367.51 1442.43 367.317C1442.57 367.124 1442.71 366.773 1442.86 366.263L1443.77 366.535C1443.73 366.773 1443.64 367.045 1443.5 367.351C1443.38 367.657 1443.21 367.952 1442.99 368.235C1442.78 368.507 1442.52 368.734 1442.21 368.915C1441.91 369.096 1441.57 369.187 1441.19 369.187C1440.57 369.187 1440.14 369.017 1439.9 368.677C1439.67 368.337 1439.56 367.867 1439.56 367.266C1439.56 366.937 1439.59 366.546 1439.64 366.093C1439.7 365.64 1439.76 365.175 1439.83 364.699C1439.91 364.223 1439.98 363.781 1440.03 363.373C1440.09 362.954 1440.12 362.608 1440.12 362.336C1440.12 362.143 1440.09 362.024 1440.03 361.979C1439.98 361.922 1439.91 361.894 1439.85 361.894C1439.72 361.894 1439.59 361.99 1439.46 362.183C1439.32 362.376 1439.18 362.727 1439.03 363.237L1438.11 362.965C1438.16 362.727 1438.25 362.455 1438.38 362.149C1438.52 361.843 1438.7 361.554 1438.91 361.282C1439.14 360.999 1439.4 360.766 1439.69 360.585C1440 360.404 1440.34 360.313 1440.73 360.313Z" fill="#232323"></path> <circle cx="1441" cy="460" r="10" stroke="#232323" stroke-width="1.8"></circle> <path d="M1441.33 453.029C1441.7 453.029 1442 453.165 1442.23 453.437C1442.46 453.709 1442.57 454.043 1442.55 454.44C1442.54 454.825 1442.41 455.154 1442.16 455.426C1441.91 455.687 1441.6 455.817 1441.22 455.817C1440.84 455.817 1440.53 455.687 1440.29 455.426C1440.06 455.154 1439.95 454.825 1439.97 454.44C1439.99 454.043 1440.14 453.709 1440.41 453.437C1440.68 453.165 1440.99 453.029 1441.33 453.029ZM1440.73 457.313C1441.32 457.313 1441.73 457.494 1441.95 457.857C1442.19 458.208 1442.31 458.684 1442.31 459.285C1442.31 459.557 1442.28 459.925 1442.23 460.39C1442.17 460.855 1442.11 461.342 1442.04 461.852C1441.97 462.362 1441.91 462.827 1441.85 463.246C1441.8 463.665 1441.77 463.971 1441.77 464.164C1441.77 464.345 1441.8 464.464 1441.85 464.521C1441.91 464.578 1441.97 464.606 1442.02 464.606C1442.16 464.606 1442.29 464.51 1442.43 464.317C1442.57 464.124 1442.71 463.773 1442.86 463.263L1443.77 463.535C1443.73 463.773 1443.64 464.045 1443.5 464.351C1443.38 464.657 1443.21 464.952 1442.99 465.235C1442.78 465.507 1442.52 465.734 1442.21 465.915C1441.91 466.096 1441.57 466.187 1441.19 466.187C1440.57 466.187 1440.14 466.017 1439.9 465.677C1439.67 465.337 1439.56 464.867 1439.56 464.266C1439.56 463.937 1439.59 463.546 1439.64 463.093C1439.7 462.64 1439.76 462.175 1439.83 461.699C1439.91 461.223 1439.98 460.781 1440.03 460.373C1440.09 459.954 1440.12 459.608 1440.12 459.336C1440.12 459.143 1440.09 459.024 1440.03 458.979C1439.98 458.922 1439.91 458.894 1439.85 458.894C1439.72 458.894 1439.59 458.99 1439.46 459.183C1439.32 459.376 1439.18 459.727 1439.03 460.237L1438.11 459.965C1438.16 459.727 1438.25 459.455 1438.38 459.149C1438.52 458.843 1438.7 458.554 1438.91 458.282C1439.14 457.999 1439.4 457.766 1439.69 457.585C1440 457.404 1440.34 457.313 1440.73 457.313Z" fill="#232323"></path> <g clip-path="url(#clip0)"> <path d="M1402.61 179.001H1389.39C1388.7 179.001 1388.14 178.394 1388.14 177.646C1388.14 176.898 1388.7 176.291 1389.39 176.291H1402.61C1403.3 176.291 1403.86 176.898 1403.86 177.646C1403.86 178.394 1403.3 179.001 1402.61 179.001Z" fill="#232323"></path> <path d="M1401.91 167.711C1401.42 167.257 1400.61 167.257 1400.12 167.71L1397.27 170.319V159.734C1397.27 159.092 1396.7 158.572 1396 158.572C1395.3 158.572 1394.73 159.092 1394.73 159.734V170.319L1391.88 167.71C1391.39 167.257 1390.58 167.257 1390.09 167.71C1389.59 168.164 1389.59 168.9 1390.09 169.354L1395.07 173.919C1395.11 173.952 1395.51 174.287 1396 174.287C1396.49 174.287 1396.85 173.989 1396.93 173.914L1401.91 169.354C1402.41 168.9 1402.41 168.164 1401.91 167.711Z" fill="#232323"></path> </g> <g clip-path="url(#clip1)"> <path d="M1402.61 277.001H1389.39C1388.7 277.001 1388.14 276.394 1388.14 275.646C1388.14 274.898 1388.7 274.291 1389.39 274.291H1402.61C1403.3 274.291 1403.86 274.898 1403.86 275.646C1403.86 276.394 1403.3 277.001 1402.61 277.001Z" fill="#232323"></path> <path d="M1401.91 265.711C1401.42 265.257 1400.61 265.257 1400.12 265.71L1397.27 268.319V257.734C1397.27 257.092 1396.7 256.572 1396 256.572C1395.3 256.572 1394.73 257.092 1394.73 257.734V268.319L1391.88 265.71C1391.39 265.257 1390.58 265.257 1390.09 265.71C1389.59 266.164 1389.59 266.9 1390.09 267.354L1395.07 271.919C1395.11 271.952 1395.51 272.287 1396 272.287C1396.49 272.287 1396.85 271.989 1396.93 271.914L1401.91 267.354C1402.41 266.9 1402.41 266.164 1401.91 265.711Z" fill="#232323"></path> </g> <g clip-path="url(#clip2)"> <path d="M1402.61 374.001H1389.39C1388.7 374.001 1388.14 373.394 1388.14 372.646C1388.14 371.898 1388.7 371.291 1389.39 371.291H1402.61C1403.3 371.291 1403.86 371.898 1403.86 372.646C1403.86 373.394 1403.3 374.001 1402.61 374.001Z" fill="#232323"></path> <path d="M1401.91 362.711C1401.42 362.257 1400.61 362.257 1400.12 362.71L1397.27 365.319V354.734C1397.27 354.092 1396.7 353.572 1396 353.572C1395.3 353.572 1394.73 354.092 1394.73 354.734V365.319L1391.88 362.71C1391.39 362.257 1390.58 362.257 1390.09 362.71C1389.59 363.164 1389.59 363.9 1390.09 364.354L1395.07 368.919C1395.11 368.952 1395.51 369.287 1396 369.287C1396.49 369.287 1396.85 368.989 1396.93 368.914L1401.91 364.354C1402.41 363.9 1402.41 363.164 1401.91 362.711Z" fill="#232323"></path> </g> <g clip-path="url(#clip3)"> <path d="M1402.61 469.001H1389.39C1388.7 469.001 1388.14 468.394 1388.14 467.646C1388.14 466.898 1388.7 466.291 1389.39 466.291H1402.61C1403.3 466.291 1403.86 466.898 1403.86 467.646C1403.86 468.394 1403.3 469.001 1402.61 469.001Z" fill="#232323"></path> <path d="M1401.91 457.711C1401.42 457.257 1400.61 457.257 1400.12 457.71L1397.27 460.319V449.734C1397.27 449.092 1396.7 448.572 1396 448.572C1395.3 448.572 1394.73 449.092 1394.73 449.734V460.319L1391.88 457.71C1391.39 457.257 1390.58 457.257 1390.09 457.71C1389.59 458.164 1389.59 458.9 1390.09 459.354L1395.07 463.919C1395.11 463.952 1395.51 464.287 1396 464.287C1396.49 464.287 1396.85 463.989 1396.93 463.914L1401.91 459.354C1402.41 458.9 1402.41 458.164 1401.91 457.711Z" fill="#232323"></path> </g> <defs> <filter id="filter0_d" x="0" y="0" width="1536" height="569" filterUnits="userSpaceOnUse" color-interpolation-filters="sRGB"> <feFlood flood-opacity="0" result="BackgroundImageFix"></feFlood> <feColorMatrix in="SourceAlpha" type="matrix" values="0 0 0 0 0 0 0 0 0 0 0 0 0 0 0 0 0 0 127 0"></feColorMatrix> <feOffset></feOffset> <feGaussianBlur stdDeviation="16"></feGaussianBlur> <feColorMatrix type="matrix" values="0 0 0 0 0.790833 0 0 0 0 0.813583 0 0 0 0 0.866667 0 0 0 0.25 0"></feColorMatrix> <feBlend mode="normal" in2="BackgroundImageFix" result="effect1_dropShadow"></feBlend> <feBlend mode="normal" in="SourceGraphic" in2="effect1_dropShadow" result="shape"></feBlend> </filter> <clipPath id="clip0"> <rect width="22" height="22" fill="white" transform="translate(1385 157)"></rect> </clipPath> <clipPath id="clip1"> <rect width="22" height="22" fill="white" transform="translate(1385 255)"></rect> </clipPath> <clipPath id="clip2"> <rect width="22" height="22" fill="white" transform="translate(1385 352)"></rect> </clipPath> <clipPath id="clip3"> <rect width="22" height="22" fill="white" transform="translate(1385 447)"></rect> </clipPath> </defs> </svg> 