<?xml version="1.0" encoding="UTF-8"?> <svg xmlns="http://www.w3.org/2000/svg" width="334" height="126" viewBox="0 0 334 126" fill="none"> <g filter="url(#filter0_d)"> <rect x="18" y="32" width="284" height="62" rx="20" fill="#7F6CFC"></rect> </g> <rect x="42" y="51" width="11" height="8" rx="2" stroke="white" stroke-width="1.8"></rect> <rect x="56" y="51" width="11" height="13" rx="2" stroke="white" stroke-width="1.8"></rect> <rect x="42" y="63" width="11" height="13" rx="2" stroke="white" stroke-width="1.8"></rect> <rect x="56" y="69" width="11" height="7" rx="2" stroke="white" stroke-width="1.8"></rect> <path d="M110.93 70.564C109.063 72.412 106.767 73.336 104.042 73.336C101.316 73.336 99.0111 72.412 97.1258 70.564C95.2591 68.716 94.3258 66.42 94.3258 63.676C94.3258 60.9133 95.2684 58.6173 97.1538 56.788C99.0391 54.94 101.335 54.016 104.042 54.016C106.748 54.016 109.044 54.94 110.93 56.788C112.815 58.6173 113.758 60.9133 113.758 63.676C113.758 66.42 112.815 68.716 110.93 70.564ZM109.418 58.216C107.943 56.7227 106.151 55.976 104.042 55.976C101.932 55.976 100.14 56.7227 98.6658 58.216C97.1911 59.7093 96.4538 61.5293 96.4538 63.676C96.4538 65.8227 97.1911 67.6427 98.6658 69.136C100.14 70.6293 101.932 71.376 104.042 71.376C106.151 71.376 107.943 70.6293 109.418 69.136C110.892 67.6427 111.63 65.8227 111.63 63.676C111.63 61.5293 110.892 59.7093 109.418 58.216ZM126.02 53.4H128.26C128.055 54.0907 127.7 54.6787 127.196 55.164C126.711 55.6307 126.263 55.948 125.852 56.116C125.46 56.284 124.994 56.4333 124.452 56.564C124.359 56.5827 124.135 56.6387 123.78 56.732C123.426 56.8067 123.155 56.872 122.968 56.928C122.782 56.984 122.539 57.0587 122.24 57.152C121.942 57.2453 121.671 57.3573 121.428 57.488C121.186 57.6187 120.962 57.7587 120.756 57.908C120.047 58.4493 119.468 59.2053 119.02 60.176C118.591 61.128 118.358 62.1453 118.32 63.228H118.376C119.216 61.8093 120.626 61.1 122.604 61.1C124.34 61.1 125.778 61.688 126.916 62.864C128.074 64.04 128.652 65.496 128.652 67.232C128.652 68.9867 128.064 70.4427 126.888 71.6C125.712 72.7573 124.182 73.336 122.296 73.336C120.672 73.336 119.338 72.8507 118.292 71.88C116.986 70.6853 116.332 68.688 116.332 65.888C116.332 61.016 117.434 57.824 119.636 56.312C119.804 56.2 119.982 56.0973 120.168 56.004C120.355 55.892 120.551 55.7987 120.756 55.724C120.98 55.6307 121.167 55.556 121.316 55.5C121.466 55.4253 121.671 55.36 121.932 55.304C122.212 55.2293 122.399 55.1827 122.492 55.164C122.604 55.1267 122.81 55.08 123.108 55.024C123.426 54.9493 123.622 54.9027 123.696 54.884C124.443 54.716 124.984 54.52 125.32 54.296C125.656 54.0533 125.89 53.7547 126.02 53.4ZM125.376 64.04C124.592 63.2747 123.631 62.892 122.492 62.892C121.354 62.892 120.383 63.284 119.58 64.068C118.796 64.8333 118.404 65.888 118.404 67.232C118.404 68.576 118.806 69.6307 119.608 70.396C120.411 71.1613 121.372 71.544 122.492 71.544C123.612 71.544 124.574 71.1613 125.376 70.396C126.179 69.6307 126.58 68.576 126.58 67.232C126.58 65.8693 126.179 64.8053 125.376 64.04ZM133.256 64.348L131.856 63.2C132.304 62.5467 132.799 62.0613 133.34 61.744C134.068 61.3147 134.917 61.1 135.888 61.1C137.064 61.1 137.979 61.3707 138.632 61.912C139.304 62.4907 139.64 63.228 139.64 64.124C139.64 65.2067 139.201 66.0187 138.324 66.56C138.884 66.6907 139.332 66.9427 139.668 67.316C140.209 67.8947 140.48 68.604 140.48 69.444C140.48 70.6947 139.976 71.6933 138.968 72.44C138.147 73.0373 137.045 73.336 135.664 73.336C134.432 73.336 133.396 73.0093 132.556 72.356C131.921 71.8893 131.408 71.2267 131.016 70.368L132.752 69.64C132.957 70.1627 133.303 70.6013 133.788 70.956C134.311 71.348 134.945 71.544 135.692 71.544C136.569 71.544 137.223 71.3947 137.652 71.096C138.193 70.7413 138.464 70.2 138.464 69.472C138.464 68.8747 138.231 68.4267 137.764 68.128C137.372 67.8667 136.737 67.736 135.86 67.736H134.684V65.888H135.664C136.373 65.888 136.877 65.7853 137.176 65.58C137.587 65.3187 137.792 64.964 137.792 64.516C137.792 63.9933 137.624 63.592 137.288 63.312C136.971 63.032 136.476 62.892 135.804 62.892C135.225 62.892 134.693 63.0413 134.208 63.34C133.797 63.6013 133.48 63.9373 133.256 64.348ZM153.384 71.6C152.227 72.7573 150.762 73.336 148.988 73.336C147.215 73.336 145.74 72.7573 144.564 71.6C143.407 70.4427 142.828 68.9867 142.828 67.232C142.828 65.4587 143.407 63.9933 144.564 62.836C145.74 61.6787 147.215 61.1 148.988 61.1C150.762 61.1 152.227 61.6787 153.384 62.836C154.56 63.9933 155.148 65.4587 155.148 67.232C155.148 68.9867 154.56 70.4427 153.384 71.6ZM151.872 64.04C151.088 63.2747 150.127 62.892 148.988 62.892C147.85 62.892 146.879 63.284 146.076 64.068C145.292 64.8333 144.9 65.888 144.9 67.232C144.9 68.576 145.302 69.6307 146.104 70.396C146.907 71.1613 147.868 71.544 148.988 71.544C150.108 71.544 151.07 71.1613 151.872 70.396C152.675 69.6307 153.076 68.576 153.076 67.232C153.076 65.8693 152.675 64.8053 151.872 64.04ZM160.256 71.376V79.44H158.24V61.38H160.256V63.004C161.283 61.7347 162.608 61.1 164.232 61.1C165.968 61.1 167.34 61.716 168.348 62.948C169.375 64.1613 169.888 65.5987 169.888 67.26C169.888 68.94 169.384 70.3773 168.376 71.572C167.368 72.748 166.015 73.336 164.316 73.336C162.617 73.336 161.264 72.6827 160.256 71.376ZM164.036 71.544C165.175 71.544 166.089 71.1333 166.78 70.312C167.471 69.472 167.816 68.4547 167.816 67.26C167.816 65.916 167.433 64.852 166.668 64.068C165.903 63.284 165.016 62.892 164.008 62.892C163 62.892 162.104 63.284 161.32 64.068C160.536 64.852 160.144 65.9067 160.144 67.232C160.144 68.4453 160.499 69.472 161.208 70.312C161.936 71.1333 162.879 71.544 164.036 71.544Z" fill="white"></path> <defs> <filter id="filter0_d" x="-14" y="0" width="348" height="126" filterUnits="userSpaceOnUse" color-interpolation-filters="sRGB"> <feFlood flood-opacity="0" result="BackgroundImageFix"></feFlood> <feColorMatrix in="SourceAlpha" type="matrix" values="0 0 0 0 0 0 0 0 0 0 0 0 0 0 0 0 0 0 127 0"></feColorMatrix> <feOffset></feOffset> <feGaussianBlur stdDeviation="16"></feGaussianBlur> <feColorMatrix type="matrix" values="0 0 0 0 0.790833 0 0 0 0 0.813583 0 0 0 0 0.866667 0 0 0 0.25 0"></feColorMatrix> <feBlend mode="normal" in2="BackgroundImageFix" result="effect1_dropShadow"></feBlend> <feBlend mode="normal" in="SourceGraphic" in2="effect1_dropShadow" result="shape"></feBlend> </filter> </defs> </svg> 