<?xml version="1.0" encoding="UTF-8"?> <svg xmlns="http://www.w3.org/2000/svg" width="334" height="126" viewBox="0 0 334 126" fill="none"> <g filter="url(#filter0_d)"> <rect x="18" y="32" width="284" height="62" rx="20" fill="#7F6CFC"></rect> </g> <path fill-rule="evenodd" clip-rule="evenodd" d="M56.3636 58.4444C55.7109 58.4444 55.1818 58.9419 55.1818 59.5556V68.4444C55.1818 69.0581 55.7109 69.5556 56.3636 69.5556H61.0909C61.7436 69.5556 62.2727 69.0581 62.2727 68.4444V59.5556C62.2727 58.9419 61.7436 58.4444 61.0909 58.4444H56.3636ZM59.9091 60.6667H57.5455V67.3333H59.9091V60.6667Z" fill="white"></path> <path d="M46.9091 58.4444C46.2564 58.4444 45.7273 58.9419 45.7273 59.5556C45.7273 60.1692 46.2564 60.6667 46.9091 60.6667H51.6364C52.2891 60.6667 52.8182 60.1692 52.8182 59.5556C52.8182 58.9419 52.2891 58.4444 51.6364 58.4444H46.9091Z" fill="white"></path> <path d="M46.9091 62.8889C46.2564 62.8889 45.7273 63.3864 45.7273 64C45.7273 64.6136 46.2564 65.1111 46.9091 65.1111H51.6364C52.2891 65.1111 52.8182 64.6136 52.8182 64C52.8182 63.3864 52.2891 62.8889 51.6364 62.8889H46.9091Z" fill="white"></path> <path d="M45.7273 68.4444C45.7273 67.8308 46.2564 67.3333 46.9091 67.3333H51.6364C52.2891 67.3333 52.8182 67.8308 52.8182 68.4444C52.8182 69.0581 52.2891 69.5556 51.6364 69.5556H46.9091C46.2564 69.5556 45.7273 69.0581 45.7273 68.4444Z" fill="white"></path> <path fill-rule="evenodd" clip-rule="evenodd" d="M44.5455 54C42.5874 54 41 55.4924 41 57.3333V70.6667C41 72.5076 42.5874 74 44.5455 74H63.4545C65.4126 74 67 72.5076 67 70.6667V57.3333C67 55.4924 65.4126 54 63.4545 54H44.5455ZM63.4545 56.2222H44.5455C43.8928 56.2222 43.3636 56.7197 43.3636 57.3333V70.6667C43.3636 71.2803 43.8928 71.7778 44.5455 71.7778H63.4545C64.1072 71.7778 64.6364 71.2803 64.6364 70.6667V57.3333C64.6364 56.7197 64.1072 56.2222 63.4545 56.2222Z" fill="white"></path> <path d="M95.892 72H93.764L96.872 52.288L104.04 68.052L111.348 52.26L114.26 72H112.132L110.368 59.008L104.012 72.784L97.74 59.008L95.892 72ZM126.7 68.108L128.38 69.032C127.988 69.7787 127.512 70.404 126.952 70.908C125.888 71.86 124.6 72.336 123.088 72.336C121.52 72.336 120.167 71.832 119.028 70.824C117.908 69.7973 117.348 68.276 117.348 66.26C117.348 64.4867 117.852 63.0213 118.86 61.864C119.887 60.688 121.259 60.1 122.976 60.1C124.917 60.1 126.383 60.8093 127.372 62.228C128.156 63.348 128.52 64.804 128.464 66.596H119.42C119.439 67.772 119.803 68.724 120.512 69.452C121.221 70.18 122.089 70.544 123.116 70.544C124.031 70.544 124.824 70.264 125.496 69.704C126.019 69.256 126.42 68.724 126.7 68.108ZM119.56 64.916H126.392C126.224 64.0013 125.823 63.2733 125.188 62.732C124.572 62.172 123.835 61.892 122.976 61.892C122.136 61.892 121.389 62.1813 120.736 62.76C120.101 63.32 119.709 64.0387 119.56 64.916ZM132.396 60.38H140.572V70.152H142.308V75.08H140.46V72H131.612V75.08H129.764V70.152C130.735 70.1333 131.454 69.6293 131.92 68.64C132.238 67.9867 132.396 66.96 132.396 65.56V60.38ZM138.556 70.152V62.228H134.412V66.596C134.412 68.1453 133.946 69.3307 133.012 70.152H138.556ZM144.435 60.38H146.451V65.14L151.155 60.38H153.619L148.579 65.56L154.235 72H151.603L147.067 66.904L146.451 67.492V72H144.435V60.38ZM165.152 62.032V60.38H167.168V72H165.152V70.376C164.144 71.6827 162.818 72.336 161.176 72.336C159.608 72.336 158.273 71.7947 157.172 70.712C156.07 69.6293 155.52 68.1173 155.52 66.176C155.52 64.272 156.061 62.788 157.144 61.724C158.245 60.6413 159.589 60.1 161.176 60.1C162.856 60.1 164.181 60.744 165.152 62.032ZM161.4 61.892C160.336 61.892 159.43 62.2747 158.684 63.04C157.956 63.7867 157.592 64.832 157.592 66.176C157.592 67.464 157.928 68.5187 158.6 69.34C159.29 70.1427 160.224 70.544 161.4 70.544C162.576 70.544 163.509 70.124 164.2 69.284C164.909 68.444 165.264 67.4173 165.264 66.204C165.264 64.8227 164.872 63.7587 164.088 63.012C163.304 62.2653 162.408 61.892 161.4 61.892ZM173.002 70.376V78.44H170.986V60.38H173.002V62.004C174.029 60.7347 175.354 60.1 176.978 60.1C178.714 60.1 180.086 60.716 181.094 61.948C182.121 63.1613 182.634 64.5987 182.634 66.26C182.634 67.94 182.13 69.3773 181.122 70.572C180.114 71.748 178.761 72.336 177.062 72.336C175.363 72.336 174.01 71.6827 173.002 70.376ZM176.782 70.544C177.921 70.544 178.835 70.1333 179.526 69.312C180.217 68.472 180.562 67.4547 180.562 66.26C180.562 64.916 180.179 63.852 179.414 63.068C178.649 62.284 177.762 61.892 176.754 61.892C175.746 61.892 174.85 62.284 174.066 63.068C173.282 63.852 172.89 64.9067 172.89 66.232C172.89 67.4453 173.245 68.472 173.954 69.312C174.682 70.1333 175.625 70.544 176.782 70.544ZM193.067 62.228H189.427V72H187.411V62.228H183.771V60.38H193.067V62.228ZM203.734 62.032V60.38H205.75V72H203.734V70.376C202.726 71.6827 201.4 72.336 199.758 72.336C198.19 72.336 196.855 71.7947 195.754 70.712C194.652 69.6293 194.102 68.1173 194.102 66.176C194.102 64.272 194.643 62.788 195.726 61.724C196.827 60.6413 198.171 60.1 199.758 60.1C201.438 60.1 202.763 60.744 203.734 62.032ZM199.982 61.892C198.918 61.892 198.012 62.2747 197.266 63.04C196.538 63.7867 196.174 64.832 196.174 66.176C196.174 67.464 196.51 68.5187 197.182 69.34C197.872 70.1427 198.806 70.544 199.982 70.544C201.158 70.544 202.091 70.124 202.782 69.284C203.491 68.444 203.846 67.4173 203.846 66.204C203.846 64.8227 203.454 63.7587 202.67 63.012C201.886 62.2653 200.99 61.892 199.982 61.892Z" fill="white"></path> <defs> <filter id="filter0_d" x="-14" y="0" width="348" height="126" filterUnits="userSpaceOnUse" color-interpolation-filters="sRGB"> <feFlood flood-opacity="0" result="BackgroundImageFix"></feFlood> <feColorMatrix in="SourceAlpha" type="matrix" values="0 0 0 0 0 0 0 0 0 0 0 0 0 0 0 0 0 0 127 0"></feColorMatrix> <feOffset></feOffset> <feGaussianBlur stdDeviation="16"></feGaussianBlur> <feColorMatrix type="matrix" values="0 0 0 0 0.790833 0 0 0 0 0.813583 0 0 0 0 0.866667 0 0 0 0.25 0"></feColorMatrix> <feBlend mode="normal" in2="BackgroundImageFix" result="effect1_dropShadow"></feBlend> <feBlend mode="normal" in="SourceGraphic" in2="effect1_dropShadow" result="shape"></feBlend> </filter> </defs> </svg> 