<?xml version="1.0" encoding="UTF-8"?> <svg xmlns="http://www.w3.org/2000/svg" width="672" height="1040" viewBox="0 0 672 1040" fill="none"> <g filter="url(#filter0_d)"> <rect x="32" y="32" width="608" height="976" rx="30" fill="white"></rect> </g> <path d="M77.68 66.993H87.97V81H85.828V69.009H79.822V81H77.68V66.993ZM91.8422 73.251C92.7522 72.369 93.8792 71.928 95.2232 71.928C96.5672 71.928 97.6872 72.369 98.5832 73.251C99.4932 74.119 99.9482 75.232 99.9482 76.59C99.9482 77.934 99.4932 79.054 98.5832 79.95C97.6872 80.832 96.5672 81.273 95.2232 81.273C93.8792 81.273 92.7522 80.832 91.8422 79.95C90.9462 79.054 90.4982 77.934 90.4982 76.59C90.4982 75.232 90.9462 74.119 91.8422 73.251ZM93.3122 78.669C93.7882 79.173 94.4252 79.425 95.2232 79.425C96.0212 79.425 96.6582 79.173 97.1342 78.669C97.6102 78.151 97.8482 77.465 97.8482 76.611C97.8482 75.673 97.5892 74.966 97.0712 74.49C96.5672 74.014 95.9512 73.776 95.2232 73.776C94.4952 73.776 93.8722 74.014 93.3542 74.49C92.8502 74.966 92.5982 75.673 92.5982 76.611C92.5982 77.465 92.8362 78.151 93.3122 78.669ZM109.362 72.159V81H107.304V74.049H104.7V77.556C104.7 78.648 104.42 79.495 103.86 80.097C103.146 80.895 102.18 81.196 100.962 81V79.11C101.564 79.25 102.047 79.117 102.411 78.711C102.621 78.459 102.726 78.074 102.726 77.556V72.159H109.362ZM111.96 72.159H114.018V77.178L120.066 71.361V81H118.008V75.855L111.96 81.672V72.159ZM122.665 72.159H124.723V75.309L127.663 72.159H130.393L126.529 76.023L130.603 81H127.999L125.059 77.367L124.723 77.703V81H122.665V72.159ZM139.426 72.159V81H137.368V74.049H134.764V77.556C134.764 78.648 134.484 79.495 133.924 80.097C133.21 80.895 132.244 81.196 131.026 81V79.11C131.628 79.25 132.111 79.117 132.475 78.711C132.685 78.459 132.79 78.074 132.79 77.556V72.159H139.426ZM142.025 72.159H144.083V77.178L150.131 71.361V81H148.073V75.855L142.025 81.672V72.159ZM152.73 81V72.159H154.788V75.435H158.442V72.159H160.5V81H158.442V77.325H154.788V81H152.73ZM163.107 72.159H165.165V77.178L171.213 71.361V81H169.155V75.855L163.107 81.672V72.159ZM173.812 72.159H175.87V75.309L178.81 72.159H181.54L177.676 76.023L181.75 81H179.146L176.206 77.367L175.87 77.703V81H173.812V72.159ZM189.57 73.188V72.159H191.628V81H189.57V80.076C188.884 80.874 188.002 81.273 186.924 81.273C185.622 81.273 184.579 80.811 183.795 79.887C183.025 78.963 182.64 77.857 182.64 76.569C182.64 75.169 183.053 74.049 183.879 73.209C184.719 72.355 185.741 71.928 186.945 71.928C188.051 71.928 188.926 72.348 189.57 73.188ZM187.197 73.776C186.469 73.776 185.874 74.049 185.412 74.595C184.964 75.141 184.74 75.813 184.74 76.611C184.74 77.395 184.964 78.06 185.412 78.606C185.874 79.152 186.469 79.425 187.197 79.425C187.897 79.425 188.485 79.18 188.961 78.69C189.451 78.2 189.696 77.514 189.696 76.632C189.696 75.722 189.451 75.022 188.961 74.532C188.485 74.028 187.897 73.776 187.197 73.776Z" fill="black"></path> <path d="M232.024 66.993H240.55V79.53H242.146V83.94H240.676V81H230.764V83.94H229.294V79.53C229.77 79.544 230.204 79.376 230.596 79.026C230.988 78.662 231.296 78.2 231.52 77.64C231.856 76.786 232.024 75.561 232.024 73.965V66.993ZM233.578 68.463V73.965C233.578 75.687 233.41 76.989 233.074 77.871C232.836 78.501 232.479 79.054 232.003 79.53H238.996V68.463H233.578ZM245.373 79.782V85.83H243.861V72.285H245.373V73.503C246.143 72.551 247.137 72.075 248.355 72.075C249.657 72.075 250.686 72.537 251.442 73.461C252.212 74.371 252.597 75.449 252.597 76.695C252.597 77.955 252.219 79.033 251.463 79.929C250.707 80.811 249.692 81.252 248.418 81.252C247.144 81.252 246.129 80.762 245.373 79.782ZM248.208 79.908C249.062 79.908 249.748 79.6 250.266 78.984C250.784 78.354 251.043 77.591 251.043 76.695C251.043 75.687 250.756 74.889 250.182 74.301C249.608 73.713 248.943 73.419 248.187 73.419C247.431 73.419 246.759 73.713 246.171 74.301C245.583 74.889 245.289 75.68 245.289 76.674C245.289 77.584 245.555 78.354 246.087 78.984C246.633 79.6 247.34 79.908 248.208 79.908ZM254.893 85.83L257.665 80.181L253.654 72.285H255.376L258.463 78.522L261.298 72.285H262.978L256.573 85.83H254.893ZM264.574 81V72.285H269.74V73.671H266.086V81H264.574ZM271.259 72.285H272.771V78.039L278.735 71.613V81H277.223V75.183L271.259 81.609V72.285ZM288.063 78.081L289.323 78.774C289.029 79.334 288.672 79.803 288.252 80.181C287.454 80.895 286.488 81.252 285.354 81.252C284.178 81.252 283.163 80.874 282.309 80.118C281.469 79.348 281.049 78.207 281.049 76.695C281.049 75.365 281.427 74.266 282.183 73.398C282.953 72.516 283.982 72.075 285.27 72.075C286.726 72.075 287.825 72.607 288.567 73.671C289.155 74.511 289.428 75.603 289.386 76.947H282.603C282.617 77.829 282.89 78.543 283.422 79.089C283.954 79.635 284.605 79.908 285.375 79.908C286.061 79.908 286.656 79.698 287.16 79.278C287.552 78.942 287.853 78.543 288.063 78.081ZM282.708 75.687H287.832C287.706 75.001 287.405 74.455 286.929 74.049C286.467 73.629 285.914 73.419 285.27 73.419C284.64 73.419 284.08 73.636 283.59 74.07C283.114 74.49 282.82 75.029 282.708 75.687ZM296.586 85.83L299.358 80.181L295.347 72.285H297.069L300.156 78.522L302.991 72.285H304.671L298.266 85.83H296.586ZM310.723 81V77.577C309.897 77.703 309.211 77.766 308.665 77.766C307.713 77.766 307.006 77.556 306.544 77.136C306.054 76.702 305.809 75.988 305.809 74.994V72.285H307.321V74.784C307.321 75.26 307.384 75.603 307.51 75.813C307.706 76.191 308.147 76.38 308.833 76.38C309.449 76.38 310.079 76.317 310.723 76.191V72.285H312.235V81H310.723ZM316.596 79.782V85.83H315.084V72.285H316.596V73.503C317.366 72.551 318.36 72.075 319.578 72.075C320.88 72.075 321.909 72.537 322.665 73.461C323.435 74.371 323.82 75.449 323.82 76.695C323.82 77.955 323.442 79.033 322.686 79.929C321.93 80.811 320.915 81.252 319.641 81.252C318.367 81.252 317.352 80.762 316.596 79.782ZM319.431 79.908C320.285 79.908 320.971 79.6 321.489 78.984C322.007 78.354 322.266 77.591 322.266 76.695C322.266 75.687 321.979 74.889 321.405 74.301C320.831 73.713 320.166 73.419 319.41 73.419C318.654 73.419 317.982 73.713 317.394 74.301C316.806 74.889 316.512 75.68 316.512 76.674C316.512 77.584 316.778 78.354 317.31 78.984C317.856 79.6 318.563 79.908 319.431 79.908ZM332.606 78.081L333.866 78.774C333.572 79.334 333.215 79.803 332.795 80.181C331.997 80.895 331.031 81.252 329.897 81.252C328.721 81.252 327.706 80.874 326.852 80.118C326.012 79.348 325.592 78.207 325.592 76.695C325.592 75.365 325.97 74.266 326.726 73.398C327.496 72.516 328.525 72.075 329.813 72.075C331.269 72.075 332.368 72.607 333.11 73.671C333.698 74.511 333.971 75.603 333.929 76.947H327.146C327.16 77.829 327.433 78.543 327.965 79.089C328.497 79.635 329.148 79.908 329.918 79.908C330.604 79.908 331.199 79.698 331.703 79.278C332.095 78.942 332.396 78.543 332.606 78.081ZM327.251 75.687H332.375C332.249 75.001 331.948 74.455 331.472 74.049C331.01 73.629 330.457 73.419 329.813 73.419C329.183 73.419 328.623 73.636 328.133 74.07C327.657 74.49 327.363 75.029 327.251 75.687ZM340.117 72.285H341.629V75.855L344.905 72.285H346.669L342.889 76.317L347.047 81H345.157L341.923 77.325L341.629 77.619V81H340.117V77.619L339.823 77.325L336.589 81H334.699L338.857 76.317L335.077 72.285H336.841L340.117 75.855V72.285ZM349.183 72.285H355.315V79.614H356.617V83.31H355.231V81H348.595V83.31H347.209V79.614C347.937 79.6 348.476 79.222 348.826 78.48C349.064 77.99 349.183 77.22 349.183 76.17V72.285ZM353.803 79.614V73.671H350.695V76.947C350.695 78.109 350.345 78.998 349.645 79.614H353.803ZM364.68 78.081L365.94 78.774C365.646 79.334 365.289 79.803 364.869 80.181C364.071 80.895 363.105 81.252 361.971 81.252C360.795 81.252 359.78 80.874 358.926 80.118C358.086 79.348 357.666 78.207 357.666 76.695C357.666 75.365 358.044 74.266 358.8 73.398C359.57 72.516 360.599 72.075 361.887 72.075C363.343 72.075 364.442 72.607 365.184 73.671C365.772 74.511 366.045 75.603 366.003 76.947H359.22C359.234 77.829 359.507 78.543 360.039 79.089C360.571 79.635 361.222 79.908 361.992 79.908C362.678 79.908 363.273 79.698 363.777 79.278C364.169 78.942 364.47 78.543 364.68 78.081ZM359.325 75.687H364.449C364.323 75.001 364.022 74.455 363.546 74.049C363.084 73.629 362.531 73.419 361.887 73.419C361.257 73.419 360.697 73.636 360.207 74.07C359.731 74.49 359.437 75.029 359.325 75.687ZM368.323 81V72.285H369.835V75.855H373.951V72.285H375.463V81H373.951V77.241H369.835V81H368.323ZM378.31 72.285H379.822V78.039L385.786 71.613V81H384.274V75.183L378.31 81.609V72.285ZM387.638 81L390.347 77.409C390.263 77.409 390.144 77.395 389.99 77.367C389.85 77.339 389.64 77.269 389.36 77.157C389.08 77.045 388.849 76.898 388.667 76.716C388.205 76.282 387.974 75.701 387.974 74.973C387.974 74.147 388.233 73.496 388.751 73.02C389.269 72.53 390.123 72.285 391.313 72.285H394.358V81H392.846V77.493H391.922L389.444 81H387.638ZM392.846 76.233V73.629H391.439C390.781 73.629 390.326 73.706 390.074 73.86C389.71 74.098 389.528 74.455 389.528 74.931C389.528 75.407 389.71 75.757 390.074 75.981C390.34 76.149 390.788 76.233 391.418 76.233H392.846Z" fill="#CAD6F3"></path> <path d="M430.503 79.173C429.103 80.559 427.381 81.252 425.337 81.252C423.293 81.252 421.564 80.559 420.15 79.173C418.75 77.787 418.05 76.065 418.05 74.007C418.05 71.935 418.757 70.213 420.171 68.841C421.585 67.455 423.307 66.762 425.337 66.762C427.367 66.762 429.089 67.455 430.503 68.841C431.917 70.213 432.624 71.935 432.624 74.007C432.624 76.065 431.917 77.787 430.503 79.173ZM429.369 69.912C428.263 68.792 426.919 68.232 425.337 68.232C423.755 68.232 422.411 68.792 421.305 69.912C420.199 71.032 419.646 72.397 419.646 74.007C419.646 75.617 420.199 76.982 421.305 78.102C422.411 79.222 423.755 79.782 425.337 79.782C426.919 79.782 428.263 79.222 429.369 78.102C430.475 76.982 431.028 75.617 431.028 74.007C431.028 72.397 430.475 71.032 429.369 69.912ZM435.101 81V72.285H436.613V75.855H440.729V72.285H442.241V81H440.729V77.241H436.613V81H435.101ZM451.682 72.285V81H450.17V73.671H447.062V77.598C447.062 78.732 446.838 79.572 446.39 80.118C445.886 80.734 445.186 81.042 444.29 81.042C444.178 81.042 444.024 81.028 443.828 81V79.614C443.968 79.642 444.08 79.656 444.164 79.656C444.654 79.656 445.018 79.467 445.256 79.089C445.452 78.781 445.55 78.284 445.55 77.598V72.285H451.682ZM461.22 73.524V72.285H462.732V81H461.22V79.782C460.464 80.762 459.47 81.252 458.238 81.252C457.062 81.252 456.061 80.846 455.235 80.034C454.409 79.222 453.996 78.088 453.996 76.632C453.996 75.204 454.402 74.091 455.214 73.293C456.04 72.481 457.048 72.075 458.238 72.075C459.498 72.075 460.492 72.558 461.22 73.524ZM458.406 73.419C457.608 73.419 456.929 73.706 456.369 74.28C455.823 74.84 455.55 75.624 455.55 76.632C455.55 77.598 455.802 78.389 456.306 79.005C456.824 79.607 457.524 79.908 458.406 79.908C459.288 79.908 459.988 79.593 460.506 78.963C461.038 78.333 461.304 77.563 461.304 76.653C461.304 75.617 461.01 74.819 460.422 74.259C459.834 73.699 459.162 73.419 458.406 73.419ZM465.596 72.285H467.108V78.039L473.072 71.613V81H471.56V75.183L465.596 81.609V72.285ZM466.352 68.526L467.612 68.043C467.864 68.883 468.459 69.303 469.397 69.303C470.335 69.303 470.93 68.883 471.182 68.043L472.442 68.526C472.218 69.156 471.833 69.653 471.287 70.017C470.755 70.381 470.125 70.563 469.397 70.563C468.669 70.563 468.032 70.381 467.486 70.017C466.954 69.653 466.576 69.156 466.352 68.526ZM475.932 81V72.285H477.444V75.855H481.56V72.285H483.072V81H481.56V77.241H477.444V81H475.932ZM490.821 72.285H492.333V75.855L495.861 72.285H497.709L493.929 76.17L498.171 81H496.197L492.795 77.178L492.333 77.619V81H490.821V72.285ZM506.641 79.95C505.773 80.818 504.674 81.252 503.344 81.252C502.014 81.252 500.908 80.818 500.026 79.95C499.158 79.082 498.724 77.99 498.724 76.674C498.724 75.344 499.158 74.245 500.026 73.377C500.908 72.509 502.014 72.075 503.344 72.075C504.674 72.075 505.773 72.509 506.641 73.377C507.523 74.245 507.964 75.344 507.964 76.674C507.964 77.99 507.523 79.082 506.641 79.95ZM505.507 74.28C504.919 73.706 504.198 73.419 503.344 73.419C502.49 73.419 501.762 73.713 501.16 74.301C500.572 74.875 500.278 75.666 500.278 76.674C500.278 77.682 500.579 78.473 501.181 79.047C501.783 79.621 502.504 79.908 503.344 79.908C504.184 79.908 504.905 79.621 505.507 79.047C506.109 78.473 506.41 77.682 506.41 76.674C506.41 75.652 506.109 74.854 505.507 74.28ZM510.282 81V72.285H511.794V75.855H515.91V72.285H517.422V81H515.91V77.241H511.794V81H510.282ZM527.095 72.915V74.721C526.409 73.853 525.499 73.419 524.365 73.419C523.511 73.419 522.783 73.713 522.181 74.301C521.579 74.875 521.278 75.666 521.278 76.674C521.278 77.682 521.579 78.473 522.181 79.047C522.783 79.621 523.504 79.908 524.344 79.908C525.464 79.908 526.402 79.453 527.158 78.543V80.349C526.332 80.951 525.408 81.252 524.386 81.252C523.028 81.252 521.908 80.825 521.026 79.971C520.158 79.103 519.724 78.011 519.724 76.695C519.724 75.365 520.165 74.266 521.047 73.398C521.929 72.516 523.042 72.075 524.386 72.075C525.394 72.075 526.297 72.355 527.095 72.915ZM529.457 85.83L532.229 80.181L528.218 72.285H529.94L533.027 78.522L535.862 72.285H537.542L531.137 85.83H529.457ZM545.526 72.285V81H544.014V73.671H540.906V77.598C540.906 78.732 540.682 79.572 540.234 80.118C539.73 80.734 539.03 81.042 538.134 81.042C538.022 81.042 537.868 81.028 537.672 81V79.614C537.812 79.642 537.924 79.656 538.008 79.656C538.498 79.656 538.862 79.467 539.1 79.089C539.296 78.781 539.394 78.284 539.394 77.598V72.285H545.526ZM548.386 81V72.285H549.898V75.624H551.452C552.656 75.624 553.538 75.911 554.098 76.485C554.546 76.933 554.77 77.542 554.77 78.312C554.77 79.124 554.511 79.775 553.993 80.265C553.475 80.755 552.621 81 551.431 81H548.386ZM549.898 79.656H551.305C551.935 79.656 552.383 79.579 552.649 79.425C553.027 79.173 553.216 78.802 553.216 78.312C553.216 77.808 553.034 77.444 552.67 77.22C552.418 77.052 551.97 76.968 551.326 76.968H549.898V79.656ZM562.055 73.671H559.325V81H557.813V73.671H555.083V72.285H562.055V73.671ZM570.055 73.524V72.285H571.567V81H570.055V79.782C569.299 80.762 568.305 81.252 567.073 81.252C565.897 81.252 564.896 80.846 564.07 80.034C563.244 79.222 562.831 78.088 562.831 76.632C562.831 75.204 563.237 74.091 564.049 73.293C564.875 72.481 565.883 72.075 567.073 72.075C568.333 72.075 569.327 72.558 570.055 73.524ZM567.241 73.419C566.443 73.419 565.764 73.706 565.204 74.28C564.658 74.84 564.385 75.624 564.385 76.632C564.385 77.598 564.637 78.389 565.141 79.005C565.659 79.607 566.359 79.908 567.241 79.908C568.123 79.908 568.823 79.593 569.341 78.963C569.873 78.333 570.139 77.563 570.139 76.653C570.139 75.617 569.845 74.819 569.257 74.259C568.669 73.699 567.997 73.419 567.241 73.419ZM574.431 81V72.285H575.943V79.614H579.849V72.285H581.361V79.614H582.789V83.31H581.403V81H574.431ZM584.377 72.285H585.889V78.039L591.853 71.613V81H590.341V75.183L584.377 81.609V72.285ZM593.705 81L596.414 77.409C596.33 77.409 596.211 77.395 596.057 77.367C595.917 77.339 595.707 77.269 595.427 77.157C595.147 77.045 594.916 76.898 594.734 76.716C594.272 76.282 594.041 75.701 594.041 74.973C594.041 74.147 594.3 73.496 594.818 73.02C595.336 72.53 596.19 72.285 597.38 72.285H600.425V81H598.913V77.493H597.989L595.511 81H593.705ZM598.913 76.233V73.629H597.506C596.848 73.629 596.393 73.706 596.141 73.86C595.777 74.098 595.595 74.455 595.595 74.931C595.595 75.407 595.777 75.757 596.141 75.981C596.407 76.149 596.855 76.233 597.485 76.233H598.913Z" fill="#CAD6F3"></path> <line x1="66" y1="108.5" x2="606" y2="108.5" stroke="#CAD6F3"></line> <rect x="66" y="103" width="140" height="6" fill="#7F6CFC"></rect> <rect x="66.5" y="137.5" width="539" height="61" rx="19.5" fill="white" stroke="#CAD6F3"></rect> <rect x="66.5" y="237.5" width="539" height="61" rx="19.5" fill="white" stroke="#CAD6F3"></rect> <path d="M110.004 175.564C108.137 177.412 105.841 178.336 103.116 178.336C100.391 178.336 98.0853 177.412 96.2 175.564C94.3333 173.716 93.4 171.42 93.4 168.676C93.4 165.913 94.3427 163.617 96.228 161.788C98.1133 159.94 100.409 159.016 103.116 159.016C105.823 159.016 108.119 159.94 110.004 161.788C111.889 163.617 112.832 165.913 112.832 168.676C112.832 171.42 111.889 173.716 110.004 175.564ZM108.492 163.216C107.017 161.723 105.225 160.976 103.116 160.976C101.007 160.976 99.2147 161.723 97.74 163.216C96.2653 164.709 95.528 166.529 95.528 168.676C95.528 170.823 96.2653 172.643 97.74 174.136C99.2147 175.629 101.007 176.376 103.116 176.376C105.225 176.376 107.017 175.629 108.492 174.136C109.967 172.643 110.704 170.823 110.704 168.676C110.704 166.529 109.967 164.709 108.492 163.216ZM123.75 168.228H120.11V178H118.094V168.228H114.454V166.38H123.75V168.228ZM126.435 166.38H134.611V176.152H136.347V181.08H134.499V178H125.651V181.08H123.803V176.152C124.774 176.133 125.493 175.629 125.959 174.64C126.277 173.987 126.435 172.96 126.435 171.56V166.38ZM132.595 176.152V168.228H128.451V172.596C128.451 174.145 127.985 175.331 127.051 176.152H132.595ZM147.098 174.108L148.778 175.032C148.386 175.779 147.91 176.404 147.35 176.908C146.286 177.86 144.998 178.336 143.486 178.336C141.918 178.336 140.565 177.832 139.426 176.824C138.306 175.797 137.746 174.276 137.746 172.26C137.746 170.487 138.25 169.021 139.258 167.864C140.285 166.688 141.657 166.1 143.374 166.1C145.316 166.1 146.781 166.809 147.77 168.228C148.554 169.348 148.918 170.804 148.862 172.596H139.818C139.837 173.772 140.201 174.724 140.91 175.452C141.62 176.18 142.488 176.544 143.514 176.544C144.429 176.544 145.222 176.264 145.894 175.704C146.417 175.256 146.818 174.724 147.098 174.108ZM139.958 170.916H146.79C146.622 170.001 146.221 169.273 145.586 168.732C144.97 168.172 144.233 167.892 143.374 167.892C142.534 167.892 141.788 168.181 141.134 168.76C140.5 169.32 140.108 170.039 139.958 170.916ZM160.747 166.38V178H158.731V168.228H154.587V173.464C154.587 174.976 154.288 176.096 153.691 176.824C153.019 177.645 152.085 178.056 150.891 178.056C150.741 178.056 150.536 178.037 150.275 178V176.152C150.461 176.189 150.611 176.208 150.723 176.208C151.376 176.208 151.861 175.956 152.179 175.452C152.44 175.041 152.571 174.379 152.571 173.464V166.38H160.747ZM173.184 174.108L174.864 175.032C174.472 175.779 173.996 176.404 173.436 176.908C172.372 177.86 171.084 178.336 169.572 178.336C168.004 178.336 166.651 177.832 165.512 176.824C164.392 175.797 163.832 174.276 163.832 172.26C163.832 170.487 164.336 169.021 165.344 167.864C166.371 166.688 167.743 166.1 169.46 166.1C171.402 166.1 172.867 166.809 173.856 168.228C174.64 169.348 175.004 170.804 174.948 172.596H165.904C165.923 173.772 166.287 174.724 166.996 175.452C167.706 176.18 168.574 176.544 169.6 176.544C170.515 176.544 171.308 176.264 171.98 175.704C172.503 175.256 172.904 174.724 173.184 174.108ZM166.044 170.916H172.876C172.708 170.001 172.307 169.273 171.672 168.732C171.056 168.172 170.319 167.892 169.46 167.892C168.62 167.892 167.874 168.181 167.22 168.76C166.586 169.32 166.194 170.039 166.044 170.916ZM178.041 178V166.38H180.057V171.14H185.545V166.38H187.561V178H185.545V172.988H180.057V178H178.041ZM191.357 166.38H193.373V174.052L201.325 165.484V178H199.309V170.244L191.357 178.812V166.38ZM213.762 174.108L215.442 175.032C215.05 175.779 214.574 176.404 214.014 176.908C212.95 177.86 211.662 178.336 210.15 178.336C208.582 178.336 207.229 177.832 206.09 176.824C204.97 175.797 204.41 174.276 204.41 172.26C204.41 170.487 204.914 169.021 205.922 167.864C206.949 166.688 208.321 166.1 210.038 166.1C211.98 166.1 213.445 166.809 214.434 168.228C215.218 169.348 215.582 170.804 215.526 172.596H206.482C206.501 173.772 206.865 174.724 207.574 175.452C208.284 176.18 209.152 176.544 210.178 176.544C211.093 176.544 211.886 176.264 212.558 175.704C213.081 175.256 213.482 174.724 213.762 174.108ZM206.622 170.916H213.454C213.286 170.001 212.885 169.273 212.25 168.732C211.634 168.172 210.897 167.892 210.038 167.892C209.198 167.892 208.452 168.181 207.798 168.76C207.164 169.32 206.772 170.039 206.622 170.916Z" fill="#CAD6F3"></path> <path d="M102.472 278V275.368H101.968C100.643 275.368 99.4573 275.209 98.412 274.892C97.3853 274.575 96.564 274.173 95.948 273.688C95.332 273.203 94.8187 272.624 94.408 271.952C94.016 271.28 93.7453 270.636 93.596 270.02C93.4653 269.385 93.4 268.741 93.4 268.088C93.4 267.435 93.4653 266.8 93.596 266.184C93.7453 265.549 94.016 264.896 94.408 264.224C94.8187 263.552 95.332 262.973 95.948 262.488C96.564 262.003 97.3853 261.601 98.412 261.284C99.4573 260.967 100.643 260.808 101.968 260.808H102.472V258.568H104.544V260.808H105.048C106.373 260.808 107.549 260.967 108.576 261.284C109.621 261.601 110.452 262.003 111.068 262.488C111.684 262.973 112.188 263.552 112.58 264.224C112.991 264.896 113.261 265.549 113.392 266.184C113.541 266.8 113.616 267.435 113.616 268.088C113.616 268.741 113.541 269.385 113.392 270.02C113.261 270.636 112.991 271.28 112.58 271.952C112.188 272.624 111.684 273.203 111.068 273.688C110.452 274.173 109.621 274.575 108.576 274.892C107.549 275.209 106.373 275.368 105.048 275.368H104.544V278H102.472ZM102.472 273.408V262.768H101.912C100.699 262.768 99.6533 262.927 98.776 263.244C97.8987 263.561 97.236 264 96.788 264.56C96.34 265.101 96.0133 265.661 95.808 266.24C95.6213 266.819 95.528 267.435 95.528 268.088C95.528 268.741 95.6213 269.357 95.808 269.936C96.0133 270.515 96.34 271.084 96.788 271.644C97.236 272.185 97.8987 272.615 98.776 272.932C99.6533 273.249 100.699 273.408 101.912 273.408H102.472ZM104.544 262.768V273.408H105.104C106.317 273.408 107.363 273.249 108.24 272.932C109.117 272.615 109.78 272.185 110.228 271.644C110.676 271.084 110.993 270.515 111.18 269.936C111.385 269.357 111.488 268.741 111.488 268.088C111.488 267.435 111.385 266.819 111.18 266.24C110.993 265.661 110.676 265.101 110.228 264.56C109.78 264 109.117 263.561 108.24 263.244C107.363 262.927 106.317 262.768 105.104 262.768H104.544ZM116.927 266.38H118.943V274.052L126.895 265.484V278H124.879V270.244L116.927 278.812V266.38ZM139.501 266.38V278H137.485V268.228H133.341V273.464C133.341 274.976 133.042 276.096 132.445 276.824C131.773 277.645 130.839 278.056 129.645 278.056C129.495 278.056 129.29 278.037 129.029 278V276.152C129.215 276.189 129.365 276.208 129.477 276.208C130.13 276.208 130.615 275.956 130.933 275.452C131.194 275.041 131.325 274.379 131.325 273.464V266.38H139.501ZM143.314 266.38H145.33V274.052L153.282 265.484V278H151.266V270.244L143.314 278.812V266.38ZM165.999 268.032V266.38H168.015V278H165.999V276.376C164.991 277.683 163.666 278.336 162.023 278.336C160.455 278.336 159.121 277.795 158.019 276.712C156.918 275.629 156.367 274.117 156.367 272.176C156.367 270.272 156.909 268.788 157.991 267.724C159.093 266.641 160.437 266.1 162.023 266.1C163.703 266.1 165.029 266.744 165.999 268.032ZM162.247 267.892C161.183 267.892 160.278 268.275 159.531 269.04C158.803 269.787 158.439 270.832 158.439 272.176C158.439 273.464 158.775 274.519 159.447 275.34C160.138 276.143 161.071 276.544 162.247 276.544C163.423 276.544 164.357 276.124 165.047 275.284C165.757 274.444 166.111 273.417 166.111 272.204C166.111 270.823 165.719 269.759 164.935 269.012C164.151 268.265 163.255 267.892 162.247 267.892ZM180.626 266.38V278H178.61V268.228H174.466V273.464C174.466 274.976 174.167 276.096 173.57 276.824C172.898 277.645 171.964 278.056 170.77 278.056C170.62 278.056 170.415 278.037 170.154 278V276.152C170.34 276.189 170.49 276.208 170.602 276.208C171.255 276.208 171.74 275.956 172.058 275.452C172.319 275.041 172.45 274.379 172.45 273.464V266.38H180.626Z" fill="#CAD6F3"></path> <rect x="66" y="331" width="540" height="57" rx="15" fill="#7F6CFC"></rect> <path d="M286.68 349.993H296.97V364H294.828V352.009H288.822V364H286.68V349.993ZM302.018 362.971V368.809H299.96V355.159H302.018V356.125C302.69 355.327 303.565 354.928 304.643 354.928C305.847 354.928 306.862 355.355 307.688 356.209C308.528 357.049 308.948 358.155 308.948 359.527C308.948 360.941 308.514 362.089 307.646 362.971C306.778 363.839 305.784 364.273 304.664 364.273C303.614 364.273 302.732 363.839 302.018 362.971ZM304.391 356.776C303.691 356.776 303.096 357.028 302.606 357.532C302.13 358.022 301.892 358.722 301.892 359.632C301.892 360.514 302.13 361.2 302.606 361.69C303.096 362.18 303.691 362.425 304.391 362.425C305.119 362.425 305.707 362.152 306.155 361.606C306.617 361.06 306.848 360.395 306.848 359.611C306.848 358.813 306.617 358.141 306.155 357.595C305.707 357.049 305.119 356.776 304.391 356.776ZM311.096 355.159H313.154V360.178L319.202 354.361V364H317.144V358.855L311.096 364.672V355.159ZM320.793 364L322.935 354.361L326.589 361.102L330.243 354.361L332.385 364H330.285L329.403 359.569L326.589 364.672L323.775 359.569L322.893 364H320.793ZM340.178 361.018L341.9 361.984C341.508 362.684 341.011 363.223 340.409 363.601C339.723 364.049 338.855 364.273 337.805 364.273C336.573 364.273 335.579 363.895 334.823 363.139C333.955 362.271 333.521 361.144 333.521 359.758C333.521 358.302 333.99 357.091 334.928 356.125C335.726 355.327 336.713 354.928 337.889 354.928C339.037 354.928 339.982 355.313 340.724 356.083C341.55 356.937 341.963 358.183 341.963 359.821V360.073H335.621C335.677 360.815 335.929 361.41 336.377 361.858C336.755 362.236 337.28 362.425 337.952 362.425C338.498 362.425 338.967 362.278 339.359 361.984C339.681 361.732 339.954 361.41 340.178 361.018ZM335.768 358.393H339.863C339.779 357.903 339.569 357.504 339.233 357.196C338.869 356.86 338.407 356.692 337.847 356.692C337.259 356.692 336.776 356.881 336.398 357.259C336.09 357.539 335.88 357.917 335.768 358.393ZM344.114 364V355.159H346.172V358.435H349.826V355.159H351.884V364H349.826V360.325H346.172V364H344.114ZM354.49 355.159H356.548V360.178L362.596 354.361V364H360.538V358.855L354.49 364.672V355.159ZM371.286 357.049H368.703V364H366.645V357.049H364.062V355.159H371.286V357.049ZM372.763 364V355.159H374.821V358.288H375.997C376.375 358.288 376.683 358.302 376.921 358.33C377.159 358.344 377.446 358.421 377.782 358.561C378.118 358.701 378.412 358.911 378.664 359.191C379.126 359.709 379.357 360.353 379.357 361.123C379.357 362.005 379.091 362.712 378.559 363.244C378.321 363.482 378.034 363.664 377.698 363.79C377.376 363.902 377.103 363.965 376.879 363.979C376.669 363.993 376.368 364 375.976 364H372.763ZM374.821 362.236H375.766C376.27 362.236 376.627 362.173 376.837 362.047C377.145 361.823 377.299 361.522 377.299 361.144C377.299 360.752 377.152 360.458 376.858 360.262C376.634 360.122 376.277 360.052 375.787 360.052H374.821V362.236Z" fill="white"></path> <defs> <filter id="filter0_d" x="0" y="0" width="672" height="1040" filterUnits="userSpaceOnUse" color-interpolation-filters="sRGB"> <feFlood flood-opacity="0" result="BackgroundImageFix"></feFlood> <feColorMatrix in="SourceAlpha" type="matrix" values="0 0 0 0 0 0 0 0 0 0 0 0 0 0 0 0 0 0 127 0"></feColorMatrix> <feOffset></feOffset> <feGaussianBlur stdDeviation="16"></feGaussianBlur> <feColorMatrix type="matrix" values="0 0 0 0 0.790833 0 0 0 0 0.813583 0 0 0 0 0.866667 0 0 0 0.25 0"></feColorMatrix> <feBlend mode="normal" in2="BackgroundImageFix" result="effect1_dropShadow"></feBlend> <feBlend mode="normal" in="SourceGraphic" in2="effect1_dropShadow" result="shape"></feBlend> </filter> </defs> </svg> 