<?xml version="1.0" encoding="UTF-8"?> <svg xmlns="http://www.w3.org/2000/svg" width="19" height="19" viewBox="0 0 19 19" fill="none"> <path d="M18.763 2.51736C18.4629 2.07622 18.1027 1.65513 17.7026 1.25409C17.3424 0.91321 16.8222 0.512173 16.462 0.27155C15.8618 -0.149539 15.0414 -0.0693318 14.5412 0.431965L1.79556 13.185C1.75554 13.2251 1.71552 13.2852 1.69551 13.3454L0.0347824 18.0776C-0.0452529 18.3383 0.0147736 18.619 0.194853 18.7995C0.334915 18.9398 0.494985 19 0.675065 19C0.7551 19 0.835135 18.9799 0.91517 18.9599L5.61724 17.2956C5.67727 17.2755 5.73729 17.2354 5.77731 17.1953L18.5429 4.40224C19.0632 3.90094 19.1432 3.09886 18.763 2.51736ZM2.47586 13.7665C3.55633 14.5084 4.47674 15.4308 5.21707 16.5136L2.47586 17.4761C2.37581 17.2755 2.25576 17.075 2.07568 16.8946C1.8956 16.7141 1.69551 16.5938 1.49543 16.4935L2.47586 13.7665Z" fill="#CAD6F3"></path> </svg> 