<?xml version="1.0" encoding="UTF-8"?> <svg xmlns="http://www.w3.org/2000/svg" width="334" height="126" viewBox="0 0 334 126" fill="none"> <g filter="url(#filter0_d)"> <rect x="18" y="32" width="284" height="62" rx="20" fill="#7F6CFC"></rect> </g> <path d="M109.199 71L107.015 65.736H99.0627L96.8227 71H94.5267L103.123 51.428L111.495 71H109.199ZM99.8747 63.776H106.203L103.067 56.3L99.8747 63.776ZM113.625 71V59.38H115.641V64.14H121.129V59.38H123.145V71H121.129V65.988H115.641V71H113.625ZM135.845 61.032V59.38H137.861V71H135.845V69.376C134.837 70.6827 133.512 71.336 131.869 71.336C130.301 71.336 128.966 70.7947 127.865 69.712C126.764 68.6293 126.213 67.1173 126.213 65.176C126.213 63.272 126.754 61.788 127.837 60.724C128.938 59.6413 130.282 59.1 131.869 59.1C133.549 59.1 134.874 59.744 135.845 61.032ZM132.093 60.892C131.029 60.892 130.124 61.2747 129.377 62.04C128.649 62.7867 128.285 63.832 128.285 65.176C128.285 66.464 128.621 67.5187 129.293 68.34C129.984 69.1427 130.917 69.544 132.093 69.544C133.269 69.544 134.202 69.124 134.893 68.284C135.602 67.444 135.957 66.4173 135.957 65.204C135.957 63.8227 135.565 62.7587 134.781 62.012C133.997 61.2653 133.101 60.892 132.093 60.892ZM150.471 59.38V71H148.455V61.228H144.311V66.464C144.311 67.976 144.013 69.096 143.415 69.824C142.743 70.6453 141.81 71.056 140.615 71.056C140.466 71.056 140.261 71.0373 139.999 71V69.152C140.186 69.1893 140.335 69.208 140.447 69.208C141.101 69.208 141.586 68.956 141.903 68.452C142.165 68.0413 142.295 67.3787 142.295 66.464V59.38H150.471ZM154.285 59.38H156.301V67.052L164.253 58.484V71H162.237V63.244L154.285 71.812V59.38ZM169.578 62.348L168.178 61.2C168.626 60.5467 169.121 60.0613 169.662 59.744C170.39 59.3147 171.239 59.1 172.21 59.1C173.386 59.1 174.301 59.3707 174.954 59.912C175.626 60.4907 175.962 61.228 175.962 62.124C175.962 63.2067 175.523 64.0187 174.646 64.56C175.206 64.6907 175.654 64.9427 175.99 65.316C176.531 65.8947 176.802 66.604 176.802 67.444C176.802 68.6947 176.298 69.6933 175.29 70.44C174.469 71.0373 173.367 71.336 171.986 71.336C170.754 71.336 169.718 71.0093 168.878 70.356C168.243 69.8893 167.73 69.2267 167.338 68.368L169.074 67.64C169.279 68.1627 169.625 68.6013 170.11 68.956C170.633 69.348 171.267 69.544 172.014 69.544C172.891 69.544 173.545 69.3947 173.974 69.096C174.515 68.7413 174.786 68.2 174.786 67.472C174.786 66.8747 174.553 66.4267 174.086 66.128C173.694 65.8667 173.059 65.736 172.182 65.736H171.006V63.888H171.986C172.695 63.888 173.199 63.7853 173.498 63.58C173.909 63.3187 174.114 62.964 174.114 62.516C174.114 61.9933 173.946 61.592 173.61 61.312C173.293 61.032 172.798 60.892 172.126 60.892C171.547 60.892 171.015 61.0413 170.53 61.34C170.119 61.6013 169.802 61.9373 169.578 62.348ZM179.879 71V59.38H181.895V63.832H183.967C185.572 63.832 186.748 64.2147 187.495 64.98C188.092 65.5773 188.391 66.3893 188.391 67.416C188.391 68.4987 188.045 69.3667 187.355 70.02C186.664 70.6733 185.525 71 183.939 71H179.879ZM181.895 69.208H183.771C184.611 69.208 185.208 69.1053 185.563 68.9C186.067 68.564 186.319 68.0693 186.319 67.416C186.319 66.744 186.076 66.2587 185.591 65.96C185.255 65.736 184.657 65.624 183.799 65.624H181.895V69.208ZM189.791 71V59.38H191.807V71H189.791Z" fill="white"></path> <path d="M45 62.9474L50.775 56.8684L56.55 62.9474L66 53M66 53H60.75M66 53V58.5263M45 70.6842V74M50.775 74V67.3684M56.55 74V70.6842M62.325 74V67.3684" stroke="white" stroke-width="1.8" stroke-linecap="round" stroke-linejoin="round"></path> <circle cx="56.3999" cy="62.9674" r="2.66667" fill="white"></circle> <circle cx="50.5334" cy="57.1003" r="2.66667" fill="white"></circle> <circle cx="44.6667" cy="62.9674" r="2.66667" fill="white"></circle> <defs> <filter id="filter0_d" x="-14" y="0" width="348" height="126" filterUnits="userSpaceOnUse" color-interpolation-filters="sRGB"> <feFlood flood-opacity="0" result="BackgroundImageFix"></feFlood> <feColorMatrix in="SourceAlpha" type="matrix" values="0 0 0 0 0 0 0 0 0 0 0 0 0 0 0 0 0 0 127 0"></feColorMatrix> <feOffset></feOffset> <feGaussianBlur stdDeviation="16"></feGaussianBlur> <feColorMatrix type="matrix" values="0 0 0 0 0.790833 0 0 0 0 0.813583 0 0 0 0 0.866667 0 0 0 0.25 0"></feColorMatrix> <feBlend mode="normal" in2="BackgroundImageFix" result="effect1_dropShadow"></feBlend> <feBlend mode="normal" in="SourceGraphic" in2="effect1_dropShadow" result="shape"></feBlend> </filter> </defs> </svg> 