<?xml version="1.0" encoding="UTF-8"?> <svg xmlns="http://www.w3.org/2000/svg" width="334" height="126" viewBox="0 0 334 126" fill="none"> <g filter="url(#filter0_d)"> <rect x="18" y="32" width="284" height="62" rx="20" fill="#7F6CFC"></rect> </g> <path d="M96.48 51.324V59.332L104.432 51.324H107.232L98.496 60.032L107.512 70H104.656L97.012 61.432L96.48 61.964V70H94.408V51.324H96.48ZM117.546 60.032V58.38H119.562V70H117.546V68.376C116.538 69.6827 115.213 70.336 113.57 70.336C112.002 70.336 110.668 69.7947 109.566 68.712C108.465 67.6293 107.914 66.1173 107.914 64.176C107.914 62.272 108.456 60.788 109.538 59.724C110.64 58.6413 111.984 58.1 113.57 58.1C115.25 58.1 116.576 58.744 117.546 60.032ZM113.794 59.892C112.73 59.892 111.825 60.2747 111.078 61.04C110.35 61.7867 109.986 62.832 109.986 64.176C109.986 65.464 110.322 66.5187 110.994 67.34C111.685 68.1427 112.618 68.544 113.794 68.544C114.97 68.544 115.904 68.124 116.594 67.284C117.304 66.444 117.658 65.4173 117.658 64.204C117.658 62.8227 117.266 61.7587 116.482 61.012C115.698 60.2653 114.802 59.892 113.794 59.892ZM132.173 58.38V70H130.157V60.228H126.013V65.464C126.013 66.976 125.714 68.096 125.117 68.824C124.445 69.6453 123.511 70.056 122.317 70.056C122.167 70.056 121.962 70.0373 121.701 70V68.152C121.887 68.1893 122.037 68.208 122.149 68.208C122.802 68.208 123.287 67.956 123.605 67.452C123.866 67.0413 123.997 66.3787 123.997 65.464V58.38H132.173ZM144.61 66.108L146.29 67.032C145.898 67.7787 145.422 68.404 144.862 68.908C143.798 69.86 142.51 70.336 140.998 70.336C139.43 70.336 138.077 69.832 136.938 68.824C135.818 67.7973 135.258 66.276 135.258 64.26C135.258 62.4867 135.762 61.0213 136.77 59.864C137.797 58.688 139.169 58.1 140.886 58.1C142.827 58.1 144.293 58.8093 145.282 60.228C146.066 61.348 146.43 62.804 146.374 64.596H137.33C137.349 65.772 137.713 66.724 138.422 67.452C139.131 68.18 139.999 68.544 141.026 68.544C141.941 68.544 142.734 68.264 143.406 67.704C143.929 67.256 144.33 66.724 144.61 66.108ZM137.47 62.916H144.302C144.134 62.0013 143.733 61.2733 143.098 60.732C142.482 60.172 141.745 59.892 140.886 59.892C140.046 59.892 139.299 60.1813 138.646 60.76C138.011 61.32 137.619 62.0387 137.47 62.916ZM149.467 70V58.38H151.483V63.14H156.971V58.38H158.987V70H156.971V64.988H151.483V70H149.467ZM163.623 58.38H171.799V68.152H173.535V73.08H171.687V70H162.839V73.08H160.991V68.152C161.962 68.1333 162.68 67.6293 163.147 66.64C163.464 65.9867 163.623 64.96 163.623 63.56V58.38ZM169.783 68.152V60.228H165.639V64.596C165.639 66.1453 165.172 67.3307 164.239 68.152H169.783ZM184.566 60.032V58.38H186.582V70H184.566V68.376C183.558 69.6827 182.232 70.336 180.59 70.336C179.022 70.336 177.687 69.7947 176.586 68.712C175.484 67.6293 174.934 66.1173 174.934 64.176C174.934 62.272 175.475 60.788 176.558 59.724C177.659 58.6413 179.003 58.1 180.59 58.1C182.27 58.1 183.595 58.744 184.566 60.032ZM180.814 59.892C179.75 59.892 178.844 60.2747 178.098 61.04C177.37 61.7867 177.006 62.832 177.006 64.176C177.006 65.464 177.342 66.5187 178.014 67.34C178.704 68.1427 179.638 68.544 180.814 68.544C181.99 68.544 182.923 68.124 183.614 67.284C184.323 66.444 184.678 65.4173 184.678 64.204C184.678 62.8227 184.286 61.7587 183.502 61.012C182.718 60.2653 181.822 59.892 180.814 59.892ZM192.416 68.376V76.44H190.4V58.38H192.416V60.004C193.443 58.7347 194.768 58.1 196.392 58.1C198.128 58.1 199.5 58.716 200.508 59.948C201.535 61.1613 202.048 62.5987 202.048 64.26C202.048 65.94 201.544 67.3773 200.536 68.572C199.528 69.748 198.175 70.336 196.476 70.336C194.777 70.336 193.424 69.6827 192.416 68.376ZM196.196 68.544C197.335 68.544 198.249 68.1333 198.94 67.312C199.631 66.472 199.976 65.4547 199.976 64.26C199.976 62.916 199.593 61.852 198.828 61.068C198.063 60.284 197.176 59.892 196.168 59.892C195.16 59.892 194.264 60.284 193.48 61.068C192.696 61.852 192.304 62.9067 192.304 64.232C192.304 65.4453 192.659 66.472 193.368 67.312C194.096 68.1333 195.039 68.544 196.196 68.544ZM205.138 70V58.38H207.154V62.832H209.226C210.832 62.832 212.008 63.2147 212.754 63.98C213.352 64.5773 213.65 65.3893 213.65 66.416C213.65 67.4987 213.305 68.3667 212.614 69.02C211.924 69.6733 210.785 70 209.198 70H205.138ZM207.154 68.208H209.03C209.87 68.208 210.468 68.1053 210.822 67.9C211.326 67.564 211.578 67.0693 211.578 66.416C211.578 65.744 211.336 65.2587 210.85 64.96C210.514 64.736 209.917 64.624 209.058 64.624H207.154V68.208Z" fill="white"></path> <path d="M64.4167 55.8837H44.5833M47 69.7253H62C63.6569 69.7253 65 68.3822 65 66.7253V55.6895C65 54.0326 63.6569 52.6895 62 52.6895H47C45.3431 52.6895 44 54.0326 44 55.6895V66.7253C44 68.3822 45.3431 69.7253 47 69.7253Z" stroke="white" stroke-width="1.8" stroke-linecap="round"></path> <path d="M49 53.0883V50.3984" stroke="white" stroke-width="1.8" stroke-linecap="round" stroke-linejoin="round"></path> <path d="M60 52.6899V50" stroke="white" stroke-width="1.8" stroke-linecap="round" stroke-linejoin="round"></path> <path d="M49.8571 65.2432H48M49.8571 62.105H48M49.8571 58.9668H48M55.4286 65.2432H53.5714M55.4286 62.105H53.5714M55.4286 58.9668H53.5714M61 65.2432H59.1429M61 62.105H59.1429M61 58.9668H59.1429" stroke="white" stroke-width="1.8" stroke-linecap="round"></path> <defs> <filter id="filter0_d" x="-14" y="0" width="348" height="126" filterUnits="userSpaceOnUse" color-interpolation-filters="sRGB"> <feFlood flood-opacity="0" result="BackgroundImageFix"></feFlood> <feColorMatrix in="SourceAlpha" type="matrix" values="0 0 0 0 0 0 0 0 0 0 0 0 0 0 0 0 0 0 127 0"></feColorMatrix> <feOffset></feOffset> <feGaussianBlur stdDeviation="16"></feGaussianBlur> <feColorMatrix type="matrix" values="0 0 0 0 0.790833 0 0 0 0 0.813583 0 0 0 0 0.866667 0 0 0 0.25 0"></feColorMatrix> <feBlend mode="normal" in2="BackgroundImageFix" result="effect1_dropShadow"></feBlend> <feBlend mode="normal" in="SourceGraphic" in2="effect1_dropShadow" result="shape"></feBlend> </filter> </defs> </svg> 