<?xml version="1.0" encoding="UTF-8"?> <svg xmlns="http://www.w3.org/2000/svg" width="26" height="20" viewBox="0 0 26 20" fill="none"> <path fill-rule="evenodd" clip-rule="evenodd" d="M15.3636 4.44444C14.7109 4.44444 14.1818 4.94191 14.1818 5.55556V14.4444C14.1818 15.0581 14.7109 15.5556 15.3636 15.5556H20.0909C20.7436 15.5556 21.2727 15.0581 21.2727 14.4444V5.55556C21.2727 4.94191 20.7436 4.44444 20.0909 4.44444H15.3636ZM18.9091 6.66667H16.5455V13.3333H18.9091V6.66667Z" fill="#CAD6F3"></path> <path d="M5.90909 4.44444C5.25639 4.44444 4.72727 4.94191 4.72727 5.55556C4.72727 6.16921 5.25639 6.66667 5.90909 6.66667H10.6364C11.2891 6.66667 11.8182 6.16921 11.8182 5.55556C11.8182 4.94191 11.2891 4.44444 10.6364 4.44444H5.90909Z" fill="#CAD6F3"></path> <path d="M5.90909 8.88889C5.25639 8.88889 4.72727 9.38635 4.72727 10C4.72727 10.6136 5.25639 11.1111 5.90909 11.1111H10.6364C11.2891 11.1111 11.8182 10.6136 11.8182 10C11.8182 9.38635 11.2891 8.88889 10.6364 8.88889H5.90909Z" fill="#CAD6F3"></path> <path d="M4.72727 14.4444C4.72727 13.8308 5.25639 13.3333 5.90909 13.3333H10.6364C11.2891 13.3333 11.8182 13.8308 11.8182 14.4444C11.8182 15.0581 11.2891 15.5556 10.6364 15.5556H5.90909C5.25639 15.5556 4.72727 15.0581 4.72727 14.4444Z" fill="#CAD6F3"></path> <path fill-rule="evenodd" clip-rule="evenodd" d="M3.54545 0C1.58735 0 0 1.49238 0 3.33333V16.6667C0 18.5076 1.58735 20 3.54545 20H22.4545C24.4126 20 26 18.5076 26 16.6667V3.33333C26 1.49238 24.4126 0 22.4545 0H3.54545ZM22.4545 2.22222H3.54545C2.89275 2.22222 2.36364 2.71968 2.36364 3.33333V16.6667C2.36364 17.2803 2.89275 17.7778 3.54545 17.7778H22.4545C23.1072 17.7778 23.6364 17.2803 23.6364 16.6667V3.33333C23.6364 2.71968 23.1072 2.22222 22.4545 2.22222Z" fill="#CAD6F3"></path> </svg> 