<?xml version="1.0" encoding="UTF-8"?> <svg xmlns="http://www.w3.org/2000/svg" width="244" height="58" viewBox="0 0 244 58" fill="none"> <path d="M6.232 37H2.28L7.6 9.754L16.416 29.438L25.308 9.754L30.096 37H26.144L23.56 21.724L16.188 38.178L8.892 21.686L6.232 37ZM36.3114 22.978C37.958 21.382 39.9974 20.584 42.4294 20.584C44.8614 20.584 46.888 21.382 48.5094 22.978C50.156 24.5487 50.9794 26.5627 50.9794 29.02C50.9794 31.452 50.156 33.4787 48.5094 35.1C46.888 36.696 44.8614 37.494 42.4294 37.494C39.9974 37.494 37.958 36.696 36.3114 35.1C34.69 33.4787 33.8794 31.452 33.8794 29.02C33.8794 26.5627 34.69 24.5487 36.3114 22.978ZM38.9714 32.782C39.8327 33.694 40.9854 34.15 42.4294 34.15C43.8734 34.15 45.026 33.694 45.8874 32.782C46.7487 31.8447 47.1794 30.6033 47.1794 29.058C47.1794 27.3607 46.7107 26.0813 45.7734 25.22C44.8614 24.3587 43.7467 23.928 42.4294 23.928C41.112 23.928 39.9847 24.3587 39.0474 25.22C38.1354 26.0813 37.6794 27.3607 37.6794 29.058C37.6794 30.6033 38.11 31.8447 38.9714 32.782ZM66.0758 31.604L69.1918 33.352C68.4824 34.6187 67.5831 35.594 66.4938 36.278C65.2524 37.0887 63.6818 37.494 61.7818 37.494C59.5524 37.494 57.7538 36.81 56.3858 35.442C54.8151 33.8713 54.0298 31.832 54.0298 29.324C54.0298 26.6893 54.8784 24.498 56.5758 22.75C58.0198 21.306 59.8058 20.584 61.9338 20.584C64.0111 20.584 65.7211 21.2807 67.0638 22.674C68.5584 24.2193 69.3058 26.474 69.3058 29.438V29.894H57.8298C57.9311 31.2367 58.3871 32.3133 59.1978 33.124C59.8818 33.808 60.8318 34.15 62.0478 34.15C63.0358 34.15 63.8844 33.884 64.5938 33.352C65.1764 32.896 65.6704 32.3133 66.0758 31.604ZM58.0958 26.854H65.5058C65.3538 25.9673 64.9738 25.2453 64.3658 24.688C63.7071 24.08 62.8711 23.776 61.8578 23.776C60.7938 23.776 59.9198 24.118 59.2358 24.802C58.6784 25.3087 58.2984 25.9927 58.0958 26.854ZM57.0698 17.05C56.6138 16.594 56.3858 16.0367 56.3858 15.378C56.3858 14.7193 56.6138 14.162 57.0698 13.706C57.5258 13.25 58.0831 13.022 58.7418 13.022C59.4004 13.022 59.9578 13.25 60.4138 13.706C60.8698 14.162 61.0978 14.7193 61.0978 15.378C61.0978 16.0367 60.8698 16.594 60.4138 17.05C59.9578 17.506 59.4004 17.734 58.7418 17.734C58.0831 17.734 57.5258 17.506 57.0698 17.05ZM63.9098 17.05C63.4538 16.594 63.2258 16.0367 63.2258 15.378C63.2258 14.7193 63.4538 14.162 63.9098 13.706C64.3658 13.25 64.9231 13.022 65.5818 13.022C66.2404 13.022 66.7978 13.25 67.2538 13.706C67.7098 14.162 67.9378 14.7193 67.9378 15.378C67.9378 16.0367 67.7098 16.594 67.2538 17.05C66.7978 17.506 66.2404 17.734 65.5818 17.734C64.9231 17.734 64.3658 17.506 63.9098 17.05ZM76.0478 17.392L73.5018 14.922C74.4391 13.6807 75.5285 12.7687 76.7698 12.186C78.0365 11.5527 79.5691 11.236 81.3678 11.236C83.9011 11.236 85.8645 11.9073 87.2578 13.25C88.4738 14.4407 89.0818 15.9227 89.0818 17.696C89.0818 18.912 88.8031 19.9633 88.2458 20.85C87.7138 21.762 86.9538 22.4967 85.9658 23.054C87.3591 23.4087 88.4991 24.156 89.3858 25.296C90.2471 26.3853 90.6778 27.8167 90.6778 29.59C90.6778 31.87 89.8291 33.7573 88.1318 35.252C86.4091 36.7213 84.1291 37.456 81.2918 37.456C78.8851 37.456 76.8078 36.7973 75.0598 35.48C73.6918 34.416 72.6151 33.048 71.8298 31.376L75.2498 29.628C75.7565 30.92 76.5418 31.946 77.6058 32.706C78.7205 33.4913 80.1138 33.884 81.7858 33.884C83.4578 33.884 84.7498 33.428 85.6618 32.516C86.4725 31.7053 86.8778 30.6667 86.8778 29.4C86.8778 28.0827 86.3838 27.0947 85.3958 26.436C84.4585 25.7773 82.9258 25.448 80.7978 25.448H78.5178V21.8H80.5698C82.1911 21.8 83.4071 21.458 84.2178 20.774C84.9778 20.1407 85.3578 19.2793 85.3578 18.19C85.3578 17.05 84.9525 16.176 84.1418 15.568C83.4831 15.0613 82.5078 14.808 81.2158 14.808C79.9998 14.808 78.9738 15.0487 78.1378 15.53C77.3271 15.986 76.6305 16.6067 76.0478 17.392ZM96.2377 21.002H108.246V33.58H110.678V41.56H107.258V37H96.0857V41.56H92.6657V33.58C93.9577 33.504 94.933 32.8073 95.5917 31.49C96.0223 30.5527 96.2377 29.1467 96.2377 27.272V21.002ZM104.522 33.58V24.422H99.8097V28.678C99.8097 30.9833 99.189 32.6173 97.9477 33.58H104.522ZM114.946 22.978C116.593 21.382 118.632 20.584 121.064 20.584C123.496 20.584 125.523 21.382 127.144 22.978C128.791 24.5487 129.614 26.5627 129.614 29.02C129.614 31.452 128.791 33.4787 127.144 35.1C125.523 36.696 123.496 37.494 121.064 37.494C118.632 37.494 116.593 36.696 114.946 35.1C113.325 33.4787 112.514 31.452 112.514 29.02C112.514 26.5627 113.325 24.5487 114.946 22.978ZM117.606 32.782C118.467 33.694 119.62 34.15 121.064 34.15C122.508 34.15 123.661 33.694 124.522 32.782C125.383 31.8447 125.814 30.6033 125.814 29.058C125.814 27.3607 125.345 26.0813 124.408 25.22C123.496 24.3587 122.381 23.928 121.064 23.928C119.747 23.928 118.619 24.3587 117.682 25.22C116.77 26.0813 116.314 27.3607 116.314 29.058C116.314 30.6033 116.745 31.8447 117.606 32.782ZM137.225 35.138V45.702H133.501V21.002H137.225V22.75C138.441 21.306 140.024 20.584 141.975 20.584C144.153 20.584 145.99 21.3567 147.485 22.902C149.005 24.422 149.765 26.4233 149.765 28.906C149.765 31.4647 148.979 33.542 147.409 35.138C145.838 36.7087 144.039 37.494 142.013 37.494C140.113 37.494 138.517 36.7087 137.225 35.138ZM141.519 23.928C140.252 23.928 139.175 24.384 138.289 25.296C137.427 26.1827 136.997 27.4493 136.997 29.096C136.997 30.692 137.427 31.9333 138.289 32.82C139.175 33.7067 140.252 34.15 141.519 34.15C142.836 34.15 143.9 33.656 144.711 32.668C145.547 31.68 145.965 30.4767 145.965 29.058C145.965 27.614 145.547 26.398 144.711 25.41C143.9 24.422 142.836 23.928 141.519 23.928Z" fill="#232323"></path> <path d="M195.356 21.002H201.626C203.222 21.002 204.438 21.3187 205.274 21.952C206.262 22.7373 206.756 23.7633 206.756 25.03C206.756 26.474 206.123 27.5127 204.856 28.146C205.667 28.298 206.389 28.6527 207.022 29.21C207.858 29.97 208.276 30.996 208.276 32.288C208.276 33.8333 207.693 35.0493 206.528 35.936C205.565 36.6453 204.337 37 202.842 37H195.356V21.002ZM199.08 27.234H200.98C201.639 27.234 202.133 27.12 202.462 26.892C202.943 26.588 203.184 26.1573 203.184 25.6C203.184 25.068 202.969 24.65 202.538 24.346C202.234 24.1433 201.689 24.042 200.904 24.042H199.08V27.234ZM199.08 33.96H201.854C202.69 33.96 203.336 33.808 203.792 33.504C204.299 33.1747 204.552 32.706 204.552 32.098C204.552 31.4393 204.311 30.9707 203.83 30.692C203.399 30.4133 202.779 30.274 201.968 30.274H199.08V33.96ZM212.167 37V21.002H215.891V26.664H218.019C218.703 26.664 219.26 26.6893 219.691 26.74C220.121 26.7653 220.641 26.9047 221.249 27.158C221.857 27.4113 222.389 27.7913 222.845 28.298C223.681 29.2353 224.099 30.4007 224.099 31.794C224.099 33.39 223.617 34.6693 222.655 35.632C222.224 36.0627 221.705 36.392 221.097 36.62C220.514 36.8227 220.02 36.9367 219.615 36.962C219.235 36.9873 218.69 37 217.981 37H212.167ZM215.891 33.808H217.601C218.513 33.808 219.159 33.694 219.539 33.466C220.096 33.0607 220.375 32.516 220.375 31.832C220.375 31.1227 220.109 30.5907 219.577 30.236C219.171 29.9827 218.525 29.856 217.639 29.856H215.891V33.808ZM238.591 31.604L241.707 33.352C240.998 34.6187 240.099 35.594 239.009 36.278C237.768 37.0887 236.197 37.494 234.297 37.494C232.068 37.494 230.269 36.81 228.901 35.442C227.331 33.8713 226.545 31.832 226.545 29.324C226.545 26.6893 227.394 24.498 229.091 22.75C230.535 21.306 232.321 20.584 234.449 20.584C236.527 20.584 238.237 21.2807 239.579 22.674C241.074 24.2193 241.821 26.474 241.821 29.438V29.894H230.345C230.447 31.2367 230.903 32.3133 231.713 33.124C232.397 33.808 233.347 34.15 234.563 34.15C235.551 34.15 236.4 33.884 237.109 33.352C237.692 32.896 238.186 32.3133 238.591 31.604ZM230.611 26.854H238.021C237.869 25.9673 237.489 25.2453 236.881 24.688C236.223 24.08 235.387 23.776 234.373 23.776C233.309 23.776 232.435 24.118 231.751 24.802C231.194 25.3087 230.814 25.9927 230.611 26.854Z" fill="#232323"></path> <path d="M180.186 7C177.351 7 174.886 8.34955 173.059 10.9028C172.698 11.4074 172.397 11.9112 172.148 12.3794C171.9 11.9112 171.598 11.4074 171.237 10.9028C169.41 8.34955 166.946 7 164.11 7C158.858 7 155 11.3705 155 16.729C155 22.7015 159.853 26.7888 167.2 32.9757C168.568 34.1281 169.983 35.3198 171.49 36.6255C171.679 36.7891 171.913 36.871 172.148 36.871C172.383 36.871 172.617 36.7891 172.806 36.6255C174.313 35.3198 175.728 34.1281 177.096 32.9757C184.443 26.7887 189.296 22.7015 189.296 16.729C189.296 11.3719 185.44 7 180.186 7ZM175.802 31.439C174.628 32.4271 173.421 33.444 172.148 34.539C170.875 33.444 169.668 32.4271 168.494 31.439C164.546 28.1134 161.363 25.4323 159.358 22.8061H164.11C164.491 22.8061 164.838 22.5911 165.009 22.2508L166.12 20.0294L169.24 26.2693C169.41 26.6096 169.758 26.8246 170.139 26.8246C170.519 26.8246 170.867 26.6096 171.037 26.2693L172.148 24.0478L173.259 26.2692C173.429 26.6096 173.777 26.8246 174.158 26.8246C174.538 26.8246 174.886 26.6096 175.056 26.2692L178.177 20.0294L179.288 22.2508C179.458 22.5911 179.806 22.7994 180.186 22.7994H184.939C182.934 25.4257 179.751 28.1134 175.802 31.439ZM180.807 20.7969L179.075 17.3337C178.905 16.9934 178.557 16.7784 178.177 16.7784C177.796 16.7784 177.448 16.9934 177.278 17.3337L174.158 23.5735L173.047 21.3522C172.877 21.0119 172.529 20.7969 172.148 20.7969C171.768 20.7969 171.42 21.0119 171.249 21.3522L170.139 23.5735L167.018 17.3337C166.848 16.9934 166.5 16.7784 166.12 16.7784C165.739 16.7784 165.391 16.9934 165.221 17.3337L163.489 20.7969H158.06C157.377 19.4884 157.01 18.1564 157.01 16.729C157.01 12.328 160.062 9.00925 164.11 9.00925C166.283 9.00925 168.12 10.0242 169.57 12.0259C170.711 13.6017 171.175 15.2201 171.18 15.24C171.301 15.6741 171.697 15.9747 172.148 15.9747C172.6 15.9747 172.996 15.6733 173.116 15.2381C173.134 15.1759 174.903 9.00925 180.186 9.00925C184.234 9.00925 187.287 12.328 187.287 16.729C187.287 18.1565 186.92 19.4884 186.236 20.7969H180.807Z" fill="#7F6CFC"></path> <path d="M5.64 48.288H6.2V51.004L8.776 48.288H9.504L6.844 51.032L9.728 54H8.972L6.48 51.396L6.2 51.676V54H5.64V51.676L5.36 51.396L2.868 54H2.112L4.996 51.032L2.336 48.288H3.064L5.64 51.004V48.288ZM10.842 48.288H11.402V52.866L15.462 47.966V54H14.902V49.45L10.842 54.35V48.288ZM17.4728 48.288H19.3348C19.8668 48.288 20.2728 48.4 20.5528 48.624C20.8888 48.8947 21.0568 49.2587 21.0568 49.716C21.0568 50.2387 20.8468 50.6353 20.4268 50.906C20.6882 50.9433 20.9215 51.0507 21.1268 51.228C21.4535 51.5173 21.6168 51.9 21.6168 52.376C21.6168 52.908 21.4255 53.3187 21.0428 53.608C20.7068 53.8693 20.2402 54 19.6428 54H17.4728V48.288ZM18.0328 50.78H19.3348C19.6802 50.78 19.9508 50.7007 20.1468 50.542C20.3802 50.3553 20.4968 50.1033 20.4968 49.786C20.4968 49.478 20.3802 49.2307 20.1468 49.044C19.9602 48.8947 19.6895 48.82 19.3348 48.82H18.0328V50.78ZM18.0328 53.468H19.6428C20.0722 53.468 20.3988 53.384 20.6228 53.216C20.8935 53.0107 21.0288 52.726 21.0288 52.362C21.0288 52.026 20.9028 51.76 20.6508 51.564C20.4268 51.396 20.0908 51.312 19.6428 51.312H18.0328V53.468ZM23.2697 48.288H23.8297V52.866L27.8897 47.966V54H27.3297V49.45L23.2697 54.35V48.288ZM33.1682 48.288H33.7282V52.866L37.7882 47.966V54H37.2282V49.45L33.1682 54.35V48.288ZM43.6266 52.978V57.22H43.0666V48.288H43.6266V49.282C44.1773 48.5353 44.9239 48.162 45.8666 48.162C46.7066 48.162 47.3786 48.442 47.8826 49.002C48.3866 49.5527 48.6386 50.2527 48.6386 51.102C48.6386 51.97 48.3819 52.698 47.8686 53.286C47.3646 53.8647 46.6879 54.154 45.8386 54.154C45.4093 54.154 45.0219 54.07 44.6766 53.902C44.3313 53.7247 44.0933 53.566 43.9626 53.426C43.8319 53.2767 43.7199 53.1273 43.6266 52.978ZM44.1866 52.908C44.5786 53.384 45.1246 53.622 45.8246 53.622C46.5246 53.622 47.0706 53.384 47.4626 52.908C47.8546 52.432 48.0506 51.83 48.0506 51.102C48.0506 50.346 47.8359 49.758 47.4066 49.338C46.9773 48.9087 46.4546 48.694 45.8386 48.694C45.2319 48.694 44.7046 48.904 44.2566 49.324C43.8179 49.744 43.5986 50.3273 43.5986 51.074C43.5986 51.8113 43.7946 52.4227 44.1866 52.908ZM54.9333 49.282V48.288H55.4933V54H54.9333V52.978C54.42 53.762 53.678 54.154 52.7073 54.154C51.9327 54.154 51.2747 53.8787 50.7333 53.328C50.192 52.7773 49.9213 52.0493 49.9213 51.144C49.9213 50.2573 50.178 49.5387 50.6913 48.988C51.2047 48.4373 51.8767 48.162 52.7073 48.162C53.6593 48.162 54.4013 48.5353 54.9333 49.282ZM52.7353 48.694C52.1287 48.694 51.606 48.9133 51.1673 49.352C50.7287 49.7813 50.5093 50.3647 50.5093 51.102C50.5093 51.7833 50.71 52.376 51.1113 52.88C51.5127 53.3747 52.0587 53.622 52.7493 53.622C53.4307 53.622 53.9673 53.3793 54.3593 52.894C54.7607 52.3993 54.9613 51.802 54.9613 51.102C54.9613 50.3273 54.7327 49.7347 54.2753 49.324C53.818 48.904 53.3047 48.694 52.7353 48.694ZM57.8961 48.288H61.6481V53.468H62.4881V55.54H61.9561V54H57.1401V55.54H56.6081V53.468C57.0748 53.44 57.4248 53.188 57.6581 52.712C57.8168 52.3853 57.8961 51.872 57.8961 51.172V48.288ZM61.0881 53.468V48.82H58.4561V51.34C58.4561 52.348 58.2134 53.0573 57.7281 53.468H61.0881ZM64.1461 57.22L65.4901 54.098L62.7741 48.288H63.4181L65.8121 53.37L67.8981 48.288H68.5421L64.7901 57.22H64.1461ZM69.6584 48.288H70.2184V52.866L74.2784 47.966V54H73.7184V49.45L69.6584 54.35V48.288ZM70.3024 45.978L70.7784 45.74C70.8531 46.0293 71.0071 46.272 71.2404 46.468C71.4831 46.664 71.7771 46.762 72.1224 46.762C72.4677 46.762 72.7571 46.664 72.9904 46.468C73.2331 46.272 73.3917 46.0293 73.4664 45.74L73.9424 45.978C73.6624 46.8553 73.0557 47.294 72.1224 47.294C71.1891 47.294 70.5824 46.8553 70.3024 45.978ZM80.8673 48.89V49.632C80.3259 49.0067 79.6679 48.694 78.8933 48.694C78.2026 48.694 77.6333 48.932 77.1853 49.408C76.7373 49.8747 76.5133 50.4627 76.5133 51.172C76.5133 51.9373 76.7513 52.5393 77.2273 52.978C77.7033 53.4073 78.2493 53.622 78.8653 53.622C79.6213 53.622 80.3119 53.2813 80.9373 52.6V53.356C80.3399 53.888 79.6446 54.154 78.8513 54.154C77.9926 54.154 77.2879 53.874 76.7373 53.314C76.1959 52.7447 75.9253 52.0353 75.9253 51.186C75.9253 50.318 76.1959 49.5993 76.7373 49.03C77.2786 48.4513 77.9973 48.162 78.8933 48.162C79.6306 48.162 80.2886 48.4047 80.8673 48.89ZM81.8666 54L83.6866 51.508C83.2479 51.4893 82.8746 51.3493 82.5666 51.088C82.2493 50.808 82.0906 50.43 82.0906 49.954C82.0906 49.4033 82.2633 48.9833 82.6086 48.694C82.9166 48.4233 83.3693 48.288 83.9666 48.288H85.8706V54H85.3106V51.536H84.3306L82.5386 54H81.8666ZM85.3106 51.004V48.82H83.9666C83.5746 48.82 83.2713 48.904 83.0566 49.072C82.8046 49.2867 82.6786 49.576 82.6786 49.94C82.6786 50.2947 82.7999 50.5653 83.0426 50.752C83.2666 50.92 83.5746 51.004 83.9666 51.004H85.3106Z" fill="black"></path> </svg> 