<?xml version="1.0" encoding="UTF-8"?> <svg xmlns="http://www.w3.org/2000/svg" width="334" height="126" viewBox="0 0 334 126" fill="none"> <g filter="url(#filter0_d)"> <rect x="18" y="32" width="284" height="62" rx="20" fill="#7F6CFC"></rect> </g> <path d="M107.4 72V57.748L94.408 72.84V53.324H96.48V67.632L109.472 52.54V72H107.4ZM122.883 61.22V63.628C121.968 62.4707 120.755 61.892 119.243 61.892C118.104 61.892 117.134 62.284 116.331 63.068C115.528 63.8333 115.127 64.888 115.127 66.232C115.127 67.576 115.528 68.6307 116.331 69.396C117.134 70.1613 118.095 70.544 119.215 70.544C120.708 70.544 121.959 69.9373 122.967 68.724V71.132C121.866 71.9347 120.634 72.336 119.271 72.336C117.46 72.336 115.967 71.7667 114.791 70.628C113.634 69.4707 113.055 68.0147 113.055 66.26C113.055 64.4867 113.643 63.0213 114.819 61.864C115.995 60.688 117.479 60.1 119.271 60.1C120.615 60.1 121.819 60.4733 122.883 61.22ZM134.852 60.38V72H132.836V62.228H128.692V67.464C128.692 68.976 128.394 70.096 127.796 70.824C127.124 71.6453 126.191 72.056 124.996 72.056C124.847 72.056 124.642 72.0373 124.38 72V70.152C124.567 70.1893 124.716 70.208 124.828 70.208C125.482 70.208 125.967 69.956 126.284 69.452C126.546 69.0413 126.676 68.3787 126.676 67.464V60.38H134.852ZM147.29 68.108L148.97 69.032C148.578 69.7787 148.102 70.404 147.542 70.908C146.478 71.86 145.19 72.336 143.678 72.336C142.11 72.336 140.756 71.832 139.618 70.824C138.498 69.7973 137.938 68.276 137.938 66.26C137.938 64.4867 138.442 63.0213 139.45 61.864C140.476 60.688 141.848 60.1 143.566 60.1C145.507 60.1 146.972 60.8093 147.962 62.228C148.746 63.348 149.11 64.804 149.054 66.596H140.01C140.028 67.772 140.392 68.724 141.102 69.452C141.811 70.18 142.679 70.544 143.706 70.544C144.62 70.544 145.414 70.264 146.086 69.704C146.608 69.256 147.01 68.724 147.29 68.108ZM140.15 64.916H146.982C146.814 64.0013 146.412 63.2733 145.778 62.732C145.162 62.172 144.424 61.892 143.566 61.892C142.726 61.892 141.979 62.1813 141.326 62.76C140.691 63.32 140.299 64.0387 140.15 64.916ZM152.986 60.38H161.162V70.152H162.898V75.08H161.05V72H152.202V75.08H150.354V70.152C151.325 70.1333 152.044 69.6293 152.51 68.64C152.828 67.9867 152.986 66.96 152.986 65.56V60.38ZM159.146 70.152V62.228H155.002V66.596C155.002 68.1453 154.536 69.3307 153.602 70.152H159.146ZM174.853 70.6C173.696 71.7573 172.23 72.336 170.457 72.336C168.684 72.336 167.209 71.7573 166.033 70.6C164.876 69.4427 164.297 67.9867 164.297 66.232C164.297 64.4587 164.876 62.9933 166.033 61.836C167.209 60.6787 168.684 60.1 170.457 60.1C172.23 60.1 173.696 60.6787 174.853 61.836C176.029 62.9933 176.617 64.4587 176.617 66.232C176.617 67.9867 176.029 69.4427 174.853 70.6ZM173.341 63.04C172.557 62.2747 171.596 61.892 170.457 61.892C169.318 61.892 168.348 62.284 167.545 63.068C166.761 63.8333 166.369 64.888 166.369 66.232C166.369 67.576 166.77 68.6307 167.573 69.396C168.376 70.1613 169.337 70.544 170.457 70.544C171.577 70.544 172.538 70.1613 173.341 69.396C174.144 68.6307 174.545 67.576 174.545 66.232C174.545 64.8693 174.144 63.8053 173.341 63.04ZM179.709 60.38H184.105C185.169 60.38 185.981 60.604 186.541 61.052C187.213 61.5933 187.549 62.3213 187.549 63.236C187.549 64.244 187.129 65.0187 186.289 65.56C186.867 65.7093 187.353 65.9707 187.745 66.344C188.361 66.9413 188.669 67.688 188.669 68.584C188.669 69.704 188.267 70.5813 187.465 71.216C186.774 71.7387 185.859 72 184.721 72H179.709V60.38ZM181.725 65.112H183.853C184.394 65.112 184.823 65 185.141 64.776C185.514 64.496 185.701 64.0947 185.701 63.572C185.701 63.1053 185.514 62.732 185.141 62.452C184.861 62.2653 184.319 62.172 183.517 62.172H181.725V65.112ZM181.725 70.208H184.217C185.075 70.208 185.682 70.0773 186.037 69.816C186.485 69.48 186.709 69.0507 186.709 68.528C186.709 67.968 186.513 67.5293 186.121 67.212C185.766 66.932 185.159 66.792 184.301 66.792H181.725V70.208ZM200.644 62.032V60.38H202.66V72H200.644V70.376C199.636 71.6827 198.311 72.336 196.668 72.336C195.1 72.336 193.765 71.7947 192.664 70.712C191.563 69.6293 191.012 68.1173 191.012 66.176C191.012 64.272 191.553 62.788 192.636 61.724C193.737 60.6413 195.081 60.1 196.668 60.1C198.348 60.1 199.673 60.744 200.644 62.032ZM196.892 61.892C195.828 61.892 194.923 62.2747 194.176 63.04C193.448 63.7867 193.084 64.832 193.084 66.176C193.084 67.464 193.42 68.5187 194.092 69.34C194.783 70.1427 195.716 70.544 196.892 70.544C198.068 70.544 199.001 70.124 199.692 69.284C200.401 68.444 200.756 67.4173 200.756 66.204C200.756 64.8227 200.364 63.7587 199.58 63.012C198.796 62.2653 197.9 61.892 196.892 61.892ZM206.478 72V60.38H208.494V65.14H213.982V60.38H215.998V72H213.982V66.988H208.494V72H206.478ZM219.795 60.38H221.811V68.052L229.763 59.484V72H227.747V64.244L219.795 72.812V60.38ZM232.232 72L235.844 67.212C235.732 67.212 235.573 67.1933 235.368 67.156C235.181 67.1187 234.901 67.0253 234.528 66.876C234.155 66.7267 233.847 66.5307 233.604 66.288C232.988 65.7093 232.68 64.9347 232.68 63.964C232.68 62.8627 233.025 61.9947 233.716 61.36C234.407 60.7067 235.545 60.38 237.132 60.38H241.192V72H239.176V67.324H237.944L234.64 72H232.232ZM239.176 65.644V62.172H237.3C236.423 62.172 235.816 62.2747 235.48 62.48C234.995 62.7973 234.752 63.2733 234.752 63.908C234.752 64.5427 234.995 65.0093 235.48 65.308C235.835 65.532 236.432 65.644 237.272 65.644H239.176Z" fill="white"></path> <path fill-rule="evenodd" clip-rule="evenodd" d="M50.7273 72.9091C50.7273 73.5116 50.2389 74 49.6364 74C49.0339 74 48.5455 73.5116 48.5455 72.9091C48.5455 72.3066 49.0339 71.8182 49.6364 71.8182C50.2389 71.8182 50.7273 72.3066 50.7273 72.9091ZM55.0909 72.9091C55.0909 73.5116 54.6025 74 54 74C53.3975 74 52.9091 73.5116 52.9091 72.9091C52.9091 72.3066 53.3975 71.8182 54 71.8182C54.6025 71.8182 55.0909 72.3066 55.0909 72.9091ZM58.3636 74C58.9661 74 59.4545 73.5116 59.4545 72.9091C59.4545 72.3066 58.9661 71.8182 58.3636 71.8182C57.7611 71.8182 57.2727 72.3066 57.2727 72.9091C57.2727 73.5116 57.7611 74 58.3636 74Z" fill="white"></path> <path fill-rule="evenodd" clip-rule="evenodd" d="M50.7273 51.0909C50.7273 51.6934 50.2389 52.1818 49.6364 52.1818C49.0339 52.1818 48.5455 51.6934 48.5455 51.0909C48.5455 50.4884 49.0339 50 49.6364 50C50.2389 50 50.7273 50.4884 50.7273 51.0909ZM55.0909 51.0909C55.0909 51.6934 54.6025 52.1818 54 52.1818C53.3975 52.1818 52.9091 51.6934 52.9091 51.0909C52.9091 50.4884 53.3975 50 54 50C54.6025 50 55.0909 50.4884 55.0909 51.0909ZM58.3636 52.1818C58.9661 52.1818 59.4545 51.6934 59.4545 51.0909C59.4545 50.4884 58.9661 50 58.3636 50C57.7611 50 57.2727 50.4884 57.2727 51.0909C57.2727 51.6934 57.7611 52.1818 58.3636 52.1818ZM50.7273 72.9091C50.7273 73.5116 50.2389 74 49.6364 74C49.0339 74 48.5455 73.5116 48.5455 72.9091C48.5455 72.3066 49.0339 71.8182 49.6364 71.8182C50.2389 71.8182 50.7273 72.3066 50.7273 72.9091ZM55.0909 72.9091C55.0909 73.5116 54.6025 74 54 74C53.3975 74 52.9091 73.5116 52.9091 72.9091C52.9091 72.3066 53.3975 71.8182 54 71.8182C54.6025 71.8182 55.0909 72.3066 55.0909 72.9091ZM58.3636 74C58.9661 74 59.4545 73.5116 59.4545 72.9091C59.4545 72.3066 58.9661 71.8182 58.3636 71.8182C57.7611 71.8182 57.2727 72.3066 57.2727 72.9091C57.2727 73.5116 57.7611 74 58.3636 74ZM66 66.3636C66 65.7611 65.5116 65.2727 64.9091 65.2727C64.3066 65.2727 63.8182 65.7611 63.8182 66.3636C63.8182 66.9661 64.3066 67.4545 64.9091 67.4545C65.5116 67.4545 66 66.9661 66 66.3636ZM66 62C66 61.3975 65.5116 60.9091 64.9091 60.9091C64.3066 60.9091 63.8182 61.3975 63.8182 62C63.8182 62.6025 64.3066 63.0909 64.9091 63.0909C65.5116 63.0909 66 62.6025 66 62ZM64.9091 56.5455C65.5116 56.5455 66 57.0339 66 57.6364C66 58.2389 65.5116 58.7273 64.9091 58.7273C64.3066 58.7273 63.8182 58.2389 63.8182 57.6364C63.8182 57.0339 64.3066 56.5455 64.9091 56.5455ZM43.0909 65.2727C43.6934 65.2727 44.1818 65.7611 44.1818 66.3636C44.1818 66.9661 43.6934 67.4545 43.0909 67.4545C42.4884 67.4545 42 66.9661 42 66.3636C42 65.7611 42.4884 65.2727 43.0909 65.2727ZM43.0909 60.9091C43.6934 60.9091 44.1818 61.3975 44.1818 62C44.1818 62.6025 43.6934 63.0909 43.0909 63.0909C42.4884 63.0909 42 62.6025 42 62C42 61.3975 42.4884 60.9091 43.0909 60.9091ZM44.1818 57.6364C44.1818 57.0339 43.6934 56.5455 43.0909 56.5455C42.4884 56.5455 42 57.0339 42 57.6364C42 58.2389 42.4884 58.7273 43.0909 58.7273C43.6934 58.7273 44.1818 58.2389 44.1818 57.6364ZM59.4545 55.4545H48.5455C47.943 55.4545 47.4545 55.943 47.4545 56.5455V67.4545C47.4545 68.057 47.943 68.5455 48.5455 68.5455H59.4545C60.057 68.5455 60.5455 68.057 60.5455 67.4545V56.5455C60.5455 55.943 60.057 55.4545 59.4545 55.4545ZM48.5455 53.2727C46.738 53.2727 45.2727 54.738 45.2727 56.5455V67.4545C45.2727 69.262 46.738 70.7273 48.5455 70.7273H59.4545C61.262 70.7273 62.7273 69.262 62.7273 67.4545V56.5455C62.7273 54.738 61.262 53.2727 59.4545 53.2727H48.5455ZM56.1818 59.8182H51.8182V64.1818H56.1818V59.8182ZM49.6364 57.6364V66.3636H58.3636V57.6364H49.6364Z" fill="white"></path> <defs> <filter id="filter0_d" x="-14" y="0" width="348" height="126" filterUnits="userSpaceOnUse" color-interpolation-filters="sRGB"> <feFlood flood-opacity="0" result="BackgroundImageFix"></feFlood> <feColorMatrix in="SourceAlpha" type="matrix" values="0 0 0 0 0 0 0 0 0 0 0 0 0 0 0 0 0 0 127 0"></feColorMatrix> <feOffset></feOffset> <feGaussianBlur stdDeviation="16"></feGaussianBlur> <feColorMatrix type="matrix" values="0 0 0 0 0.790833 0 0 0 0 0.813583 0 0 0 0 0.866667 0 0 0 0.25 0"></feColorMatrix> <feBlend mode="normal" in2="BackgroundImageFix" result="effect1_dropShadow"></feBlend> <feBlend mode="normal" in="SourceGraphic" in2="effect1_dropShadow" result="shape"></feBlend> </filter> </defs> </svg> 