<?xml version="1.0" encoding="UTF-8"?> <svg xmlns="http://www.w3.org/2000/svg" width="24" height="24" viewBox="0 0 24 24" fill="none"> <path fill-rule="evenodd" clip-rule="evenodd" d="M8.72727 22.9091C8.72727 23.5116 8.23886 24 7.63636 24C7.03387 24 6.54545 23.5116 6.54545 22.9091C6.54545 22.3066 7.03387 21.8182 7.63636 21.8182C8.23886 21.8182 8.72727 22.3066 8.72727 22.9091ZM13.0909 22.9091C13.0909 23.5116 12.6025 24 12 24C11.3975 24 10.9091 23.5116 10.9091 22.9091C10.9091 22.3066 11.3975 21.8182 12 21.8182C12.6025 21.8182 13.0909 22.3066 13.0909 22.9091ZM16.3636 24C16.9661 24 17.4545 23.5116 17.4545 22.9091C17.4545 22.3066 16.9661 21.8182 16.3636 21.8182C15.7611 21.8182 15.2727 22.3066 15.2727 22.9091C15.2727 23.5116 15.7611 24 16.3636 24Z" fill="#CAD6F3"></path> <path fill-rule="evenodd" clip-rule="evenodd" d="M8.72727 1.09091C8.72727 1.6934 8.23886 2.18182 7.63636 2.18182C7.03387 2.18182 6.54545 1.6934 6.54545 1.09091C6.54545 0.488417 7.03387 0 7.63636 0C8.23886 0 8.72727 0.488417 8.72727 1.09091ZM13.0909 1.09091C13.0909 1.6934 12.6025 2.18182 12 2.18182C11.3975 2.18182 10.9091 1.6934 10.9091 1.09091C10.9091 0.488417 11.3975 0 12 0C12.6025 0 13.0909 0.488417 13.0909 1.09091ZM16.3636 2.18182C16.9661 2.18182 17.4545 1.6934 17.4545 1.09091C17.4545 0.488417 16.9661 0 16.3636 0C15.7611 0 15.2727 0.488417 15.2727 1.09091C15.2727 1.6934 15.7611 2.18182 16.3636 2.18182ZM8.72727 22.9091C8.72727 23.5116 8.23886 24 7.63636 24C7.03387 24 6.54545 23.5116 6.54545 22.9091C6.54545 22.3066 7.03387 21.8182 7.63636 21.8182C8.23886 21.8182 8.72727 22.3066 8.72727 22.9091ZM13.0909 22.9091C13.0909 23.5116 12.6025 24 12 24C11.3975 24 10.9091 23.5116 10.9091 22.9091C10.9091 22.3066 11.3975 21.8182 12 21.8182C12.6025 21.8182 13.0909 22.3066 13.0909 22.9091ZM16.3636 24C16.9661 24 17.4545 23.5116 17.4545 22.9091C17.4545 22.3066 16.9661 21.8182 16.3636 21.8182C15.7611 21.8182 15.2727 22.3066 15.2727 22.9091C15.2727 23.5116 15.7611 24 16.3636 24ZM24 16.3636C24 15.7611 23.5116 15.2727 22.9091 15.2727C22.3066 15.2727 21.8182 15.7611 21.8182 16.3636C21.8182 16.9661 22.3066 17.4545 22.9091 17.4545C23.5116 17.4545 24 16.9661 24 16.3636ZM24 12C24 11.3975 23.5116 10.9091 22.9091 10.9091C22.3066 10.9091 21.8182 11.3975 21.8182 12C21.8182 12.6025 22.3066 13.0909 22.9091 13.0909C23.5116 13.0909 24 12.6025 24 12ZM22.9091 6.54545C23.5116 6.54545 24 7.03387 24 7.63636C24 8.23886 23.5116 8.72727 22.9091 8.72727C22.3066 8.72727 21.8182 8.23886 21.8182 7.63636C21.8182 7.03387 22.3066 6.54545 22.9091 6.54545ZM1.09091 15.2727C1.6934 15.2727 2.18182 15.7611 2.18182 16.3636C2.18182 16.9661 1.6934 17.4545 1.09091 17.4545C0.488417 17.4545 0 16.9661 0 16.3636C0 15.7611 0.488417 15.2727 1.09091 15.2727ZM1.09091 10.9091C1.6934 10.9091 2.18182 11.3975 2.18182 12C2.18182 12.6025 1.6934 13.0909 1.09091 13.0909C0.488417 13.0909 0 12.6025 0 12C0 11.3975 0.488417 10.9091 1.09091 10.9091ZM2.18182 7.63636C2.18182 7.03387 1.6934 6.54545 1.09091 6.54545C0.488417 6.54545 0 7.03387 0 7.63636C0 8.23886 0.488417 8.72727 1.09091 8.72727C1.6934 8.72727 2.18182 8.23886 2.18182 7.63636ZM17.4545 5.45455H6.54545C5.94296 5.45455 5.45455 5.94296 5.45455 6.54545V17.4545C5.45455 18.057 5.94296 18.5455 6.54545 18.5455H17.4545C18.057 18.5455 18.5455 18.057 18.5455 17.4545V6.54545C18.5455 5.94296 18.057 5.45455 17.4545 5.45455ZM6.54545 3.27273C4.73798 3.27273 3.27273 4.73798 3.27273 6.54545V17.4545C3.27273 19.262 4.73798 20.7273 6.54545 20.7273H17.4545C19.262 20.7273 20.7273 19.262 20.7273 17.4545V6.54545C20.7273 4.73798 19.262 3.27273 17.4545 3.27273H6.54545ZM14.1818 9.81818H9.81818V14.1818H14.1818V9.81818ZM7.63636 7.63636V16.3636H16.3636V7.63636H7.63636Z" fill="#CAD6F3"></path> </svg> 