<?xml version="1.0" encoding="UTF-8"?> <svg xmlns="http://www.w3.org/2000/svg" width="1541" height="518" viewBox="0 0 1541 518" fill="none"> <g filter="url(#filter0_d)"> <rect x="32" y="32" width="1477" height="454" rx="30" fill="white"></rect> </g> <path d="M91.264 75.656V83.784H99.776V75.656H104.704V97H99.776V87.944H91.264V97H86.336V75.656H91.264ZM122.743 84.552C124.173 85.9813 124.887 87.752 124.887 89.864C124.887 91.976 124.173 93.7467 122.743 95.176C121.207 96.712 119.127 97.48 116.503 97.48C113.879 97.48 111.799 96.712 110.263 95.176C108.834 93.7467 108.119 91.976 108.119 89.864C108.119 87.752 108.834 85.9813 110.263 84.552C111.799 83.016 113.879 82.248 116.503 82.248C119.127 82.248 121.207 83.016 122.743 84.552ZM119.095 87.176C118.413 86.4933 117.549 86.152 116.503 86.152C115.458 86.152 114.594 86.4933 113.911 87.176C113.207 87.88 112.855 88.776 112.855 89.864C112.855 90.952 113.207 91.848 113.911 92.552C114.594 93.2347 115.469 93.576 116.535 93.576C117.559 93.576 118.413 93.2347 119.095 92.552C119.799 91.848 120.151 90.952 120.151 89.864C120.151 88.776 119.799 87.88 119.095 87.176ZM126.545 97L130.641 91.848C129.659 91.6773 128.838 91.2613 128.177 90.6C127.451 89.896 127.089 88.936 127.089 87.72C127.089 86.248 127.526 85.0747 128.401 84.2C129.403 83.2187 130.971 82.728 133.105 82.728H139.921V97H135.313V92.232H134.865L131.537 97H126.545ZM135.313 89.224V85.992H133.681C133.019 85.992 132.539 86.1093 132.241 86.344C131.878 86.6427 131.697 87.08 131.697 87.656C131.697 88.104 131.846 88.4773 132.145 88.776C132.486 89.0747 133.03 89.224 133.777 89.224H135.313ZM155.223 73.64H159.255C159.105 75.1973 158.54 76.4453 157.559 77.384C156.855 78.088 155.703 78.664 154.103 79.112L152.503 79.56C150.54 80.1147 149.249 80.6693 148.631 81.224C147.777 82.0133 147.287 83.016 147.159 84.232H147.319C148.513 82.9307 150.145 82.28 152.215 82.28C154.519 82.28 156.364 82.952 157.751 84.296C159.159 85.6613 159.863 87.4107 159.863 89.544C159.863 91.8693 159.095 93.7787 157.559 95.272C156.065 96.744 154.039 97.48 151.479 97.48C149.025 97.48 147.063 96.776 145.591 95.368C143.905 93.704 143.063 91.2507 143.063 88.008C143.063 83.592 144.001 80.3813 145.879 78.376C146.988 77.2027 148.695 76.36 150.999 75.848L151.863 75.656C153.527 75.2933 154.529 74.92 154.871 74.536C155.105 74.28 155.223 73.9813 155.223 73.64ZM151.447 86.184C150.423 86.184 149.569 86.5253 148.887 87.208C148.161 87.9333 147.799 88.8293 147.799 89.896C147.799 90.92 148.151 91.784 148.855 92.488C149.537 93.1707 150.423 93.512 151.511 93.512C152.428 93.512 153.228 93.2027 153.911 92.584C154.721 91.8373 155.127 90.8987 155.127 89.768C155.127 88.8293 154.775 87.9867 154.071 87.24C153.367 86.536 152.492 86.184 151.447 86.184ZM167.338 95.368V104.328H162.73V82.728H167.338V84.424C168.447 82.9733 169.93 82.248 171.786 82.248C173.812 82.248 175.498 82.92 176.842 84.264C178.271 85.6933 178.986 87.5493 178.986 89.832C178.986 92.136 178.228 94.0453 176.714 95.56C175.434 96.84 173.823 97.48 171.882 97.48C169.855 97.48 168.34 96.776 167.338 95.368ZM170.666 86.216C169.663 86.216 168.81 86.568 168.106 87.272C167.38 87.9973 167.018 88.872 167.018 89.896C167.018 90.856 167.359 91.6987 168.042 92.424C168.767 93.1493 169.642 93.512 170.666 93.512C171.604 93.512 172.426 93.1813 173.13 92.52C173.876 91.816 174.25 90.9093 174.25 89.8C174.25 88.7547 173.887 87.8907 173.162 87.208C172.458 86.5467 171.626 86.216 170.666 86.216ZM186.463 87.624H189.855C191.54 87.624 192.831 88.072 193.727 88.968C194.495 89.736 194.879 90.8133 194.879 92.2C194.879 93.736 194.452 94.92 193.599 95.752C192.745 96.584 191.433 97 189.663 97H181.855V82.728H186.463V87.624ZM186.463 93.736H188.351C189.012 93.736 189.481 93.608 189.759 93.352C190.057 93.096 190.207 92.7333 190.207 92.264C190.207 91.816 190.057 91.4747 189.759 91.24C189.46 91.0053 189.001 90.888 188.383 90.888H186.463V93.736ZM210.517 97V79.816H207.477V75.656H215.445V97H210.517ZM234.776 75.656V89.064H237.336V92.968H234.776V97H230.04V92.968H219.608V90.152L229.016 75.656H234.776ZM224.792 89.064H230.04V80.776L224.792 89.064ZM264.024 76.808V80.648C262.275 79.0693 260.344 78.28 258.232 78.28C255.928 78.28 254.051 79.048 252.6 80.584C251.171 82.0987 250.456 84.04 250.456 86.408C250.456 88.6907 251.192 90.6 252.664 92.136C254.136 93.6507 256.003 94.408 258.264 94.408C260.376 94.408 262.296 93.5867 264.024 91.944V95.816C262.232 96.8827 260.28 97.416 258.168 97.416C255.203 97.416 252.686 96.4347 250.616 94.472C248.334 92.3387 247.192 89.6507 247.192 86.408C247.192 82.9947 248.334 80.2107 250.616 78.056C252.579 76.2 255.15 75.272 258.328 75.272C260.526 75.272 262.424 75.784 264.024 76.808ZM266.492 104.328L271.452 94.888L265.692 83.528H269.468L273.308 91.4L277.212 83.528H280.732L270.012 104.328H266.492ZM293.098 74.28H296.298C296.063 75.3893 295.572 76.3493 294.826 77.16C294.079 77.9707 293.162 78.5253 292.074 78.824L289.962 79.4C289.407 79.5493 288.98 79.6773 288.682 79.784C288.383 79.8907 288.01 80.0933 287.562 80.392C287.135 80.6693 286.772 81.0107 286.474 81.416C285.77 82.3547 285.396 83.5707 285.354 85.064H285.386C286.324 83.8053 287.85 83.176 289.962 83.176C291.86 83.176 293.428 83.816 294.666 85.096C295.967 86.44 296.618 88.1467 296.618 90.216C296.618 92.3067 295.924 94.0347 294.538 95.4C293.172 96.744 291.466 97.416 289.418 97.416C287.37 97.416 285.727 96.8187 284.49 95.624C283.807 94.984 283.284 94.1947 282.922 93.256C282.559 92.3173 282.346 91.5493 282.282 90.952C282.239 90.3333 282.218 89.5867 282.218 88.712C282.218 84.5307 282.9 81.448 284.266 79.464C285.29 77.9493 286.634 76.9893 288.298 76.584L290.538 76.04C292.01 75.6773 292.863 75.0907 293.098 74.28ZM286.506 93.448C287.231 94.216 288.202 94.6 289.418 94.6C290.634 94.6 291.604 94.216 292.33 93.448C293.055 92.6587 293.418 91.6133 293.418 90.312C293.418 88.8827 293.023 87.8053 292.234 87.08C291.466 86.3547 290.527 85.992 289.418 85.992C288.308 85.992 287.359 86.3547 286.57 87.08C285.802 87.8053 285.418 88.8827 285.418 90.312C285.418 91.6133 285.78 92.6587 286.506 93.448ZM310.066 74.28H313.266C313.032 75.3893 312.541 76.3493 311.794 77.16C311.048 77.9707 310.13 78.5253 309.042 78.824L306.93 79.4C306.376 79.5493 305.949 79.6773 305.65 79.784C305.352 79.8907 304.978 80.0933 304.53 80.392C304.104 80.6693 303.741 81.0107 303.442 81.416C302.738 82.3547 302.365 83.5707 302.322 85.064H302.354C303.293 83.8053 304.818 83.176 306.93 83.176C308.829 83.176 310.397 83.816 311.634 85.096C312.936 86.44 313.586 88.1467 313.586 90.216C313.586 92.3067 312.893 94.0347 311.506 95.4C310.141 96.744 308.434 97.416 306.386 97.416C304.338 97.416 302.696 96.8187 301.458 95.624C300.776 94.984 300.253 94.1947 299.89 93.256C299.528 92.3173 299.314 91.5493 299.25 90.952C299.208 90.3333 299.186 89.5867 299.186 88.712C299.186 84.5307 299.869 81.448 301.234 79.464C302.258 77.9493 303.602 76.9893 305.266 76.584L307.506 76.04C308.978 75.6773 309.832 75.0907 310.066 74.28ZM303.474 93.448C304.2 94.216 305.17 94.6 306.386 94.6C307.602 94.6 308.573 94.216 309.298 93.448C310.024 92.6587 310.386 91.6133 310.386 90.312C310.386 88.8827 309.992 87.8053 309.202 87.08C308.434 86.3547 307.496 85.992 306.386 85.992C305.277 85.992 304.328 86.3547 303.538 87.08C302.77 87.8053 302.386 88.8827 302.386 90.312C302.386 91.6133 302.749 92.6587 303.474 93.448ZM318.203 85.192C319.59 83.848 321.307 83.176 323.355 83.176C325.403 83.176 327.11 83.848 328.475 85.192C329.862 86.5147 330.555 88.2107 330.555 90.28C330.555 92.328 329.862 94.0347 328.475 95.4C327.11 96.744 325.403 97.416 323.355 97.416C321.307 97.416 319.59 96.744 318.203 95.4C316.838 94.0347 316.155 92.328 316.155 90.28C316.155 88.2107 316.838 86.5147 318.203 85.192ZM320.443 93.448C321.168 94.216 322.139 94.6 323.355 94.6C324.571 94.6 325.542 94.216 326.267 93.448C326.992 92.6587 327.355 91.6133 327.355 90.312C327.355 88.8827 326.96 87.8053 326.171 87.08C325.403 86.3547 324.464 85.992 323.355 85.992C322.246 85.992 321.296 86.3547 320.507 87.08C319.739 87.8053 319.355 88.8827 319.355 90.312C319.355 91.6133 319.718 92.6587 320.443 93.448ZM343.108 86.408H339.172V97H336.036V86.408H332.1V83.528H343.108V86.408ZM354.871 85.096V83.528H358.007V97H354.871V95.592C353.826 96.808 352.482 97.416 350.839 97.416C348.855 97.416 347.266 96.712 346.071 95.304C344.898 93.896 344.311 92.2107 344.311 90.248C344.311 88.1147 344.941 86.408 346.199 85.128C347.479 83.8267 349.037 83.176 350.871 83.176C352.557 83.176 353.89 83.816 354.871 85.096ZM351.255 85.992C350.146 85.992 349.239 86.408 348.535 87.24C347.853 88.072 347.511 89.096 347.511 90.312C347.511 91.5067 347.853 92.52 348.535 93.352C349.239 94.184 350.146 94.6 351.255 94.6C352.322 94.6 353.218 94.2267 353.943 93.48C354.69 92.7333 355.063 91.688 355.063 90.344C355.063 88.9573 354.69 87.8907 353.943 87.144C353.218 86.376 352.322 85.992 351.255 85.992Z" fill="#232323"></path> <path d="M533.116 74.3285L524.24 67.4837C523.83 67.1674 523.417 67 523.074 67C522.411 67 522 67.6 522 68.6044V83.398C522 84.4011 522.41 85 523.072 85C523.416 85 523.822 84.8324 524.233 84.5152L533.113 77.6706C533.684 77.2297 534 76.6364 534 75.9992C534 75.3625 533.688 74.7693 533.116 74.3285Z" fill="black"></path> <path d="M488.884 77.6715L497.76 84.5163C498.17 84.8326 498.583 85 498.926 85C499.589 85 500 84.4 500 83.3956V68.602C500 67.5989 499.59 67 498.928 67C498.584 67 498.178 67.1676 497.767 67.4848L488.887 74.3294C488.316 74.7703 488 75.3636 488 76.0008C488 76.6375 488.312 77.2307 488.884 77.6715Z" fill="black"></path> <path d="M86.24 156.324H99.96V175H97.104V159.012H89.096V175H86.24V156.324ZM103.947 175V163.212H106.691V167.58H111.563V163.212H114.307V175H111.563V170.1H106.691V175H103.947Z" fill="black"></path> <path d="M91.448 227V210.284H88.312L89.404 208.324H93.52V227H91.448Z" fill="black"></path> <path d="M94.836 269.284C96.7213 270.124 97.664 271.645 97.664 273.848C97.664 275.397 97.16 276.704 96.152 277.768C95.1627 278.813 93.7627 279.336 91.952 279.336C90.1413 279.336 88.732 278.813 87.724 277.768C86.7347 276.704 86.24 275.397 86.24 273.848C86.24 271.645 87.1827 270.124 89.068 269.284C87.556 268.407 86.8 267.044 86.8 265.196C86.8 263.777 87.2573 262.564 88.172 261.556C89.0867 260.529 90.3467 260.016 91.952 260.016C93.5573 260.016 94.8173 260.529 95.732 261.556C96.6467 262.564 97.104 263.777 97.104 265.196C97.104 267.044 96.348 268.407 94.836 269.284ZM89.656 267.52C90.272 268.136 91.0373 268.444 91.952 268.444C92.8667 268.444 93.6227 268.136 94.22 267.52C94.836 266.904 95.144 266.139 95.144 265.224C95.144 264.235 94.8267 263.441 94.192 262.844C93.576 262.228 92.8293 261.92 91.952 261.92C91.0747 261.92 90.3187 262.228 89.684 262.844C89.068 263.441 88.76 264.235 88.76 265.224C88.76 266.139 89.0587 266.904 89.656 267.52ZM89.32 276.424C89.992 277.096 90.8693 277.432 91.952 277.432C93.0347 277.432 93.912 277.096 94.584 276.424C95.256 275.733 95.592 274.856 95.592 273.792C95.592 272.747 95.2467 271.897 94.556 271.244C93.884 270.572 93.016 270.236 91.952 270.236C90.888 270.236 90.0107 270.572 89.32 271.244C88.648 271.897 88.312 272.747 88.312 273.792C88.312 274.856 88.648 275.733 89.32 276.424Z" fill="black"></path> <path d="M91.448 331V314.284H88.312L89.404 312.324H93.52V331H91.448ZM109.826 312.324V314.228H103.834L102.63 318.26C102.947 318.185 103.339 318.148 103.806 318.148C105.654 318.148 107.138 318.764 108.258 319.996C109.397 321.228 109.966 322.768 109.966 324.616C109.966 326.632 109.303 328.256 107.978 329.488C106.671 330.72 105.066 331.336 103.162 331.336C101.557 331.336 100.166 330.851 98.9901 329.88C98.3181 329.301 97.7767 328.667 97.3661 327.976L99.0181 326.8C99.2981 327.36 99.7181 327.864 100.278 328.312C101.193 329.059 102.201 329.432 103.302 329.432C104.609 329.432 105.701 328.965 106.578 328.032C107.455 327.099 107.894 325.969 107.894 324.644C107.894 323.3 107.455 322.199 106.578 321.34C105.719 320.481 104.627 320.052 103.302 320.052C102.126 320.052 100.922 320.481 99.6901 321.34L102.406 312.324H109.826Z" fill="black"></path> <path d="M97.468 383H85.4L92.204 375.132C93.3613 373.769 94.0893 372.864 94.388 372.416C95.0787 371.427 95.424 370.475 95.424 369.56C95.424 368.496 95.0787 367.628 94.388 366.956C93.6973 366.265 92.8013 365.92 91.7 365.92C90.356 365.92 89.32 366.471 88.592 367.572C88.2 368.169 87.9947 368.907 87.976 369.784H85.904C85.9787 368.197 86.4453 366.909 87.304 365.92C88.424 364.651 89.8987 364.016 91.728 364.016C93.3893 364.016 94.7613 364.548 95.844 365.612C96.9453 366.657 97.496 367.983 97.496 369.588C97.496 370.839 97.0013 372.173 96.012 373.592C95.508 374.283 94.6587 375.319 93.464 376.7L89.572 381.096H97.468V383ZM112.316 383H100.248L107.052 375.132C108.209 373.769 108.937 372.864 109.236 372.416C109.926 371.427 110.272 370.475 110.272 369.56C110.272 368.496 109.926 367.628 109.236 366.956C108.545 366.265 107.649 365.92 106.548 365.92C105.204 365.92 104.168 366.471 103.44 367.572C103.048 368.169 102.842 368.907 102.824 369.784H100.752C100.826 368.197 101.293 366.909 102.152 365.92C103.272 364.651 104.746 364.016 106.576 364.016C108.237 364.016 109.609 364.548 110.692 365.612C111.793 366.657 112.344 367.983 112.344 369.588C112.344 370.839 111.849 372.173 110.86 373.592C110.356 374.283 109.506 375.319 108.312 376.7L104.42 381.096H112.316V383Z" fill="black"></path> <path d="M97.468 435H85.4L92.204 427.132C93.3613 425.769 94.0893 424.864 94.388 424.416C95.0787 423.427 95.424 422.475 95.424 421.56C95.424 420.496 95.0787 419.628 94.388 418.956C93.6973 418.265 92.8013 417.92 91.7 417.92C90.356 417.92 89.32 418.471 88.592 419.572C88.2 420.169 87.9947 420.907 87.976 421.784H85.904C85.9787 420.197 86.4453 418.909 87.304 417.92C88.424 416.651 89.8987 416.016 91.728 416.016C93.3893 416.016 94.7613 416.548 95.844 417.612C96.9453 418.657 97.496 419.983 97.496 421.588C97.496 422.839 97.0013 424.173 96.012 425.592C95.508 426.283 94.6587 427.319 93.464 428.7L89.572 433.096H97.468V435ZM105.371 435.448L103.803 434.3L108.087 428.336C107.546 428.504 106.995 428.588 106.435 428.588C104.662 428.588 103.206 428 102.067 426.824C100.947 425.648 100.387 424.183 100.387 422.428C100.387 420.561 100.984 419.031 102.179 417.836C103.392 416.623 104.932 416.016 106.799 416.016C108.18 416.016 109.375 416.352 110.383 417.024C111.41 417.677 112.147 418.48 112.595 419.432C113.043 420.365 113.267 421.345 113.267 422.372C113.267 423.809 112.754 425.237 111.727 426.656L105.371 435.448ZM106.827 417.92C105.558 417.92 104.512 418.349 103.691 419.208C102.87 420.048 102.459 421.103 102.459 422.372C102.459 423.623 102.87 424.659 103.691 425.48C104.531 426.283 105.586 426.684 106.855 426.684C108.124 426.684 109.16 426.273 109.963 425.452C110.784 424.631 111.195 423.604 111.195 422.372C111.195 421.103 110.784 420.048 109.963 419.208C109.16 418.349 108.115 417.92 106.827 417.92Z" fill="black"></path> <path d="M163.468 227H151.4L158.204 219.132C159.361 217.769 160.089 216.864 160.388 216.416C161.079 215.427 161.424 214.475 161.424 213.56C161.424 212.496 161.079 211.628 160.388 210.956C159.697 210.265 158.801 209.92 157.7 209.92C156.356 209.92 155.32 210.471 154.592 211.572C154.2 212.169 153.995 212.907 153.976 213.784H151.904C151.979 212.197 152.445 210.909 153.304 209.92C154.424 208.651 155.899 208.016 157.728 208.016C159.389 208.016 160.761 208.548 161.844 209.612C162.945 210.657 163.496 211.983 163.496 213.588C163.496 214.839 163.001 216.173 162.012 217.592C161.508 218.283 160.659 219.319 159.464 220.7L155.572 225.096H163.468V227Z" fill="black"></path> <path d="M156.496 279.448L154.928 278.3L159.212 272.336C158.671 272.504 158.12 272.588 157.56 272.588C155.787 272.588 154.331 272 153.192 270.824C152.072 269.648 151.512 268.183 151.512 266.428C151.512 264.561 152.109 263.031 153.304 261.836C154.517 260.623 156.057 260.016 157.924 260.016C159.305 260.016 160.5 260.352 161.508 261.024C162.535 261.677 163.272 262.48 163.72 263.432C164.168 264.365 164.392 265.345 164.392 266.372C164.392 267.809 163.879 269.237 162.852 270.656L156.496 279.448ZM157.952 261.92C156.683 261.92 155.637 262.349 154.816 263.208C153.995 264.048 153.584 265.103 153.584 266.372C153.584 267.623 153.995 268.659 154.816 269.48C155.656 270.283 156.711 270.684 157.98 270.684C159.249 270.684 160.285 270.273 161.088 269.452C161.909 268.631 162.32 267.604 162.32 266.372C162.32 265.103 161.909 264.048 161.088 263.208C160.285 262.349 159.24 261.92 157.952 261.92Z" fill="black"></path> <path d="M163.468 383H151.4L158.204 375.132C159.361 373.769 160.089 372.864 160.388 372.416C161.079 371.427 161.424 370.475 161.424 369.56C161.424 368.496 161.079 367.628 160.388 366.956C159.697 366.265 158.801 365.92 157.7 365.92C156.356 365.92 155.32 366.471 154.592 367.572C154.2 368.169 153.995 368.907 153.976 369.784H151.904C151.979 368.197 152.445 366.909 153.304 365.92C154.424 364.651 155.899 364.016 157.728 364.016C159.389 364.016 160.761 364.548 161.844 365.612C162.945 366.657 163.496 367.983 163.496 369.588C163.496 370.839 163.001 372.173 162.012 373.592C161.508 374.283 160.659 375.319 159.464 376.7L155.572 381.096H163.468V383ZM169.328 368.944H167.256C167.312 367.955 167.601 367.04 168.124 366.2C169.057 364.744 170.504 364.016 172.464 364.016C174.125 364.016 175.413 364.511 176.328 365.5C177.261 366.489 177.728 367.675 177.728 369.056C177.728 371.016 176.925 372.397 175.32 373.2C175.562 373.293 175.796 373.424 176.02 373.592C176.262 373.741 176.552 373.984 176.888 374.32C177.224 374.656 177.494 375.123 177.7 375.72C177.905 376.299 178.008 376.961 178.008 377.708C178.008 379.407 177.457 380.769 176.356 381.796C175.273 382.823 173.91 383.336 172.268 383.336C171.166 383.336 170.14 383.084 169.188 382.58C168.236 382.057 167.526 381.236 167.06 380.116C166.817 379.519 166.677 378.865 166.64 378.156H168.712C168.805 378.921 169.029 379.547 169.384 380.032C170.018 380.965 170.98 381.432 172.268 381.432C173.294 381.432 174.162 381.068 174.872 380.34C175.581 379.593 175.936 378.697 175.936 377.652C175.936 376.121 175.32 375.076 174.088 374.516C173.472 374.217 172.762 374.087 171.96 374.124V372.276C172.762 372.332 173.472 372.201 174.088 371.884C175.133 371.343 175.656 370.419 175.656 369.112C175.656 368.197 175.394 367.441 174.872 366.844C174.349 366.228 173.546 365.92 172.464 365.92C171.418 365.92 170.616 366.275 170.056 366.984C169.626 367.544 169.384 368.197 169.328 368.944Z" fill="black"></path> <path d="M154.48 420.944H152.408C152.464 419.955 152.753 419.04 153.276 418.2C154.209 416.744 155.656 416.016 157.616 416.016C159.277 416.016 160.565 416.511 161.48 417.5C162.413 418.489 162.88 419.675 162.88 421.056C162.88 423.016 162.077 424.397 160.472 425.2C160.715 425.293 160.948 425.424 161.172 425.592C161.415 425.741 161.704 425.984 162.04 426.32C162.376 426.656 162.647 427.123 162.852 427.72C163.057 428.299 163.16 428.961 163.16 429.708C163.16 431.407 162.609 432.769 161.508 433.796C160.425 434.823 159.063 435.336 157.42 435.336C156.319 435.336 155.292 435.084 154.34 434.58C153.388 434.057 152.679 433.236 152.212 432.116C151.969 431.519 151.829 430.865 151.792 430.156H153.864C153.957 430.921 154.181 431.547 154.536 432.032C155.171 432.965 156.132 433.432 157.42 433.432C158.447 433.432 159.315 433.068 160.024 432.34C160.733 431.593 161.088 430.697 161.088 429.652C161.088 428.121 160.472 427.076 159.24 426.516C158.624 426.217 157.915 426.087 157.112 426.124V424.276C157.915 424.332 158.624 424.201 159.24 423.884C160.285 423.343 160.808 422.419 160.808 421.112C160.808 420.197 160.547 419.441 160.024 418.844C159.501 418.228 158.699 417.92 157.616 417.92C156.571 417.92 155.768 418.275 155.208 418.984C154.779 419.544 154.536 420.197 154.48 420.944ZM178.654 432.536C177.366 434.403 175.77 435.336 173.866 435.336C171.962 435.336 170.366 434.403 169.078 432.536C167.827 430.725 167.202 428.439 167.202 425.676C167.202 422.913 167.827 420.627 169.078 418.816C170.366 416.949 171.962 416.016 173.866 416.016C175.77 416.016 177.366 416.949 178.654 418.816C179.905 420.627 180.53 422.913 180.53 425.676C180.53 428.439 179.905 430.725 178.654 432.536ZM177.086 419.992C176.227 418.611 175.154 417.92 173.866 417.92C172.578 417.92 171.505 418.611 170.646 419.992C169.731 421.448 169.274 423.343 169.274 425.676C169.274 428.009 169.731 429.904 170.646 431.36C171.505 432.741 172.578 433.432 173.866 433.432C175.154 433.432 176.227 432.741 177.086 431.36C178.001 429.904 178.458 428.009 178.458 425.676C178.458 423.343 178.001 421.448 177.086 419.992Z" fill="black"></path> <path d="M220.48 212.944H218.408C218.464 211.955 218.753 211.04 219.276 210.2C220.209 208.744 221.656 208.016 223.616 208.016C225.277 208.016 226.565 208.511 227.48 209.5C228.413 210.489 228.88 211.675 228.88 213.056C228.88 215.016 228.077 216.397 226.472 217.2C226.715 217.293 226.948 217.424 227.172 217.592C227.415 217.741 227.704 217.984 228.04 218.32C228.376 218.656 228.647 219.123 228.852 219.72C229.057 220.299 229.16 220.961 229.16 221.708C229.16 223.407 228.609 224.769 227.508 225.796C226.425 226.823 225.063 227.336 223.42 227.336C222.319 227.336 221.292 227.084 220.34 226.58C219.388 226.057 218.679 225.236 218.212 224.116C217.969 223.519 217.829 222.865 217.792 222.156H219.864C219.957 222.921 220.181 223.547 220.536 224.032C221.171 224.965 222.132 225.432 223.42 225.432C224.447 225.432 225.315 225.068 226.024 224.34C226.733 223.593 227.088 222.697 227.088 221.652C227.088 220.121 226.472 219.076 225.24 218.516C224.624 218.217 223.915 218.087 223.112 218.124V216.276C223.915 216.332 224.624 216.201 225.24 215.884C226.285 215.343 226.808 214.419 226.808 213.112C226.808 212.197 226.547 211.441 226.024 210.844C225.501 210.228 224.699 209.92 223.616 209.92C222.571 209.92 221.768 210.275 221.208 210.984C220.779 211.544 220.536 212.197 220.48 212.944Z" fill="black"></path> <path d="M223.448 279V262.284H220.312L221.404 260.324H225.52V279H223.448ZM242.877 276.536C241.589 278.403 239.993 279.336 238.089 279.336C236.185 279.336 234.589 278.403 233.301 276.536C232.05 274.725 231.425 272.439 231.425 269.676C231.425 266.913 232.05 264.627 233.301 262.816C234.589 260.949 236.185 260.016 238.089 260.016C239.993 260.016 241.589 260.949 242.877 262.816C244.127 264.627 244.753 266.913 244.753 269.676C244.753 272.439 244.127 274.725 242.877 276.536ZM241.309 263.992C240.45 262.611 239.377 261.92 238.089 261.92C236.801 261.92 235.727 262.611 234.869 263.992C233.954 265.448 233.497 267.343 233.497 269.676C233.497 272.009 233.954 273.904 234.869 275.36C235.727 276.741 236.801 277.432 238.089 277.432C239.377 277.432 240.45 276.741 241.309 275.36C242.223 273.904 242.681 272.009 242.681 269.676C242.681 267.343 242.223 265.448 241.309 263.992Z" fill="black"></path> <path d="M223.448 331V314.284H220.312L221.404 312.324H225.52V331H223.448ZM230.226 330.356L240.838 314.228H230.618V312.324H244.338L231.85 331.448L230.226 330.356Z" fill="black"></path> <path d="M229.468 383H217.4L224.204 375.132C225.361 373.769 226.089 372.864 226.388 372.416C227.079 371.427 227.424 370.475 227.424 369.56C227.424 368.496 227.079 367.628 226.388 366.956C225.697 366.265 224.801 365.92 223.7 365.92C222.356 365.92 221.32 366.471 220.592 367.572C220.2 368.169 219.995 368.907 219.976 369.784H217.904C217.979 368.197 218.445 366.909 219.304 365.92C220.424 364.651 221.899 364.016 223.728 364.016C225.389 364.016 226.761 364.548 227.844 365.612C228.945 366.657 229.496 367.983 229.496 369.588C229.496 370.839 229.001 372.173 228.012 373.592C227.508 374.283 226.659 375.319 225.464 376.7L221.572 381.096H229.468V383ZM242.728 363.288V377.568H245.024V379.472H242.728V383H240.656V379.472H231.08L242.728 363.288ZM234.748 377.568H240.656V369.308L234.748 377.568Z" fill="black"></path> <path d="M220.48 420.944H218.408C218.464 419.955 218.753 419.04 219.276 418.2C220.209 416.744 221.656 416.016 223.616 416.016C225.277 416.016 226.565 416.511 227.48 417.5C228.413 418.489 228.88 419.675 228.88 421.056C228.88 423.016 228.077 424.397 226.472 425.2C226.715 425.293 226.948 425.424 227.172 425.592C227.415 425.741 227.704 425.984 228.04 426.32C228.376 426.656 228.647 427.123 228.852 427.72C229.057 428.299 229.16 428.961 229.16 429.708C229.16 431.407 228.609 432.769 227.508 433.796C226.425 434.823 225.063 435.336 223.42 435.336C222.319 435.336 221.292 435.084 220.34 434.58C219.388 434.057 218.679 433.236 218.212 432.116C217.969 431.519 217.829 430.865 217.792 430.156H219.864C219.957 430.921 220.181 431.547 220.536 432.032C221.171 432.965 222.132 433.432 223.42 433.432C224.447 433.432 225.315 433.068 226.024 432.34C226.733 431.593 227.088 430.697 227.088 429.652C227.088 428.121 226.472 427.076 225.24 426.516C224.624 426.217 223.915 426.087 223.112 426.124V424.276C223.915 424.332 224.624 424.201 225.24 423.884C226.285 423.343 226.808 422.419 226.808 421.112C226.808 420.197 226.547 419.441 226.024 418.844C225.501 418.228 224.699 417.92 223.616 417.92C222.571 417.92 221.768 418.275 221.208 418.984C220.779 419.544 220.536 420.197 220.48 420.944ZM235.151 435V418.284H232.015L233.107 416.324H237.223V435H235.151Z" fill="black"></path> <path d="M294.208 207.288V221.568H296.504V223.472H294.208V227H292.136V223.472H282.56L294.208 207.288ZM286.228 221.568H292.136V213.308L286.228 221.568Z" fill="black"></path> <path d="M289.448 279V262.284H286.312L287.404 260.324H291.52V279H289.448ZM299.073 279V262.284H295.937L297.029 260.324H301.145V279H299.073Z" fill="black"></path> <path d="M289.448 331V314.284H286.312L287.404 312.324H291.52V331H289.448ZM305.25 321.284C307.135 322.124 308.078 323.645 308.078 325.848C308.078 327.397 307.574 328.704 306.566 329.768C305.577 330.813 304.177 331.336 302.366 331.336C300.555 331.336 299.146 330.813 298.138 329.768C297.149 328.704 296.654 327.397 296.654 325.848C296.654 323.645 297.597 322.124 299.482 321.284C297.97 320.407 297.214 319.044 297.214 317.196C297.214 315.777 297.671 314.564 298.586 313.556C299.501 312.529 300.761 312.016 302.366 312.016C303.971 312.016 305.231 312.529 306.146 313.556C307.061 314.564 307.518 315.777 307.518 317.196C307.518 319.044 306.762 320.407 305.25 321.284ZM300.07 319.52C300.686 320.136 301.451 320.444 302.366 320.444C303.281 320.444 304.037 320.136 304.634 319.52C305.25 318.904 305.558 318.139 305.558 317.224C305.558 316.235 305.241 315.441 304.606 314.844C303.99 314.228 303.243 313.92 302.366 313.92C301.489 313.92 300.733 314.228 300.098 314.844C299.482 315.441 299.174 316.235 299.174 317.224C299.174 318.139 299.473 318.904 300.07 319.52ZM299.734 328.424C300.406 329.096 301.283 329.432 302.366 329.432C303.449 329.432 304.326 329.096 304.998 328.424C305.67 327.733 306.006 326.856 306.006 325.792C306.006 324.747 305.661 323.897 304.97 323.244C304.298 322.572 303.43 322.236 302.366 322.236C301.302 322.236 300.425 322.572 299.734 323.244C299.062 323.897 298.726 324.747 298.726 325.792C298.726 326.856 299.062 327.733 299.734 328.424Z" fill="black"></path> <path d="M295.468 383H283.4L290.204 375.132C291.361 373.769 292.089 372.864 292.388 372.416C293.079 371.427 293.424 370.475 293.424 369.56C293.424 368.496 293.079 367.628 292.388 366.956C291.697 366.265 290.801 365.92 289.7 365.92C288.356 365.92 287.32 366.471 286.592 367.572C286.2 368.169 285.995 368.907 285.976 369.784H283.904C283.979 368.197 284.445 366.909 285.304 365.92C286.424 364.651 287.899 364.016 289.728 364.016C291.389 364.016 292.761 364.548 293.844 365.612C294.945 366.657 295.496 367.983 295.496 369.588C295.496 370.839 295.001 372.173 294.012 373.592C293.508 374.283 292.659 375.319 291.464 376.7L287.572 381.096H295.468V383ZM310.287 364.324V366.228H304.295L303.091 370.26C303.408 370.185 303.8 370.148 304.267 370.148C306.115 370.148 307.599 370.764 308.719 371.996C309.858 373.228 310.427 374.768 310.427 376.616C310.427 378.632 309.764 380.256 308.439 381.488C307.132 382.72 305.527 383.336 303.623 383.336C302.018 383.336 300.627 382.851 299.451 381.88C298.779 381.301 298.238 380.667 297.827 379.976L299.479 378.8C299.759 379.36 300.179 379.864 300.739 380.312C301.654 381.059 302.662 381.432 303.763 381.432C305.07 381.432 306.162 380.965 307.039 380.032C307.916 379.099 308.355 377.969 308.355 376.644C308.355 375.3 307.916 374.199 307.039 373.34C306.18 372.481 305.088 372.052 303.763 372.052C302.587 372.052 301.383 372.481 300.151 373.34L302.867 364.324H310.287Z" fill="black"></path> <path d="M289.448 435V418.284H286.312L287.404 416.324H291.52V435H289.448Z" fill="#CAD6F3"></path> <path d="M361.412 208.324V210.228H355.42L354.216 214.26C354.533 214.185 354.925 214.148 355.392 214.148C357.24 214.148 358.724 214.764 359.844 215.996C360.983 217.228 361.552 218.768 361.552 220.616C361.552 222.632 360.889 224.256 359.564 225.488C358.257 226.72 356.652 227.336 354.748 227.336C353.143 227.336 351.752 226.851 350.576 225.88C349.904 225.301 349.363 224.667 348.952 223.976L350.604 222.8C350.884 223.36 351.304 223.864 351.864 224.312C352.779 225.059 353.787 225.432 354.888 225.432C356.195 225.432 357.287 224.965 358.164 224.032C359.041 223.099 359.48 221.969 359.48 220.644C359.48 219.3 359.041 218.199 358.164 217.34C357.305 216.481 356.213 216.052 354.888 216.052C353.712 216.052 352.508 216.481 351.276 217.34L353.992 208.324H361.412Z" fill="black"></path> <path d="M355.448 279V262.284H352.312L353.404 260.324H357.52V279H355.448ZM373.171 279H361.103L367.907 271.132C369.064 269.769 369.792 268.864 370.091 268.416C370.782 267.427 371.127 266.475 371.127 265.56C371.127 264.496 370.782 263.628 370.091 262.956C369.4 262.265 368.504 261.92 367.403 261.92C366.059 261.92 365.023 262.471 364.295 263.572C363.903 264.169 363.698 264.907 363.679 265.784H361.607C361.682 264.197 362.148 262.909 363.007 261.92C364.127 260.651 365.602 260.016 367.431 260.016C369.092 260.016 370.464 260.548 371.547 261.612C372.648 262.657 373.199 263.983 373.199 265.588C373.199 266.839 372.704 268.173 371.715 269.592C371.211 270.283 370.362 271.319 369.167 272.7L365.275 277.096H373.171V279Z" fill="black"></path> <path d="M355.448 331V314.284H352.312L353.404 312.324H357.52V331H355.448ZM367.266 331.448L365.698 330.3L369.982 324.336C369.44 324.504 368.89 324.588 368.33 324.588C366.556 324.588 365.1 324 363.962 322.824C362.842 321.648 362.282 320.183 362.282 318.428C362.282 316.561 362.879 315.031 364.074 313.836C365.287 312.623 366.827 312.016 368.694 312.016C370.075 312.016 371.27 312.352 372.278 313.024C373.304 313.677 374.042 314.48 374.49 315.432C374.938 316.365 375.162 317.345 375.162 318.372C375.162 319.809 374.648 321.237 373.622 322.656L367.266 331.448ZM368.722 313.92C367.452 313.92 366.407 314.349 365.586 315.208C364.764 316.048 364.354 317.103 364.354 318.372C364.354 319.623 364.764 320.659 365.586 321.48C366.426 322.283 367.48 322.684 368.75 322.684C370.019 322.684 371.055 322.273 371.858 321.452C372.679 320.631 373.09 319.604 373.09 318.372C373.09 317.103 372.679 316.048 371.858 315.208C371.055 314.349 370.01 313.92 368.722 313.92Z" fill="black"></path> <path d="M361.468 383H349.4L356.204 375.132C357.361 373.769 358.089 372.864 358.388 372.416C359.079 371.427 359.424 370.475 359.424 369.56C359.424 368.496 359.079 367.628 358.388 366.956C357.697 366.265 356.801 365.92 355.7 365.92C354.356 365.92 353.32 366.471 352.592 367.572C352.2 368.169 351.995 368.907 351.976 369.784H349.904C349.979 368.197 350.445 366.909 351.304 365.92C352.424 364.651 353.899 364.016 355.728 364.016C357.389 364.016 358.761 364.548 359.844 365.612C360.945 366.657 361.496 367.983 361.496 369.588C361.496 370.839 361.001 372.173 360.012 373.592C359.508 374.283 358.659 375.319 357.464 376.7L353.572 381.096H361.468V383ZM372.283 363.876L373.851 365.052L369.567 371.016C370.09 370.848 370.64 370.764 371.219 370.764C372.992 370.764 374.439 371.352 375.559 372.528C376.698 373.704 377.267 375.169 377.267 376.924C377.267 378.791 376.66 380.331 375.447 381.544C374.252 382.739 372.722 383.336 370.855 383.336C369.474 383.336 368.27 383.009 367.243 382.356C366.235 381.684 365.507 380.881 365.059 379.948C364.611 378.996 364.387 378.007 364.387 376.98C364.387 375.561 364.9 374.133 365.927 372.696L372.283 363.876ZM370.827 381.432C372.096 381.432 373.142 381.012 373.963 380.172C374.784 379.313 375.195 378.249 375.195 376.98C375.195 375.729 374.775 374.703 373.935 373.9C373.114 373.079 372.068 372.668 370.799 372.668C369.53 372.668 368.484 373.079 367.663 373.9C366.86 374.721 366.459 375.748 366.459 376.98C366.459 378.249 366.86 379.313 367.663 380.172C368.484 381.012 369.539 381.432 370.827 381.432Z" fill="black"></path> <path d="M361.468 435H349.4L356.204 427.132C357.361 425.769 358.089 424.864 358.388 424.416C359.079 423.427 359.424 422.475 359.424 421.56C359.424 420.496 359.079 419.628 358.388 418.956C357.697 418.265 356.801 417.92 355.7 417.92C354.356 417.92 353.32 418.471 352.592 419.572C352.2 420.169 351.995 420.907 351.976 421.784H349.904C349.979 420.197 350.445 418.909 351.304 417.92C352.424 416.651 353.899 416.016 355.728 416.016C357.389 416.016 358.761 416.548 359.844 417.612C360.945 418.657 361.496 419.983 361.496 421.588C361.496 422.839 361.001 424.173 360.012 425.592C359.508 426.283 358.659 427.319 357.464 428.7L353.572 433.096H361.468V435Z" fill="#CAD6F3"></path> <path d="M423.408 207.876L424.976 209.052L420.692 215.016C421.215 214.848 421.765 214.764 422.344 214.764C424.117 214.764 425.564 215.352 426.684 216.528C427.823 217.704 428.392 219.169 428.392 220.924C428.392 222.791 427.785 224.331 426.572 225.544C425.377 226.739 423.847 227.336 421.98 227.336C420.599 227.336 419.395 227.009 418.368 226.356C417.36 225.684 416.632 224.881 416.184 223.948C415.736 222.996 415.512 222.007 415.512 220.98C415.512 219.561 416.025 218.133 417.052 216.696L423.408 207.876ZM421.952 225.432C423.221 225.432 424.267 225.012 425.088 224.172C425.909 223.313 426.32 222.249 426.32 220.98C426.32 219.729 425.9 218.703 425.06 217.9C424.239 217.079 423.193 216.668 421.924 216.668C420.655 216.668 419.609 217.079 418.788 217.9C417.985 218.721 417.584 219.748 417.584 220.98C417.584 222.249 417.985 223.313 418.788 224.172C419.609 225.012 420.664 225.432 421.952 225.432Z" fill="black"></path> <path d="M421.448 279V262.284H418.312L419.404 260.324H423.52V279H421.448ZM430.566 264.944H428.494C428.55 263.955 428.839 263.04 429.362 262.2C430.295 260.744 431.742 260.016 433.702 260.016C435.363 260.016 436.651 260.511 437.566 261.5C438.499 262.489 438.966 263.675 438.966 265.056C438.966 267.016 438.163 268.397 436.558 269.2C436.801 269.293 437.034 269.424 437.258 269.592C437.501 269.741 437.79 269.984 438.126 270.32C438.462 270.656 438.733 271.123 438.938 271.72C439.143 272.299 439.246 272.961 439.246 273.708C439.246 275.407 438.695 276.769 437.594 277.796C436.511 278.823 435.149 279.336 433.506 279.336C432.405 279.336 431.378 279.084 430.426 278.58C429.474 278.057 428.765 277.236 428.298 276.116C428.055 275.519 427.915 274.865 427.878 274.156H429.95C430.043 274.921 430.267 275.547 430.622 276.032C431.257 276.965 432.218 277.432 433.506 277.432C434.533 277.432 435.401 277.068 436.11 276.34C436.819 275.593 437.174 274.697 437.174 273.652C437.174 272.121 436.558 271.076 435.326 270.516C434.71 270.217 434.001 270.087 433.198 270.124V268.276C434.001 268.332 434.71 268.201 435.326 267.884C436.371 267.343 436.894 266.419 436.894 265.112C436.894 264.197 436.633 263.441 436.11 262.844C435.587 262.228 434.785 261.92 433.702 261.92C432.657 261.92 431.854 262.275 431.294 262.984C430.865 263.544 430.622 264.197 430.566 264.944Z" fill="black"></path> <path d="M427.468 331H415.4L422.204 323.132C423.361 321.769 424.089 320.864 424.388 320.416C425.079 319.427 425.424 318.475 425.424 317.56C425.424 316.496 425.079 315.628 424.388 314.956C423.697 314.265 422.801 313.92 421.7 313.92C420.356 313.92 419.32 314.471 418.592 315.572C418.2 316.169 417.995 316.907 417.976 317.784H415.904C415.979 316.197 416.445 314.909 417.304 313.92C418.424 312.651 419.899 312.016 421.728 312.016C423.389 312.016 424.761 312.548 425.844 313.612C426.945 314.657 427.496 315.983 427.496 317.588C427.496 318.839 427.001 320.173 426.012 321.592C425.508 322.283 424.659 323.319 423.464 324.7L419.572 329.096H427.468V331ZM441.943 328.536C440.655 330.403 439.059 331.336 437.155 331.336C435.251 331.336 433.655 330.403 432.367 328.536C431.116 326.725 430.491 324.439 430.491 321.676C430.491 318.913 431.116 316.627 432.367 314.816C433.655 312.949 435.251 312.016 437.155 312.016C439.059 312.016 440.655 312.949 441.943 314.816C443.194 316.627 443.819 318.913 443.819 321.676C443.819 324.439 443.194 326.725 441.943 328.536ZM440.375 315.992C439.516 314.611 438.443 313.92 437.155 313.92C435.867 313.92 434.794 314.611 433.935 315.992C433.02 317.448 432.563 319.343 432.563 321.676C432.563 324.009 433.02 325.904 433.935 327.36C434.794 328.741 435.867 329.432 437.155 329.432C438.443 329.432 439.516 328.741 440.375 327.36C441.29 325.904 441.747 324.009 441.747 321.676C441.747 319.343 441.29 317.448 440.375 315.992Z" fill="black"></path> <path d="M427.468 383H415.4L422.204 375.132C423.361 373.769 424.089 372.864 424.388 372.416C425.079 371.427 425.424 370.475 425.424 369.56C425.424 368.496 425.079 367.628 424.388 366.956C423.697 366.265 422.801 365.92 421.7 365.92C420.356 365.92 419.32 366.471 418.592 367.572C418.2 368.169 417.995 368.907 417.976 369.784H415.904C415.979 368.197 416.445 366.909 417.304 365.92C418.424 364.651 419.899 364.016 421.728 364.016C423.389 364.016 424.761 364.548 425.844 365.612C426.945 366.657 427.496 367.983 427.496 369.588C427.496 370.839 427.001 372.173 426.012 373.592C425.508 374.283 424.659 375.319 423.464 376.7L419.572 381.096H427.468V383ZM429.593 382.356L440.205 366.228H429.985V364.324H443.705L431.217 383.448L429.593 382.356Z" fill="black"></path> <path d="M418.48 420.944H416.408C416.464 419.955 416.753 419.04 417.276 418.2C418.209 416.744 419.656 416.016 421.616 416.016C423.277 416.016 424.565 416.511 425.48 417.5C426.413 418.489 426.88 419.675 426.88 421.056C426.88 423.016 426.077 424.397 424.472 425.2C424.715 425.293 424.948 425.424 425.172 425.592C425.415 425.741 425.704 425.984 426.04 426.32C426.376 426.656 426.647 427.123 426.852 427.72C427.057 428.299 427.16 428.961 427.16 429.708C427.16 431.407 426.609 432.769 425.508 433.796C424.425 434.823 423.063 435.336 421.42 435.336C420.319 435.336 419.292 435.084 418.34 434.58C417.388 434.057 416.679 433.236 416.212 432.116C415.969 431.519 415.829 430.865 415.792 430.156H417.864C417.957 430.921 418.181 431.547 418.536 432.032C419.171 432.965 420.132 433.432 421.42 433.432C422.447 433.432 423.315 433.068 424.024 432.34C424.733 431.593 425.088 430.697 425.088 429.652C425.088 428.121 424.472 427.076 423.24 426.516C422.624 426.217 421.915 426.087 421.112 426.124V424.276C421.915 424.332 422.624 424.201 423.24 423.884C424.285 423.343 424.808 422.419 424.808 421.112C424.808 420.197 424.547 419.441 424.024 418.844C423.501 418.228 422.699 417.92 421.616 417.92C420.571 417.92 419.768 418.275 419.208 418.984C418.779 419.544 418.536 420.197 418.48 420.944Z" fill="#CAD6F3"></path> <path d="M481.456 226.356L492.068 210.228H481.848V208.324H495.568L483.08 227.448L481.456 226.356Z" fill="black"></path> <path d="M487.448 279V262.284H484.312L485.404 260.324H489.52V279H487.448ZM504.622 259.288V273.568H506.918V275.472H504.622V279H502.55V275.472H492.974L504.622 259.288ZM496.642 273.568H502.55V265.308L496.642 273.568Z" fill="black"></path> <path d="M493.468 331H481.4L488.204 323.132C489.361 321.769 490.089 320.864 490.388 320.416C491.079 319.427 491.424 318.475 491.424 317.56C491.424 316.496 491.079 315.628 490.388 314.956C489.697 314.265 488.801 313.92 487.7 313.92C486.356 313.92 485.32 314.471 484.592 315.572C484.2 316.169 483.995 316.907 483.976 317.784H481.904C481.979 316.197 482.445 314.909 483.304 313.92C484.424 312.651 485.899 312.016 487.728 312.016C489.389 312.016 490.761 312.548 491.844 313.612C492.945 314.657 493.496 315.983 493.496 317.588C493.496 318.839 493.001 320.173 492.012 321.592C491.508 322.283 490.659 323.319 489.464 324.7L485.572 329.096H493.468V331ZM499.151 331V314.284H496.015L497.107 312.324H501.223V331H499.151Z" fill="black"></path> <path d="M493.468 383H481.4L488.204 375.132C489.361 373.769 490.089 372.864 490.388 372.416C491.079 371.427 491.424 370.475 491.424 369.56C491.424 368.496 491.079 367.628 490.388 366.956C489.697 366.265 488.801 365.92 487.7 365.92C486.356 365.92 485.32 366.471 484.592 367.572C484.2 368.169 483.995 368.907 483.976 369.784H481.904C481.979 368.197 482.445 366.909 483.304 365.92C484.424 364.651 485.899 364.016 487.728 364.016C489.389 364.016 490.761 364.548 491.844 365.612C492.945 366.657 493.496 367.983 493.496 369.588C493.496 370.839 493.001 372.173 492.012 373.592C491.508 374.283 490.659 375.319 489.464 376.7L485.572 381.096H493.468V383ZM505.684 373.284C507.569 374.124 508.512 375.645 508.512 377.848C508.512 379.397 508.008 380.704 507 381.768C506.01 382.813 504.61 383.336 502.8 383.336C500.989 383.336 499.58 382.813 498.572 381.768C497.582 380.704 497.088 379.397 497.088 377.848C497.088 375.645 498.03 374.124 499.916 373.284C498.404 372.407 497.648 371.044 497.648 369.196C497.648 367.777 498.105 366.564 499.02 365.556C499.934 364.529 501.194 364.016 502.8 364.016C504.405 364.016 505.665 364.529 506.58 365.556C507.494 366.564 507.952 367.777 507.952 369.196C507.952 371.044 507.196 372.407 505.684 373.284ZM500.504 371.52C501.12 372.136 501.885 372.444 502.8 372.444C503.714 372.444 504.47 372.136 505.068 371.52C505.684 370.904 505.992 370.139 505.992 369.224C505.992 368.235 505.674 367.441 505.04 366.844C504.424 366.228 503.677 365.92 502.8 365.92C501.922 365.92 501.166 366.228 500.532 366.844C499.916 367.441 499.608 368.235 499.608 369.224C499.608 370.139 499.906 370.904 500.504 371.52ZM500.168 380.424C500.84 381.096 501.717 381.432 502.8 381.432C503.882 381.432 504.76 381.096 505.432 380.424C506.104 379.733 506.44 378.856 506.44 377.792C506.44 376.747 506.094 375.897 505.404 375.244C504.732 374.572 503.864 374.236 502.8 374.236C501.736 374.236 500.858 374.572 500.168 375.244C499.496 375.897 499.16 376.747 499.16 377.792C499.16 378.856 499.496 379.733 500.168 380.424Z" fill="black"></path> <path d="M492.208 415.288V429.568H494.504V431.472H492.208V435H490.136V431.472H480.56L492.208 415.288ZM484.228 429.568H490.136V421.308L484.228 429.568Z" fill="#CAD6F3"></path> <path d="M152.24 156.324H155.068C156.337 156.324 157.364 156.427 158.148 156.632C158.932 156.837 159.623 157.22 160.22 157.78C161.209 158.713 161.704 159.945 161.704 161.476C161.704 162.353 161.517 163.091 161.144 163.688C160.808 164.267 160.341 164.696 159.744 164.976C160.715 165.219 161.517 165.667 162.152 166.32C162.973 167.179 163.384 168.345 163.384 169.82C163.384 171.183 162.973 172.303 162.152 173.18C160.995 174.393 159.249 175 156.916 175H152.24V156.324ZM155.096 159.012V164.36H155.964C157.009 164.36 157.784 164.117 158.288 163.632C158.773 163.165 159.016 162.456 159.016 161.504C159.016 160.739 158.792 160.141 158.344 159.712C157.859 159.245 157.103 159.012 156.076 159.012H155.096ZM155.096 166.712V172.312H156.832C158.12 172.312 159.063 172.069 159.66 171.584C160.276 171.099 160.584 170.408 160.584 169.512C160.584 168.709 160.332 168.056 159.828 167.552C159.249 166.992 158.269 166.712 156.888 166.712H155.096ZM174.594 165.732H171.15V175H168.406V165.732H164.962V163.212H174.594V165.732Z" fill="black"></path> <path d="M232.072 157.332V160.692C230.541 159.311 228.852 158.62 227.004 158.62C224.988 158.62 223.345 159.292 222.076 160.636C220.825 161.961 220.2 163.66 220.2 165.732C220.2 167.729 220.844 169.4 222.132 170.744C223.42 172.069 225.053 172.732 227.032 172.732C228.88 172.732 230.56 172.013 232.072 170.576V173.964C230.504 174.897 228.796 175.364 226.948 175.364C224.353 175.364 222.151 174.505 220.34 172.788C218.343 170.921 217.344 168.569 217.344 165.732C217.344 162.745 218.343 160.309 220.34 158.424C222.057 156.8 224.307 155.988 227.088 155.988C229.011 155.988 230.672 156.436 232.072 157.332ZM237.843 173.628V181.412H235.099V163.212H237.843V164.5C238.739 163.436 239.906 162.904 241.343 162.904C242.949 162.904 244.302 163.473 245.403 164.612C246.523 165.732 247.083 167.207 247.083 169.036C247.083 170.921 246.505 172.452 245.347 173.628C244.19 174.785 242.865 175.364 241.371 175.364C239.971 175.364 238.795 174.785 237.843 173.628ZM241.007 165.368C240.074 165.368 239.281 165.704 238.627 166.376C237.993 167.029 237.675 167.963 237.675 169.176C237.675 170.352 237.993 171.267 238.627 171.92C239.281 172.573 240.074 172.9 241.007 172.9C241.978 172.9 242.762 172.536 243.359 171.808C243.975 171.08 244.283 170.193 244.283 169.148C244.283 168.084 243.975 167.188 243.359 166.46C242.762 165.732 241.978 165.368 241.007 165.368Z" fill="black"></path> <path d="M293.872 175V167.328C292.173 167.459 290.904 167.524 290.064 167.524C287.992 167.524 286.471 167.141 285.5 166.376C284.287 165.424 283.68 163.912 283.68 161.84V156.324H286.536V161.42C286.536 162.82 286.872 163.781 287.544 164.304C288.048 164.696 289.037 164.892 290.512 164.892C291.576 164.892 292.696 164.827 293.872 164.696V156.324H296.728V175H293.872ZM308.836 165.732H305.392V175H302.648V165.732H299.204V163.212H308.836V165.732Z" fill="black"></path> <path d="M350.24 156.324H363.96V175H361.104V159.012H353.096V175H350.24V156.324ZM376.067 165.732H372.623V175H369.879V165.732H366.435V163.212H376.067V165.732Z" fill="black"></path> <path d="M430.072 157.332V160.692C428.541 159.311 426.852 158.62 425.004 158.62C422.988 158.62 421.345 159.292 420.076 160.636C418.825 161.961 418.2 163.66 418.2 165.732C418.2 167.729 418.844 169.4 420.132 170.744C421.42 172.069 423.053 172.732 425.032 172.732C426.88 172.732 428.56 172.013 430.072 170.576V173.964C428.504 174.897 426.796 175.364 424.948 175.364C422.353 175.364 420.151 174.505 418.34 172.788C416.343 170.921 415.344 168.569 415.344 165.732C415.344 162.745 416.343 160.309 418.34 158.424C420.057 156.8 422.307 155.988 425.088 155.988C427.011 155.988 428.672 156.436 430.072 157.332ZM442.003 155.12H444.803C444.598 156.091 444.169 156.931 443.515 157.64C442.862 158.349 442.059 158.835 441.107 159.096L439.259 159.6C438.774 159.731 438.401 159.843 438.139 159.936C437.878 160.029 437.551 160.207 437.159 160.468C436.786 160.711 436.469 161.009 436.207 161.364C435.591 162.185 435.265 163.249 435.227 164.556H435.255C436.077 163.455 437.411 162.904 439.259 162.904C440.921 162.904 442.293 163.464 443.375 164.584C444.514 165.76 445.083 167.253 445.083 169.064C445.083 170.893 444.477 172.405 443.263 173.6C442.069 174.776 440.575 175.364 438.783 175.364C436.991 175.364 435.554 174.841 434.471 173.796C433.874 173.236 433.417 172.545 433.099 171.724C432.782 170.903 432.595 170.231 432.539 169.708C432.502 169.167 432.483 168.513 432.483 167.748C432.483 164.089 433.081 161.392 434.275 159.656C435.171 158.331 436.347 157.491 437.803 157.136L439.763 156.66C441.051 156.343 441.798 155.829 442.003 155.12ZM436.235 171.892C436.87 172.564 437.719 172.9 438.783 172.9C439.847 172.9 440.697 172.564 441.331 171.892C441.966 171.201 442.283 170.287 442.283 169.148C442.283 167.897 441.938 166.955 441.247 166.32C440.575 165.685 439.754 165.368 438.783 165.368C437.813 165.368 436.982 165.685 436.291 166.32C435.619 166.955 435.283 167.897 435.283 169.148C435.283 170.287 435.601 171.201 436.235 171.892Z" fill="black"></path> <path d="M482.24 156.324H485.068C486.337 156.324 487.364 156.427 488.148 156.632C488.932 156.837 489.623 157.22 490.22 157.78C491.209 158.713 491.704 159.945 491.704 161.476C491.704 162.353 491.517 163.091 491.144 163.688C490.808 164.267 490.341 164.696 489.744 164.976C490.715 165.219 491.517 165.667 492.152 166.32C492.973 167.179 493.384 168.345 493.384 169.82C493.384 171.183 492.973 172.303 492.152 173.18C490.995 174.393 489.249 175 486.916 175H482.24V156.324ZM485.096 159.012V164.36H485.964C487.009 164.36 487.784 164.117 488.288 163.632C488.773 163.165 489.016 162.456 489.016 161.504C489.016 160.739 488.792 160.141 488.344 159.712C487.859 159.245 487.103 159.012 486.076 159.012H485.096ZM485.096 166.712V172.312H486.832C488.12 172.312 489.063 172.069 489.66 171.584C490.276 171.099 490.584 170.408 490.584 169.512C490.584 168.709 490.332 168.056 489.828 167.552C489.249 166.992 488.269 166.712 486.888 166.712H485.096ZM505.602 163.744V166.824C504.613 165.853 503.502 165.368 502.27 165.368C501.225 165.368 500.357 165.713 499.666 166.404C498.994 167.076 498.658 167.981 498.658 169.12C498.658 170.296 499.013 171.239 499.722 171.948C500.394 172.583 501.225 172.9 502.214 172.9C503.577 172.9 504.706 172.396 505.602 171.388V174.44C504.613 175.056 503.418 175.364 502.018 175.364C500.133 175.364 498.64 174.785 497.538 173.628C496.418 172.471 495.858 170.996 495.858 169.204C495.858 167.356 496.456 165.835 497.65 164.64C498.808 163.483 500.385 162.904 502.382 162.904C503.521 162.904 504.594 163.184 505.602 163.744Z" fill="black"></path> <line x1="583.5" y1="64" x2="583.5" y2="437" stroke="#CAD6F3"></line> <circle cx="166.5" cy="321.5" r="24.5" fill="#7F6CFC"></circle> <path d="M157.448 331V314.284H154.312L155.404 312.324H159.52V331H157.448ZM172.533 311.876L174.101 313.052L169.817 319.016C170.34 318.848 170.89 318.764 171.469 318.764C173.242 318.764 174.689 319.352 175.809 320.528C176.948 321.704 177.517 323.169 177.517 324.924C177.517 326.791 176.91 328.331 175.697 329.544C174.502 330.739 172.972 331.336 171.105 331.336C169.724 331.336 168.52 331.009 167.493 330.356C166.485 329.684 165.757 328.881 165.309 327.948C164.861 326.996 164.637 326.007 164.637 324.98C164.637 323.561 165.15 322.133 166.177 320.696L172.533 311.876ZM171.077 329.432C172.346 329.432 173.392 329.012 174.213 328.172C175.034 327.313 175.445 326.249 175.445 324.98C175.445 323.729 175.025 322.703 174.185 321.9C173.364 321.079 172.318 320.668 171.049 320.668C169.78 320.668 168.734 321.079 167.913 321.9C167.11 322.721 166.709 323.748 166.709 324.98C166.709 326.249 167.11 327.313 167.913 328.172C168.734 329.012 169.789 329.432 171.077 329.432Z" fill="white"></path> <path d="M650.836 94.284C652.721 95.124 653.664 96.6453 653.664 98.848C653.664 100.397 653.16 101.704 652.152 102.768C651.163 103.813 649.763 104.336 647.952 104.336C646.141 104.336 644.732 103.813 643.724 102.768C642.735 101.704 642.24 100.397 642.24 98.848C642.24 96.6453 643.183 95.124 645.068 94.284C643.556 93.4067 642.8 92.044 642.8 90.196C642.8 88.7773 643.257 87.564 644.172 86.556C645.087 85.5293 646.347 85.016 647.952 85.016C649.557 85.016 650.817 85.5293 651.732 86.556C652.647 87.564 653.104 88.7773 653.104 90.196C653.104 92.044 652.348 93.4067 650.836 94.284ZM645.656 92.52C646.272 93.136 647.037 93.444 647.952 93.444C648.867 93.444 649.623 93.136 650.22 92.52C650.836 91.904 651.144 91.1387 651.144 90.224C651.144 89.2347 650.827 88.4413 650.192 87.844C649.576 87.228 648.829 86.92 647.952 86.92C647.075 86.92 646.319 87.228 645.684 87.844C645.068 88.4413 644.76 89.2347 644.76 90.224C644.76 91.1387 645.059 91.904 645.656 92.52ZM645.32 101.424C645.992 102.096 646.869 102.432 647.952 102.432C649.035 102.432 649.912 102.096 650.584 101.424C651.256 100.733 651.592 99.856 651.592 98.792C651.592 97.7467 651.247 96.8973 650.556 96.244C649.884 95.572 649.016 95.236 647.952 95.236C646.888 95.236 646.011 95.572 645.32 96.244C644.648 96.8973 644.312 97.7467 644.312 98.792C644.312 99.856 644.648 100.733 645.32 101.424ZM658.126 94.48C657.846 94.2 657.706 93.8733 657.706 93.5C657.706 93.1267 657.846 92.8 658.126 92.52C658.406 92.24 658.733 92.1 659.106 92.1C659.479 92.1 659.806 92.24 660.086 92.52C660.366 92.8 660.506 93.1267 660.506 93.5C660.506 93.8733 660.366 94.2 660.086 94.48C659.806 94.76 659.479 94.9 659.106 94.9C658.733 94.9 658.406 94.76 658.126 94.48ZM658.126 103.916C657.846 103.636 657.706 103.309 657.706 102.936C657.706 102.563 657.846 102.236 658.126 101.956C658.406 101.676 658.733 101.536 659.106 101.536C659.479 101.536 659.806 101.676 660.086 101.956C660.366 102.236 660.506 102.563 660.506 102.936C660.506 103.309 660.366 103.636 660.086 103.916C659.806 104.196 659.479 104.336 659.106 104.336C658.733 104.336 658.406 104.196 658.126 103.916ZM675.025 101.536C673.737 103.403 672.141 104.336 670.237 104.336C668.333 104.336 666.737 103.403 665.449 101.536C664.198 99.7253 663.573 97.4387 663.573 94.676C663.573 91.9133 664.198 89.6267 665.449 87.816C666.737 85.9493 668.333 85.016 670.237 85.016C672.141 85.016 673.737 85.9493 675.025 87.816C676.276 89.6267 676.901 91.9133 676.901 94.676C676.901 97.4387 676.276 99.7253 675.025 101.536ZM673.457 88.992C672.598 87.6107 671.525 86.92 670.237 86.92C668.949 86.92 667.876 87.6107 667.017 88.992C666.102 90.448 665.645 92.3427 665.645 94.676C665.645 97.0093 666.102 98.904 667.017 100.36C667.876 101.741 668.949 102.432 670.237 102.432C671.525 102.432 672.598 101.741 673.457 100.36C674.372 98.904 674.829 97.0093 674.829 94.676C674.829 92.3427 674.372 90.448 673.457 88.992ZM690.939 101.536C689.651 103.403 688.055 104.336 686.151 104.336C684.247 104.336 682.651 103.403 681.363 101.536C680.113 99.7253 679.487 97.4387 679.487 94.676C679.487 91.9133 680.113 89.6267 681.363 87.816C682.651 85.9493 684.247 85.016 686.151 85.016C688.055 85.016 689.651 85.9493 690.939 87.816C692.19 89.6267 692.815 91.9133 692.815 94.676C692.815 97.4387 692.19 99.7253 690.939 101.536ZM689.371 88.992C688.513 87.6107 687.439 86.92 686.151 86.92C684.863 86.92 683.79 87.6107 682.931 88.992C682.017 90.448 681.559 92.3427 681.559 94.676C681.559 97.0093 682.017 98.904 682.931 100.36C683.79 101.741 684.863 102.432 686.151 102.432C687.439 102.432 688.513 101.741 689.371 100.36C690.286 98.904 690.743 97.0093 690.743 94.676C690.743 92.3427 690.286 90.448 689.371 88.992Z" fill="black"></path> <path d="M646.496 183.448L644.928 182.3L649.212 176.336C648.671 176.504 648.12 176.588 647.56 176.588C645.787 176.588 644.331 176 643.192 174.824C642.072 173.648 641.512 172.183 641.512 170.428C641.512 168.561 642.109 167.031 643.304 165.836C644.517 164.623 646.057 164.016 647.924 164.016C649.305 164.016 650.5 164.352 651.508 165.024C652.535 165.677 653.272 166.48 653.72 167.432C654.168 168.365 654.392 169.345 654.392 170.372C654.392 171.809 653.879 173.237 652.852 174.656L646.496 183.448ZM647.952 165.92C646.683 165.92 645.637 166.349 644.816 167.208C643.995 168.048 643.584 169.103 643.584 170.372C643.584 171.623 643.995 172.659 644.816 173.48C645.656 174.283 646.711 174.684 647.98 174.684C649.249 174.684 650.285 174.273 651.088 173.452C651.909 172.631 652.32 171.604 652.32 170.372C652.32 169.103 651.909 168.048 651.088 167.208C650.285 166.349 649.24 165.92 647.952 165.92ZM658.126 173.48C657.846 173.2 657.706 172.873 657.706 172.5C657.706 172.127 657.846 171.8 658.126 171.52C658.406 171.24 658.733 171.1 659.106 171.1C659.479 171.1 659.806 171.24 660.086 171.52C660.366 171.8 660.506 172.127 660.506 172.5C660.506 172.873 660.366 173.2 660.086 173.48C659.806 173.76 659.479 173.9 659.106 173.9C658.733 173.9 658.406 173.76 658.126 173.48ZM658.126 182.916C657.846 182.636 657.706 182.309 657.706 181.936C657.706 181.563 657.846 181.236 658.126 180.956C658.406 180.676 658.733 180.536 659.106 180.536C659.479 180.536 659.806 180.676 660.086 180.956C660.366 181.236 660.506 181.563 660.506 181.936C660.506 182.309 660.366 182.636 660.086 182.916C659.806 183.196 659.479 183.336 659.106 183.336C658.733 183.336 658.406 183.196 658.126 182.916ZM675.025 180.536C673.737 182.403 672.141 183.336 670.237 183.336C668.333 183.336 666.737 182.403 665.449 180.536C664.198 178.725 663.573 176.439 663.573 173.676C663.573 170.913 664.198 168.627 665.449 166.816C666.737 164.949 668.333 164.016 670.237 164.016C672.141 164.016 673.737 164.949 675.025 166.816C676.276 168.627 676.901 170.913 676.901 173.676C676.901 176.439 676.276 178.725 675.025 180.536ZM673.457 167.992C672.598 166.611 671.525 165.92 670.237 165.92C668.949 165.92 667.876 166.611 667.017 167.992C666.102 169.448 665.645 171.343 665.645 173.676C665.645 176.009 666.102 177.904 667.017 179.36C667.876 180.741 668.949 181.432 670.237 181.432C671.525 181.432 672.598 180.741 673.457 179.36C674.372 177.904 674.829 176.009 674.829 173.676C674.829 171.343 674.372 169.448 673.457 167.992ZM690.939 180.536C689.651 182.403 688.055 183.336 686.151 183.336C684.247 183.336 682.651 182.403 681.363 180.536C680.113 178.725 679.487 176.439 679.487 173.676C679.487 170.913 680.113 168.627 681.363 166.816C682.651 164.949 684.247 164.016 686.151 164.016C688.055 164.016 689.651 164.949 690.939 166.816C692.19 168.627 692.815 170.913 692.815 173.676C692.815 176.439 692.19 178.725 690.939 180.536ZM689.371 167.992C688.513 166.611 687.439 165.92 686.151 165.92C684.863 165.92 683.79 166.611 682.931 167.992C682.017 169.448 681.559 171.343 681.559 173.676C681.559 176.009 682.017 177.904 682.931 179.36C683.79 180.741 684.863 181.432 686.151 181.432C687.439 181.432 688.513 180.741 689.371 179.36C690.286 177.904 690.743 176.009 690.743 173.676C690.743 171.343 690.286 169.448 689.371 167.992Z" fill="black"></path> <path d="M647.448 263V246.284H644.312L645.404 244.324H649.52V263H647.448ZM666.877 260.536C665.589 262.403 663.993 263.336 662.089 263.336C660.185 263.336 658.589 262.403 657.301 260.536C656.05 258.725 655.425 256.439 655.425 253.676C655.425 250.913 656.05 248.627 657.301 246.816C658.589 244.949 660.185 244.016 662.089 244.016C663.993 244.016 665.589 244.949 666.877 246.816C668.127 248.627 668.753 250.913 668.753 253.676C668.753 256.439 668.127 258.725 666.877 260.536ZM665.309 247.992C664.45 246.611 663.377 245.92 662.089 245.92C660.801 245.92 659.727 246.611 658.869 247.992C657.954 249.448 657.497 251.343 657.497 253.676C657.497 256.009 657.954 257.904 658.869 259.36C659.727 260.741 660.801 261.432 662.089 261.432C663.377 261.432 664.45 260.741 665.309 259.36C666.223 257.904 666.681 256.009 666.681 253.676C666.681 251.343 666.223 249.448 665.309 247.992ZM672.263 253.48C671.983 253.2 671.843 252.873 671.843 252.5C671.843 252.127 671.983 251.8 672.263 251.52C672.543 251.24 672.869 251.1 673.243 251.1C673.616 251.1 673.943 251.24 674.223 251.52C674.503 251.8 674.643 252.127 674.643 252.5C674.643 252.873 674.503 253.2 674.223 253.48C673.943 253.76 673.616 253.9 673.243 253.9C672.869 253.9 672.543 253.76 672.263 253.48ZM672.263 262.916C671.983 262.636 671.843 262.309 671.843 261.936C671.843 261.563 671.983 261.236 672.263 260.956C672.543 260.676 672.869 260.536 673.243 260.536C673.616 260.536 673.943 260.676 674.223 260.956C674.503 261.236 674.643 261.563 674.643 261.936C674.643 262.309 674.503 262.636 674.223 262.916C673.943 263.196 673.616 263.336 673.243 263.336C672.869 263.336 672.543 263.196 672.263 262.916ZM689.162 260.536C687.874 262.403 686.278 263.336 684.374 263.336C682.47 263.336 680.874 262.403 679.586 260.536C678.335 258.725 677.71 256.439 677.71 253.676C677.71 250.913 678.335 248.627 679.586 246.816C680.874 244.949 682.47 244.016 684.374 244.016C686.278 244.016 687.874 244.949 689.162 246.816C690.413 248.627 691.038 250.913 691.038 253.676C691.038 256.439 690.413 258.725 689.162 260.536ZM687.594 247.992C686.735 246.611 685.662 245.92 684.374 245.92C683.086 245.92 682.013 246.611 681.154 247.992C680.239 249.448 679.782 251.343 679.782 253.676C679.782 256.009 680.239 257.904 681.154 259.36C682.013 260.741 683.086 261.432 684.374 261.432C685.662 261.432 686.735 260.741 687.594 259.36C688.509 257.904 688.966 256.009 688.966 253.676C688.966 251.343 688.509 249.448 687.594 247.992ZM705.076 260.536C703.788 262.403 702.192 263.336 700.288 263.336C698.384 263.336 696.788 262.403 695.5 260.536C694.249 258.725 693.624 256.439 693.624 253.676C693.624 250.913 694.249 248.627 695.5 246.816C696.788 244.949 698.384 244.016 700.288 244.016C702.192 244.016 703.788 244.949 705.076 246.816C706.327 248.627 706.952 250.913 706.952 253.676C706.952 256.439 706.327 258.725 705.076 260.536ZM703.508 247.992C702.649 246.611 701.576 245.92 700.288 245.92C699 245.92 697.927 246.611 697.068 247.992C696.153 249.448 695.696 251.343 695.696 253.676C695.696 256.009 696.153 257.904 697.068 259.36C697.927 260.741 699 261.432 700.288 261.432C701.576 261.432 702.649 260.741 703.508 259.36C704.423 257.904 704.88 256.009 704.88 253.676C704.88 251.343 704.423 249.448 703.508 247.992Z" fill="black"></path> <path d="M647.448 342V325.284H644.312L645.404 323.324H649.52V342H647.448ZM657.073 342V325.284H653.937L655.029 323.324H659.145V342H657.073ZM667.751 332.48C667.471 332.2 667.331 331.873 667.331 331.5C667.331 331.127 667.471 330.8 667.751 330.52C668.031 330.24 668.358 330.1 668.731 330.1C669.104 330.1 669.431 330.24 669.711 330.52C669.991 330.8 670.131 331.127 670.131 331.5C670.131 331.873 669.991 332.2 669.711 332.48C669.431 332.76 669.104 332.9 668.731 332.9C668.358 332.9 668.031 332.76 667.751 332.48ZM667.751 341.916C667.471 341.636 667.331 341.309 667.331 340.936C667.331 340.563 667.471 340.236 667.751 339.956C668.031 339.676 668.358 339.536 668.731 339.536C669.104 339.536 669.431 339.676 669.711 339.956C669.991 340.236 670.131 340.563 670.131 340.936C670.131 341.309 669.991 341.636 669.711 341.916C669.431 342.196 669.104 342.336 668.731 342.336C668.358 342.336 668.031 342.196 667.751 341.916ZM684.65 339.536C683.362 341.403 681.766 342.336 679.862 342.336C677.958 342.336 676.362 341.403 675.074 339.536C673.823 337.725 673.198 335.439 673.198 332.676C673.198 329.913 673.823 327.627 675.074 325.816C676.362 323.949 677.958 323.016 679.862 323.016C681.766 323.016 683.362 323.949 684.65 325.816C685.901 327.627 686.526 329.913 686.526 332.676C686.526 335.439 685.901 337.725 684.65 339.536ZM683.082 326.992C682.223 325.611 681.15 324.92 679.862 324.92C678.574 324.92 677.501 325.611 676.642 326.992C675.727 328.448 675.27 330.343 675.27 332.676C675.27 335.009 675.727 336.904 676.642 338.36C677.501 339.741 678.574 340.432 679.862 340.432C681.15 340.432 682.223 339.741 683.082 338.36C683.997 336.904 684.454 335.009 684.454 332.676C684.454 330.343 683.997 328.448 683.082 326.992ZM700.564 339.536C699.276 341.403 697.68 342.336 695.776 342.336C693.872 342.336 692.276 341.403 690.988 339.536C689.738 337.725 689.112 335.439 689.112 332.676C689.112 329.913 689.738 327.627 690.988 325.816C692.276 323.949 693.872 323.016 695.776 323.016C697.68 323.016 699.276 323.949 700.564 325.816C701.815 327.627 702.44 329.913 702.44 332.676C702.44 335.439 701.815 337.725 700.564 339.536ZM698.996 326.992C698.138 325.611 697.064 324.92 695.776 324.92C694.488 324.92 693.415 325.611 692.556 326.992C691.642 328.448 691.184 330.343 691.184 332.676C691.184 335.009 691.642 336.904 692.556 338.36C693.415 339.741 694.488 340.432 695.776 340.432C697.064 340.432 698.138 339.741 698.996 338.36C699.911 336.904 700.368 335.009 700.368 332.676C700.368 330.343 699.911 328.448 698.996 326.992Z" fill="black"></path> <path d="M647.448 421V404.284H644.312L645.404 402.324H649.52V421H647.448ZM665.171 421H653.103L659.907 413.132C661.064 411.769 661.792 410.864 662.091 410.416C662.782 409.427 663.127 408.475 663.127 407.56C663.127 406.496 662.782 405.628 662.091 404.956C661.4 404.265 660.504 403.92 659.403 403.92C658.059 403.92 657.023 404.471 656.295 405.572C655.903 406.169 655.698 406.907 655.679 407.784H653.607C653.682 406.197 654.148 404.909 655.007 403.92C656.127 402.651 657.602 402.016 659.431 402.016C661.092 402.016 662.464 402.548 663.547 403.612C664.648 404.657 665.199 405.983 665.199 407.588C665.199 408.839 664.704 410.173 663.715 411.592C663.211 412.283 662.362 413.319 661.167 414.7L657.275 419.096H665.171V421ZM669.829 411.48C669.549 411.2 669.409 410.873 669.409 410.5C669.409 410.127 669.549 409.8 669.829 409.52C670.109 409.24 670.436 409.1 670.809 409.1C671.183 409.1 671.509 409.24 671.789 409.52C672.069 409.8 672.209 410.127 672.209 410.5C672.209 410.873 672.069 411.2 671.789 411.48C671.509 411.76 671.183 411.9 670.809 411.9C670.436 411.9 670.109 411.76 669.829 411.48ZM669.829 420.916C669.549 420.636 669.409 420.309 669.409 419.936C669.409 419.563 669.549 419.236 669.829 418.956C670.109 418.676 670.436 418.536 670.809 418.536C671.183 418.536 671.509 418.676 671.789 418.956C672.069 419.236 672.209 419.563 672.209 419.936C672.209 420.309 672.069 420.636 671.789 420.916C671.509 421.196 671.183 421.336 670.809 421.336C670.436 421.336 670.109 421.196 669.829 420.916ZM686.728 418.536C685.44 420.403 683.844 421.336 681.94 421.336C680.036 421.336 678.44 420.403 677.152 418.536C675.902 416.725 675.276 414.439 675.276 411.676C675.276 408.913 675.902 406.627 677.152 404.816C678.44 402.949 680.036 402.016 681.94 402.016C683.844 402.016 685.44 402.949 686.728 404.816C687.979 406.627 688.604 408.913 688.604 411.676C688.604 414.439 687.979 416.725 686.728 418.536ZM685.16 405.992C684.302 404.611 683.228 403.92 681.94 403.92C680.652 403.92 679.579 404.611 678.72 405.992C677.806 407.448 677.348 409.343 677.348 411.676C677.348 414.009 677.806 415.904 678.72 417.36C679.579 418.741 680.652 419.432 681.94 419.432C683.228 419.432 684.302 418.741 685.16 417.36C686.075 415.904 686.532 414.009 686.532 411.676C686.532 409.343 686.075 407.448 685.16 405.992ZM702.642 418.536C701.354 420.403 699.758 421.336 697.854 421.336C695.95 421.336 694.354 420.403 693.066 418.536C691.816 416.725 691.19 414.439 691.19 411.676C691.19 408.913 691.816 406.627 693.066 404.816C694.354 402.949 695.95 402.016 697.854 402.016C699.758 402.016 701.354 402.949 702.642 404.816C703.893 406.627 704.518 408.913 704.518 411.676C704.518 414.439 703.893 416.725 702.642 418.536ZM701.074 405.992C700.216 404.611 699.142 403.92 697.854 403.92C696.566 403.92 695.493 404.611 694.634 405.992C693.72 407.448 693.262 409.343 693.262 411.676C693.262 414.009 693.72 415.904 694.634 417.36C695.493 418.741 696.566 419.432 697.854 419.432C699.142 419.432 700.216 418.741 701.074 417.36C701.989 415.904 702.446 414.009 702.446 411.676C702.446 409.343 701.989 407.448 701.074 405.992Z" fill="black"></path> <line x1="741" y1="97.5" x2="1456" y2="97.5001" stroke="#CAD6F3"></line> <line x1="741" y1="176.5" x2="1456" y2="176.5" stroke="#CAD6F3"></line> <line x1="741" y1="255.5" x2="1456" y2="255.5" stroke="#CAD6F3"></line> <line x1="741" y1="336.5" x2="1456" y2="336.5" stroke="#CAD6F3"></line> <line x1="741" y1="415.5" x2="1456" y2="415.5" stroke="#CAD6F3"></line> <circle cx="748" cy="296" r="7" fill="#7F6CFC"></circle> <line x1="749" y1="296.5" x2="855" y2="296.5" stroke="#7F6CFC" stroke-width="3"></line> <rect x="855" y="239" width="393" height="114" rx="15" fill="#7F6CFC"></rect> <path d="M935.426 279.432C934.7 278.48 933.828 277.572 932.859 276.706C931.987 275.971 930.727 275.105 929.855 274.586C928.402 273.677 926.416 273.85 925.205 274.932L894.347 302.452C894.25 302.538 894.153 302.668 894.105 302.798L890.084 313.01C889.89 313.572 890.036 314.178 890.472 314.567C890.811 314.87 891.198 315 891.634 315C891.828 315 892.022 314.957 892.216 314.913L903.6 311.322C903.745 311.279 903.89 311.192 903.987 311.106L934.893 283.5C936.153 282.418 936.347 280.687 935.426 279.432ZM895.994 303.707C898.61 305.308 900.838 307.298 902.631 309.635L895.994 311.711C895.752 311.279 895.461 310.846 895.025 310.457C894.589 310.067 894.105 309.808 893.621 309.591L895.994 303.707Z" fill="white"></path> <path d="M977.836 276.552L975.96 274.732C976.651 273.817 977.453 273.145 978.368 272.716C979.301 272.249 980.431 272.016 981.756 272.016C983.623 272.016 985.069 272.511 986.096 273.5C986.992 274.377 987.44 275.469 987.44 276.776C987.44 277.672 987.235 278.447 986.824 279.1C986.432 279.772 985.872 280.313 985.144 280.724C986.171 280.985 987.011 281.536 987.664 282.376C988.299 283.179 988.616 284.233 988.616 285.54C988.616 287.22 987.991 288.611 986.74 289.712C985.471 290.795 983.791 291.336 981.7 291.336C979.927 291.336 978.396 290.851 977.108 289.88C976.1 289.096 975.307 288.088 974.728 286.856L977.248 285.568C977.621 286.52 978.2 287.276 978.984 287.836C979.805 288.415 980.832 288.704 982.064 288.704C983.296 288.704 984.248 288.368 984.92 287.696C985.517 287.099 985.816 286.333 985.816 285.4C985.816 284.429 985.452 283.701 984.724 283.216C984.033 282.731 982.904 282.488 981.336 282.488H979.656V279.8H981.168C982.363 279.8 983.259 279.548 983.856 279.044C984.416 278.577 984.696 277.943 984.696 277.14C984.696 276.3 984.397 275.656 983.8 275.208C983.315 274.835 982.596 274.648 981.644 274.648C980.748 274.648 979.992 274.825 979.376 275.18C978.779 275.516 978.265 275.973 977.836 276.552ZM1000.33 280.584V279.212H1003.07V291H1000.33V289.768C999.414 290.832 998.238 291.364 996.801 291.364C995.065 291.364 993.674 290.748 992.629 289.516C991.602 288.284 991.089 286.809 991.089 285.092C991.089 283.225 991.639 281.732 992.741 280.612C993.861 279.473 995.223 278.904 996.829 278.904C998.303 278.904 999.47 279.464 1000.33 280.584ZM997.165 281.368C996.194 281.368 995.401 281.732 994.785 282.46C994.187 283.188 993.889 284.084 993.889 285.148C993.889 286.193 994.187 287.08 994.785 287.808C995.401 288.536 996.194 288.9 997.165 288.9C998.098 288.9 998.882 288.573 999.517 287.92C1000.17 287.267 1000.5 286.352 1000.5 285.176C1000.5 283.963 1000.17 283.029 999.517 282.376C998.882 281.704 998.098 281.368 997.165 281.368ZM1006.55 279.212H1016.8V291H1014.06V281.732H1009.3V291H1006.55V279.212ZM1020.28 279.212H1023.02V285.904L1031.09 278.148V291H1028.34V284.14L1020.28 291.896V279.212ZM1043.68 279.744V282.824C1042.69 281.853 1041.58 281.368 1040.35 281.368C1039.3 281.368 1038.44 281.713 1037.74 282.404C1037.07 283.076 1036.74 283.981 1036.74 285.12C1036.74 286.296 1037.09 287.239 1037.8 287.948C1038.47 288.583 1039.3 288.9 1040.29 288.9C1041.66 288.9 1042.78 288.396 1043.68 287.388V290.44C1042.69 291.056 1041.5 291.364 1040.1 291.364C1038.21 291.364 1036.72 290.785 1035.62 289.628C1034.5 288.471 1033.94 286.996 1033.94 285.204C1033.94 283.356 1034.53 281.835 1035.73 280.64C1036.89 279.483 1038.46 278.904 1040.46 278.904C1041.6 278.904 1042.67 279.184 1043.68 279.744ZM1046.31 291V279.212H1049.05V283.384H1050.62C1051.13 283.384 1051.54 283.403 1051.85 283.44C1052.17 283.459 1052.55 283.561 1053 283.748C1053.45 283.935 1053.84 284.215 1054.18 284.588C1054.79 285.279 1055.1 286.137 1055.1 287.164C1055.1 288.34 1054.75 289.283 1054.04 289.992C1053.72 290.309 1053.34 290.552 1052.89 290.72C1052.46 290.869 1052.1 290.953 1051.8 290.972C1051.52 290.991 1051.12 291 1050.59 291H1046.31ZM1049.05 288.648H1050.31C1050.99 288.648 1051.46 288.564 1051.74 288.396C1052.15 288.097 1052.36 287.696 1052.36 287.192C1052.36 286.669 1052.16 286.277 1051.77 286.016C1051.47 285.829 1051 285.736 1050.34 285.736H1049.05V288.648ZM1064.06 279.212H1066.8V283.412L1070.72 279.212H1074.36L1069.21 284.364L1074.64 291H1071.17L1067.25 286.156L1066.8 286.604V291H1064.06V279.212ZM1091.1 281.732H1087.65V291H1084.91V281.732H1081.47V279.212H1091.1V281.732ZM1101.03 287.024L1103.32 288.312C1102.8 289.245 1102.14 289.964 1101.34 290.468C1100.42 291.065 1099.26 291.364 1097.86 291.364C1096.22 291.364 1094.9 290.86 1093.89 289.852C1092.73 288.695 1092.15 287.192 1092.15 285.344C1092.15 283.403 1092.78 281.788 1094.03 280.5C1095.09 279.436 1096.41 278.904 1097.98 278.904C1099.51 278.904 1100.77 279.417 1101.76 280.444C1102.86 281.583 1103.41 283.244 1103.41 285.428V285.764H1094.95C1095.03 286.753 1095.36 287.547 1095.96 288.144C1096.46 288.648 1097.16 288.9 1098.06 288.9C1098.79 288.9 1099.41 288.704 1099.94 288.312C1100.36 287.976 1100.73 287.547 1101.03 287.024ZM1095.15 283.524H1100.61C1100.5 282.871 1100.22 282.339 1099.77 281.928C1099.28 281.48 1098.67 281.256 1097.92 281.256C1097.14 281.256 1096.49 281.508 1095.99 282.012C1095.58 282.385 1095.3 282.889 1095.15 283.524ZM1109.02 289.628V297.412H1106.28V279.212H1109.02V280.5C1109.92 279.436 1111.08 278.904 1112.52 278.904C1114.12 278.904 1115.48 279.473 1116.58 280.612C1117.7 281.732 1118.26 283.207 1118.26 285.036C1118.26 286.921 1117.68 288.452 1116.52 289.628C1115.37 290.785 1114.04 291.364 1112.55 291.364C1111.15 291.364 1109.97 290.785 1109.02 289.628ZM1112.18 281.368C1111.25 281.368 1110.46 281.704 1109.8 282.376C1109.17 283.029 1108.85 283.963 1108.85 285.176C1108.85 286.352 1109.17 287.267 1109.8 287.92C1110.46 288.573 1111.25 288.9 1112.18 288.9C1113.15 288.9 1113.94 288.536 1114.54 287.808C1115.15 287.08 1115.46 286.193 1115.46 285.148C1115.46 284.084 1115.15 283.188 1114.54 282.46C1113.94 281.732 1113.15 281.368 1112.18 281.368ZM1129.75 280.584V279.212H1132.49V291H1129.75V289.768C1128.83 290.832 1127.66 291.364 1126.22 291.364C1124.48 291.364 1123.09 290.748 1122.05 289.516C1121.02 288.284 1120.51 286.809 1120.51 285.092C1120.51 283.225 1121.06 281.732 1122.16 280.612C1123.28 279.473 1124.64 278.904 1126.25 278.904C1127.72 278.904 1128.89 279.464 1129.75 280.584ZM1126.58 281.368C1125.61 281.368 1124.82 281.732 1124.2 282.46C1123.61 283.188 1123.31 284.084 1123.31 285.148C1123.31 286.193 1123.61 287.08 1124.2 287.808C1124.82 288.536 1125.61 288.9 1126.58 288.9C1127.52 288.9 1128.3 288.573 1128.93 287.92C1129.59 287.267 1129.91 286.352 1129.91 285.176C1129.91 283.963 1129.59 283.029 1128.93 282.376C1128.3 281.704 1127.52 281.368 1126.58 281.368ZM1135.97 279.212H1146.22V291H1143.47V281.732H1138.71V291H1135.97V279.212ZM1157.96 287.024L1160.25 288.312C1159.73 289.245 1159.07 289.964 1158.26 290.468C1157.35 291.065 1156.19 291.364 1154.79 291.364C1153.15 291.364 1151.82 290.86 1150.82 289.852C1149.66 288.695 1149.08 287.192 1149.08 285.344C1149.08 283.403 1149.71 281.788 1150.96 280.5C1152.02 279.436 1153.34 278.904 1154.9 278.904C1156.44 278.904 1157.7 279.417 1158.68 280.444C1159.79 281.583 1160.34 283.244 1160.34 285.428V285.764H1151.88C1151.96 286.753 1152.29 287.547 1152.89 288.144C1153.39 288.648 1154.09 288.9 1154.99 288.9C1155.72 288.9 1156.34 288.704 1156.86 288.312C1157.29 287.976 1157.66 287.547 1157.96 287.024ZM1152.08 283.524H1157.54C1157.42 282.871 1157.14 282.339 1156.7 281.928C1156.21 281.48 1155.6 281.256 1154.85 281.256C1154.06 281.256 1153.42 281.508 1152.92 282.012C1152.51 282.385 1152.23 282.889 1152.08 283.524ZM1163.2 279.212H1167.82C1169 279.212 1169.9 279.445 1170.51 279.912C1171.24 280.491 1171.6 281.247 1171.6 282.18C1171.6 283.244 1171.14 284.009 1170.2 284.476C1170.8 284.588 1171.33 284.849 1171.8 285.26C1172.42 285.82 1172.72 286.576 1172.72 287.528C1172.72 288.667 1172.3 289.563 1171.44 290.216C1170.73 290.739 1169.82 291 1168.72 291H1163.2V279.212ZM1165.95 283.804H1167.35C1167.83 283.804 1168.2 283.72 1168.44 283.552C1168.8 283.328 1168.97 283.011 1168.97 282.6C1168.97 282.208 1168.81 281.9 1168.5 281.676C1168.27 281.527 1167.87 281.452 1167.29 281.452H1165.95V283.804ZM1165.95 288.76H1167.99C1168.61 288.76 1169.08 288.648 1169.42 288.424C1169.79 288.181 1169.98 287.836 1169.98 287.388C1169.98 286.903 1169.8 286.557 1169.45 286.352C1169.13 286.147 1168.67 286.044 1168.08 286.044H1165.95V288.76ZM1183.71 281.732H1180.27V291H1177.52V281.732H1174.08V279.212H1183.71V281.732ZM1185.36 297.412L1189.7 289.152L1184.66 279.212H1187.96L1191.32 286.1L1194.74 279.212H1197.82L1188.44 297.412H1185.36Z" fill="white"></path> <path d="M975.407 319.83L978.179 314.181L974.168 306.285H975.89L978.977 312.522L981.812 306.285H983.492L977.087 319.83H975.407ZM991.476 306.285V315H989.964V307.671H986.856V311.598C986.856 312.732 986.632 313.572 986.184 314.118C985.68 314.734 984.98 315.042 984.084 315.042C983.972 315.042 983.818 315.028 983.622 315V313.614C983.762 313.642 983.874 313.656 983.958 313.656C984.448 313.656 984.812 313.467 985.05 313.089C985.246 312.781 985.344 312.284 985.344 311.598V306.285H991.476ZM994.567 314.895C994.357 314.685 994.252 314.44 994.252 314.16C994.252 313.88 994.357 313.635 994.567 313.425C994.777 313.215 995.022 313.11 995.302 313.11C995.582 313.11 995.827 313.215 996.037 313.425C996.247 313.635 996.352 313.88 996.352 314.16C996.352 314.44 996.247 314.685 996.037 314.895C995.827 315.105 995.582 315.21 995.302 315.21C995.022 315.21 994.777 315.105 994.567 314.895ZM1005.82 300.993H1014.35V315H1012.79V302.463H1007.38V309.981C1007.38 310.639 1007.37 311.136 1007.35 311.472C1007.34 311.794 1007.23 312.256 1007.02 312.858C1006.82 313.446 1006.52 313.922 1006.12 314.286C1005.49 314.846 1004.69 315.126 1003.72 315.126C1003.5 315.126 1003.22 315.084 1002.88 315V313.53C1003.16 313.614 1003.42 313.656 1003.66 313.656C1004.2 313.656 1004.66 313.474 1005.02 313.11C1005.28 312.858 1005.46 312.501 1005.59 312.039C1005.72 311.563 1005.79 311.164 1005.8 310.842C1005.81 310.52 1005.82 310.023 1005.82 309.351V300.993ZM1024.06 312.081L1025.32 312.774C1025.03 313.334 1024.67 313.803 1024.25 314.181C1023.45 314.895 1022.49 315.252 1021.35 315.252C1020.18 315.252 1019.16 314.874 1018.31 314.118C1017.47 313.348 1017.05 312.207 1017.05 310.695C1017.05 309.365 1017.42 308.266 1018.18 307.398C1018.95 306.516 1019.98 306.075 1021.27 306.075C1022.72 306.075 1023.82 306.607 1024.56 307.671C1025.15 308.511 1025.43 309.603 1025.38 310.947H1018.6C1018.61 311.829 1018.89 312.543 1019.42 313.089C1019.95 313.635 1020.6 313.908 1021.37 313.908C1022.06 313.908 1022.65 313.698 1023.16 313.278C1023.55 312.942 1023.85 312.543 1024.06 312.081ZM1018.71 309.687H1023.83C1023.7 309.001 1023.4 308.455 1022.93 308.049C1022.46 307.629 1021.91 307.419 1021.27 307.419C1020.64 307.419 1020.08 307.636 1019.59 308.07C1019.11 308.49 1018.82 309.029 1018.71 309.687ZM1027.7 315V306.285H1029.21V309.855H1033.33V306.285H1034.84V315H1033.33V311.241H1029.21V315H1027.7ZM1037.69 306.285H1039.2V312.039L1045.17 305.613V315H1043.65V309.183L1037.69 315.609V306.285ZM1048.03 315V306.285H1049.54V309.855H1053.65V306.285H1055.17V315H1053.65V311.241H1049.54V315H1048.03ZM1064.69 307.524V306.285H1066.2V315H1064.69V313.782C1063.93 314.762 1062.94 315.252 1061.71 315.252C1060.53 315.252 1059.53 314.846 1058.71 314.034C1057.88 313.222 1057.47 312.088 1057.47 310.632C1057.47 309.204 1057.87 308.091 1058.68 307.293C1059.51 306.481 1060.52 306.075 1061.71 306.075C1062.97 306.075 1063.96 306.558 1064.69 307.524ZM1061.88 307.419C1061.08 307.419 1060.4 307.706 1059.84 308.28C1059.29 308.84 1059.02 309.624 1059.02 310.632C1059.02 311.598 1059.27 312.389 1059.78 313.005C1060.29 313.607 1060.99 313.908 1061.88 313.908C1062.76 313.908 1063.46 313.593 1063.98 312.963C1064.51 312.333 1064.77 311.563 1064.77 310.653C1064.77 309.617 1064.48 308.819 1063.89 308.259C1063.3 307.699 1062.63 307.419 1061.88 307.419ZM1074.6 306.285H1080.73V313.614H1082.03V317.31H1080.65V315H1074.01V317.31H1072.62V313.614C1073.35 313.6 1073.89 313.222 1074.24 312.48C1074.48 311.99 1074.6 311.22 1074.6 310.17V306.285ZM1079.22 313.614V307.671H1076.11V310.947C1076.11 312.109 1075.76 312.998 1075.06 313.614H1079.22ZM1083.86 314.895C1083.65 314.685 1083.54 314.44 1083.54 314.16C1083.54 313.88 1083.65 313.635 1083.86 313.425C1084.07 313.215 1084.31 313.11 1084.59 313.11C1084.87 313.11 1085.12 313.215 1085.33 313.425C1085.54 313.635 1085.64 313.88 1085.64 314.16C1085.64 314.44 1085.54 314.685 1085.33 314.895C1085.12 315.105 1084.87 315.21 1084.59 315.21C1084.31 315.21 1084.07 315.105 1083.86 314.895ZM1097.46 315V302.463H1095.11L1095.93 300.993H1099.02V315H1097.46ZM1110.35 300.216V310.926H1112.07V312.354H1110.35V315H1108.79V312.354H1101.61L1110.35 300.216ZM1104.36 310.926H1108.79V304.731L1104.36 310.926ZM1122.28 300.216V310.926H1124V312.354H1122.28V315H1120.73V312.354H1113.55L1122.28 300.216ZM1116.3 310.926H1120.73V304.731L1116.3 310.926Z" fill="white"></path> <defs> <filter id="filter0_d" x="0" y="0" width="1541" height="518" filterUnits="userSpaceOnUse" color-interpolation-filters="sRGB"> <feFlood flood-opacity="0" result="BackgroundImageFix"></feFlood> <feColorMatrix in="SourceAlpha" type="matrix" values="0 0 0 0 0 0 0 0 0 0 0 0 0 0 0 0 0 0 127 0"></feColorMatrix> <feOffset></feOffset> <feGaussianBlur stdDeviation="16"></feGaussianBlur> <feColorMatrix type="matrix" values="0 0 0 0 0.790833 0 0 0 0 0.813583 0 0 0 0 0.866667 0 0 0 0.25 0"></feColorMatrix> <feBlend mode="normal" in2="BackgroundImageFix" result="effect1_dropShadow"></feBlend> <feBlend mode="normal" in="SourceGraphic" in2="effect1_dropShadow" result="shape"></feBlend> </filter> </defs> </svg> 